<svg width="32" height="32" viewBox="0 0 32 32" fill="none" xmlns="http://www.w3.org/2000/svg">
<g clip-path="url(#clip0_15_456)">
<path d="M22.364 0.016014C22.296 -0.059986 19.846 0.0460141 17.714 2.36001C15.582 4.67201 15.91 7.32401 15.958 7.39201C16.006 7.46001 18.998 7.56601 20.908 4.87601C22.818 2.18601 22.432 0.094014 22.364 0.016014ZM28.992 23.482C28.896 23.29 24.342 21.014 24.766 16.638C25.19 12.262 28.116 11.06 28.162 10.93C28.208 10.8 26.968 9.35001 25.654 8.61601C24.689 8.09902 23.6214 7.80256 22.528 7.74801C22.312 7.74201 21.562 7.55801 20.02 7.98001C19.004 8.25801 16.714 9.15801 16.084 9.19401C15.452 9.23001 13.572 8.15001 11.55 7.86401C10.256 7.61401 8.884 8.12601 7.902 8.52001C6.922 8.91201 5.058 10.028 3.754 12.994C2.45 15.958 3.132 20.654 3.62 22.114C4.108 23.574 4.87 25.962 6.166 27.706C7.318 29.674 8.846 31.04 9.484 31.504C10.122 31.968 11.922 32.276 13.17 31.638C14.174 31.022 15.986 30.668 16.702 30.694C17.416 30.72 18.824 31.002 20.266 31.772C21.408 32.166 22.488 32.002 23.57 31.562C24.652 31.12 26.218 29.444 28.046 26.046C28.7393 24.466 29.0547 23.6113 28.992 23.482Z" fill="black"/>
<path d="M22.364 0.016014C22.296 -0.059986 19.846 0.0460141 17.714 2.36001C15.582 4.67201 15.91 7.32401 15.958 7.39201C16.006 7.46001 18.998 7.56601 20.908 4.87601C22.818 2.18601 22.432 0.094014 22.364 0.016014ZM28.992 23.482C28.896 23.29 24.342 21.014 24.766 16.638C25.19 12.262 28.116 11.06 28.162 10.93C28.208 10.8 26.968 9.35001 25.654 8.61601C24.689 8.09902 23.6214 7.80256 22.528 7.74801C22.312 7.74201 21.562 7.55801 20.02 7.98001C19.004 8.25801 16.714 9.15801 16.084 9.19401C15.452 9.23001 13.572 8.15001 11.55 7.86401C10.256 7.61401 8.884 8.12601 7.902 8.52001C6.922 8.91201 5.058 10.028 3.754 12.994C2.45 15.958 3.132 20.654 3.62 22.114C4.108 23.574 4.87 25.962 6.166 27.706C7.318 29.674 8.846 31.04 9.484 31.504C10.122 31.968 11.922 32.276 13.17 31.638C14.174 31.022 15.986 30.668 16.702 30.694C17.416 30.72 18.824 31.002 20.266 31.772C21.408 32.166 22.488 32.002 23.57 31.562C24.652 31.12 26.218 29.444 28.046 26.046C28.7393 24.466 29.0547 23.6113 28.992 23.482Z" fill="black"/>
</g>
<defs>
<clipPath id="clip0_15_456">
<rect width="32" height="32" fill="white"/>
</clipPath>
</defs>
</svg>
