<svg width="328" height="244" viewBox="0 0 328 244" fill="none" xmlns="http://www.w3.org/2000/svg">
<path d="M327.464 214.423H0V214.587H327.464V214.423Z" fill="#EBEBEB"/>
<path d="M56.0488 220.658H34.3575V220.822H56.0488V220.658Z" fill="#EBEBEB"/>
<path d="M147.359 220.743H112.084V220.907H147.359V220.743Z" fill="#EBEBEB"/>
<path d="M81.8398 224.038H69.2717V224.201H81.8398V224.038Z" fill="#EBEBEB"/>
<path d="M292.098 223.959H279.504V224.123H292.098V223.959Z" fill="#EBEBEB"/>
<path d="M273.668 223.959H253.83V224.123H273.668V223.959Z" fill="#EBEBEB"/>
<path d="M242.906 222.879H215.033V223.042H242.906V222.879Z" fill="#EBEBEB"/>
<path d="M155.218 185.214H28.7579C27.7672 185.212 26.8177 184.817 26.1178 184.116C25.4179 183.415 25.0248 182.465 25.0248 181.474V3.70689C25.0334 2.7219 25.4303 1.78008 26.1293 1.08601C26.8283 0.391947 27.7728 0.00168735 28.7579 0H155.218C156.21 0 157.161 0.393997 157.862 1.09532C158.564 1.79663 158.958 2.74782 158.958 3.73964V181.474C158.958 182.466 158.564 183.417 157.862 184.118C157.161 184.82 156.21 185.214 155.218 185.214ZM28.7579 0.130986C27.8106 0.132721 26.9028 0.510232 26.2336 1.18066C25.5644 1.85108 25.1885 2.75964 25.1885 3.70689V181.474C25.1885 182.421 25.5644 183.33 26.2336 184C26.9028 184.671 27.8106 185.048 28.7579 185.05H155.218C156.166 185.048 157.074 184.671 157.745 184.001C158.415 183.33 158.792 182.422 158.794 181.474V3.70689C158.792 2.75903 158.415 1.85049 157.745 1.18026C157.074 0.510019 156.166 0.132717 155.218 0.130986H28.7579Z" fill="#EBEBEB"/>
<path d="M296.885 185.214H170.419C169.428 185.212 168.477 184.817 167.776 184.116C167.075 183.415 166.681 182.465 166.679 181.474V3.70689C166.69 2.7213 167.088 1.77949 167.788 1.0856C168.488 0.391718 169.433 0.00166895 170.419 0H296.885C297.869 0.00340857 298.812 0.39443 299.51 1.08831C300.207 1.78219 300.603 2.72303 300.612 3.70689V181.474C300.612 182.464 300.22 183.413 299.521 184.114C298.823 184.815 297.875 185.21 296.885 185.214ZM170.419 0.130986C169.471 0.132717 168.562 0.510019 167.892 1.18026C167.222 1.85049 166.845 2.75903 166.843 3.70689V181.474C166.845 182.422 167.222 183.33 167.892 184.001C168.562 184.671 169.471 185.048 170.419 185.05H296.885C297.833 185.048 298.742 184.671 299.412 184.001C300.082 183.33 300.46 182.422 300.461 181.474V3.70689C300.46 2.75903 300.082 1.85049 299.412 1.18026C298.742 0.510019 297.833 0.132717 296.885 0.130986H170.419Z" fill="#EBEBEB"/>
<path d="M272.345 165.52C275.764 164.361 278.24 161.06 276.078 157.661C272.476 152.068 281.482 150.876 278.953 141.517C275.384 128.3 264.329 139.755 261.578 127.069C259.613 117.841 244.079 111.796 243.476 123.945C242.821 137.253 236.141 128.562 234.661 143.351C233.632 153.581 248.192 155.067 243.83 158.263C240.653 160.601 238.78 164.669 243.208 167.432C249.239 171.224 243.548 174.185 247.648 176.831C251.748 179.476 252.416 175.259 258.782 177.315C264.473 179.149 269.3 173.523 268.167 170.006C267.125 166.764 268.907 166.686 272.345 165.52Z" fill="#E6E6E6"/>
<path d="M239.442 171.591C239.442 171.591 239.907 214.41 257.852 214.41C275.797 214.41 276.268 171.591 276.268 171.591H239.442Z" fill="#F0F0F0"/>
<path d="M124.652 22.6474H45.2031V107.644H124.652V22.6474Z" fill="#E6E6E6"/>
<path d="M128.615 22.6474H47.0565V107.644H128.615V22.6474Z" fill="#F0F0F0"/>
<path d="M124.652 107.644H45.2031V115.005H124.652V107.644Z" fill="#E6E6E6"/>
<path d="M135.21 107.644H53.6517V115.005H135.21V107.644Z" fill="#F0F0F0"/>
<path d="M123.068 102.097V28.1881L52.5972 28.1881V102.097H123.068Z" fill="#FAFAFA"/>
<path d="M62.8207 102.097L95.3641 28.1881H110.722L78.1853 102.097H62.8207Z" fill="white"/>
<path d="M55.1647 96.5757C55.0605 96.5757 54.9605 96.5343 54.8868 96.4606C54.8131 96.3869 54.7717 96.2869 54.7717 96.1827V31.7967C54.7717 31.6919 54.8129 31.5913 54.8864 31.5165C54.9599 31.4418 55.0599 31.399 55.1647 31.3972C55.2701 31.3989 55.3708 31.4415 55.4453 31.5161C55.5199 31.5907 55.5625 31.6913 55.5642 31.7967V96.1827C55.5625 96.2875 55.5196 96.3875 55.4449 96.461C55.3702 96.5345 55.2695 96.5757 55.1647 96.5757Z" fill="#F0F0F0"/>
<path d="M81.4861 102.097L114.023 28.1881H120.016L87.4721 102.097H81.4861Z" fill="white"/>
<path d="M123.068 102.097V28.1881H122.367V102.097H123.068Z" fill="#E6E6E6"/>
<path opacity="0.6" d="M129.925 36.5515H50.4754L49.9646 30.3428H129.414L129.925 36.5515Z" fill="#EBEBEB"/>
<path opacity="0.6" d="M129.925 46.7226H50.4754L49.9646 40.5204H129.414L129.925 46.7226Z" fill="#EBEBEB"/>
<path opacity="0.6" d="M129.925 56.9001H50.4754L49.9646 50.698H129.414L129.925 56.9001Z" fill="#EBEBEB"/>
<path opacity="0.6" d="M129.925 67.0777H50.4754L49.9646 60.869H129.414L129.925 67.0777Z" fill="#EBEBEB"/>
<path opacity="0.6" d="M129.925 77.2553H50.4754L49.9646 71.0466H129.414L129.925 77.2553Z" fill="#EBEBEB"/>
<path opacity="0.6" d="M129.925 87.4263H50.4754L49.9646 81.2242H129.414L129.925 87.4263Z" fill="#EBEBEB"/>
<path d="M249.659 138.327H220.324V214.423H249.659V138.327Z" fill="#E6E6E6"/>
<path d="M241.826 214.423H249.659V201.299H233.613L241.826 214.423Z" fill="#F5F5F5"/>
<path d="M174.257 138.327H144.922V214.423H174.257V138.327Z" fill="#E6E6E6"/>
<path d="M249.659 138.327H167.413V209.904H249.659V138.327Z" fill="#F5F5F5"/>
<path d="M243.581 144.975H173.49V159.973H243.581V144.975Z" fill="#F0F0F0"/>
<path d="M175.246 214.423H167.419V201.299H183.458L175.246 214.423Z" fill="#F5F5F5"/>
<path d="M243.581 166.614H173.49V181.612H243.581V166.614Z" fill="#F0F0F0"/>
<path d="M243.581 188.259H173.49V203.257H243.581V188.259Z" fill="#F0F0F0"/>
<path d="M164.046 138.327H134.712V214.423H164.046V138.327Z" fill="#E6E6E6"/>
<path d="M156.214 214.423H164.046V201.299H148.001L156.214 214.423Z" fill="#F5F5F5"/>
<path d="M88.6379 138.327H59.3037V214.423H88.6379V138.327Z" fill="#E6E6E6"/>
<path d="M164.046 138.327H81.8004V209.904H164.046V138.327Z" fill="#F5F5F5"/>
<path d="M157.969 144.975H87.8782V159.973H157.969V144.975Z" fill="#F0F0F0"/>
<path d="M89.6334 214.423H81.8004V201.299H97.8461L89.6334 214.423Z" fill="#F5F5F5"/>
<path d="M157.969 166.614H87.8782V181.612H157.969V166.614Z" fill="#F0F0F0"/>
<path d="M157.969 188.259H87.8782V203.257H157.969V188.259Z" fill="#F0F0F0"/>
<path d="M197.029 125.399C196.844 125.406 196.661 125.424 196.479 125.451V124.384C196.479 123.969 196.314 123.571 196.02 123.277C195.727 122.984 195.328 122.819 194.913 122.819H186.537C186.122 122.819 185.723 122.984 185.43 123.277C185.136 123.571 184.971 123.969 184.971 124.384V138.327H196.479V135.524C196.66 135.557 196.844 135.577 197.029 135.583C198.245 135.583 199.411 135.1 200.27 134.24C201.13 133.381 201.613 132.215 201.613 130.999V130.003C201.616 129.4 201.499 128.801 201.27 128.243C201.041 127.684 200.703 127.177 200.277 126.749C199.851 126.321 199.345 125.982 198.788 125.75C198.23 125.518 197.632 125.399 197.029 125.399ZM199.648 130.972C199.648 131.317 199.581 131.657 199.449 131.975C199.317 132.293 199.124 132.582 198.881 132.825C198.638 133.068 198.349 133.261 198.031 133.393C197.713 133.524 197.373 133.592 197.029 133.592C196.844 133.593 196.659 133.573 196.479 133.533V127.416C196.659 127.377 196.844 127.357 197.029 127.357C197.723 127.357 198.39 127.633 198.881 128.125C199.372 128.616 199.648 129.282 199.648 129.977V130.972Z" fill="#E6E6E6"/>
<path d="M276.602 96.6281V34.3445L193.302 34.3445V96.6281H276.602Z" fill="#E6E6E6"/>
<path d="M277.559 99.811V34.351L194.258 34.351V99.811H277.559Z" fill="#F0F0F0"/>
<path d="M203.8 94.3227L268.003 94.3227C270.249 94.3227 272.07 92.5018 272.07 90.2556V43.8998C272.07 41.6536 270.249 39.8327 268.003 39.8327L203.8 39.8327C201.554 39.8327 199.733 41.6536 199.733 43.8998V90.2556C199.733 92.5018 201.554 94.3227 203.8 94.3227Z" fill="#E6E6E6"/>
<path d="M203.8 93.3731L268.003 93.3731C270.249 93.3731 272.07 91.5522 272.07 89.306V43.8998C272.07 41.6536 270.249 39.8327 268.003 39.8327L203.8 39.8327C201.554 39.8327 199.733 41.6536 199.733 43.8998V89.306C199.733 91.5522 201.554 93.3731 203.8 93.3731Z" fill="white"/>
<path d="M247.707 76.286L260.661 66.9467C260.723 66.9118 260.774 66.8613 260.809 66.8004C260.844 66.7394 260.863 66.6701 260.863 66.5996C260.863 66.5291 260.844 66.4599 260.809 66.3989C260.774 66.3379 260.723 66.2874 260.661 66.2525L247.733 56.9198C241.223 52.224 230.639 52.224 224.156 56.9198L211.221 66.2525C211.16 66.2883 211.109 66.3395 211.074 66.401C211.039 66.4624 211.02 66.5321 211.02 66.6029C211.02 66.6738 211.039 66.7434 211.074 66.8048C211.109 66.8663 211.16 66.9175 211.221 66.9533L224.156 76.286C230.613 80.9818 241.197 80.9818 247.707 76.286ZM246.744 57.6337H225.073C231.046 53.298 240.765 53.298 246.744 57.6337ZM246.744 75.6114C240.765 79.9209 231.026 79.9209 225.073 75.6114H246.744Z" fill="#F0F0F0"/>
<path d="M163.732 244C233.863 244 290.716 240.681 290.716 236.586C290.716 232.492 233.863 229.172 163.732 229.172C93.6008 229.172 36.7482 232.492 36.7482 236.586C36.7482 240.681 93.6008 244 163.732 244Z" fill="#F5F5F5"/>
<path d="M117.671 49.2637C115.176 48.3533 111.05 50.305 111.862 54.1953C112.674 58.0856 103.197 53.2194 101.167 61.131C102.627 61.4508 104.002 62.0776 105.201 62.9696C106.4 63.8617 107.396 64.9986 108.122 66.3049C111.567 72.4547 138.701 73.0834 134.843 65.4797C130.986 57.876 139.166 55.9047 136.684 50.5211C134.201 45.1376 129.551 43.6706 126.205 44.9805C122.858 46.2903 115.732 44.2666 117.671 49.2637Z" fill="#263238"/>
<path d="M117.671 49.3488C117.652 49.3565 117.631 49.3565 117.612 49.3488C116.852 48.3664 116.59 47.5936 116.826 46.9845C117.239 45.8843 119.131 45.5175 121.325 45.0918C123.519 44.6661 125.858 44.2077 127.03 42.9502C127.037 42.942 127.045 42.9353 127.055 42.9308C127.064 42.9262 127.075 42.9239 127.086 42.9239C127.096 42.9239 127.107 42.9262 127.116 42.9308C127.126 42.9353 127.134 42.942 127.141 42.9502C127.149 42.9569 127.156 42.9654 127.161 42.9751C127.165 42.9847 127.168 42.9952 127.168 43.0059C127.168 43.0165 127.165 43.027 127.161 43.0366C127.156 43.0463 127.149 43.0548 127.141 43.0615C125.93 44.3714 123.5 44.8298 121.352 45.249C119.203 45.6681 117.35 46.0284 116.97 47.0435C116.761 47.5936 117.009 48.314 117.73 49.2506C117.738 49.2574 117.745 49.2659 117.749 49.2755C117.754 49.2851 117.756 49.2956 117.756 49.3063C117.756 49.3169 117.754 49.3274 117.749 49.3371C117.745 49.3467 117.738 49.3552 117.73 49.3619C117.72 49.3641 117.709 49.3641 117.699 49.3619C117.689 49.3596 117.679 49.3552 117.671 49.3488Z" fill="#263238"/>
<path d="M135.02 74.7273C136.526 74.2557 138.137 73.7318 139.683 73.1751C141.229 72.6184 142.794 72.0552 144.326 71.4395C147.369 70.2404 150.331 68.8469 153.194 67.2677C153.541 67.0843 153.967 66.8419 154.065 66.7699C154.163 66.6979 154.255 66.6193 154.353 66.5472L154.661 66.2525C155.128 65.7504 155.538 65.1992 155.886 64.6086C156.686 63.259 157.373 61.8462 157.942 60.3844C158.558 58.878 159.108 57.3193 159.606 55.7344C160.104 54.1494 160.588 52.5318 161.021 50.9468L163.706 51.3791C163.425 54.8774 162.818 58.3418 161.892 61.727C161.399 63.4962 160.741 65.2153 159.927 66.8616C159.477 67.7737 158.931 68.6344 158.296 69.4289C158.106 69.645 157.923 69.8546 157.726 70.0838C157.53 70.3131 157.301 70.4964 157.071 70.6929C156.662 71.0063 156.235 71.2971 155.794 71.564C152.81 73.4579 149.673 75.0987 146.416 76.4694C143.197 77.8656 139.892 79.0513 136.52 80.0191L135.02 74.7273Z" fill="#FFC3BD"/>
<path d="M131.385 74.8583C132.23 72.7429 144.32 71.171 144.32 71.171L146.049 81.866C146.049 81.866 135.852 85.8283 133.664 83.8308C131.477 81.8333 130.147 77.9364 131.385 74.8583Z" fill="#263238"/>
<path d="M160.661 50.2723L159.724 45.9367L164.649 48.2813C164.649 48.2813 164.852 51.7197 162.953 52.8658L162.481 52.6235C162.024 52.3891 161.624 52.0569 161.309 51.6506C160.994 51.2443 160.773 50.7737 160.661 50.2723Z" fill="#FFC3BD"/>
<path d="M160.857 42.1119L165.232 43.4283L164.649 48.2813L159.724 45.9366L160.857 42.1119Z" fill="#FFC3BD"/>
<path d="M106.098 196.511L110.689 199.347L117.848 190.401L113.918 186.831L106.098 196.511Z" fill="#FFC3BD"/>
<path d="M111.79 199.098L107.736 194.638C107.666 194.56 107.571 194.51 107.468 194.497C107.364 194.483 107.259 194.508 107.173 194.566L103.191 197.271C103.092 197.342 103.01 197.433 102.949 197.538C102.888 197.643 102.85 197.759 102.838 197.88C102.825 198.001 102.839 198.123 102.877 198.238C102.915 198.353 102.977 198.459 103.06 198.548C104.5 200.074 105.273 200.742 107.055 202.7C108.155 203.905 111.174 207.481 112.694 209.145C114.213 210.808 115.968 209.407 115.451 208.575C113.29 204.861 112.222 201.829 112.143 199.982C112.133 199.655 112.008 199.342 111.79 199.098Z" fill="#263238"/>
<g opacity="0.2">
<path d="M117.848 190.407L114.357 194.762L109.884 191.822L113.918 186.831L117.848 190.407Z" fill="black"/>
</g>
<path d="M140.057 75.1661C140.057 75.1661 142.598 76.1026 136.978 107.48L115.202 107.133C115.706 98.2719 115.857 92.8033 111.927 74.5505C114.953 73.9696 118.018 73.6128 121.096 73.4829C124.393 73.301 127.697 73.3557 130.986 73.6467C135.256 74.0986 140.057 75.1661 140.057 75.1661Z" fill="#263238"/>
<path opacity="0.2" d="M114.18 86.1099C114.423 87.577 114.619 88.9327 114.783 90.1967C115.694 88.0558 116.268 85.787 116.486 83.4706L114.18 86.1099Z" fill="black"/>
<path d="M122.288 62.3688C122.865 65.5583 123.389 71.4002 121.129 73.5026C121.129 73.5026 121.948 76.7772 127.862 76.8427C134.359 76.9475 131.018 73.6663 131.018 73.6663C127.482 72.7625 127.619 70.1297 128.274 67.6672L122.288 62.3688Z" fill="#FFC3BD"/>
<path d="M121.162 73.4895C124.455 73.3022 127.758 73.3547 131.045 73.6466L131.699 73.7187C132.466 75.2316 132.669 78.8861 130.724 82.2327C130.724 82.2327 122.065 77.2487 119.871 73.5549C120.258 73.5222 120.697 73.5026 121.162 73.4895Z" fill="#FFC3BD"/>
<path opacity="0.2" d="M124.731 64.5235L128.274 67.6475C128.113 68.2198 128.001 68.8048 127.94 69.3962C126.591 69.1801 124.751 67.6606 124.626 66.2394C124.555 65.6659 124.591 65.0842 124.731 64.5235Z" fill="black"/>
<path d="M118.948 56.8019C120.075 62.002 120.441 64.2288 123.533 66.5145C128.117 69.9529 134.287 67.4314 134.732 61.9955C135.138 57.1032 133.226 49.4209 127.763 48.1241C126.559 47.8257 125.298 47.8411 124.101 48.1689C122.905 48.4967 121.812 49.1259 120.928 49.9964C120.043 50.8669 119.397 51.9496 119.05 53.141C118.704 54.3325 118.669 55.5929 118.948 56.8019Z" fill="#FFC3BD"/>
<path d="M119.079 50.1609C121.267 50.305 123.834 51.4119 123.212 54.4049C122.589 57.3979 120.192 55.42 121.064 59.7753C121.935 64.1306 113.899 61.6091 115.11 57.614C116.322 53.619 115.726 49.9448 119.079 50.1609Z" fill="#263238"/>
<path d="M117.677 53.5142C120.874 56.4875 125.334 48.2027 129.695 51.3136C134.057 54.4245 133.985 49.0999 129.041 47.7901C124.096 46.4802 113.82 49.9317 117.677 53.5142Z" fill="#263238"/>
<path d="M136.978 107.48C136.978 107.48 139.284 138.674 138.668 155.021C138.013 172.05 116.322 193.787 116.322 193.787L110.716 189.202C110.572 189.274 126.434 161.073 125.556 152.526C123.592 134.404 121.031 107.192 121.031 107.192L136.978 107.48Z" fill="#3E4095"/>
<path opacity="0.3" d="M136.978 107.48C136.978 107.48 139.284 138.674 138.668 155.021C138.013 172.05 116.322 193.787 116.322 193.787L110.716 189.202C110.572 189.274 126.434 161.073 125.556 152.526C123.592 134.404 121.031 107.192 121.031 107.192L136.978 107.48Z" fill="white"/>
<path d="M109.262 190.283L116.499 194.756L118.457 192.778L110.526 187.486L109.262 190.283Z" fill="#263238"/>
<path opacity="0.2" d="M126.447 118.45C124.482 115.058 123.061 115.176 122 117.291C122.897 126.552 124.273 140.482 125.432 151.452C128.012 143.429 132.426 128.89 126.447 118.45Z" fill="black"/>
<path d="M72.9917 162.625L74.7142 167.701L87.1054 165.566L85.3829 160.49L72.9917 162.625Z" fill="#FFC3BD"/>
<path d="M76.6267 167.937L75.7753 161.977C75.76 161.869 75.7092 161.769 75.6309 161.693C75.5527 161.617 75.4514 161.57 75.343 161.558L70.4442 160.935C70.3277 160.918 70.2088 160.928 70.0972 160.966C69.9856 161.004 69.8846 161.068 69.8026 161.152C69.7207 161.237 69.66 161.34 69.6258 161.452C69.5916 161.565 69.5847 161.684 69.6059 161.8C69.9333 163.876 70.2019 164.878 70.5752 167.504C70.8109 169.116 71.3021 173.752 71.6165 175.979C71.9309 178.206 74.1969 178.298 74.2362 177.368C74.5506 173.196 75.3889 170.249 76.3909 168.854C76.5872 168.591 76.672 168.261 76.6267 167.937Z" fill="#263238"/>
<g opacity="0.2">
<path d="M87.1056 165.566L80.7201 166.666L78.9911 161.59L85.3766 160.49L87.1056 165.566Z" fill="black"/>
</g>
<path d="M130.986 107.408C130.986 107.408 128.006 136.618 121.05 151.622C118.044 158.119 82.8681 166.915 82.8681 166.915L79.79 160.366C79.3119 160.366 99.7522 148.721 106.55 146.2C107.293 145.921 107.952 145.457 108.464 144.852C108.977 144.247 109.326 143.52 109.478 142.742C112.897 125.497 115.038 107.172 115.038 107.172L130.986 107.408Z" fill="#3E4095"/>
<path opacity="0.3" d="M130.986 107.408C130.986 107.408 128.006 136.618 121.05 151.622C118.044 158.119 82.8681 166.915 82.8681 166.915L79.79 160.366C79.3119 160.366 99.7522 148.721 106.55 146.2C107.293 145.921 107.952 145.457 108.464 144.852C108.977 144.247 109.326 143.52 109.478 142.742C112.897 125.497 115.038 107.172 115.038 107.172L130.986 107.408Z" fill="white"/>
<path d="M79.3971 159.711L82.0627 167.786L84.9509 167.865L82.174 158.348L79.3971 159.711Z" fill="#263238"/>
<path d="M75.9717 169.941C75.9975 170.422 76.1791 170.882 76.4891 171.251C76.5751 171.334 76.6785 171.397 76.7917 171.435C76.9049 171.474 77.0252 171.487 77.144 171.473C77.2121 171.47 77.2778 171.447 77.3335 171.407C77.3891 171.368 77.4324 171.314 77.4584 171.251C77.7269 170.596 76.3254 168.493 76.1485 168.258C76.1335 168.235 76.1128 168.218 76.0887 168.206C76.0645 168.195 76.0377 168.19 76.011 168.192C75.9858 168.197 75.9628 168.21 75.9452 168.229C75.9277 168.248 75.9163 168.271 75.9128 168.297C75.8831 168.845 75.9029 169.396 75.9717 169.941ZM77.2292 170.877C77.2468 170.953 77.2468 171.031 77.2292 171.106C77.2178 171.132 77.1995 171.153 77.1762 171.168C77.153 171.183 77.1259 171.192 77.0982 171.192C77.0214 171.204 76.9429 171.197 76.869 171.173C76.7951 171.15 76.7278 171.109 76.6725 171.054C76.3319 170.74 76.1551 169.862 76.1813 168.683C76.6383 169.355 76.9854 170.096 77.2095 170.877H77.2292Z" fill="#3E4095"/>
<path d="M75.9062 168.317V168.362C76.2926 169.017 77.6352 170.229 78.2312 170.124C78.3753 170.124 78.539 170 78.5259 169.646C78.5142 169.381 78.399 169.132 78.205 168.952C77.5501 168.297 76.0699 168.192 76.011 168.186C75.9896 168.185 75.9685 168.189 75.9491 168.199C75.9298 168.208 75.9129 168.221 75.8996 168.238C75.8987 168.264 75.9009 168.291 75.9062 168.317ZM78.2836 169.548C78.2836 169.548 78.2836 169.6 78.2836 169.626C78.2836 169.856 78.1984 169.869 78.1722 169.875C77.812 169.941 76.7707 169.102 76.2795 168.461C76.9184 168.51 77.5308 168.737 78.0478 169.116C78.1674 169.225 78.2499 169.369 78.2836 169.528V169.548Z" fill="#3E4095"/>
<path d="M128.058 56.9132C128.124 57.3455 128.399 57.6533 128.68 57.614C128.962 57.5747 129.132 57.1883 129.067 56.7626C129.001 56.3369 128.72 56.0225 128.444 56.0618C128.169 56.1011 127.993 56.4875 128.058 56.9132Z" fill="#263238"/>
<path d="M132.885 56.1732C132.951 56.5989 133.232 56.9132 133.54 56.8674C133.848 56.8215 133.992 56.4417 133.926 56.016C133.861 55.5903 133.579 55.2759 133.271 55.3218C132.964 55.3676 132.82 55.7475 132.885 56.1732Z" fill="#263238"/>
<path d="M133.154 55.3611L134.136 54.9092C134.136 54.9092 133.73 55.7933 133.154 55.3611Z" fill="#263238"/>
<path d="M130.986 57.1621C131.523 58.0804 132.184 58.92 132.95 59.6574C132.757 59.8469 132.524 59.9915 132.268 60.081C132.012 60.1704 131.74 60.2024 131.47 60.1748L130.986 57.1621Z" fill="#ED893E"/>
<path d="M129.381 62.2182C129.6 62.2169 129.819 62.1993 130.036 62.1658C130.052 62.1634 130.068 62.1577 130.082 62.1492C130.097 62.1406 130.109 62.1292 130.119 62.1158C130.128 62.1024 130.135 62.0871 130.139 62.071C130.143 62.0548 130.143 62.0381 130.141 62.0217C130.138 62.0053 130.133 61.9895 130.124 61.9753C130.116 61.961 130.104 61.9487 130.091 61.9389C130.077 61.9292 130.062 61.9222 130.046 61.9184C130.03 61.9146 130.013 61.9141 129.997 61.9169C129.466 62.0095 128.922 61.9766 128.407 61.8208C127.891 61.665 127.42 61.3906 127.03 61.0196C127.019 61.0072 127.006 60.9969 126.991 60.9895C126.977 60.9821 126.961 60.9777 126.944 60.9765C126.928 60.9753 126.911 60.9773 126.896 60.9825C126.88 60.9876 126.865 60.9958 126.853 61.0065C126.84 61.0173 126.83 61.0304 126.823 61.0451C126.815 61.0598 126.811 61.0758 126.81 61.0923C126.809 61.1087 126.811 61.1252 126.816 61.1408C126.821 61.1564 126.829 61.1709 126.84 61.1834C127.173 61.5164 127.57 61.7795 128.006 61.9572C128.442 62.1349 128.91 62.2237 129.381 62.2182Z" fill="#263238"/>
<path d="M118.267 61.8318C118.77 62.7299 119.608 63.3918 120.599 63.6721C121.908 64.0323 122.563 62.8534 122.19 61.6156C121.856 60.5023 120.769 58.9959 119.452 59.1596C119.166 59.2053 118.895 59.322 118.664 59.4991C118.434 59.6762 118.252 59.9081 118.134 60.1737C118.016 60.4392 117.966 60.73 117.99 61.0196C118.013 61.3092 118.108 61.5884 118.267 61.8318Z" fill="#FFC3BD"/>
<path d="M125.445 56.219C125.498 56.2184 125.549 56.2018 125.593 56.1714C125.636 56.141 125.669 56.0983 125.687 56.0487C126.048 54.9288 127.495 54.4704 127.508 54.4704C127.572 54.4494 127.625 54.4038 127.656 54.3437C127.687 54.2835 127.692 54.2137 127.672 54.1494C127.663 54.1174 127.647 54.0875 127.627 54.0617C127.606 54.0359 127.58 54.0146 127.55 53.9992C127.521 53.9839 127.488 53.9748 127.455 53.9724C127.422 53.9701 127.389 53.9746 127.357 53.9857C127.285 53.9857 125.648 54.5228 125.203 55.885C125.191 55.9168 125.187 55.9505 125.189 55.9841C125.191 56.0177 125.2 56.0505 125.216 56.0805C125.231 56.1105 125.252 56.1371 125.278 56.1587C125.304 56.1802 125.334 56.1963 125.366 56.2059C125.391 56.2167 125.418 56.2212 125.445 56.219Z" fill="#263238"/>
<path d="M133.474 53.7041C133.529 53.703 133.583 53.6842 133.626 53.6505C133.669 53.6168 133.701 53.57 133.715 53.5171C133.73 53.4641 133.727 53.4078 133.708 53.3566C133.688 53.3053 133.652 53.2618 133.605 53.2325C133.264 53.0181 132.875 52.8884 132.473 52.8542C132.071 52.8201 131.667 52.8824 131.294 53.0361C131.237 53.0682 131.195 53.1205 131.176 53.1824C131.157 53.2443 131.162 53.3111 131.191 53.3693C131.219 53.4276 131.268 53.4729 131.329 53.4961C131.389 53.5194 131.456 53.5188 131.516 53.4945C131.812 53.3759 132.133 53.3294 132.45 53.359C132.768 53.3886 133.074 53.4935 133.343 53.6648C133.382 53.6906 133.428 53.7042 133.474 53.7041Z" fill="#263238"/>
<path d="M114.266 81.7874C113.303 82.8222 112.301 83.9487 111.318 85.0621C110.336 86.1754 109.354 87.3019 108.463 88.4611C106.634 90.7158 104.983 93.1091 103.525 95.6195L103.269 96.0779C103.236 96.1412 103.199 96.2025 103.158 96.2613C103.087 96.4444 103.041 96.636 103.02 96.8311C102.95 97.4464 102.937 98.0669 102.981 98.6846C103.08 100.113 103.264 101.535 103.531 102.942C103.774 104.396 104.075 105.863 104.422 107.323C104.769 108.784 105.077 110.27 105.457 111.718L102.909 112.648C101.556 109.82 100.409 106.898 99.4773 103.904C98.9898 102.349 98.6177 100.76 98.3639 99.1496C98.2237 98.2485 98.1667 97.3365 98.1936 96.4251C98.2213 95.8575 98.3136 95.295 98.4687 94.7484C98.517 94.5789 98.576 94.4127 98.6455 94.2507C98.7306 94.0411 98.7634 93.9691 98.8092 93.8774L99.0778 93.3207C99.7752 91.8519 100.567 90.4299 101.449 89.0637C102.293 87.6949 103.23 86.444 104.173 85.1341C106.07 82.5965 108.135 80.1896 110.356 77.9299L114.266 81.7874Z" fill="#FFC3BD"/>
<path d="M111.934 74.5505C109.7 75.0024 105.483 82.0363 105.483 82.0363L112.687 88.9589C112.687 88.9589 117.966 84.5316 117.874 81.5713C117.776 78.48 114.481 74.0069 111.934 74.5505Z" fill="#263238"/>
<path d="M112.451 201.187C112.726 201.558 113.122 201.82 113.571 201.927C113.685 201.94 113.8 201.924 113.906 201.882C114.012 201.84 114.106 201.772 114.18 201.685C114.229 201.635 114.264 201.573 114.283 201.505C114.301 201.438 114.302 201.367 114.285 201.299C114.108 200.565 111.862 199.72 111.606 199.629C111.582 199.618 111.556 199.616 111.53 199.623C111.505 199.63 111.483 199.646 111.469 199.668C111.453 199.689 111.444 199.714 111.444 199.74C111.444 199.766 111.453 199.791 111.469 199.812C111.75 200.302 112.079 200.763 112.451 201.187ZM113.912 201.148C113.971 201.206 114.013 201.278 114.036 201.358C114.043 201.385 114.043 201.413 114.034 201.439C114.026 201.466 114.011 201.49 113.99 201.508C113.944 201.568 113.883 201.616 113.813 201.645C113.743 201.675 113.666 201.687 113.591 201.679C113.159 201.633 112.53 201.024 111.875 200.002C112.613 200.267 113.302 200.654 113.912 201.148Z" fill="#3E4095"/>
<path d="M111.469 199.832C111.481 199.846 111.497 199.857 111.515 199.864C112.17 200.139 113.866 200.297 114.246 199.819C114.311 199.73 114.342 199.62 114.332 199.511C114.323 199.401 114.273 199.298 114.193 199.223C114.116 199.119 114.017 199.032 113.905 198.968C113.792 198.903 113.667 198.863 113.538 198.849C112.674 198.731 111.521 199.609 111.475 199.648C111.457 199.66 111.442 199.676 111.432 199.696C111.423 199.716 111.42 199.738 111.423 199.76C111.434 199.786 111.449 199.811 111.469 199.832ZM113.938 199.314L113.984 199.373C114.128 199.563 114.069 199.635 114.049 199.655C113.82 199.95 112.569 199.923 111.836 199.707C112.32 199.335 112.908 199.123 113.519 199.098C113.686 199.115 113.842 199.192 113.958 199.314H113.938Z" fill="#3E4095"/>
<path d="M128.32 56.1077L129.302 55.6558C129.302 55.6558 128.903 56.5334 128.32 56.1077Z" fill="#263238"/>
<path d="M114.894 105.849L114.305 107.814C114.226 107.965 114.403 108.122 114.658 108.129L137.07 108.489C137.266 108.489 137.43 108.397 137.443 108.273L137.672 106.308C137.672 106.17 137.515 106.052 137.299 106.052L115.267 105.692C115.197 105.681 115.124 105.69 115.058 105.718C114.993 105.746 114.936 105.791 114.894 105.849Z" fill="#FAFAFA"/>
<path d="M117.815 108.364H117.226C117.108 108.364 117.023 108.299 117.029 108.227L117.35 105.699C117.35 105.627 117.462 105.568 117.579 105.568H118.169C118.287 105.568 118.372 105.633 118.365 105.712L118.044 108.24C118.038 108.305 117.933 108.364 117.815 108.364Z" fill="#3E4095"/>
<g opacity="0.3">
<path d="M117.815 108.364H117.226C117.108 108.364 117.023 108.299 117.029 108.227L117.35 105.699C117.35 105.627 117.462 105.568 117.579 105.568H118.169C118.287 105.568 118.372 105.633 118.365 105.712L118.044 108.24C118.038 108.305 117.933 108.364 117.815 108.364Z" fill="white"/>
</g>
<path d="M135.406 108.646H134.81C134.693 108.646 134.607 108.587 134.614 108.508L134.935 105.98C134.935 105.908 135.046 105.849 135.164 105.849H135.754C135.871 105.849 135.963 105.915 135.95 105.987L135.636 108.515C135.623 108.587 135.524 108.646 135.406 108.646Z" fill="#3E4095"/>
<path opacity="0.3" d="M135.406 108.646H134.81C134.693 108.646 134.607 108.587 134.614 108.508L134.935 105.98C134.935 105.908 135.046 105.849 135.164 105.849H135.754C135.871 105.849 135.963 105.915 135.95 105.987L135.636 108.515C135.623 108.587 135.524 108.646 135.406 108.646Z" fill="white"/>
<path d="M126.611 108.502H126.021C125.904 108.502 125.812 108.436 125.825 108.364L126.139 105.836C126.156 105.791 126.188 105.753 126.23 105.729C126.272 105.705 126.321 105.696 126.369 105.705H126.965C127.082 105.705 127.168 105.771 127.161 105.843L126.84 108.371C126.834 108.443 126.729 108.502 126.611 108.502Z" fill="#3E4095"/>
<path opacity="0.3" d="M126.611 108.502H126.021C125.904 108.502 125.812 108.436 125.825 108.364L126.139 105.836C126.156 105.791 126.188 105.753 126.23 105.729C126.272 105.705 126.321 105.696 126.369 105.705H126.965C127.082 105.705 127.168 105.771 127.161 105.843L126.84 108.371C126.834 108.443 126.729 108.502 126.611 108.502Z" fill="white"/>
<path d="M105.522 111.338L108.797 116.125L103.374 115.569C103.374 115.569 102.064 112.392 103.426 110.657L105.522 111.338Z" fill="#FFC3BD"/>
<path d="M108.482 120.618L103.97 119.904L103.361 115.556L108.784 116.119L108.482 120.618Z" fill="#FFC3BD"/>
<path d="M203.558 67.4576L202.779 67.8309L202.058 68.1518C201.58 68.3549 201.102 68.5448 200.617 68.7282C199.655 69.0949 198.685 69.4289 197.696 69.7302C195.696 70.3393 193.647 70.7775 191.573 71.0401C189.409 71.3056 187.22 71.3056 185.056 71.0401C183.919 70.9044 182.796 70.6632 181.703 70.3196C181.428 70.2476 181.146 70.1363 180.871 70.0446L180.459 69.8939L179.987 69.6909C179.677 69.5623 179.375 69.4135 179.083 69.2456C178.795 69.0884 178.514 68.9312 178.265 68.7609C177.298 68.1249 176.4 67.3896 175.586 66.5669C174.831 65.8217 174.118 65.0346 173.451 64.2092C172.199 62.6272 171.052 60.9645 170.019 59.2317C168.005 55.8754 166.293 52.3468 164.904 48.6874L168.271 47.05C169.259 48.5695 170.281 50.161 171.355 51.6345C172.429 53.1081 173.497 54.6341 174.63 56.0553C175.716 57.4589 176.882 58.7993 178.121 60.07C179.186 61.2232 180.412 62.2159 181.762 63.0172C183.018 63.5939 184.381 63.9018 185.764 63.921C187.368 63.9948 188.976 63.8916 190.558 63.6132C192.229 63.3278 193.879 62.9274 195.496 62.4147C196.315 62.1658 197.133 61.8907 197.945 61.5894C198.345 61.4388 198.744 61.2751 199.137 61.1179L199.72 60.8756L200.231 60.6595L203.558 67.4576Z" fill="#FFBE9D"/>
<path d="M168.552 48.8315L168.225 43.7754L163.778 48.4188C163.778 48.4188 164.931 51.9358 167.295 52.3484L167.668 51.9227C168.036 51.5056 168.306 51.0117 168.459 50.477C168.612 49.9422 168.644 49.38 168.552 48.8315Z" fill="#FFBE9D"/>
<path d="M165.127 40.7562L161.276 43.8082L163.771 48.4188L168.225 43.7754L165.127 40.7562Z" fill="#FFBE9D"/>
<path d="M231.045 60.2534C232.25 61.668 233.259 63.0303 234.32 64.4646C235.381 65.8989 236.324 67.3528 237.261 68.8526C239.195 71.9058 240.821 75.144 242.114 78.5193L242.566 79.8685L242.677 80.2025L242.729 80.3728L242.801 80.6282C242.899 80.9825 242.969 81.3438 243.011 81.7088C243.137 82.8785 243.079 84.0607 242.841 85.2127C242.449 87.0851 241.844 88.9066 241.04 90.6421C239.564 93.867 237.748 96.9254 235.623 99.7652L232.349 97.8921C232.932 96.3792 233.534 94.8074 234.071 93.2618C234.608 91.7161 235.126 90.1705 235.545 88.6773C235.962 87.2552 236.245 85.797 236.39 84.322C236.441 83.8055 236.412 83.2841 236.304 82.7764C236.298 82.7179 236.278 82.6618 236.246 82.6126V82.5668L236.193 82.4358L236.082 82.1804L235.65 81.1456C234.291 78.2926 232.71 75.5509 230.921 72.9459C230.03 71.6361 229.087 70.2803 228.137 68.9574C227.188 67.6344 226.173 66.3377 225.23 65.1064L231.045 60.2534Z" fill="#FFBE9D"/>
<path d="M231.844 98.1279L229.094 102.385L235.433 101.304C235.433 101.304 236.599 97.7939 234.949 96.0648L234.392 96.1827C233.85 96.2974 233.339 96.5315 232.899 96.868C232.458 97.2044 232.098 97.6348 231.844 98.1279Z" fill="#FFBE9D"/>
<path d="M229.795 106.662L234.707 106.504L235.447 101.304L229.107 102.385L229.795 106.662Z" fill="#FFBE9D"/>
<path d="M207.069 39.6559C207.036 40.062 206.807 40.3763 206.538 40.3698C206.27 40.3632 206.086 40.0292 206.112 39.6297C206.139 39.2302 206.381 38.9093 206.643 38.9158C206.905 38.9224 207.095 39.2564 207.069 39.6559Z" fill="#263238"/>
<path d="M206.839 40.3829C206.273 41.5973 205.549 42.7314 204.685 43.7558C204.95 43.9613 205.257 44.1055 205.584 44.178C205.911 44.2504 206.251 44.2494 206.577 44.1749L206.839 40.3829Z" fill="#CD904E"/>
<path d="M206.721 37.0755C206.766 37.0915 206.814 37.0915 206.859 37.0755C207.143 36.9985 207.442 36.9904 207.73 37.0519C208.018 37.1134 208.288 37.2428 208.516 37.4292C208.565 37.4572 208.622 37.4666 208.678 37.4558C208.733 37.4449 208.783 37.4145 208.818 37.37C208.853 37.3256 208.871 37.2701 208.868 37.2136C208.866 37.1571 208.843 37.1035 208.804 37.0624C208.516 36.8263 208.174 36.6637 207.809 36.5884C207.444 36.5131 207.066 36.5274 206.708 36.6302C206.649 36.651 206.6 36.6941 206.572 36.7503C206.544 36.8065 206.539 36.8715 206.558 36.9314C206.572 36.9663 206.594 36.9974 206.623 37.0224C206.651 37.0473 206.685 37.0655 206.721 37.0755Z" fill="#263238"/>
<path d="M218.281 44.9805C218.432 49.0869 217.253 54.1495 219.872 56.4024C219.872 56.4024 218.988 60.1683 212.223 60.6333C204.783 61.1441 208.555 57.1752 208.555 57.1752C212.59 55.9243 212.393 52.9117 211.601 50.1217L218.281 44.9805Z" fill="#FFBE9D"/>
<path d="M221.7 57.5486C222.197 56.3369 222.669 54.5031 221.444 54.1626C220.095 53.7958 213.31 53.0885 208.346 55.0533C208.651 55.6028 208.837 56.2107 208.892 56.8371C208.946 57.4635 208.867 58.0943 208.66 58.6881L221.7 57.5486Z" fill="#263238"/>
<path d="M251.597 208.038C251.525 208.039 251.454 208.025 251.388 207.999C251.296 207.955 251.22 207.883 251.172 207.794C251.124 207.704 251.105 207.602 251.119 207.501C251.119 207.418 251.136 207.336 251.17 207.26C251.204 207.185 251.253 207.117 251.316 207.062C251.872 206.551 253.49 206.682 253.562 206.689C253.585 206.691 253.606 206.699 253.625 206.713C253.643 206.727 253.656 206.745 253.664 206.767C253.672 206.788 253.673 206.812 253.667 206.834C253.662 206.856 253.651 206.876 253.634 206.892C253.293 207.219 252.232 208.038 251.597 208.038ZM253.045 206.905C252.501 206.858 251.956 206.974 251.479 207.239C251.44 207.27 251.408 207.31 251.386 207.355C251.365 207.401 251.354 207.451 251.355 207.501C251.355 207.73 251.453 207.769 251.479 207.782C251.8 207.913 252.678 207.403 253.261 206.911L253.045 206.905Z" fill="#3E4095"/>
<path d="M253.523 206.957C252.94 206.957 251.61 206.512 251.427 205.988C251.394 205.902 251.394 205.807 251.425 205.721C251.456 205.634 251.517 205.562 251.597 205.516C251.668 205.459 251.75 205.418 251.838 205.396C251.927 205.375 252.019 205.373 252.108 205.392C252.828 205.523 253.614 206.702 253.647 206.78C253.658 206.798 253.664 206.819 253.664 206.839C253.664 206.86 253.658 206.881 253.647 206.898C253.637 206.915 253.622 206.929 253.605 206.94C253.588 206.95 253.569 206.956 253.549 206.957H253.523ZM251.983 205.647C251.896 205.646 251.811 205.674 251.741 205.726C251.61 205.831 251.636 205.903 251.649 205.936C251.761 206.25 252.697 206.656 253.313 206.735C253.064 206.394 252.527 205.733 252.069 205.654L251.983 205.647Z" fill="#3E4095"/>
<path d="M219.761 224.084C219.607 224.093 219.453 224.054 219.322 223.972C219.25 223.913 219.198 223.832 219.173 223.742C219.149 223.652 219.153 223.556 219.185 223.468C219.414 222.472 221.916 222.97 222.197 223.029C222.22 223.035 222.241 223.047 222.258 223.065C222.274 223.082 222.285 223.104 222.289 223.127C222.294 223.152 222.29 223.177 222.28 223.199C222.269 223.221 222.252 223.24 222.23 223.252C221.47 223.69 220.631 223.973 219.761 224.084ZM220.599 223.095C220.01 223.095 219.492 223.193 219.414 223.52C219.368 223.71 219.414 223.763 219.466 223.782C219.768 224.005 220.973 223.625 221.818 223.199C221.415 223.135 221.007 223.1 220.599 223.095Z" fill="#3E4095"/>
<path d="M222.171 223.265C221.516 223.193 220.115 222.551 220.023 221.955C220.023 221.818 220.023 221.628 220.337 221.49C220.441 221.446 220.552 221.424 220.665 221.424C220.777 221.424 220.889 221.446 220.992 221.49C221.739 221.791 222.243 223.036 222.263 223.088C222.271 223.107 222.275 223.127 222.275 223.147C222.275 223.167 222.271 223.188 222.263 223.206C222.252 223.222 222.239 223.235 222.223 223.245C222.207 223.255 222.19 223.262 222.171 223.265ZM220.711 221.667C220.622 221.668 220.535 221.688 220.455 221.726C220.252 221.818 220.272 221.909 220.272 221.942C220.331 222.289 221.326 222.839 222.007 222.99C221.797 222.467 221.428 222.023 220.953 221.719C220.876 221.687 220.794 221.669 220.711 221.667Z" fill="#3E4095"/>
<path d="M227.378 221.412L222.643 222.99L218.942 212.046L223.671 210.474L227.378 221.412Z" fill="#FFBE9D"/>
<path d="M258.474 203.912L254.177 206.44L246.534 197.533L250.837 195.005L258.474 203.912Z" fill="#FFBE9D"/>
<path d="M253.595 206.112L258.421 203.263C258.506 203.215 258.605 203.196 258.702 203.212C258.798 203.227 258.887 203.276 258.952 203.349L261.906 206.761C261.976 206.847 262.026 206.947 262.053 207.054C262.081 207.161 262.085 207.273 262.065 207.382C262.045 207.491 262.002 207.594 261.938 207.685C261.874 207.776 261.792 207.851 261.696 207.907C259.993 208.876 259.122 209.256 256.994 210.527C255.684 211.293 253.064 213.015 251.27 214.083C249.475 215.15 248.25 213.428 248.899 212.858C251.813 210.166 252.507 208.411 253.044 206.813C253.137 206.521 253.332 206.271 253.595 206.112Z" fill="#263238"/>
<path d="M222.512 222.427L227.679 220.698C227.772 220.667 227.873 220.67 227.963 220.706C228.054 220.742 228.13 220.809 228.177 220.894L230.351 224.824C230.405 224.921 230.436 225.029 230.443 225.139C230.45 225.25 230.432 225.361 230.39 225.463C230.349 225.566 230.285 225.659 230.204 225.734C230.122 225.809 230.025 225.865 229.919 225.898C228.046 226.494 225.334 227.28 222.983 228.059C220.239 228.976 217.908 230.712 214.554 231.203C212.531 231.497 211.745 229.526 212.59 229.238C216.362 227.823 218.883 226.251 221.503 223.186C221.763 222.845 222.112 222.582 222.512 222.427Z" fill="#263238"/>
<path d="M228.511 56.7954C233.265 56.9525 240.509 68.5186 240.509 68.5186L232.296 76.6921C229.478 73.8265 226.896 70.7383 224.575 67.4576C220.946 62.2182 223.651 56.6382 228.511 56.7954Z" fill="#3E4095"/>
<path opacity="0.2" d="M228.845 68.5317L226.376 63.0761L225.295 68.5055C226.729 70.4703 228.236 72.2779 229.48 73.6925C229.79 71.9474 229.568 70.1496 228.845 68.5317Z" fill="black"/>
<path d="M199.923 81.2111C200.336 86.7649 201.148 93.6547 202.543 102.169L229.159 100.348C229.218 96.2417 226.061 76.4301 229.421 56.8609C226.456 56.4912 223.469 56.3184 220.481 56.3435C216.699 56.3807 212.923 56.6387 209.171 57.1163C206.587 57.5549 204.04 58.1921 201.554 59.0221C201.554 59.0221 199.445 61.6418 199.55 73.2537C199.589 75.5591 199.694 78.1919 199.923 81.2111Z" fill="#3E4095"/>
<path opacity="0.2" d="M199.923 81.2111C201.331 78.1657 203.853 72.0421 203.198 68.7347L199.557 73.2537C199.589 75.5591 199.694 78.1919 199.923 81.2111Z" fill="black"/>
<path d="M206.846 67.1432C205.353 71.6491 195.823 75.9717 195.823 75.9717L187.964 63.528C191.886 61.5894 196.026 60.1294 200.297 59.1793C207.186 57.8564 208.529 62.0675 206.846 67.1432Z" fill="#3E4095"/>
<path opacity="0.2" d="M218.942 212.053L220.848 217.692L225.583 216.113L223.678 210.474L218.942 212.053Z" fill="black"/>
<path opacity="0.2" d="M250.837 195.005L246.541 197.539L250.477 202.124L254.773 199.596L250.837 195.005Z" fill="black"/>
<path d="M220.534 39.2106C219.879 44.1356 219.768 47.037 217.102 49.4929C216.249 50.3036 215.19 50.8649 214.04 51.1159C212.89 51.3669 211.694 51.2979 210.58 50.9164C209.467 50.535 208.48 49.8556 207.725 48.9523C206.971 48.0489 206.479 46.9561 206.302 45.7926C205.542 41.326 206.721 34.0039 211.692 32.2094C212.755 31.7834 213.911 31.6457 215.044 31.8103C216.176 31.9748 217.246 32.4357 218.143 33.1463C219.04 33.8569 219.734 34.792 220.154 35.8569C220.574 36.9218 220.705 38.0787 220.534 39.2106Z" fill="#FFBE9D"/>
<path d="M212.583 49.1196C213.893 50.6259 218.327 49.9841 219.257 49.2113C220.187 48.4385 228.852 43.3169 226.834 38.9551C224.817 34.5933 213.376 32.0522 211.941 35.8704C210.507 39.6886 211.227 47.5478 212.583 49.1196Z" fill="#263238"/>
<path d="M224.542 37.6649C224.542 37.6649 228.125 37.9924 228.93 41.0968C227.817 39.9506 226.088 38.2871 224.542 37.6649Z" fill="#263238"/>
<path d="M214.037 37.1082C208.889 36.7546 198.633 29.1574 206.289 25.3195C213.945 21.4816 213.762 28.8365 216.847 30.7096C219.931 32.5827 221.431 28.8823 225.079 30.3101C228.563 31.6723 230.142 39.5315 224.293 38.7848C218.445 38.0382 214.037 37.1082 214.037 37.1082Z" fill="#263238"/>
<path d="M214.757 36.08C211.129 36.08 205.497 33.3228 203.938 29.9826C203.589 29.311 203.459 28.5471 203.566 27.7978C203.673 27.0486 204.011 26.3515 204.534 25.8042C205.778 24.383 206.977 23.6626 208.202 23.6102C210.068 23.5185 211.594 24.9593 213.074 26.3543C214.384 27.6118 215.694 28.7972 216.912 28.5221C216.933 28.5173 216.955 28.5167 216.976 28.5204C216.998 28.524 217.018 28.5318 217.036 28.5434C217.055 28.555 217.07 28.5701 217.083 28.5878C217.095 28.6055 217.104 28.6255 217.109 28.6466C217.113 28.6676 217.114 28.6895 217.11 28.7108C217.107 28.7321 217.099 28.7525 217.087 28.7707C217.076 28.789 217.061 28.8048 217.043 28.8172C217.025 28.8296 217.005 28.8384 216.984 28.843C215.556 29.1574 214.24 27.9131 212.845 26.5966C211.45 25.2802 209.95 23.8459 208.215 23.9311C207.088 23.99 205.962 24.6712 204.776 26.0203C204.292 26.5178 203.978 27.1565 203.88 27.844C203.783 28.5315 203.906 29.2323 204.233 29.8451C205.772 33.1197 211.371 35.8377 214.921 35.7394C214.965 35.7394 215.006 35.7567 215.037 35.7874C215.068 35.8181 215.085 35.8597 215.085 35.9032C215.085 35.9455 215.069 35.9862 215.039 36.0167C215.01 36.0472 214.97 36.0652 214.928 36.0669L214.757 36.08Z" fill="#263238"/>
<path d="M213.775 40.4418C213.409 41.6372 212.673 42.6853 211.673 43.4349C210.363 44.4172 209.407 43.4807 209.538 42.0071C209.656 40.6973 210.494 38.5884 211.935 38.1823C213.376 37.7763 214.161 39.0075 213.775 40.4418Z" fill="#FFBE9D"/>
<path d="M212 101.514C212 101.514 218.785 139.257 222.309 153.325C226.173 168.736 247.929 202.268 247.929 202.268L255.789 197.631C255.789 197.631 239.671 169.076 237.274 153.751C234.654 137.083 229.172 100.368 229.172 100.368L212 101.514Z" fill="#263238"/>
<path d="M245.074 200.067C245.041 200.067 247.55 202.687 247.55 202.687L256.404 197.448L254.767 194.795L245.074 200.067Z" fill="#3E4095"/>
<path opacity="0.2" d="M215.976 114.874C222.525 115.713 222.577 140.174 222.171 152.782C220.023 144.038 216.755 127.148 214.515 115.149C214.958 114.897 215.472 114.8 215.976 114.874Z" fill="black"/>
<path d="M202.563 102.169C202.563 102.169 202.988 139.5 203.984 154.694C204.993 170.491 218.746 217.174 218.746 217.174L226.762 214.495C226.762 214.495 219.277 170.438 219.185 154.897C219.093 137.928 220.036 101.01 220.036 101.01L202.563 102.169Z" fill="#263238"/>
<path d="M216.283 214.456C216.244 214.456 217.718 217.672 217.718 217.672L227.463 214.397L227.378 210.514L216.283 214.456Z" fill="#3E4095"/>
<path d="M154.111 37.5505L153.617 37.981L155.908 40.6066L156.401 40.1761L154.111 37.5505Z" fill="#3E4095"/>
<path d="M157.064 28.9516L156.449 29.1762L159.81 38.3862L160.426 38.1617L157.064 28.9516Z" fill="#3E4095"/>
<path d="M164.217 31.9901L163.868 37.6903L164.521 37.7304L164.871 32.0302L164.217 31.9901Z" fill="#3E4095"/>
<path d="M170.768 31.5505L167.406 38.3707L167.994 38.6602L171.356 31.8401L170.768 31.5505Z" fill="#3E4095"/>
<path d="M172.622 38.7568L170.656 39.5717L170.906 40.1767L172.873 39.3618L172.622 38.7568Z" fill="#3E4095"/>
</svg>
