<svg width="324" height="242" viewBox="0 0 324 242" fill="none" xmlns="http://www.w3.org/2000/svg">
<path d="M323.581 211.881H0V212.042H323.581V211.881Z" fill="#EBEBEB"/>
<path d="M280.732 218.767H259.298V218.928H280.732V218.767Z" fill="#EBEBEB"/>
<path d="M202.607 218.689H196.983V218.851H202.607V218.689Z" fill="#EBEBEB"/>
<path d="M291.158 222.294H278.739V222.455H291.158V222.294Z" fill="#EBEBEB"/>
<path d="M74.1647 224.442H46.2138V224.604H74.1647V224.442Z" fill="#EBEBEB"/>
<path d="M71.7638 217.375H67.6672V217.537H71.7638V217.375Z" fill="#EBEBEB"/>
<path d="M160.787 218.068H121.375V218.229H160.787V218.068Z" fill="#EBEBEB"/>
<path d="M153.377 183.017H28.4168C27.4379 183.016 26.4996 182.626 25.808 181.933C25.1164 181.24 24.728 180.301 24.728 179.322V3.66292C24.7365 2.6896 25.1287 1.75896 25.8194 1.07312C26.5101 0.387284 27.4435 0.00165208 28.4168 -1.52588e-05H153.377C154.357 -1.52588e-05 155.297 0.389309 155.99 1.08231C156.683 1.77531 157.073 2.71522 157.073 3.69528V179.322C157.073 180.302 156.683 181.242 155.99 181.935C155.297 182.628 154.357 183.017 153.377 183.017ZM28.4168 0.129418C27.4808 0.131132 26.5837 0.504166 25.9224 1.16664C25.2612 1.82911 24.8898 2.7269 24.8898 3.66292V179.322C24.8898 180.258 25.2612 181.156 25.9224 181.818C26.5837 182.481 27.4808 182.854 28.4168 182.855H153.377C154.314 182.854 155.212 182.481 155.874 181.819C156.536 181.156 156.909 180.259 156.911 179.322V3.66292C156.909 2.7263 156.536 1.82854 155.874 1.16625C155.212 0.503956 154.314 0.131128 153.377 0.129418H28.4168Z" fill="#EBEBEB"/>
<path d="M293.365 183.017H168.398C167.418 183.016 166.479 182.626 165.787 181.933C165.094 181.24 164.704 180.302 164.703 179.322V3.66292C164.713 2.68901 165.106 1.75837 165.798 1.07272C166.49 0.387058 167.424 0.0016339 168.398 -1.52588e-05H293.365C294.337 0.00335289 295.269 0.389737 295.958 1.07539C296.647 1.76105 297.039 2.69072 297.047 3.66292V179.322C297.047 180.3 296.66 181.238 295.969 181.93C295.279 182.623 294.343 183.014 293.365 183.017ZM168.398 0.129418C167.461 0.131128 166.564 0.503956 165.901 1.16625C165.239 1.82854 164.866 2.7263 164.864 3.66292V179.322C164.866 180.259 165.239 181.156 165.901 181.819C166.564 182.481 167.461 182.854 168.398 182.855H293.365C294.301 182.854 295.199 182.481 295.862 181.819C296.524 181.156 296.897 180.259 296.898 179.322V3.66292C296.897 2.7263 296.524 1.82854 295.862 1.16625C295.199 0.503956 294.301 0.131128 293.365 0.129418H168.398Z" fill="#EBEBEB"/>
<path d="M277.561 26.7472H46.0197V123.103H277.561V26.7472Z" fill="#F0F0F0"/>
<path d="M273.031 118.579V31.2838L50.5498 31.2838V118.579L273.031 118.579Z" fill="#FAFAFA"/>
<path d="M79.8403 118.573L102.659 31.2773H119.485L96.6665 118.573H79.8403Z" fill="#F9F9F9"/>
<path d="M100.55 118.573L123.368 31.2773H130.895L108.076 118.573H100.55Z" fill="#F9F9F9"/>
<path d="M137.373 118.573L160.198 31.2773H177.025L154.199 118.573H137.373Z" fill="#F9F9F9"/>
<path d="M179.801 118.573L202.62 31.2773H210.153L187.327 118.573H179.801Z" fill="#F9F9F9"/>
<path d="M110.153 118.579V31.2838H109.001V118.579H110.153Z" fill="#E0E0E0"/>
<path d="M51.7018 118.579L51.7018 31.2838H50.5498L50.5498 118.579H51.7018Z" fill="#E0E0E0"/>
<path d="M109.001 118.579V31.2838H104.471V118.579H109.001Z" fill="#F0F0F0"/>
<path d="M166.32 118.579V31.2838H165.169V118.579H166.32Z" fill="#E0E0E0"/>
<path d="M165.169 118.579V31.2838H160.638V118.579H165.169Z" fill="#F0F0F0"/>
<path d="M222.514 118.573V31.2773H221.362V118.573H222.514Z" fill="#E0E0E0"/>
<path d="M221.362 118.573V31.2773H216.832V118.573H221.362Z" fill="#F0F0F0"/>
<path d="M278.713 123.103V26.7472H277.561V123.103H278.713Z" fill="#E0E0E0"/>
<path d="M281.302 20.1332H42.279C42.0135 20.1315 41.7593 20.0253 41.5716 19.8375C41.3838 19.6498 41.2776 19.3956 41.2759 19.1301C41.2759 18.8634 41.3814 18.6076 41.5693 18.4185C41.7573 18.2293 42.0124 18.1222 42.279 18.1205H281.302C281.568 18.1222 281.823 18.2293 282.011 18.4185C282.199 18.6076 282.305 18.8634 282.305 19.1301C282.303 19.3956 282.197 19.6498 282.009 19.8375C281.821 20.0253 281.567 20.1315 281.302 20.1332Z" fill="#E0E0E0"/>
<g opacity="0.6">
<path d="M92.1171 16.179H43.2175V191.993H92.1171V16.179Z" fill="#F5F5F5"/>
<path d="M69.7124 193.43H65.6158L66.7678 17.6157H68.5993L69.7124 193.43Z" fill="#E6E6E6"/>
<path d="M56.1413 193.43H54.161L54.7176 17.6157H55.6042L56.1413 193.43Z" fill="#E6E6E6"/>
<path d="M83.3222 193.43H81.3419L81.8984 17.6157H82.785L83.3222 193.43Z" fill="#E6E6E6"/>
</g>
<g opacity="0.6">
<path d="M279.781 16.179H230.881V191.993H279.781V16.179Z" fill="#F5F5F5"/>
<path d="M250.044 193.43H245.947L247.099 17.6157H248.931L250.044 193.43Z" fill="#E6E6E6"/>
<path d="M241.003 193.43H239.029L239.579 17.6157H240.466L241.003 193.43Z" fill="#E6E6E6"/>
<path d="M261.926 193.43H259.952L260.508 17.6157H261.389L261.926 193.43Z" fill="#E6E6E6"/>
<path d="M271.996 193.43H270.022L270.572 17.6157H271.458L271.996 193.43Z" fill="#E6E6E6"/>
</g>
<path d="M210.463 210.781H219.653V158.114H210.463V210.781Z" fill="#E6E6E6"/>
<path d="M103.928 210.781H214.003V158.114H103.928V210.781Z" fill="#F0F0F0"/>
<path d="M211.531 210.781H208.218H108.678V211.881H208.218H211.531H214.903V210.781H211.531Z" fill="#E0E0E0"/>
<path opacity="0.5" d="M107.067 182.661H210.865V161.409H107.067V182.661Z" fill="#FAFAFA"/>
<path opacity="0.5" d="M107.067 207.344H210.865V186.091H107.067V207.344Z" fill="#FAFAFA"/>
<path d="M122.799 172.035C122.799 172.497 122.662 172.949 122.405 173.333C122.148 173.717 121.784 174.017 121.357 174.193C120.93 174.37 120.46 174.416 120.007 174.326C119.554 174.236 119.137 174.014 118.811 173.687C118.484 173.36 118.261 172.944 118.171 172.491C118.081 172.038 118.127 171.568 118.304 171.141C118.481 170.714 118.781 170.349 119.165 170.092C119.549 169.836 120.001 169.699 120.463 169.699C120.769 169.699 121.073 169.759 121.357 169.877C121.64 169.994 121.898 170.166 122.115 170.383C122.332 170.6 122.504 170.857 122.621 171.141C122.739 171.424 122.799 171.728 122.799 172.035Z" fill="#E0E0E0"/>
<path d="M199.798 172.035C199.798 172.497 199.661 172.949 199.405 173.333C199.148 173.717 198.783 174.017 198.356 174.193C197.929 174.37 197.459 174.416 197.006 174.326C196.553 174.236 196.137 174.014 195.81 173.687C195.483 173.36 195.261 172.944 195.171 172.491C195.081 172.038 195.127 171.568 195.304 171.141C195.48 170.714 195.78 170.349 196.164 170.092C196.548 169.836 197 169.699 197.462 169.699C197.769 169.699 198.073 169.759 198.356 169.877C198.64 169.994 198.897 170.166 199.114 170.383C199.331 170.6 199.503 170.857 199.62 171.141C199.738 171.424 199.798 171.728 199.798 172.035Z" fill="#E0E0E0"/>
<path d="M120.463 199.054C121.753 199.054 122.799 198.008 122.799 196.718C122.799 195.427 121.753 194.381 120.463 194.381C119.172 194.381 118.126 195.427 118.126 196.718C118.126 198.008 119.172 199.054 120.463 199.054Z" fill="#E0E0E0"/>
<path d="M199.798 196.737C199.798 197.199 199.661 197.651 199.405 198.035C199.148 198.419 198.783 198.719 198.356 198.896C197.929 199.072 197.459 199.119 197.006 199.029C196.553 198.938 196.137 198.716 195.81 198.389C195.483 198.062 195.261 197.646 195.171 197.193C195.081 196.74 195.127 196.27 195.304 195.843C195.48 195.416 195.78 195.051 196.164 194.795C196.548 194.538 197 194.401 197.462 194.401C198.082 194.401 198.676 194.647 199.114 195.085C199.552 195.523 199.798 196.118 199.798 196.737Z" fill="#E0E0E0"/>
<path d="M161.299 172.035C161.299 172.497 161.162 172.949 160.905 173.333C160.648 173.717 160.283 174.017 159.856 174.193C159.43 174.37 158.96 174.416 158.507 174.326C158.053 174.236 157.637 174.014 157.31 173.687C156.984 173.36 156.761 172.944 156.671 172.491C156.581 172.038 156.627 171.568 156.804 171.141C156.981 170.714 157.28 170.349 157.664 170.092C158.049 169.836 158.5 169.699 158.962 169.699C159.269 169.699 159.573 169.759 159.856 169.877C160.14 169.994 160.397 170.166 160.614 170.383C160.831 170.6 161.003 170.857 161.121 171.141C161.238 171.424 161.299 171.728 161.299 172.035Z" fill="#E0E0E0"/>
<path d="M158.962 199.054C160.253 199.054 161.299 198.008 161.299 196.718C161.299 195.427 160.253 194.381 158.962 194.381C157.672 194.381 156.626 195.427 156.626 196.718C156.626 198.008 157.672 199.054 158.962 199.054Z" fill="#E0E0E0"/>
<path d="M207.195 149.171C207.195 151.543 206.253 153.818 204.576 155.495C202.898 157.172 200.623 158.115 198.251 158.115C195.879 158.115 193.605 157.172 191.927 155.495C190.25 153.818 189.308 151.543 189.308 149.171H207.195Z" fill="#F0F0F0"/>
<path d="M136.48 147.553C136.48 150.349 135.369 153.03 133.392 155.007C131.415 156.984 128.734 158.095 125.938 158.095C123.142 158.095 120.46 156.984 118.483 155.007C116.506 153.03 115.395 150.349 115.395 147.553H136.48Z" fill="#F0F0F0"/>
<path d="M181.801 151.908C181.801 153.554 181.147 155.133 179.983 156.297C178.819 157.461 177.24 158.115 175.594 158.115C173.948 158.115 172.37 157.461 171.206 156.297C170.042 155.133 169.388 153.554 169.388 151.908H181.801Z" fill="#F0F0F0"/>
<path d="M161.79 241.107C231.09 241.107 287.269 237.827 287.269 233.781C287.269 229.735 231.09 226.455 161.79 226.455C92.4908 226.455 36.3123 229.735 36.3123 233.781C36.3123 237.827 92.4908 241.107 161.79 241.107Z" fill="#F5F5F5"/>
<path d="M224.727 222.927L218.948 222.979L217.375 209.622L223.148 209.57L224.727 222.927Z" fill="#FFBE9D"/>
<path d="M218.941 222.312L225.245 222.254C225.361 222.256 225.474 222.294 225.567 222.364C225.66 222.434 225.728 222.531 225.762 222.642L227.29 227.762C227.33 227.881 227.342 228.008 227.323 228.132C227.304 228.257 227.255 228.375 227.181 228.476C227.106 228.578 227.009 228.66 226.896 228.716C226.783 228.772 226.658 228.8 226.532 228.797C224.261 228.797 220.96 228.674 218.119 228.7C214.78 228.7 213.292 228.933 209.37 228.972C207.001 228.972 206.134 226.603 207.137 226.383C211.583 225.354 213.88 225.218 217.602 222.778C217.993 222.496 218.459 222.334 218.941 222.312Z" fill="#263238"/>
<path opacity="0.2" d="M217.375 209.628L218.19 216.514L223.963 216.462L223.154 209.576L217.375 209.628Z" fill="black"/>
<path d="M216.553 223.341C217.176 223.33 217.797 223.254 218.404 223.115C218.433 223.111 218.459 223.097 218.479 223.076C218.499 223.055 218.512 223.027 218.514 222.998C218.517 222.97 218.511 222.942 218.497 222.918C218.483 222.894 218.462 222.874 218.437 222.862C218.165 222.727 215.738 221.568 215.071 221.976C215.01 222.015 214.959 222.07 214.925 222.135C214.891 222.199 214.875 222.272 214.877 222.345C214.876 222.469 214.903 222.592 214.957 222.705C215.011 222.817 215.09 222.915 215.188 222.992C215.593 223.255 216.072 223.377 216.553 223.341ZM217.938 222.927C216.689 223.147 215.738 223.102 215.35 222.791C215.282 222.739 215.229 222.671 215.194 222.593C215.159 222.515 215.144 222.43 215.149 222.345C215.145 222.318 215.149 222.291 215.161 222.267C215.172 222.243 215.191 222.223 215.214 222.209C215.576 221.989 216.948 222.507 217.938 222.927Z" fill="#3E4095"/>
<path d="M218.378 223.154C218.409 223.151 218.438 223.14 218.462 223.121C218.482 223.107 218.497 223.087 218.505 223.064C218.513 223.04 218.514 223.016 218.508 222.992C218.508 222.888 218.055 220.403 216.683 220.559C216.32 220.597 216.217 220.785 216.197 220.927C216.1 221.575 217.582 222.83 218.32 223.141L218.378 223.154ZM216.799 220.824C217.627 220.824 218.042 222.176 218.184 222.765C217.42 222.338 216.411 221.355 216.469 220.966C216.469 220.966 216.469 220.856 216.715 220.83L216.799 220.824Z" fill="#3E4095"/>
<path d="M220.643 64.2302L220.048 64.8774L219.491 65.4275C219.122 65.7899 218.741 66.1329 218.359 66.4694C217.599 67.1511 216.823 67.7982 216.029 68.4109C214.427 69.6841 212.741 70.8474 210.981 71.8926C210.095 72.4168 209.182 72.9151 208.257 73.3876C207.331 73.86 206.354 74.2677 205.37 74.6819C203.353 75.4866 201.252 76.0619 199.106 76.3969L198.627 76.468C198.316 76.5081 198.002 76.5276 197.688 76.5263C196.968 76.5195 196.255 76.3791 195.585 76.1121C194.921 75.8456 194.313 75.4571 193.793 74.9666C193.378 74.5711 193.017 74.1229 192.718 73.6335C192.305 72.9233 191.994 72.1587 191.793 71.3619C191.636 70.7449 191.521 70.1178 191.45 69.4852C191.332 68.3913 191.3 67.29 191.353 66.1911C191.398 65.1427 191.482 64.1331 191.599 63.143C191.845 61.1562 192.194 59.26 192.621 57.3185C193.048 55.377 193.534 53.5844 194.161 51.7076L198.413 52.549C198.258 56.186 198.083 59.9136 198.2 63.4342C198.221 65.069 198.394 66.6982 198.717 68.3009C198.781 68.5969 198.87 68.887 198.983 69.1681C199.073 69.3881 199.183 69.524 199.177 69.4658C199.139 69.3672 199.08 69.2786 199.002 69.2069C198.826 69.0365 198.62 68.9005 198.394 68.8057C198.161 68.7079 197.914 68.6488 197.663 68.6309C197.546 68.6309 197.494 68.6309 197.423 68.6309H197.494L197.63 68.5921C199.163 68.1983 200.654 67.6564 202.083 66.9742C203.577 66.253 205.023 65.4359 206.412 64.5279C207.817 63.596 209.201 62.5864 210.535 61.5186C211.182 60.9879 211.861 60.4314 212.476 59.8684L213.421 59.0141L213.874 58.5934L214.269 58.2181L220.643 64.2302Z" fill="#FFBE9D"/>
<path d="M224.067 61.9457C223.847 55.843 218.838 53.7203 212.56 57.8816C209.793 59.6362 207.129 61.5485 204.581 63.6089L208.639 76.6428C208.639 76.6428 216.404 74.1771 220.896 69.3363C223.918 66.0487 224.145 64.0231 224.067 61.9457Z" fill="#263238"/>
<path opacity="0.2" d="M216.424 64.5473C216.424 64.5473 212.677 69.9058 211.35 75.6008C213.192 74.8153 214.967 73.8802 216.657 72.8051L216.424 64.5473Z" fill="black"/>
<path d="M198.2 54.484L200.374 49.572L194.22 47.7729C194.22 47.7729 193.165 50.1221 193.767 54.1539L198.2 54.484Z" fill="#FFBE9D"/>
<path d="M201.028 43.8123L195.676 44.4529L194.22 47.7729L200.374 49.572L201.028 43.8123Z" fill="#FFBE9D"/>
<path d="M216.463 106.186C216.463 106.186 212.489 139.489 212.049 157.311C211.596 175.827 215.226 213.174 215.226 213.174L225.652 212.954C225.652 212.954 226.908 172.973 228.422 154.652C230.066 134.68 234.208 105.823 234.208 105.823L216.463 106.186Z" fill="#3E4095"/>
<path opacity="0.6" d="M216.463 106.186C216.463 106.186 212.489 139.489 212.049 157.311C211.596 175.827 215.226 213.174 215.226 213.174L225.652 212.954C225.652 212.954 226.908 172.973 228.422 154.652C230.066 134.68 234.208 105.823 234.208 105.823L216.463 106.186Z" fill="#F9F9F9"/>
<path opacity="0.2" d="M228.882 115.615C224.222 125.885 225.471 148.827 228.118 158.664C228.215 157.234 228.319 155.881 228.422 154.632C229.503 141.469 231.658 124.455 233.023 114.379C231.755 112.541 230.338 112.398 228.882 115.615Z" fill="black"/>
<path d="M226.934 213.401L214.676 213.647L213.77 209.576L226.785 209.544L226.934 213.401Z" fill="#3E4095"/>
<path d="M250.477 222.927L244.705 222.979L243.132 209.622L248.905 209.57L250.477 222.927Z" fill="#FFBE9D"/>
<path d="M244.692 222.312L251.002 222.254C251.118 222.257 251.23 222.296 251.323 222.365C251.416 222.435 251.484 222.532 251.519 222.642L253.047 227.762C253.086 227.881 253.096 228.007 253.076 228.131C253.057 228.255 253.008 228.372 252.934 228.474C252.86 228.575 252.763 228.657 252.651 228.713C252.539 228.769 252.415 228.798 252.289 228.797C250.011 228.797 246.717 228.674 243.876 228.7C240.537 228.7 239.042 228.933 235.127 228.972C232.758 228.972 231.891 226.603 232.894 226.383C237.334 225.354 239.631 225.218 243.359 222.778C243.748 222.496 244.211 222.334 244.692 222.312Z" fill="#263238"/>
<path opacity="0.2" d="M243.132 209.628L243.941 216.514L249.72 216.462L248.911 209.576L243.132 209.628Z" fill="black"/>
<path d="M242.31 223.341C242.933 223.329 243.554 223.253 244.161 223.115C244.189 223.11 244.215 223.096 244.234 223.075C244.253 223.054 244.264 223.027 244.265 222.998C244.269 222.971 244.264 222.943 244.251 222.919C244.239 222.894 244.218 222.875 244.194 222.862C243.915 222.727 241.488 221.568 240.828 221.976C240.766 222.014 240.715 222.069 240.681 222.134C240.646 222.199 240.63 222.271 240.634 222.345C240.633 222.469 240.66 222.591 240.712 222.703C240.765 222.815 240.842 222.914 240.938 222.992C241.346 223.254 241.827 223.376 242.31 223.341ZM243.695 222.927C242.446 223.147 241.495 223.102 241.107 222.791C241.04 222.738 240.986 222.67 240.95 222.592C240.914 222.515 240.897 222.43 240.899 222.345C240.896 222.318 240.9 222.291 240.911 222.267C240.923 222.243 240.941 222.223 240.964 222.209C241.327 221.989 242.686 222.507 243.695 222.927Z" fill="#3E4095"/>
<path d="M244.129 223.154C244.149 223.153 244.168 223.148 244.186 223.139C244.204 223.131 244.22 223.118 244.233 223.103C244.246 223.088 244.255 223.07 244.261 223.051C244.266 223.032 244.268 223.012 244.265 222.992C244.265 222.888 243.812 220.403 242.44 220.559C242.077 220.597 241.974 220.785 241.948 220.927C241.857 221.575 243.339 222.83 244.077 223.141L244.129 223.154ZM242.556 220.824C243.378 220.824 243.799 222.176 243.941 222.765C243.178 222.338 242.162 221.355 242.22 220.966C242.22 220.966 242.22 220.856 242.466 220.83L242.556 220.824Z" fill="#3E4095"/>
<path d="M226.636 105.966C226.636 105.966 229.516 141.799 231.619 159.479C233.8 177.872 240.984 213.155 240.984 213.155L251.409 212.935C251.409 212.935 248.549 172.876 247.442 154.522C246.232 134.493 245.921 105.526 245.921 105.526L226.636 105.966Z" fill="#3E4095"/>
<path opacity="0.6" d="M226.636 105.966C226.636 105.966 229.516 141.799 231.619 159.479C233.8 177.872 240.984 213.155 240.984 213.155L251.409 212.935C251.409 212.935 248.549 172.876 247.442 154.522C246.232 134.493 245.921 105.526 245.921 105.526L226.636 105.966Z" fill="#F9F9F9"/>
<path d="M252.691 213.401L240.427 213.647L239.527 209.576L252.542 209.544L252.691 213.401Z" fill="#3E4095"/>
<path d="M215.744 56.283C215.744 56.283 211.479 72.1126 216.463 106.186C225.769 105.985 241.398 105.623 245.921 105.538C246.038 100.795 242.537 77.5358 246.633 55.1117C243.686 54.6028 240.705 54.3129 237.715 54.2445C233.339 54.0847 228.957 54.1797 224.591 54.5292C221.601 54.883 218.643 55.4693 215.744 56.283Z" fill="#263238"/>
<path opacity="0.2" d="M244.847 71.0707L240.026 67.0777C240.343 70.197 243.164 77.84 244.653 81.71C244.627 78.3189 244.659 74.7401 244.847 71.0707Z" fill="black"/>
<path d="M227.6 65.4598L222.339 75.8726C222.228 76.0913 222.189 76.3395 222.228 76.5817C222.267 76.8238 222.382 77.0474 222.556 77.2201C222.73 77.3928 222.955 77.5058 223.197 77.5427C223.439 77.5797 223.687 77.5388 223.905 77.4258L227.342 75.5361C227.528 75.4356 227.74 75.3897 227.951 75.4034C228.163 75.4171 228.366 75.49 228.539 75.6138L231.923 78.0536C232.118 78.195 232.353 78.2701 232.593 78.2678C232.833 78.2654 233.067 78.1858 233.258 78.0406C233.45 77.8955 233.59 77.6925 233.657 77.4617C233.724 77.231 233.715 76.9847 233.632 76.7592L229.678 65.641C229.609 65.4295 229.48 65.2429 229.306 65.1045C229.132 64.9661 228.921 64.882 228.699 64.8627C228.478 64.8434 228.255 64.8897 228.06 64.9959C227.864 65.1021 227.705 65.2634 227.6 65.4598Z" fill="#F9F9F9"/>
<path d="M248.044 59.5253C249.222 61.5833 250.206 63.5766 251.228 65.6281C252.251 67.6796 253.17 69.744 254.043 71.8538C254.917 73.9635 255.765 76.1056 256.502 78.3254C257.27 80.5391 257.918 82.7923 258.444 85.0753L258.839 86.842C259.011 87.6717 259.085 88.5189 259.059 89.366C259.004 90.9398 258.655 92.4895 258.03 93.9349C256.931 96.3705 255.368 98.5687 253.428 100.407C251.698 102.077 249.813 103.579 247.798 104.891C246.821 105.539 245.811 106.134 244.795 106.703C243.779 107.273 242.77 107.797 241.637 108.295L239.489 104.535C240.272 103.888 241.132 103.241 241.935 102.542C242.737 101.843 243.52 101.131 244.297 100.419C245.797 99.0283 247.188 97.5247 248.458 95.9217C249.588 94.547 250.465 92.9824 251.047 91.301C251.247 90.6745 251.326 90.0156 251.28 89.3595C251.261 89.0957 251.211 88.835 251.131 88.5829L250.691 87.1332C249.383 83.1123 247.827 79.1764 246.031 75.3484C245.145 73.4069 244.2 71.4655 243.255 69.524C242.31 67.5825 241.314 65.641 240.349 63.7966L248.044 59.5253Z" fill="#FFBE9D"/>
<path d="M246.853 55.144C252.251 56.3089 256.004 70.3911 256.004 70.3911L246.355 79.1472C243.287 75.7342 240.874 71.7854 239.236 67.4983C236.68 60.4507 241.081 53.8885 246.853 55.144Z" fill="#263238"/>
<path d="M240.66 103.869L234.454 103.934L238.337 110.192C238.337 110.192 242.757 109.098 243.152 106.878L240.66 103.869Z" fill="#FFBE9D"/>
<path d="M230.59 107.629L234.014 112.651L238.304 110.192L234.454 103.934L230.59 107.629Z" fill="#FFBE9D"/>
<path d="M231.195 58.835C229.975 58.8949 228.779 58.4799 227.858 57.6772C226.937 56.8744 226.363 55.7462 226.255 54.5292C226.124 53.0295 226.028 51.748 226.028 51.748C226.028 51.748 222.165 51.6503 221.618 47.8626C221.07 44.0748 220.593 35.2769 220.593 35.2769C222.63 34.0697 224.952 33.4282 227.319 33.4186C229.687 33.409 232.014 34.0317 234.06 35.2224L234.681 35.5836L235.676 53.8589C235.71 54.4801 235.621 55.102 235.414 55.6888C235.207 56.2755 234.886 56.8156 234.469 57.278C234.053 57.7404 233.549 58.1159 232.988 58.3831C232.426 58.6503 231.816 58.8039 231.195 58.835Z" fill="#FFBE9D"/>
<path d="M225.483 45.245C225.483 45.2018 225.151 45.1791 224.615 45.1746C224.476 45.1746 224.365 45.1609 224.347 45.0882C224.324 44.9518 224.34 44.8117 224.392 44.6838L224.669 43.5681C225.044 41.9776 225.283 40.6802 225.201 40.662C225.119 40.6438 224.747 41.914 224.376 43.5C224.29 43.8862 224.206 44.2566 224.124 44.6202C224.059 44.8078 224.059 45.0119 224.124 45.1996C224.15 45.2489 224.188 45.2915 224.234 45.3238C224.28 45.3561 224.332 45.3774 224.388 45.3859C224.463 45.3964 224.539 45.3964 224.615 45.3859C225.158 45.3359 225.485 45.2859 225.483 45.245Z" fill="#263238"/>
<path d="M226.005 51.6957C227.764 51.5027 229.425 50.7909 230.777 49.6508C230.777 49.6508 229.961 52.5342 226.133 52.6841L226.005 51.6957Z" fill="#EB996E"/>
<path d="M220.643 36.2403C220.643 36.2403 223.029 37.2378 225.971 35.5586C227.903 34.4589 230.188 33.8477 230.722 34.2181C231.256 34.5884 231.475 36.6288 233.474 37.1174C233.474 37.1174 233.554 41.0278 235.103 40.8029C236.653 40.5779 235.344 34.5861 235.344 34.5861L231.436 32.9365L227.239 32.3821L223.354 33.1501L220.366 34.1476L220.643 36.2403Z" fill="#263238"/>
<path d="M234.724 39.5645C234.785 39.5281 237.223 38.4557 237.484 41.0596C237.746 43.6635 235.071 43.3818 235.06 43.3091C235.049 43.2363 234.724 39.5645 234.724 39.5645Z" fill="#FFBE9D"/>
<path d="M235.76 42.2525C235.76 42.2525 235.808 42.2797 235.887 42.307C236 42.3433 236.122 42.3344 236.228 42.282C236.494 42.1548 236.682 41.6935 236.648 41.2232C236.634 40.9996 236.57 40.7822 236.46 40.587C236.427 40.508 236.376 40.438 236.311 40.383C236.246 40.328 236.168 40.2896 236.085 40.2711C236.031 40.2611 235.976 40.2707 235.928 40.2983C235.881 40.3258 235.846 40.3694 235.828 40.4211C235.801 40.4983 235.828 40.5483 235.808 40.5552C235.787 40.562 235.748 40.5165 235.76 40.4075C235.767 40.3407 235.797 40.2787 235.846 40.2325C235.912 40.1717 236 40.1391 236.089 40.1416C236.198 40.1529 236.303 40.1918 236.393 40.2546C236.482 40.3174 236.555 40.4021 236.603 40.5006C236.735 40.7156 236.814 40.9598 236.83 41.2118C236.866 41.7367 236.644 42.2547 236.278 42.4002C236.21 42.4271 236.137 42.4386 236.065 42.4339C235.992 42.4292 235.921 42.4084 235.858 42.3729C235.771 42.3161 235.751 42.2593 235.76 42.2525Z" fill="#EB996E"/>
<path d="M231.743 34.6384C232.251 35.2281 232.834 35.7498 233.476 36.1903C234.129 36.6315 234.928 36.8003 235.703 36.6607C236.46 36.4857 237.13 35.8313 237.162 35.052C237.194 34.2726 236.432 33.5182 235.674 33.6886C235.803 33.6905 235.931 33.6615 236.046 33.604C236.162 33.5465 236.263 33.4621 236.339 33.3579C236.416 33.2537 236.466 33.1328 236.487 33.0051C236.507 32.8774 236.496 32.7467 236.456 32.6239C236.416 32.5011 236.346 32.3898 236.254 32.2991C236.162 32.2085 236.049 32.1412 235.926 32.1029C235.803 32.0645 235.672 32.0563 235.544 32.0788C235.417 32.1012 235.297 32.1538 235.194 32.2322C235.855 32.1072 235.928 31.0597 235.403 30.6416C234.878 30.2236 234.106 30.3144 233.485 30.5667C232.865 30.8189 232.29 31.2097 231.634 31.3506C230.604 31.5778 229.548 31.1438 228.637 30.6144C227.725 30.0849 226.862 29.4396 225.846 29.1579C224.601 28.8148 223.254 29.067 222.063 29.5669C221.055 29.9525 220.168 30.5996 219.493 31.4414C218.85 32.3003 218.532 33.441 218.812 34.4748C219.091 35.5087 220.059 36.3676 221.134 36.3721C221.134 36.3721 223.545 36.613 225.508 35.1565C227.471 33.7 231.615 33.8841 231.615 33.8841L231.743 34.6384Z" fill="#263238"/>
<path d="M235.362 31.6119C235.362 31.6119 235.315 31.6619 235.212 31.7323C235.11 31.8027 234.951 31.9004 234.744 32.0186C234.15 32.3415 233.519 32.5925 232.865 32.7661C231.892 33.0265 230.882 33.1225 229.877 33.0502C228.741 32.9752 227.539 32.5957 226.292 32.3026C225.044 32.0095 223.815 31.8482 222.747 32.1072C221.679 32.3662 220.843 32.9979 220.475 33.7273C220.172 34.3097 220.101 34.9853 220.277 35.6177C220.359 35.8457 220.46 36.0661 220.579 36.2767C220.579 36.2767 220.525 36.238 220.443 36.1403C220.33 35.9915 220.24 35.8269 220.175 35.6518C220.061 35.3253 220.013 34.9793 220.034 34.634C220.055 34.2888 220.145 33.9512 220.298 33.6409C220.675 32.8366 221.568 32.1299 222.688 31.8573C223.808 31.5846 225.101 31.7209 226.36 32.0322C227.619 32.3435 228.796 32.7139 229.9 32.7934C230.879 32.8718 231.864 32.7952 232.82 32.5662C234.467 32.1708 235.349 31.5505 235.362 31.6119Z" fill="#455A64"/>
<path d="M236.544 35.6314C236.571 35.645 236.487 35.8995 236.205 36.2244C235.831 36.6459 235.332 36.9372 234.781 37.0561C234.23 37.175 233.655 37.1153 233.14 36.8856C232.749 36.7084 232.567 36.5107 232.588 36.4857C232.608 36.4607 232.831 36.5834 233.21 36.7129C233.698 36.8747 234.22 36.9029 234.723 36.7947C235.225 36.6864 235.689 36.4455 236.067 36.0972C236.362 35.82 236.498 35.6086 236.544 35.6314Z" fill="#455A64"/>
<path d="M235.73 34.3385C235.796 34.3703 235.596 34.8429 235.092 35.1905C234.587 35.5382 234.076 35.5609 234.072 35.4859C234.067 35.4109 234.49 35.2723 234.935 34.9611C235.38 34.6498 235.662 34.3021 235.73 34.3385Z" fill="#455A64"/>
<path d="M219.364 37.974C219.33 37.974 219.255 37.8536 219.237 37.6195C219.217 37.3107 219.298 37.0039 219.466 36.7444C219.635 36.485 219.883 36.2867 220.173 36.179C220.4 36.1017 220.541 36.1176 220.548 36.1517C220.57 36.2267 220.034 36.3789 219.7 36.897C219.366 37.415 219.441 37.974 219.364 37.974Z" fill="#263238"/>
<path d="M218.014 34.2431C218.091 34.2113 218.378 34.8997 219.059 35.4678C219.741 36.0358 220.457 36.2221 220.436 36.3039C220.416 36.3857 219.616 36.3039 218.877 35.6814C218.139 35.0588 217.941 34.2522 218.014 34.2431Z" fill="#455A64"/>
<path d="M221.956 41.0483C221.974 41.2001 222.051 41.3389 222.17 41.4349C222.289 41.5309 222.44 41.5765 222.593 41.5618C222.667 41.558 222.741 41.5394 222.808 41.5069C222.875 41.4745 222.936 41.4288 222.985 41.3727C223.035 41.3166 223.073 41.2512 223.097 41.1802C223.12 41.1093 223.13 41.0343 223.124 40.9596C223.106 40.8081 223.029 40.6696 222.91 40.5737C222.792 40.4778 222.64 40.432 222.488 40.4461C222.413 40.4499 222.34 40.4685 222.273 40.501C222.205 40.5334 222.145 40.5791 222.095 40.6352C222.046 40.6913 222.008 40.7567 221.984 40.8277C221.96 40.8986 221.951 40.9736 221.956 41.0483Z" fill="#263238"/>
<path d="M221.502 40.9983C221.584 41.0642 221.981 40.6802 222.606 40.6006C223.231 40.5211 223.731 40.7733 223.79 40.6892C223.817 40.6506 223.726 40.5234 223.508 40.403C223.213 40.2515 222.878 40.1944 222.549 40.2394C222.223 40.2793 221.919 40.4236 221.681 40.6506C221.502 40.8233 221.461 40.9687 221.502 40.9983Z" fill="#263238"/>
<path d="M227.655 40.2575C227.673 40.4094 227.749 40.5482 227.868 40.6442C227.987 40.7402 228.139 40.7858 228.291 40.7711C228.366 40.7673 228.439 40.7487 228.507 40.7162C228.574 40.6837 228.634 40.6381 228.684 40.582C228.733 40.5259 228.771 40.4604 228.795 40.3895C228.819 40.3186 228.828 40.2436 228.823 40.1689C228.804 40.0171 228.727 39.8787 228.608 39.7828C228.489 39.6869 228.337 39.6412 228.184 39.6554C228.11 39.6591 228.037 39.6778 227.969 39.7103C227.902 39.7428 227.842 39.7884 227.792 39.8446C227.743 39.9007 227.705 39.9662 227.682 40.0371C227.658 40.1081 227.649 40.183 227.655 40.2575Z" fill="#263238"/>
<path d="M227.246 40.2462C227.328 40.3121 227.728 39.9303 228.353 39.8485C228.977 39.7667 229.477 40.0235 229.536 39.9372C229.564 39.8985 229.473 39.7713 229.255 39.6531C228.96 39.4998 228.625 39.4426 228.296 39.4895C227.97 39.5298 227.666 39.6731 227.428 39.8985C227.255 40.0667 227.207 40.2121 227.246 40.2462Z" fill="#263238"/>
<path d="M227.487 38.5216C227.612 38.6306 228.08 38.2944 228.714 38.2307C229.348 38.1671 229.875 38.3898 229.973 38.258C230.018 38.1944 229.934 38.0308 229.7 37.8786C229.386 37.6866 229.017 37.6035 228.65 37.6421C228.284 37.6807 227.941 37.8389 227.673 38.0921C227.478 38.2921 227.43 38.4693 227.487 38.5216Z" fill="#263238"/>
<path d="M221.54 39.5646C221.513 39.6395 221.622 39.7645 221.849 39.8622C222.151 39.978 222.478 40.0125 222.797 39.9622C223.116 39.912 223.416 39.7787 223.667 39.5759C223.854 39.4123 223.917 39.2624 223.869 39.1987C223.76 39.0715 223.295 39.2919 222.704 39.376C222.113 39.46 221.604 39.4032 221.54 39.5646Z" fill="#263238"/>
<path d="M224.41 47.2757C225.017 47.4266 225.652 47.4284 226.261 47.2808C226.869 47.1331 227.433 46.8405 227.904 46.4279C227.917 46.4153 227.927 46.4002 227.934 46.3835C227.941 46.3668 227.945 46.3489 227.945 46.3309C227.945 46.3128 227.941 46.2949 227.934 46.2782C227.927 46.2615 227.917 46.2464 227.904 46.2338C227.878 46.2092 227.843 46.1956 227.807 46.1956C227.771 46.1956 227.736 46.2092 227.71 46.2338C227.268 46.6057 226.745 46.869 226.184 47.0027C225.622 47.1365 225.036 47.1369 224.474 47.0039C224.438 46.9962 224.401 47.0031 224.37 47.0231C224.339 47.0431 224.317 47.0746 224.309 47.1107C224.302 47.1467 224.308 47.1844 224.328 47.2153C224.348 47.2463 224.38 47.268 224.416 47.2757H224.41Z" fill="#263238"/>
<path d="M235.187 44.3088C235.193 44.3636 235.213 44.4159 235.244 44.4611C235.324 44.5908 235.439 44.6949 235.576 44.761C235.677 44.8132 235.788 44.8436 235.902 44.8502C236.016 44.8569 236.13 44.8397 236.237 44.7996C236.369 44.7514 236.489 44.6744 236.588 44.5742C236.686 44.474 236.761 44.3531 236.807 44.2202C236.855 44.0637 236.865 43.8983 236.836 43.7372C236.808 43.5762 236.742 43.4241 236.644 43.2931C236.546 43.1622 236.419 43.0562 236.272 42.9835C236.126 42.9109 235.964 42.8738 235.801 42.8751C235.746 42.87 235.69 42.8785 235.639 42.9001C235.832 42.9157 236.021 42.9633 236.198 43.041C236.383 43.1326 236.535 43.2805 236.63 43.4636C236.688 43.573 236.723 43.6928 236.735 43.816C236.746 43.9392 236.733 44.0635 236.696 44.1816C236.655 44.2981 236.589 44.4044 236.503 44.4934C236.417 44.5824 236.313 44.6519 236.198 44.6974C236.105 44.7353 236.004 44.7538 235.903 44.7519C235.802 44.7499 235.702 44.7275 235.61 44.686C235.437 44.6017 235.291 44.4712 235.187 44.3088Z" fill="#455A64"/>
<path d="M185.356 150.366L178.456 150.866L178.503 151.512L185.403 151.011L185.356 150.366Z" fill="#3E4095"/>
<path d="M191.556 149.919L188.167 150.164L188.214 150.81L191.603 150.564L191.556 149.919Z" fill="#3E4095"/>
<path d="M221.329 73.9512L107.066 82.1895C104.688 82.3751 102.479 83.4909 100.919 85.295C99.3582 87.0991 98.5721 89.4457 98.731 91.8258L102.614 145.683C102.798 148.064 103.915 150.277 105.722 151.839C107.529 153.401 109.88 154.187 112.263 154.024L118.735 153.559C119.205 153.525 119.669 153.679 120.026 153.987C120.383 154.295 120.603 154.732 120.637 155.202L121.362 165.182C121.374 165.375 121.443 165.56 121.561 165.714C121.679 165.867 121.84 165.982 122.024 166.043C122.208 166.104 122.406 166.109 122.592 166.057C122.779 166.005 122.945 165.899 123.071 165.751L133.904 153.228C134.36 152.704 135.004 152.381 135.697 152.329L226.507 145.786C228.886 145.602 231.097 144.487 232.658 142.683C234.22 140.879 235.007 138.531 234.849 136.15L230.966 82.2931C230.782 79.9138 229.666 77.7032 227.862 76.1413C226.058 74.5794 223.71 73.7924 221.329 73.9512Z" fill="#3E4095"/>
<path d="M123.757 106.911L129.931 106.465L130.435 113.454L137.179 112.969L136.674 105.979L142.874 105.526L144.317 125.498L138.117 125.944L137.535 117.868L130.791 118.359L131.374 126.436L125.206 126.883L123.757 106.911Z" fill="#F9F9F9"/>
<path opacity="0.2" d="M107.066 82.1895C104.688 82.3751 102.479 83.4909 100.919 85.295C99.3583 87.0991 98.5722 89.4457 98.731 91.8258L102.614 145.683C102.798 148.064 103.915 150.277 105.722 151.839C107.529 153.401 109.88 154.187 112.263 154.024L113.215 153.953C114.795 153.839 116.294 153.206 117.478 152.153C118.662 151.1 119.466 149.685 119.764 148.129L132.778 80.3322L107.066 82.1895Z" fill="black"/>
<path d="M163.687 118.211L152.568 119.013C152.654 119.733 152.956 120.41 153.436 120.955C153.711 121.244 154.049 121.466 154.424 121.603C154.799 121.74 155.2 121.788 155.597 121.744C156.142 121.705 156.668 121.527 157.124 121.226C157.482 120.956 157.787 120.623 158.024 120.243L163.525 120.353C162.926 121.709 161.955 122.867 160.723 123.692C159.592 124.408 157.923 124.84 155.714 124.986C154.169 125.166 152.604 125 151.132 124.501C149.951 124.005 148.938 123.181 148.213 122.126C147.382 120.925 146.904 119.514 146.835 118.055C146.719 117.042 146.817 116.016 147.123 115.043C147.428 114.069 147.934 113.171 148.608 112.406C149.954 110.904 151.895 110.061 154.432 109.875C156.112 109.676 157.815 109.875 159.402 110.458C160.618 110.977 161.643 111.861 162.334 112.988C163.126 114.387 163.57 115.957 163.628 117.563L163.687 118.211ZM157.862 115.958C157.784 115.117 157.421 114.327 156.833 113.719C156.537 113.492 156.198 113.327 155.836 113.236C155.474 113.145 155.097 113.129 154.729 113.19C154.36 113.251 154.008 113.386 153.695 113.589C153.381 113.791 153.112 114.056 152.905 114.366C152.56 114.975 152.385 115.666 152.4 116.366L157.862 115.958Z" fill="#F9F9F9"/>
<path d="M165.402 103.902L170.961 103.501L172.404 123.466L166.845 123.867L165.402 103.902Z" fill="#F9F9F9"/>
<path d="M174.688 103.229L180.247 102.828L181.691 122.792L176.138 123.194L174.688 103.229Z" fill="#F9F9F9"/>
<path d="M184.033 115.395C183.928 114.383 184.038 113.359 184.354 112.391C184.671 111.423 185.188 110.533 185.871 109.778C187.256 108.238 189.217 107.375 191.754 107.189C194.645 106.982 196.893 107.664 198.498 109.234C199.831 110.64 200.601 112.487 200.662 114.423C200.722 116.36 200.07 118.251 198.828 119.738C197.456 121.265 195.467 122.128 192.861 122.327C190.836 122.569 188.791 122.088 187.088 120.967C186.182 120.339 185.435 119.508 184.905 118.541C184.374 117.574 184.076 116.497 184.033 115.395ZM189.593 114.981C189.582 116.003 189.933 116.995 190.583 117.783C190.845 118.052 191.162 118.26 191.513 118.394C191.863 118.527 192.239 118.583 192.613 118.557C192.987 118.531 193.351 118.424 193.68 118.244C194.009 118.063 194.295 117.813 194.517 117.512C195.041 116.611 195.237 115.557 195.074 114.528C195.08 113.527 194.735 112.556 194.097 111.784C193.848 111.511 193.539 111.299 193.194 111.164C192.85 111.029 192.479 110.976 192.11 111.008C191.726 111.026 191.351 111.132 191.014 111.318C190.677 111.504 190.388 111.766 190.169 112.082C189.647 112.953 189.452 113.98 189.618 114.981H189.593Z" fill="#F9F9F9"/>
<path d="M202.413 101.223L208.334 100.795L208.664 105.326L208.179 114.548L204.516 114.813L202.736 105.753L202.413 101.223ZM203.707 116.288L209.234 115.887L209.59 120.78L204.057 121.175L203.707 116.288Z" fill="#F9F9F9"/>
<path d="M105.487 64.4573C105.458 65.4047 105.508 66.3528 105.636 67.2919C99.7721 69.2502 93.5181 69.7456 87.4187 68.7351C87.7115 67.6281 87.8893 66.4939 87.9494 65.3504C87.7454 66.5018 87.3448 67.6095 86.7651 68.625C85.6131 68.405 84.966 68.2173 84.966 68.2173C84.966 68.2173 86.1438 61.8492 84.0211 57.2156C81.8984 52.5819 82.9598 49.9932 84.5647 49.2619C87.5417 40.1111 98.7311 41.5543 102.517 45.269C107.319 49.9803 107.345 63.2536 108.199 66.2888C107.494 66.5929 106.801 66.8712 106.109 67.1171C105.762 66.2691 105.552 65.3713 105.487 64.4573Z" fill="#263238"/>
<path d="M110.115 78.7014L110.697 80.5458C110.911 81.1929 111.124 81.8401 111.344 82.4549C111.778 83.7492 112.231 85.0435 112.716 86.2861C113.202 87.5286 113.668 88.8359 114.172 90.1043L114.923 92.0458L115.111 92.5247L115.156 92.6347C115.076 92.5647 114.984 92.5099 114.884 92.473C114.742 92.4212 114.684 92.473 114.774 92.473C114.93 92.4723 115.085 92.4483 115.234 92.4018C115.74 92.2414 116.226 92.0243 116.683 91.7546C117.787 91.1115 118.842 90.3891 119.841 89.5931C120.89 88.7777 121.919 87.904 122.928 87.0044C123.938 86.1049 124.954 85.1665 125.931 84.2475L127.918 85.9301C127.09 87.1209 126.216 88.2082 125.329 89.3148C124.443 90.4214 123.446 91.4569 122.424 92.4859C121.371 93.5601 120.225 94.539 119 95.4111C118.299 95.9022 117.546 96.3146 116.755 96.6407C116.252 96.8421 115.726 96.977 115.188 97.0419C114.459 97.1327 113.719 97.0324 113.04 96.7507C112.3 96.4354 111.669 95.9086 111.228 95.2363C111.131 95.0875 111.04 94.9386 110.969 94.8027L110.794 94.4533L110.561 93.9808C110.257 93.3337 109.914 92.6865 109.649 92.0782C109.06 90.7839 108.471 89.4895 107.934 88.1952C107.397 86.9009 106.872 85.5677 106.374 84.2346C106.141 83.5874 105.908 82.882 105.688 82.2025C105.468 81.523 105.254 80.8564 105.041 80.0604L110.115 78.7014Z" fill="#FFC3BD"/>
<path d="M108.581 72.9545C110.814 73.524 112.373 82.7008 112.373 82.7008L106.225 86.8815C106.225 86.8815 100.336 77.6206 102.051 75.1678C103.837 72.618 105.326 72.1262 108.581 72.9545Z" fill="#3E4095"/>
<path d="M108.581 72.9545C110.814 73.524 112.373 82.7008 112.373 82.7008L106.225 86.8815C106.225 86.8815 100.336 77.6206 102.051 75.1678C103.837 72.618 105.326 72.1262 108.581 72.9545Z" fill="#3E4095"/>
<path opacity="0.4" d="M108.581 72.9545C110.814 73.524 112.373 82.7008 112.373 82.7008L106.225 86.8815C106.225 86.8815 100.336 77.6206 102.051 75.1678C103.837 72.618 105.326 72.1262 108.581 72.9545Z" fill="#F9F9F9"/>
<path opacity="0.3" d="M108.38 75.006L110.095 84.254L106.639 86.5967L108.38 75.006Z" fill="black"/>
<path d="M125.828 84.4676L127.879 79.5232L130.41 84.4676C130.41 84.4676 128.766 86.9268 126.598 86.3249L125.828 84.4676Z" fill="#FFC3BD"/>
<path d="M130.138 79.012L133.387 80.3192L130.41 84.4676L127.873 79.5232L130.138 79.012Z" fill="#FFC3BD"/>
<path d="M96.5113 227.445H101.928L102.29 214.909H96.8737L96.5113 227.445Z" fill="#FFC3BD"/>
<path d="M60.1925 211.298L65.1692 213.421L71.6861 202.575L66.703 200.452L60.1925 211.298Z" fill="#FFC3BD"/>
<path d="M66.1271 212.683L60.9498 209.499C60.8612 209.442 60.7548 209.42 60.6509 209.437C60.547 209.453 60.4529 209.508 60.3867 209.59L57.2739 213.324C57.1964 213.422 57.1408 213.535 57.1107 213.656C57.0806 213.777 57.0768 213.903 57.0995 214.025C57.1222 214.148 57.1709 214.264 57.2422 214.367C57.3136 214.469 57.406 214.555 57.5133 214.618C59.3383 215.699 60.2702 216.126 62.5482 217.524C63.9526 218.391 65.907 219.789 67.842 220.98C69.777 222.171 71.0778 220.333 70.3595 219.653C67.2208 216.657 67.3114 215.233 66.7224 213.46C66.6246 213.137 66.413 212.861 66.1271 212.683Z" fill="#263238"/>
<path d="M102.109 226.817H96.0324C95.9277 226.816 95.8262 226.853 95.7465 226.921C95.6669 226.988 95.6144 227.083 95.5988 227.186L94.9063 232.001C94.8894 232.125 94.8995 232.25 94.936 232.369C94.9724 232.489 95.0343 232.599 95.1174 232.691C95.2005 232.784 95.3028 232.858 95.4172 232.908C95.5316 232.957 95.6554 232.981 95.78 232.978C97.9027 232.946 98.9252 232.816 101.604 232.816C103.248 232.816 106.652 232.991 108.924 232.991C111.195 232.991 111.312 230.746 110.367 230.538C106.128 229.626 104.458 228.37 103.028 227.173C102.775 226.947 102.448 226.821 102.109 226.817Z" fill="#263238"/>
<path opacity="0.2" d="M102.284 214.916L102.103 221.375H96.686L96.8737 214.916H102.284Z" fill="black"/>
<path opacity="0.2" d="M66.703 200.458L71.6797 202.575L68.3209 208.166L63.3442 206.043L66.703 200.458Z" fill="black"/>
<path d="M108.581 72.9545C108.581 72.9545 111.17 73.8606 105.992 105.617H83.9887C84.3576 96.673 84.3705 91.1592 80.1057 72.7992C83.1825 72.1634 86.3014 71.7524 89.4378 71.5696C92.7621 71.3299 96.0993 71.3299 99.4235 71.5696C103.721 71.9579 108.581 72.9545 108.581 72.9545Z" fill="#3E4095"/>
<path opacity="0.4" d="M108.581 72.9545C108.581 72.9545 111.17 73.8606 105.992 105.617H83.9887C84.3576 96.673 84.3705 91.1592 80.1057 72.7992C83.1825 72.1634 86.3014 71.7524 89.4378 71.5696C92.7621 71.3299 96.0993 71.3299 99.4235 71.5696C103.721 71.9579 108.581 72.9545 108.581 72.9545Z" fill="#F9F9F9"/>
<path d="M89.4507 71.5632C92.7752 71.3298 96.112 71.3298 99.4364 71.5632C99.9736 71.6149 100.524 71.6732 101.067 71.7379C101.294 72.078 101.439 72.4655 101.491 72.8706C101.544 73.2757 101.503 73.6875 101.371 74.0741C100.666 75.815 98.1356 76.0156 96.2977 76.0156C89.496 76.0156 88.3441 72.0421 88.2988 71.8738L88.2341 71.6343L89.4507 71.5632Z" fill="#F9F9F9"/>
<path d="M90.441 60.3284C91.0882 63.5642 91.703 69.4275 89.4508 71.5696C89.4508 71.5696 90.331 74.8054 96.2978 74.8054C102.86 74.8054 99.4365 71.5696 99.4365 71.5696C95.8513 70.7154 95.9483 68.0555 96.5696 65.564L90.441 60.3284Z" fill="#FFC3BD"/>
<path d="M91.0945 58.0439C90.3244 60.5873 91.3922 66.6059 92.9778 68.9357C89.852 67.143 88.7971 61.681 88.7971 61.681L91.0945 58.0439Z" fill="#263238"/>
<path opacity="0.2" d="M92.939 62.4641L96.5696 65.5575C96.4103 66.1374 96.3063 66.7311 96.2589 67.3307C94.8934 67.1301 93.0231 65.6287 92.8678 64.1984C92.7874 63.6207 92.8115 63.0332 92.939 62.4641Z" fill="black"/>
<path d="M87.4769 54.5946C88.7324 59.8172 89.1466 62.0563 92.2918 64.302C97.0226 67.6737 103.164 64.9945 103.494 59.5001C103.792 54.5557 101.695 46.8481 96.1619 45.6573C94.9427 45.3881 93.675 45.4349 92.479 45.7934C91.2831 46.1518 90.1986 46.81 89.3285 47.7054C88.4584 48.6008 87.8316 49.7037 87.5075 50.9094C87.1835 52.1151 87.173 53.3836 87.4769 54.5946Z" fill="#FFC3BD"/>
<path d="M105.999 105.617C105.999 105.617 110.264 147.307 109.882 163.81C109.513 180.972 103.222 220.113 103.222 220.113H95.9095C95.9095 220.113 97.0679 181.962 96.4207 165.104C95.7153 146.725 89.8779 105.604 89.8779 105.604L105.999 105.617Z" fill="#3E4095"/>
<path opacity="0.4" d="M105.999 105.617C105.999 105.617 110.264 147.307 109.882 163.81C109.513 180.972 103.222 220.113 103.222 220.113H95.9095C95.9095 220.113 97.0679 181.962 96.4207 165.104C95.7153 146.725 89.8779 105.604 89.8779 105.604L105.999 105.617Z" fill="black"/>
<path d="M95.301 220.384H103.882L104.517 217.647L94.8998 217.31L95.301 220.384Z" fill="#3E4095"/>
<path opacity="0.2" d="M96.5178 115.991C101.915 126.85 97.5985 146.66 95.6894 154.031C94.7122 142.964 93.0619 129.439 91.7741 119.492C92.5895 113.9 94.0262 110.982 96.5178 115.991Z" fill="black"/>
<path d="M100.194 105.617C100.194 105.617 95.2105 148.977 91.4505 162.871C86.9916 179.393 70.0165 207.525 70.0165 207.525L63.2278 204.639C63.2278 204.639 73.7312 172.695 77.1482 163.991C84.4288 145.417 78.1966 117.738 84.0146 105.617H100.194Z" fill="#3E4095"/>
<path opacity="0.4" d="M100.194 105.617C100.194 105.617 95.2105 148.977 91.4505 162.871C86.9916 179.393 70.0165 207.525 70.0165 207.525L63.2278 204.639C63.2278 204.639 73.7312 172.695 77.1482 163.991C84.4288 145.417 78.1966 117.738 84.0146 105.617H100.194Z" fill="black"/>
<path d="M62.2894 204.658L70.7155 208.244L72.7411 205.979L63.0207 201.313L62.2894 204.658Z" fill="#3E4095"/>
<path d="M95.7799 54.6657C95.8576 55.0929 96.1423 55.4035 96.4271 55.3517C96.7118 55.3 96.8736 54.9117 96.796 54.4845C96.7183 54.0574 96.4336 53.7468 96.1488 53.7921C95.8641 53.8374 95.6699 54.2322 95.7799 54.6657Z" fill="#263238"/>
<path d="M100.608 53.8115C100.679 54.2386 100.97 54.5493 101.255 54.4975C101.54 54.4457 101.708 54.0574 101.63 53.6303C101.553 53.2032 101.268 52.8925 100.983 52.9378C100.698 52.9831 100.53 53.3779 100.608 53.8115Z" fill="#263238"/>
<path d="M100.86 52.9896L101.837 52.5042C101.837 52.5042 101.449 53.4038 100.86 52.9896Z" fill="#263238"/>
<path d="M99.4494 54.7758C100.005 55.6891 100.685 56.5211 101.469 57.2479C101.276 57.4424 101.045 57.5928 100.789 57.6889C100.533 57.785 100.259 57.8244 99.9866 57.8045L99.4494 54.7758Z" fill="#ED847E"/>
<path d="M98.0387 59.8301C98.2838 59.8297 98.5285 59.808 98.77 59.7654C98.7884 59.7646 98.8065 59.7599 98.8231 59.7516C98.8396 59.7433 98.8541 59.7315 98.8657 59.7171C98.8773 59.7027 98.8856 59.6859 98.8902 59.668C98.8948 59.6501 98.8954 59.6314 98.8921 59.6132C98.8889 59.595 98.8818 59.5777 98.8712 59.5625C98.8607 59.5473 98.8471 59.5345 98.8312 59.525C98.8153 59.5155 98.7976 59.5095 98.7792 59.5074C98.7609 59.5054 98.7422 59.5073 98.7247 59.513C98.1917 59.6192 97.6413 59.5977 97.1182 59.4504C96.5952 59.303 96.1145 59.034 95.7154 58.6652C95.6912 58.6415 95.6586 58.6282 95.6248 58.6282C95.5909 58.6282 95.5583 58.6415 95.5341 58.6652C95.5216 58.6767 95.5116 58.6907 95.5047 58.7063C95.4979 58.7219 95.4943 58.7388 95.4943 58.7558C95.4943 58.7729 95.4979 58.7897 95.5047 58.8053C95.5116 58.8209 95.5216 58.8349 95.5341 58.8464C96.2096 59.487 97.1078 59.8398 98.0387 59.8301Z" fill="#263238"/>
<path d="M89.3084 51.5335C89.4499 52.9097 89.6659 54.2772 89.9555 55.63C89.9555 55.63 93.1913 51.5335 93.7285 49.3396C93.6001 50.2034 93.3495 51.0445 92.9842 51.8377C92.9842 51.8377 97.3397 50.8863 97.7668 48.0129C97.7594 49.2993 97.6162 50.5813 97.3397 51.8377C97.3397 51.8377 101.494 50.2068 101.113 47.4499C100.731 44.693 94.3498 43.6252 91.4052 44.5571C88.4606 45.489 85.5807 48.5112 86.4479 52.666C87.3151 56.8208 88.9783 58.3805 88.9783 58.3805C88.9783 58.3805 87.7811 54.1933 89.3084 51.5335Z" fill="#263238"/>
<path d="M87.2504 58.5293C87.6499 59.488 88.4133 60.249 89.3731 60.6455C90.6674 61.1633 91.4376 60.0566 91.211 58.7752C91.0104 57.6168 90.0979 55.9601 88.7583 55.986C88.4652 55.999 88.1799 56.0847 87.9282 56.2356C87.6765 56.3864 87.4664 56.5976 87.3167 56.85C87.1671 57.1024 87.0827 57.3881 87.0711 57.6813C87.0595 57.9744 87.1212 58.2659 87.2504 58.5293Z" fill="#FFC3BD"/>
<path d="M90.0914 49.5402C89.4443 52.1289 90.7903 58.0828 92.4859 60.3284C89.2501 58.6911 87.9558 53.2808 87.9558 53.2808L90.0914 49.5402Z" fill="#263238"/>
<path d="M94.0067 53.1902C94.04 53.1802 94.0708 53.1635 94.0975 53.1413C94.1242 53.1191 94.1461 53.0917 94.162 53.0608C94.2984 52.7689 94.5021 52.5134 94.7564 52.3154C95.0106 52.1174 95.3082 51.9825 95.6246 51.9218C95.6915 51.9121 95.7523 51.8773 95.7944 51.8244C95.8365 51.7714 95.8568 51.7044 95.8511 51.637C95.8479 51.6032 95.838 51.5704 95.8218 51.5405C95.8056 51.5106 95.7836 51.4843 95.757 51.4632C95.7304 51.442 95.6998 51.4265 95.667 51.4174C95.6343 51.4084 95.6 51.406 95.5664 51.4105C95.1649 51.4802 94.786 51.6453 94.4617 51.8919C94.1373 52.1386 93.877 52.4596 93.7025 52.8278C93.6806 52.8728 93.6721 52.9232 93.6782 52.9729C93.6843 53.0226 93.7047 53.0695 93.7368 53.1079C93.769 53.1462 93.8117 53.1744 93.8596 53.189C93.9075 53.2037 93.9586 53.2041 94.0067 53.1902Z" fill="#263238"/>
<path d="M102.375 51.184C102.407 51.1854 102.44 51.1798 102.47 51.1675C102.5 51.1552 102.527 51.1366 102.549 51.1128C102.597 51.0644 102.623 50.9994 102.623 50.9316C102.623 50.8639 102.597 50.7988 102.549 50.7504C102.273 50.4517 101.931 50.2223 101.55 50.0806C101.169 49.9389 100.76 49.8891 100.355 49.935C100.322 49.9412 100.29 49.954 100.261 49.9727C100.232 49.9914 100.208 50.0156 100.188 50.0439C100.169 50.0722 100.156 50.104 100.149 50.1375C100.142 50.171 100.142 50.2056 100.148 50.2392C100.162 50.3046 100.201 50.3621 100.257 50.3995C100.312 50.4369 100.38 50.4513 100.446 50.4398C100.765 50.4042 101.087 50.4442 101.387 50.5567C101.688 50.6691 101.957 50.8508 102.174 51.087C102.198 51.1171 102.229 51.1414 102.263 51.1582C102.298 51.175 102.336 51.1838 102.375 51.184Z" fill="#263238"/>
<path d="M82.7914 80.481C81.8919 83.3221 81.0311 86.3055 80.2998 89.2436C79.5638 92.144 79.0254 95.0911 78.6884 98.0644L78.6366 98.608C78.6366 98.7828 78.6366 98.8216 78.6366 98.9769C78.6438 99.2821 78.6676 99.5868 78.7078 99.8894C78.7902 100.598 78.909 101.302 79.0638 101.999C79.3679 103.442 79.7109 104.931 80.151 106.406C80.5911 107.882 80.9664 109.383 81.4065 110.872L82.7008 115.337L80.2998 116.327C78.8243 113.506 77.5429 110.632 76.3457 107.668C75.7697 106.18 75.2067 104.678 74.7407 103.093C74.5077 102.303 74.2877 101.494 74.0936 100.614C74.0014 100.148 73.9366 99.6771 73.8994 99.2034C73.8994 98.964 73.8994 98.608 73.8994 98.3945V97.7473C73.9543 96.0982 74.1055 94.4538 74.3524 92.8224C74.566 91.2045 74.8831 89.6254 75.2261 88.0528C75.8995 84.9033 76.764 81.7976 77.8147 78.7531L82.7914 80.481Z" fill="#FFC3BD"/>
<path d="M80.1188 72.7992C77.9184 73.4464 75.2715 81.0505 75.2715 81.0505L83.814 87.1597C83.814 87.1597 86.9334 80.8305 86.0079 77.983C85.0437 75.019 82.6362 72.0356 80.1188 72.7992Z" fill="#3E4095"/>
<path opacity="0.4" d="M80.1188 72.7992C77.9184 73.4464 75.2715 81.0505 75.2715 81.0505L83.814 87.1597C83.814 87.1597 86.9334 80.8305 86.0079 77.983C85.0437 75.019 82.6362 72.0356 80.1188 72.7992Z" fill="#F9F9F9"/>
<path d="M68.3145 214.741C68.4197 214.704 68.5155 214.644 68.5949 214.566C68.6743 214.488 68.7355 214.393 68.774 214.288C68.8114 214.221 68.831 214.145 68.831 214.068C68.831 213.991 68.8114 213.915 68.774 213.848C68.3857 213.279 66.4248 213.324 66.1853 213.33C66.1605 213.331 66.1363 213.338 66.1157 213.352C66.095 213.366 66.0788 213.385 66.0688 213.408C66.0562 213.428 66.0496 213.452 66.0496 213.476C66.0496 213.5 66.0562 213.524 66.0688 213.544C66.5801 214.055 67.5379 214.89 68.2109 214.761L68.3145 214.741ZM66.496 213.563C67.279 213.563 68.3274 213.673 68.5345 213.978C68.5522 214.007 68.5616 214.04 68.5616 214.075C68.5616 214.109 68.5522 214.142 68.5345 214.172C68.5059 214.25 68.4584 214.32 68.3963 214.375C68.3342 214.43 68.2594 214.469 68.1786 214.489C67.8226 214.579 67.2014 214.211 66.496 213.563Z" fill="#3E4095"/>
<path d="M67.0719 213.427C67.6673 213.24 68.3015 212.91 68.4374 212.541C68.4712 212.445 68.4717 212.34 68.4388 212.244C68.4059 212.148 68.3416 212.065 68.2562 212.01C68.1809 211.947 68.0922 211.902 67.9969 211.879C67.9015 211.855 67.8021 211.854 67.7061 211.874C66.936 212.01 66.1077 213.33 66.0753 213.389C66.0639 213.408 66.058 213.431 66.058 213.453C66.058 213.476 66.0639 213.498 66.0753 213.518C66.0869 213.537 66.1031 213.553 66.1222 213.564C66.1414 213.575 66.1631 213.582 66.1853 213.583C66.4868 213.574 66.7855 213.522 67.0719 213.427ZM67.6673 212.133H67.7514C67.8123 212.12 67.8752 212.121 67.9356 212.136C67.996 212.151 68.0525 212.178 68.1009 212.217C68.2303 212.321 68.2174 212.398 68.198 212.457C68.0686 212.813 67.0849 213.24 66.4312 213.324C66.7286 212.826 67.1559 212.419 67.6673 212.146V212.133Z" fill="#3E4095"/>
<path d="M104.141 227.762C104.597 227.8 105.053 227.683 105.436 227.432C105.525 227.352 105.592 227.25 105.633 227.138C105.674 227.025 105.686 226.904 105.669 226.785C105.664 226.715 105.641 226.647 105.602 226.588C105.564 226.529 105.511 226.481 105.449 226.448C104.801 226.086 102.633 227.186 102.388 227.309C102.364 227.319 102.343 227.335 102.329 227.357C102.315 227.378 102.307 227.403 102.307 227.429C102.307 227.454 102.315 227.48 102.329 227.501C102.343 227.522 102.364 227.539 102.388 227.548C102.963 227.679 103.551 227.75 104.141 227.762ZM105.106 226.642C105.188 226.637 105.27 226.653 105.345 226.688C105.371 226.702 105.392 226.722 105.407 226.747C105.421 226.772 105.429 226.801 105.429 226.83C105.441 226.905 105.435 226.981 105.41 227.052C105.385 227.123 105.343 227.187 105.287 227.238C104.957 227.536 104.064 227.587 102.866 227.387C103.565 227.014 104.322 226.762 105.106 226.642Z" fill="#3E4095"/>
<path d="M102.465 227.574H102.517C103.164 227.283 104.458 226.118 104.342 225.503C104.342 225.355 104.212 225.18 103.856 225.141C103.729 225.127 103.6 225.139 103.478 225.177C103.355 225.215 103.242 225.277 103.145 225.361C102.497 225.931 102.342 227.387 102.336 227.445C102.335 227.468 102.34 227.49 102.35 227.511C102.36 227.531 102.375 227.548 102.394 227.561C102.415 227.575 102.441 227.579 102.465 227.574ZM103.759 225.381H103.837C104.07 225.381 104.089 225.503 104.089 225.529C104.154 225.898 103.287 226.824 102.627 227.218C102.679 226.603 102.921 226.02 103.319 225.549C103.438 225.441 103.593 225.381 103.753 225.381H103.759Z" fill="#3E4095"/>
<path d="M83.6846 104.329L83.128 106.27C83.0504 106.419 83.2316 106.575 83.484 106.575H106.135C106.335 106.575 106.497 106.478 106.51 106.355L106.711 104.413C106.711 104.277 106.549 104.161 106.335 104.161H84.047C83.9772 104.155 83.9072 104.168 83.8438 104.197C83.7803 104.227 83.7255 104.272 83.6846 104.329Z" fill="#263238"/>
<path d="M86.6744 106.814H86.0725C85.956 106.814 85.8654 106.756 85.8719 106.678L86.1502 104.089C86.1502 104.018 86.2666 103.954 86.3831 103.954H86.9785C87.1015 103.954 87.1856 104.018 87.1791 104.089L86.9009 106.678C86.9009 106.782 86.7973 106.814 86.6744 106.814Z" fill="#3E4095"/>
<path opacity="0.4" d="M86.6744 106.814H86.0725C85.956 106.814 85.8654 106.756 85.8719 106.678L86.1502 104.089C86.1502 104.018 86.2666 103.954 86.3831 103.954H86.9785C87.1015 103.954 87.1856 104.018 87.1791 104.089L86.9009 106.678C86.9009 106.782 86.7973 106.814 86.6744 106.814Z" fill="black"/>
<path d="M104.426 106.814H103.831C103.714 106.814 103.624 106.756 103.63 106.678L103.915 104.089C103.915 104.018 104.025 103.954 104.141 103.954H104.737C104.86 103.954 104.95 104.018 104.937 104.089L104.659 106.678C104.653 106.782 104.549 106.814 104.426 106.814Z" fill="#3E4095"/>
<path opacity="0.4" d="M104.426 106.814H103.831C103.714 106.814 103.624 106.756 103.63 106.678L103.915 104.089C103.915 104.018 104.025 103.954 104.141 103.954H104.737C104.86 103.954 104.95 104.018 104.937 104.089L104.659 106.678C104.653 106.782 104.549 106.814 104.426 106.814Z" fill="black"/>
<path d="M95.5534 106.814H94.958C94.8351 106.814 94.7445 106.756 94.7574 106.678L95.0357 104.089C95.0357 104.018 95.1457 103.954 95.2687 103.954H95.864C95.9805 103.954 96.0711 104.018 96.0647 104.089L95.7864 106.678C95.7799 106.782 95.6699 106.814 95.5534 106.814Z" fill="#3E4095"/>
<path opacity="0.4" d="M95.5534 106.814H94.958C94.8351 106.814 94.7445 106.756 94.7574 106.678L95.0357 104.089C95.0357 104.018 95.1457 103.954 95.2687 103.954H95.864C95.9805 103.954 96.0711 104.018 96.0647 104.089L95.7864 106.678C95.7799 106.782 95.6699 106.814 95.5534 106.814Z" fill="black"/>
<path d="M96.0001 53.8374L96.9773 53.3585C96.9773 53.3585 96.589 54.258 96.0001 53.8374Z" fill="#263238"/>
<path d="M82.5196 114.606L87.1598 118.165L81.7818 119.35C81.7818 119.35 79.4974 116.761 80.2869 114.625L82.5196 114.606Z" fill="#FFC3BD"/>
<path d="M88.2988 122.572L83.7428 123.317L81.2577 118.644L87.1598 118.165L88.2988 122.572Z" fill="#FFC3BD"/>
</svg>
