<svg width="241" height="245" viewBox="0 0 241 245" fill="none" xmlns="http://www.w3.org/2000/svg">
<path d="M123.031 244.53C188.183 244.53 241 214.61 241 177.701C241 140.793 188.183 110.873 123.031 110.873C57.8781 110.873 5.0614 140.793 5.0614 177.701C5.0614 214.61 57.8781 244.53 123.031 244.53Z" fill="#F5F5F5"/>
<path d="M104.264 201.109C119.558 201.109 131.956 194.085 131.956 185.421C131.956 176.757 119.558 169.733 104.264 169.733C88.9707 169.733 76.5729 176.757 76.5729 185.421C76.5729 194.085 88.9707 201.109 104.264 201.109Z" fill="#E0E0E0"/>
<path d="M151.211 215.676C169.729 215.676 184.74 207.173 184.74 196.683C184.74 186.194 169.729 177.69 151.211 177.69C132.694 177.69 117.682 186.194 117.682 196.683C117.682 207.173 132.694 215.676 151.211 215.676Z" fill="#E0E0E0"/>
<path d="M113.768 179.417C113.768 178.038 112.846 176.658 110.99 175.616C107.284 173.513 101.272 173.513 97.5663 175.616C95.7105 176.664 94.7826 178.044 94.7826 179.417V183.672C94.7826 185.051 95.7105 186.431 97.5663 187.479C101.272 189.576 107.284 189.576 110.99 187.479C112.846 186.425 113.768 185.051 113.768 183.672V179.417Z" fill="#263238"/>
<path d="M111.013 179.87C114.719 181.972 114.719 185.388 111.013 187.479C107.307 189.571 101.295 189.576 97.5889 187.479C93.8828 185.382 93.8772 181.961 97.5889 179.87C101.301 177.779 107.307 177.773 111.013 179.87Z" fill="#37474F"/>
<path d="M113.791 179.417H94.8052V183.672H113.791V179.417Z" fill="#37474F"/>
<path d="M111.013 175.632C114.719 177.729 114.719 181.15 111.013 183.236C107.307 185.322 101.295 185.338 97.5889 183.236C93.8828 181.134 93.8772 177.718 97.5889 175.632C101.301 173.546 107.307 173.513 111.013 175.632Z" fill="#455A64"/>
<path d="M107.459 176.581C109.208 177.569 109.208 179.175 107.459 180.162C106.479 180.65 105.396 180.903 104.298 180.903C103.2 180.903 102.117 180.65 101.137 180.162C99.3941 179.175 99.3941 177.569 101.137 176.581C102.117 176.094 103.2 175.84 104.298 175.84C105.396 175.84 106.479 176.094 107.459 176.581Z" fill="#263238"/>
<path d="M108.769 98.0543H99.8271V178.375H108.769V98.0543Z" fill="#263238"/>
<path d="M140.813 60.9622V60.9015C140.729 60.4435 140.627 59.98 140.509 59.5165C140.525 59.5654 140.538 59.6152 140.549 59.6654C140.476 59.3509 140.391 59.0364 140.301 58.7219C140.335 58.8378 140.363 58.9536 140.391 59.0695C140.301 58.7219 140.2 58.3798 140.093 58.0321C140.144 58.1811 140.194 58.3356 140.234 58.4846C140.178 58.2859 140.116 58.0873 140.054 57.8886L139.953 57.5741V57.53V57.5631C139.197 55.3128 138.202 53.1469 136.983 51.1015C136.944 51.0298 136.904 50.958 136.86 50.8863C133.795 45.7711 129.352 41.0973 124.392 38.1949L124.15 38.0514C122.727 37.2408 121.219 36.5858 119.651 36.098C118.348 35.6936 116.991 35.4798 115.624 35.4634H115.152H114.865C114.629 35.4634 114.398 35.5076 114.173 35.5407H113.965L113.583 35.6124C113.42 35.6455 113.257 35.6842 113.099 35.7283L112.661 35.8552C112.661 35.8552 112.661 35.8552 112.632 35.8552L112.194 36.0097C112.048 36.0704 111.901 36.1311 111.766 36.1973L110.799 36.7491L62.0918 64.3392H62.0524C59.4149 65.7904 57.8177 68.7536 57.8177 72.9639V98.9592L39.49 108.892C37.6742 109.874 36.157 111.312 35.0935 113.058C34.03 114.804 33.4584 116.796 33.4373 118.831C33.4161 120.865 33.9461 122.868 34.973 124.636C36 126.403 37.487 127.871 39.2819 128.889C44.3856 131.778 50.174 133.298 56.066 133.298C61.9579 133.298 67.7463 131.778 72.85 128.889L91.8358 118.405L141.173 90.4339V64.433C141.159 63.2678 141.038 62.1063 140.813 60.9622Z" fill="#3E4095"/>
<path d="M61.2482 97.1549V68.1136L92.5837 50.5332L95.4068 77.3839L61.2482 97.1549Z" fill="#3E4095"/>
<path opacity="0.5" d="M61.2482 97.1549V68.1136L92.5837 50.5332L95.4068 77.3839L61.2482 97.1549Z" fill="black"/>
<path d="M61.2482 97.1549L95.4068 77.3839V108.986L88.3434 112.506L61.2482 97.1549Z" fill="#3E4095"/>
<path opacity="0.3" d="M61.2482 97.1549L95.4068 77.3839V108.986L88.3434 112.506L61.2482 97.1549Z" fill="black"/>
<path d="M140.819 60.9622L137.579 62.7114L117.863 73.3005L114.297 75.2042L89.6538 88.4474C88.0904 85.854 84.0301 73.753 81.8649 71.5623C79.7791 69.4098 77.398 67.5526 74.7902 66.0443C71.6972 64.2896 68.801 63.4564 66.2984 63.4564C64.826 63.4267 63.3702 63.7667 62.0693 64.4441L110.782 36.854L111.75 36.3022C111.884 36.236 112.031 36.1753 112.177 36.1146L112.616 35.9601C112.616 35.9601 112.616 35.9601 112.644 35.9601L113.082 35.8332C113.24 35.789 113.403 35.7504 113.566 35.7173L113.948 35.6456H114.156C114.381 35.6124 114.612 35.5849 114.848 35.5683H115.135H115.607C116.974 35.5846 118.331 35.7984 119.634 36.2029C121.202 36.6906 122.711 37.3457 124.133 38.1562L124.375 38.2997C132.524 42.9624 139.283 52.5141 140.819 60.9622Z" fill="#3E4095"/>
<g opacity="0.3">
<path d="M140.819 60.9622L137.579 62.7114L117.863 73.3005L114.297 75.2042L89.6538 88.4474C88.0904 85.854 84.0301 73.753 81.8649 71.5623C79.7791 69.4098 77.398 67.5526 74.7902 66.0443C71.6972 64.2896 68.801 63.4564 66.2984 63.4564C64.826 63.4267 63.3702 63.7667 62.0693 64.4441L110.782 36.854L111.75 36.3022C111.884 36.236 112.031 36.1753 112.177 36.1146L112.616 35.9601C112.616 35.9601 112.616 35.9601 112.644 35.9601L113.082 35.8332C113.24 35.789 113.403 35.7504 113.566 35.7173L113.948 35.6456H114.156C114.381 35.6124 114.612 35.5849 114.848 35.5683H115.135H115.607C116.974 35.5846 118.331 35.7984 119.634 36.2029C121.202 36.6906 122.711 37.3457 124.133 38.1562L124.375 38.2997C132.524 42.9624 139.283 52.5141 140.819 60.9622Z" fill="black"/>
</g>
<path d="M136.826 50.925C136.871 50.9912 136.916 51.0629 136.955 51.1347C136.933 51.0464 136.893 50.9746 136.826 50.925Z" fill="#3E4095"/>
<path d="M139.441 56.1671C140.05 57.7202 140.512 59.3255 140.819 60.9623L137.579 62.7115L117.863 73.3006L114.297 75.2043L89.6538 88.4475L91.8358 118.405L141.173 90.434V64.4331C141.107 61.598 140.52 58.7978 139.441 56.1671Z" fill="#3E4095"/>
<path d="M138.71 54.4344C138.502 53.9819 138.282 53.5239 138.052 53.0715C138.282 53.5239 138.513 53.9819 138.71 54.4344Z" fill="#3E4095"/>
<path d="M137.197 51.4768C137.433 51.8962 137.669 52.3155 137.889 52.7404C137.669 52.3376 137.439 51.9182 137.197 51.4768Z" fill="#3E4095"/>
<g opacity="0.5">
<path d="M136.826 50.925C136.871 50.9912 136.916 51.0629 136.955 51.1347C136.933 51.0464 136.893 50.9746 136.826 50.925Z" fill="black"/>
<path d="M139.441 56.1671C140.05 57.7202 140.512 59.3255 140.819 60.9623L137.579 62.7115L117.863 73.3006L114.297 75.2043L89.6538 88.4475L91.8358 118.405L141.173 90.434V64.4331C141.107 61.598 140.52 58.7978 139.441 56.1671Z" fill="black"/>
<path d="M138.71 54.4344C138.502 53.9819 138.282 53.5239 138.052 53.0715C138.282 53.5239 138.513 53.9819 138.71 54.4344Z" fill="black"/>
<path d="M137.197 51.4768C137.433 51.8962 137.669 52.3155 137.889 52.7404C137.669 52.3376 137.439 51.9182 137.197 51.4768Z" fill="black"/>
</g>
<path d="M66.2983 66.8886C68.261 66.8886 70.6005 67.6225 73.0468 69.0186C81.3306 73.7089 88.3321 84.4194 88.3321 92.4095V112.506L61.2369 97.155V73.124C61.2369 67.9702 63.9813 66.8886 66.2983 66.8886ZM66.2983 63.4785C61.2032 63.4785 57.7783 66.9383 57.7783 73.124V99.1194L91.8132 118.432V92.4095C91.8132 83.1833 84.1931 71.3914 74.7958 66.0665C71.7027 64.3173 68.7952 63.4785 66.2983 63.4785Z" fill="#3E4095"/>
<path d="M57.7783 99.1193L39.4505 109.052C37.6348 110.034 36.1176 111.472 35.0541 113.218C33.9906 114.964 33.419 116.956 33.3978 118.991C33.3767 121.025 33.9067 123.028 34.9336 124.796C35.9605 126.563 37.4475 128.031 39.2425 129.049C44.3462 131.938 50.1345 133.458 56.0265 133.458C61.9185 133.458 67.7068 131.938 72.8106 129.049L91.8357 118.405L57.7783 99.1193Z" fill="#3E4095"/>
<path opacity="0.2" d="M57.7783 99.1193L39.4505 109.052C37.6348 110.034 36.1176 111.472 35.0541 113.218C33.9906 114.964 33.419 116.956 33.3978 118.991C33.3767 121.025 33.9067 123.028 34.9336 124.796C35.9605 126.563 37.4475 128.031 39.2425 129.049C44.3462 131.938 50.1345 133.458 56.0265 133.458C61.9185 133.458 67.7068 131.938 72.8106 129.049L91.8357 118.405L57.7783 99.1193Z" fill="white"/>
<path d="M103.168 110.486L99.3435 112.649V76.4237L103.168 74.2551V110.486Z" fill="#E0E0E0"/>
<path d="M110.389 77.4059L99.3435 83.6578V76.4237L110.389 70.1663V77.4059Z" fill="#E0E0E0"/>
<path d="M104.815 109.212C104.748 110.433 104.388 111.622 103.764 112.681C103.141 113.741 102.272 114.641 101.227 115.309C99.2422 116.413 97.6338 115.524 97.6338 113.278C97.7057 112.061 98.0684 110.877 98.6927 109.823C99.317 108.769 100.185 107.873 101.227 107.209C103.207 106.055 104.815 106.966 104.815 109.212Z" fill="#3E4095"/>
<path opacity="0.2" d="M104.815 109.212C104.748 110.433 104.388 111.622 103.764 112.681C103.141 113.741 102.272 114.641 101.227 115.309C99.2422 116.413 97.6338 115.524 97.6338 113.278C97.7057 112.061 98.0684 110.877 98.6927 109.823C99.317 108.769 100.185 107.873 101.227 107.209C103.207 106.055 104.815 106.966 104.815 109.212Z" fill="black"/>
<path d="M106.008 109.89C105.936 111.107 105.574 112.291 104.951 113.345C104.328 114.4 103.461 115.295 102.42 115.96C100.44 117.064 98.8317 116.17 98.8317 113.924C98.9004 112.703 99.261 111.515 99.8843 110.455C100.508 109.396 101.376 108.496 102.42 107.827C104.405 106.734 106.008 107.645 106.008 109.89Z" fill="#3E4095"/>
<path d="M186.157 169.562L192.501 173.171C192.501 173.171 189.295 163.134 191.072 153.041C191.742 149.234 193.159 147.341 193.654 146.32C194.149 145.299 197.984 139.009 194.61 136.106C191.235 133.204 183.334 138.976 183.688 154.526C183.862 159.62 184.692 164.672 186.157 169.562Z" fill="#3E4095"/>
<path opacity="0.3" d="M186.157 169.562L192.501 173.171C192.501 173.171 189.295 163.134 191.072 153.041C191.742 149.234 193.159 147.341 193.654 146.32C194.149 145.299 197.984 139.009 194.61 136.106C191.235 133.204 183.334 138.976 183.688 154.526C183.862 159.62 184.692 164.672 186.157 169.562Z" fill="black"/>
<path d="M189.127 171.516C189.069 171.514 189.014 171.496 188.967 171.464C188.92 171.431 188.883 171.386 188.862 171.333C188.862 171.267 186.438 164.712 186.562 154.228C186.686 143.743 192.343 138.049 192.4 137.994C192.453 137.942 192.524 137.912 192.599 137.912C192.674 137.912 192.746 137.942 192.799 137.994C192.852 138.046 192.882 138.116 192.882 138.19C192.882 138.263 192.852 138.333 192.799 138.385C192.743 138.441 187.254 143.903 187.13 154.233C187.006 164.563 189.38 171.069 189.38 171.135C189.405 171.204 189.401 171.279 189.37 171.346C189.338 171.412 189.281 171.463 189.211 171.488C189.185 171.503 189.156 171.512 189.127 171.516Z" fill="white"/>
<path d="M191.078 172.382L201.566 178.452C201.566 178.452 206.369 177.756 206.009 173.32C205.649 168.883 203.692 167.835 206.122 165.887C208.551 163.939 209.181 163.812 209.063 161.898C208.945 159.983 207.64 159.139 207.021 158.399C206.403 157.66 204.687 156.054 205.897 153.748C207.106 151.441 208.742 149.217 206.313 148.163C204.856 147.534 202.415 148.323 200.801 150.006C199.187 151.689 197.843 152.909 196.302 153.317C194.762 153.725 191.573 153.737 191.68 156.33C191.787 158.923 192.473 159.817 191.832 160.965C190.634 163.101 185.477 164.27 191.078 172.382Z" fill="#3E4095"/>
<path d="M195.352 175.124C195.28 175.124 195.211 175.098 195.159 175.049C195.107 175.001 195.075 174.935 195.071 174.865C195.071 174.711 193.912 159.37 204.777 149.295C204.803 149.263 204.835 149.238 204.871 149.22C204.908 149.202 204.948 149.191 204.988 149.19C205.029 149.188 205.07 149.195 205.108 149.209C205.146 149.224 205.18 149.247 205.208 149.276C205.236 149.305 205.258 149.339 205.272 149.377C205.285 149.415 205.29 149.455 205.287 149.495C205.283 149.535 205.271 149.573 205.251 149.608C205.231 149.643 205.204 149.674 205.171 149.697C194.486 159.586 195.611 174.672 195.611 174.821C195.617 174.895 195.593 174.968 195.545 175.025C195.496 175.082 195.427 175.117 195.352 175.124Z" fill="white"/>
<path d="M197.23 161.969C197.16 161.97 197.091 161.944 197.039 161.897C196.987 161.85 196.955 161.785 196.949 161.716C196.866 160.536 196.541 159.386 195.993 158.333C195.445 157.281 194.686 156.348 193.761 155.591C193.731 155.569 193.705 155.542 193.686 155.511C193.667 155.48 193.654 155.446 193.648 155.41C193.642 155.374 193.644 155.338 193.653 155.302C193.661 155.267 193.677 155.234 193.699 155.204C193.72 155.175 193.748 155.15 193.779 155.131C193.811 155.112 193.846 155.1 193.883 155.094C193.919 155.088 193.957 155.09 193.993 155.098C194.029 155.107 194.062 155.122 194.092 155.144C195.092 155.941 195.912 156.932 196.501 158.056C197.091 159.179 197.437 160.41 197.517 161.671C197.52 161.708 197.516 161.745 197.504 161.78C197.492 161.815 197.474 161.847 197.449 161.875C197.424 161.903 197.394 161.926 197.361 161.942C197.327 161.958 197.29 161.967 197.253 161.969H197.23Z" fill="white"/>
<path d="M196.437 164.596C196.367 164.598 196.298 164.572 196.246 164.524C196.22 164.499 196.199 164.468 196.185 164.434C196.17 164.401 196.163 164.365 196.163 164.328C196.163 164.292 196.17 164.256 196.185 164.222C196.199 164.189 196.22 164.158 196.246 164.132C196.359 164.006 199.092 161.109 205.413 161.958C205.488 161.969 205.555 162.008 205.601 162.067C205.647 162.125 205.668 162.199 205.66 162.273C205.649 162.346 205.609 162.411 205.549 162.456C205.49 162.5 205.414 162.52 205.34 162.51C199.311 161.699 196.696 164.475 196.668 164.502C196.639 164.534 196.604 164.559 196.564 164.575C196.524 164.591 196.481 164.598 196.437 164.596Z" fill="white"/>
<path d="M70.6624 82.1182C70.1619 82.1182 69.6557 82.1182 69.1608 82.0575C69.0925 82.0527 69.0259 82.0345 68.9649 82.0039C68.9039 81.9733 68.8498 81.9311 68.8057 81.8796C68.7617 81.8282 68.7286 81.7686 68.7084 81.7043C68.6883 81.6401 68.6815 81.5726 68.6884 81.5057C68.7013 81.3714 68.7675 81.2475 68.8728 81.1608C68.978 81.074 69.1138 81.0314 69.2508 81.0422C69.9182 81.1028 70.5889 81.1194 71.2585 81.0918C71.3949 81.0902 71.5267 81.1404 71.6263 81.232C71.7259 81.3235 71.7855 81.4493 71.7928 81.5829C71.7973 81.7167 71.7479 81.8468 71.6552 81.945C71.5625 82.0431 71.4341 82.1014 71.2979 82.1072C71.0785 82.1182 70.8705 82.1182 70.6624 82.1182ZM73.328 81.9085C73.1966 81.9107 73.0693 81.8637 72.9719 81.7772C72.8745 81.6906 72.8143 81.5709 72.8036 81.4424C72.7929 81.3139 72.8324 81.1862 72.9141 81.0852C72.9958 80.9842 73.1137 80.9176 73.2437 80.8987C73.9036 80.7928 74.5556 80.6435 75.1951 80.4518C75.3242 80.4199 75.4609 80.438 75.5767 80.5024C75.6925 80.5669 75.7785 80.6726 75.8169 80.7977C75.8553 80.9227 75.843 81.0575 75.7828 81.174C75.7225 81.2904 75.6188 81.3796 75.4932 81.4229C74.8114 81.6289 74.1163 81.7893 73.4124 81.903L73.328 81.9085ZM67.1419 81.765H67.0407C66.3448 81.6182 65.6577 81.434 64.9824 81.2132C64.8523 81.1692 64.7449 81.0771 64.683 80.9565C64.621 80.836 64.6094 80.6965 64.6506 80.5676C64.6954 80.4402 64.7896 80.3351 64.9127 80.2752C65.0358 80.2153 65.178 80.2054 65.3086 80.2476C65.9447 80.4536 66.5926 80.6231 67.2488 80.7552C67.3156 80.7683 67.3791 80.7944 67.4355 80.8319C67.4919 80.8694 67.5401 80.9176 67.5773 80.9736C67.6145 81.0296 67.6399 81.0924 67.6521 81.1581C67.6642 81.2239 67.6629 81.2914 67.6481 81.3567C67.6251 81.4698 67.5636 81.5719 67.4736 81.6461C67.3837 81.7203 67.2707 81.7622 67.1532 81.765H67.1419ZM77.2647 80.7111C77.1472 80.7115 77.0331 80.6726 76.9411 80.6009C76.8491 80.5292 76.7847 80.4289 76.7585 80.3166C76.7323 80.2042 76.7459 80.0864 76.797 79.9826C76.8481 79.8788 76.9337 79.7952 77.0397 79.7454L77.3996 79.5744C77.4605 79.5406 77.5278 79.5193 77.5973 79.5118C77.6668 79.5042 77.7371 79.5106 77.8041 79.5305C77.871 79.5504 77.9332 79.5834 77.9867 79.6275C78.0403 79.6716 78.0842 79.7259 78.1158 79.7871C78.1474 79.8484 78.166 79.9152 78.1705 79.9837C78.175 80.0522 78.1653 80.1209 78.142 80.1856C78.1187 80.2503 78.0822 80.3097 78.0349 80.3602C77.9875 80.4106 77.9302 80.4512 77.8664 80.4793L77.484 80.667C77.4194 80.6996 77.3485 80.7184 77.2759 80.7221L77.2647 80.7111ZM63.2053 80.4959C63.1294 80.4953 63.0545 80.4784 62.986 80.4462C62.3439 80.1527 61.7187 79.8248 61.1133 79.464C61.0553 79.4278 61.0052 79.3807 60.9657 79.3255C60.9263 79.2702 60.8983 79.2079 60.8835 79.1421C60.8686 79.0762 60.8671 79.0082 60.879 78.9417C60.8909 78.8753 60.9161 78.8118 60.953 78.755C60.9899 78.6981 61.0379 78.6489 61.0942 78.6102C61.1505 78.5715 61.214 78.5441 61.2811 78.5295C61.3482 78.5149 61.4176 78.5134 61.4853 78.5251C61.553 78.5368 61.6177 78.5615 61.6756 78.5977C62.2505 78.938 62.8437 79.2475 63.4527 79.5247C63.5566 79.5761 63.64 79.66 63.6898 79.763C63.7397 79.8661 63.7531 79.9826 63.7279 80.094C63.7028 80.2054 63.6405 80.3054 63.5509 80.3782C63.4614 80.451 63.3496 80.4924 63.2334 80.4959H63.2053ZM59.6623 78.399C59.5515 78.3966 59.4439 78.362 59.353 78.2997C58.7907 77.8914 58.2283 77.4444 57.7221 76.9699C57.6719 76.925 57.6312 76.8708 57.6023 76.8104C57.5735 76.75 57.557 76.6847 57.5539 76.6181C57.5507 76.5515 57.561 76.4849 57.5841 76.4222C57.6072 76.3595 57.6426 76.3018 57.6884 76.2525C57.7342 76.2033 57.7894 76.1633 57.8509 76.135C57.9125 76.1067 57.9791 76.0905 58.047 76.0874C58.1148 76.0843 58.1827 76.0944 58.2466 76.1171C58.3105 76.1397 58.3693 76.1745 58.4195 76.2194C58.9256 76.6719 59.4486 77.0968 59.9773 77.4886C60.0631 77.5531 60.1261 77.6425 60.1575 77.744C60.1889 77.8455 60.1871 77.9541 60.1523 78.0546C60.1176 78.155 60.0516 78.2423 59.9637 78.3041C59.8759 78.3658 59.7705 78.3991 59.6623 78.399ZM56.6086 75.6676C56.5366 75.668 56.4653 75.6534 56.3994 75.6249C56.3335 75.5964 56.2745 75.5545 56.2262 75.5021C55.7595 75 55.2983 74.4647 54.8709 73.9129C54.8295 73.86 54.7992 73.7996 54.7816 73.7352C54.7641 73.6708 54.7596 73.6037 54.7685 73.5376C54.7864 73.4041 54.8576 73.283 54.9665 73.2011C55.0754 73.1191 55.213 73.083 55.349 73.1006C55.4851 73.1182 55.6084 73.1881 55.692 73.2949C56.1025 73.8467 56.5412 74.3323 56.9911 74.8179C57.0369 74.8671 57.0723 74.9248 57.0954 74.9875C57.1185 75.0502 57.1288 75.1168 57.1256 75.1834C57.1225 75.25 57.106 75.3154 57.0772 75.3757C57.0483 75.4361 57.0075 75.4903 56.9573 75.5352C56.869 75.6139 56.7559 75.6607 56.6368 75.6676H56.6086ZM54.1173 72.4451C54.0305 72.4453 53.945 72.4236 53.8692 72.3821C53.7933 72.3405 53.7297 72.2805 53.6843 72.2078C53.4593 71.8657 53.24 71.5126 53.0319 71.1594C52.8913 70.9166 52.7508 70.6683 52.6158 70.42C52.5642 70.3029 52.5594 70.1709 52.6025 70.0505C52.6455 69.9301 52.7332 69.83 52.8481 69.7702C52.963 69.7103 53.0966 69.6951 53.2224 69.7276C53.3482 69.7601 53.4569 69.8379 53.5268 69.9455C53.6562 70.1827 53.7911 70.42 53.9261 70.6518C54.1286 70.9939 54.3367 71.3305 54.556 71.6616C54.6048 71.7389 54.6319 71.8275 54.6343 71.9185C54.6367 72.0094 54.6145 72.0993 54.5699 72.179C54.5252 72.2588 54.4598 72.3254 54.3803 72.3722C54.3008 72.4189 54.21 72.4441 54.1173 72.4451ZM52.1828 68.8584C52.0809 68.8588 51.9813 68.8296 51.8962 68.7747C51.8112 68.7197 51.7446 68.6413 51.7047 68.5494C51.4292 67.9093 51.1817 67.2527 50.968 66.6015C50.947 66.5381 50.9388 66.4713 50.9441 66.4048C50.9494 66.3383 50.968 66.2735 50.9988 66.214C51.0296 66.1546 51.072 66.1017 51.1237 66.0584C51.1753 66.015 51.2352 65.9821 51.2998 65.9614C51.4311 65.9215 51.5731 65.9338 51.6952 65.9957C51.8173 66.0577 51.9096 66.1643 51.9522 66.2925C52.1546 66.9161 52.3908 67.5396 52.6551 68.1521C52.69 68.2289 52.7046 68.3131 52.6977 68.3969C52.6908 68.4807 52.6625 68.5615 52.6155 68.6318C52.5684 68.7021 52.5042 68.7597 52.4286 68.7993C52.353 68.8389 52.2684 68.8592 52.1828 68.8584ZM50.923 64.9958C50.8047 64.9948 50.6901 64.9544 50.5982 64.8812C50.5063 64.808 50.4424 64.7064 50.4169 64.593C50.2666 63.9134 50.1539 63.2263 50.0795 62.5348C50.0669 62.4017 50.1082 62.2692 50.1946 62.1659C50.2809 62.0627 50.4052 61.9969 50.5406 61.983C50.6128 61.9665 50.6878 61.9665 50.7599 61.983C50.7977 61.9143 50.8516 61.8555 50.9171 61.8114C50.9826 61.7672 51.0579 61.739 51.1367 61.7291C51.792 61.6403 52.4389 61.5001 53.0713 61.3098C53.2026 61.2695 53.3447 61.2821 53.4665 61.3447C53.5884 61.4073 53.6798 61.5148 53.7208 61.6436C53.7619 61.7724 53.7491 61.9119 53.6853 62.0314C53.6214 62.1509 53.5119 62.2407 53.3806 62.2809C52.6927 62.4868 51.9895 62.64 51.2773 62.7389C51.2344 62.7445 51.1909 62.7445 51.148 62.7389C51.2155 63.2907 51.3111 63.8425 51.4292 64.3612C51.444 64.4265 51.4453 64.494 51.4332 64.5598C51.421 64.6256 51.3956 64.6883 51.3584 64.7443C51.3212 64.8004 51.273 64.8485 51.2166 64.886C51.1602 64.9235 51.0967 64.9496 51.0299 64.9627C50.9966 64.9811 50.9605 64.9942 50.923 65.0013V64.9958ZM49.1403 62.8879C48.4268 62.8771 47.7147 62.82 47.0089 62.7169C46.8742 62.696 46.7534 62.6237 46.6726 62.5159C46.5919 62.408 46.5579 62.2733 46.5779 62.1409C46.5979 62.0086 46.6703 61.8893 46.7795 61.8091C46.8887 61.7289 47.0257 61.6942 47.1607 61.7126C47.8197 61.8118 48.4849 61.8652 49.1516 61.8726C49.2888 61.8726 49.4204 61.9261 49.5174 62.0213C49.6144 62.1165 49.6689 62.2456 49.6689 62.3803C49.6689 62.5149 49.6144 62.644 49.5174 62.7392C49.4204 62.8344 49.2888 62.8879 49.1516 62.8879H49.1403ZM45.0575 62.292C45.011 62.2999 44.9634 62.2999 44.9169 62.292C44.2326 62.0957 43.5619 61.8561 42.9092 61.5746C42.7832 61.5212 42.6839 61.4209 42.6333 61.2956C42.5827 61.1704 42.5848 61.0306 42.6393 60.9069C42.6937 60.7833 42.796 60.6859 42.9236 60.6362C43.0512 60.5866 43.1937 60.5887 43.3197 60.6421C43.9341 60.9018 44.5653 61.1212 45.2093 61.2987C45.3405 61.3372 45.4512 61.4246 45.5174 61.5422C45.5837 61.6599 45.6003 61.7983 45.5636 61.9278C45.531 62.0346 45.4641 62.1283 45.3729 62.1949C45.2817 62.2615 45.1711 62.2974 45.0575 62.2975V62.292ZM55.1408 61.5581C55.0264 61.5561 54.9159 61.517 54.8265 61.4468C54.7372 61.3766 54.6741 61.2794 54.6471 61.1703C54.62 61.0611 54.6307 60.9463 54.6773 60.8437C54.7239 60.7412 54.8039 60.6567 54.9046 60.6035C55.4839 60.312 56.0273 59.9565 56.5243 59.544C56.6285 59.4566 56.7635 59.4129 56.9002 59.4222C57.0369 59.4315 57.1644 59.493 57.2554 59.5937C57.2998 59.6443 57.3336 59.7031 57.3549 59.7666C57.3761 59.8301 57.3843 59.8971 57.3791 59.9638C57.3739 60.0304 57.3553 60.0954 57.3244 60.155C57.2935 60.2146 57.251 60.2676 57.1991 60.311C56.6449 60.7788 56.035 61.179 55.3827 61.5029C55.3081 61.5418 55.2252 61.5626 55.1408 61.5636V61.5581ZM50.5013 60.9621C50.3635 60.9592 50.2325 60.9031 50.1367 60.806C50.0409 60.7089 49.988 60.5786 49.9895 60.4434C50.0008 59.7456 50.0553 59.049 50.1526 58.3576C50.1596 58.2896 50.1806 58.2236 50.2143 58.1637C50.248 58.1038 50.2936 58.0512 50.3485 58.0091C50.4034 57.9669 50.4665 57.9361 50.5338 57.9185C50.6012 57.9008 50.6715 57.8967 50.7405 57.9064C50.8095 57.916 50.8758 57.9393 50.9354 57.9747C50.9951 58.0102 51.0468 58.0571 51.0875 58.1126C51.1281 58.1682 51.157 58.2312 51.1722 58.298C51.1874 58.3647 51.1888 58.4338 51.1761 58.5011C51.0853 59.1505 51.0346 59.8046 51.0243 60.46C51.0228 60.5951 50.967 60.7242 50.8691 60.8193C50.7712 60.9143 50.639 60.9676 50.5013 60.9676V60.9621ZM41.2558 60.7028C41.1654 60.7014 41.0767 60.6787 40.9971 60.6366C40.382 60.2851 39.7886 59.8981 39.22 59.4778C39.1652 59.4386 39.119 59.389 39.0842 59.3319C39.0493 59.2749 39.0264 59.2115 39.017 59.1457C39.0076 59.0798 39.0117 59.0127 39.0292 58.9484C39.0467 58.8841 39.0771 58.824 39.1188 58.7715C39.1593 58.7177 39.2103 58.6724 39.2687 58.638C39.3271 58.6036 39.3919 58.5809 39.4593 58.5712C39.5267 58.5614 39.5954 58.5648 39.6615 58.5812C39.7276 58.5976 39.7897 58.6266 39.8443 58.6666C40.3822 59.0693 40.9457 59.4379 41.5314 59.7702C41.6309 59.8257 41.7089 59.912 41.7531 60.0156C41.7974 60.1192 41.8053 60.2343 41.7757 60.3428C41.7461 60.4514 41.6807 60.5472 41.5897 60.6153C41.4987 60.6835 41.3872 60.72 41.2727 60.7193L41.2558 60.7028ZM58.1945 58.8929C58.1039 58.8932 58.0148 58.8703 57.9358 58.8267C57.8771 58.793 57.8257 58.7483 57.7845 58.6952C57.7434 58.642 57.7133 58.5814 57.6961 58.5168C57.6788 58.4522 57.6748 58.3849 57.684 58.3188C57.6933 58.2527 57.7158 58.189 57.7503 58.1314C57.898 57.8799 58.0222 57.6158 58.1214 57.3423C58.228 57.0509 58.2923 56.7463 58.3126 56.4374C58.3168 56.3698 58.3349 56.3039 58.3657 56.2434C58.3965 56.1829 58.4395 56.1291 58.492 56.0853C58.5445 56.0415 58.6055 56.0086 58.6713 55.9885C58.7372 55.9684 58.8064 55.9615 58.875 55.9683C58.9435 55.9732 59.0104 55.9914 59.0717 56.0219C59.133 56.0524 59.1874 56.0945 59.2319 56.1459C59.2764 56.1972 59.3101 56.2568 59.3309 56.321C59.3516 56.3853 59.3592 56.453 59.353 56.5201C59.3234 56.919 59.2402 57.3124 59.1056 57.6899C58.9855 58.0227 58.8349 58.344 58.6557 58.6501C58.608 58.7277 58.5402 58.7916 58.4592 58.8353C58.3782 58.8789 58.2869 58.9007 58.1945 58.8984V58.8929ZM37.9491 58.2638C37.8148 58.2631 37.6859 58.2117 37.5891 58.1203L37.2461 57.7782C36.8693 57.3975 36.5037 56.9947 36.1551 56.5753C36.0686 56.4707 36.028 56.3366 36.0422 56.2026C36.0564 56.0686 36.1244 55.9456 36.231 55.8607C36.3376 55.7758 36.4743 55.736 36.6109 55.75C36.7474 55.7639 36.8728 55.8306 36.9593 55.9352C37.2854 56.3325 37.6341 56.7133 37.9884 57.0719L38.309 57.392C38.3576 57.4387 38.3962 57.4945 38.4226 57.5561C38.449 57.6177 38.4626 57.6838 38.4626 57.7506C38.4626 57.8174 38.449 57.8836 38.4226 57.9452C38.3962 58.0068 38.3576 58.0626 38.309 58.1093C38.2174 58.2038 38.0929 58.2609 37.9603 58.2693L37.9491 58.2638ZM51.0861 56.9505C51.0358 56.9586 50.9846 56.9586 50.9343 56.9505C50.8693 56.931 50.8088 56.8991 50.7564 56.8566C50.704 56.8141 50.6606 56.7619 50.6287 56.703C50.5969 56.6441 50.5771 56.5796 50.5707 56.5131C50.5643 56.4467 50.5713 56.3797 50.5912 56.316C50.7994 55.6235 51.1 54.9611 51.4854 54.346C51.56 54.2319 51.6777 54.1515 51.8127 54.1225C51.9477 54.0935 52.0889 54.1183 52.2052 54.1915C52.3216 54.2647 52.4035 54.3802 52.4331 54.5127C52.4626 54.6451 52.4373 54.7837 52.3627 54.8978C52.0251 55.4369 51.7623 56.0177 51.581 56.625C51.545 56.7224 51.4793 56.8065 51.3927 56.8657C51.3061 56.925 51.2029 56.9565 51.0974 56.956L51.0861 56.9505ZM35.3396 55.1186C35.2534 55.1188 35.1685 55.0978 35.0928 55.0572C35.0171 55.0167 34.953 54.9581 34.9066 54.8868C34.5214 54.3053 34.1666 53.7049 33.8437 53.0879C33.7811 52.9679 33.7696 52.8284 33.8118 52.7001C33.854 52.5718 33.9464 52.4651 34.0687 52.4037C34.191 52.3422 34.3332 52.3309 34.4639 52.3723C34.5947 52.4137 34.7034 52.5044 34.766 52.6244C35.0714 53.2112 35.4074 53.7821 35.7727 54.335C35.8232 54.4115 35.8517 54.5 35.8554 54.5912C35.859 54.6823 35.8375 54.7727 35.7932 54.8529C35.7489 54.9331 35.6834 55 35.6036 55.0468C35.5238 55.0935 35.4326 55.1183 35.3396 55.1186ZM58.4926 54.9916C58.3901 54.9915 58.29 54.9616 58.2049 54.9056C58.1198 54.8496 58.0536 54.7701 58.0146 54.6771C57.7994 54.1359 57.4256 53.6693 56.9404 53.3362C56.8429 53.2566 56.7786 53.1445 56.7597 53.0213C56.7409 52.8982 56.7689 52.7725 56.8383 52.6683C56.9077 52.564 57.0138 52.4885 57.1363 52.456C57.2589 52.4235 57.3893 52.4363 57.5028 52.492C58.1571 52.9376 58.6621 53.5636 58.9537 54.2908C58.9805 54.352 58.9945 54.4178 58.9951 54.4843C58.9957 54.5509 58.9828 54.6169 58.9572 54.6785C58.9315 54.7401 58.8937 54.7961 58.8458 54.8432C58.7979 54.8904 58.7409 54.9277 58.6782 54.953C58.6231 54.9776 58.5641 54.9925 58.5038 54.9972L58.4926 54.9916ZM53.3356 53.6342C53.2515 53.6338 53.1688 53.6136 53.0944 53.5751C53.02 53.5367 52.9561 53.4813 52.9082 53.4135C52.8698 53.3584 52.8427 53.2965 52.8287 53.2312C52.8147 53.1659 52.8139 53.0985 52.8264 53.0329C52.839 52.9673 52.8646 52.9047 52.9018 52.8488C52.9389 52.793 52.987 52.7448 53.0432 52.7072C53.6872 52.2701 54.4345 52.0023 55.214 51.9291C55.2837 51.9192 55.3547 51.9233 55.4227 51.9412C55.4908 51.9592 55.5543 51.9906 55.6096 52.0334C55.6648 52.0763 55.7105 52.1298 55.7439 52.1907C55.7773 52.2515 55.7977 52.3184 55.8039 52.3873C55.81 52.4561 55.8018 52.5255 55.7796 52.5911C55.7575 52.6567 55.7219 52.7172 55.6751 52.7688C55.6283 52.8205 55.5712 52.8622 55.5074 52.8915C55.4436 52.9207 55.3743 52.9369 55.3039 52.9389C54.697 52.9963 54.1156 53.2073 53.6168 53.5514C53.536 53.6031 53.4431 53.6335 53.3469 53.6397L53.3356 53.6342ZM33.4444 51.5153C33.3413 51.5148 33.2407 51.484 33.1556 51.427C33.0704 51.3699 33.0045 51.2893 32.9664 51.1952C32.7077 50.5607 32.4715 49.904 32.2691 49.2363C32.2459 49.1716 32.2363 49.1029 32.2409 49.0345C32.2455 48.966 32.2642 48.8991 32.2958 48.8379C32.3275 48.7768 32.3715 48.7225 32.4251 48.6785C32.4788 48.6344 32.541 48.6016 32.6079 48.5818C32.6749 48.562 32.7453 48.5557 32.8148 48.5634C32.8843 48.571 32.9515 48.5924 33.0123 48.6262C33.0732 48.6601 33.1264 48.7057 33.1687 48.7603C33.2111 48.8149 33.2418 48.8773 33.2588 48.9439C33.4557 49.5785 33.6806 50.213 33.9281 50.82C33.9763 50.9453 33.9726 51.084 33.918 51.2067C33.8634 51.3294 33.762 51.4263 33.6356 51.4767C33.5794 51.5035 33.5181 51.5185 33.4557 51.5208L33.4444 51.5153ZM32.2466 47.6527C32.1279 47.6527 32.0129 47.6126 31.9207 47.5393C31.8286 47.4659 31.7649 47.3638 31.7404 47.2499C31.5942 46.5822 31.4761 45.8979 31.3805 45.2082C31.3722 45.0798 31.414 44.9531 31.4973 44.8537C31.5806 44.7543 31.6992 44.6897 31.8292 44.6728C31.9592 44.656 32.0909 44.6883 32.1976 44.7631C32.3043 44.8379 32.3781 44.9496 32.404 45.0758C32.494 45.7379 32.6121 46.3946 32.7527 47.0402C32.781 47.1719 32.7549 47.3092 32.68 47.422C32.6051 47.5348 32.4877 47.6138 32.3534 47.6416L32.2466 47.6527ZM31.6842 43.63C31.5521 43.6289 31.4254 43.5788 31.3294 43.4897C31.2334 43.4007 31.1753 43.2793 31.1668 43.15C31.1668 42.5982 31.1218 42.0464 31.1218 41.4946V41.0697C31.1276 40.936 31.1859 40.8096 31.2844 40.7171C31.3829 40.6245 31.5141 40.5729 31.6505 40.5731C31.7184 40.573 31.7856 40.5864 31.8481 40.6124C31.9107 40.6384 31.9672 40.6764 32.0145 40.7243C32.0617 40.7722 32.0986 40.8289 32.123 40.8911C32.1474 40.9533 32.1589 41.0196 32.1566 41.0862V41.4946C32.1566 42.0464 32.1566 42.554 32.2016 43.0782C32.207 43.1457 32.1987 43.2135 32.1773 43.2778C32.1558 43.342 32.1216 43.4015 32.0767 43.4528C32.0318 43.5041 31.9769 43.5462 31.9154 43.5766C31.8538 43.607 31.7867 43.6252 31.7179 43.63H31.6842Z" fill="#263238"/>
<path d="M36.8693 25.1558L33.7762 38.3438L0 31.2311L36.8693 25.1558Z" fill="#3E4095"/>
<path opacity="0.3" d="M36.8693 25.1558L33.7762 38.3438L0 31.2311L36.8693 25.1558Z" fill="black"/>
<path d="M0 31.2311L42.0544 30.1275L51.9353 45.0703L0 31.2311Z" fill="#3E4095"/>
<path d="M0 31.2311L36.8693 25.1558L28.1806 15.2675L0 31.2311Z" fill="#3E4095"/>
<path d="M136.441 168.652L127.541 168.43L127.082 186.109L135.981 186.332L136.441 168.652Z" fill="#FFBE9D"/>
<path d="M124.748 97.6625C124.748 97.6625 124.124 127.747 124.338 139.666C124.501 148.643 125.929 175.533 125.929 175.533C125.929 175.533 131.699 179.23 137.779 176.14C137.779 176.14 141.288 148.98 140.433 140.797C140.323 139.805 140.323 138.804 140.433 137.812L145.798 92.2659L124.748 97.6625Z" fill="#37474F"/>
<path d="M130.158 183.661C130.158 183.661 135.09 183.109 136.086 181.531V180.504C136.086 180.504 136.941 180.951 136.778 182.651C136.631 184.229 137.273 186.916 137.368 190.194C137.374 190.462 137.316 190.727 137.199 190.968C137.082 191.21 136.909 191.421 136.693 191.585C135.737 192.308 133.718 193.417 130.158 193.566C128.91 193.621 123.916 196.761 119.76 196.761C115.604 196.761 112.888 194.741 112.888 191.916C112.888 189.091 121.363 186.536 121.363 186.536L125.435 182.673C125.435 182.673 124.642 178.463 127.234 179.473C129.827 180.482 130.158 181.531 130.158 183.661Z" fill="#37474F"/>
<path d="M129.259 186.116C129.204 186.116 129.15 186.099 129.106 186.068C129.061 186.036 129.028 185.991 129.011 185.94C128.145 183.396 125.44 182.927 125.412 182.921C125.378 182.916 125.346 182.904 125.317 182.887C125.288 182.869 125.263 182.846 125.243 182.819C125.223 182.791 125.209 182.761 125.202 182.728C125.194 182.696 125.193 182.662 125.198 182.629C125.211 182.563 125.249 182.504 125.304 182.465C125.36 182.426 125.429 182.409 125.496 182.419C126.403 182.592 127.248 182.993 127.95 183.582C128.651 184.171 129.186 184.928 129.501 185.78C129.522 185.843 129.517 185.913 129.486 185.973C129.456 186.033 129.402 186.078 129.337 186.1L129.259 186.116Z" fill="#FAFAFA"/>
<path d="M127.633 187.694C127.579 187.693 127.526 187.675 127.482 187.644C127.438 187.612 127.404 187.568 127.386 187.518C126.526 184.985 123.815 184.505 123.787 184.5C123.753 184.494 123.721 184.482 123.693 184.465C123.664 184.447 123.639 184.424 123.62 184.397C123.6 184.369 123.587 184.338 123.58 184.306C123.573 184.273 123.572 184.24 123.579 184.207C123.584 184.174 123.596 184.142 123.614 184.114C123.632 184.086 123.656 184.061 123.683 184.041C123.711 184.022 123.742 184.008 123.776 184C123.809 183.993 123.843 183.992 123.877 183.997C124.783 184.171 125.628 184.571 126.33 185.16C127.032 185.749 127.566 186.506 127.881 187.358C127.891 187.39 127.895 187.423 127.892 187.457C127.89 187.49 127.88 187.523 127.864 187.552C127.849 187.582 127.827 187.608 127.801 187.63C127.775 187.652 127.745 187.668 127.712 187.678C127.688 187.689 127.661 187.695 127.633 187.694Z" fill="#FAFAFA"/>
<path d="M126.222 189.063C126.168 189.063 126.116 189.047 126.073 189.016C126.029 188.985 125.997 188.942 125.98 188.892C125.12 186.354 122.409 185.873 122.381 185.868C122.344 185.867 122.308 185.858 122.275 185.842C122.242 185.826 122.213 185.803 122.19 185.775C122.167 185.747 122.15 185.714 122.14 185.679C122.131 185.645 122.129 185.608 122.135 185.573C122.141 185.537 122.155 185.503 122.175 185.473C122.196 185.443 122.223 185.418 122.254 185.399C122.285 185.38 122.32 185.367 122.357 185.363C122.393 185.358 122.43 185.361 122.465 185.371C123.372 185.543 124.218 185.943 124.92 186.532C125.622 187.121 126.156 187.879 126.469 188.732C126.491 188.795 126.486 188.865 126.455 188.925C126.425 188.985 126.371 189.03 126.306 189.052L126.222 189.063Z" fill="#FAFAFA"/>
<path d="M112.91 191.916C112.91 194.708 115.57 196.711 119.659 196.755L125.479 194.465C125.479 188.544 121.397 186.536 121.397 186.536C121.397 186.536 112.91 189.096 112.91 191.916Z" fill="#EBEBEB"/>
<path d="M137.244 190.437C136.249 191.193 134.134 192.357 130.412 192.517C129.101 192.572 123.882 195.828 119.535 195.828C116.555 195.828 114.283 194.835 113.147 193.251C113.883 195.342 116.335 196.733 119.783 196.733C123.939 196.733 128.932 193.593 130.181 193.538C133.741 193.389 135.76 192.28 136.716 191.557C136.914 191.406 137.076 191.214 137.19 190.994C137.305 190.775 137.369 190.534 137.379 190.288C137.338 190.341 137.293 190.39 137.244 190.437Z" fill="#263238"/>
<path d="M129.905 101.873C129.905 101.873 130.721 108.682 136.041 112.28L140.737 135.384L143.751 106.497L129.905 101.873Z" fill="#263238"/>
<path d="M160.469 173.499L151.594 174.18L152.999 191.811L161.874 191.13L160.469 173.499Z" fill="#FFBE9D"/>
<path d="M157.057 98.3798C157.057 98.3798 158.131 102.369 158.648 118.83C159.065 131.874 159.374 139.379 159.486 141.928C159.514 142.563 159.583 143.195 159.694 143.821C160.788 150.399 161.52 157.03 161.888 163.686C162.647 176.377 162.709 182.386 162.709 182.386C162.709 182.386 157.22 186.596 150.595 183.291L144.184 145.471L137.436 110.37C137.436 110.37 128.185 106.911 127.369 97.679L157.057 98.3798Z" fill="#37474F"/>
<path d="M161.556 187.087L161.696 188.809C161.696 188.809 160.639 190.266 159.391 190.691C159.391 190.691 158.435 187.264 156.742 187.087C155.049 186.911 151.534 186.756 152.007 188.666C152.27 189.661 152.434 190.679 152.496 191.706L149.234 197.671C149.234 197.671 142.615 203.266 145.382 206.831C148.149 210.396 157.434 208.486 158.35 202.891C158.497 202.048 158.82 201.244 159.298 200.529C159.776 199.814 160.399 199.204 161.128 198.736C161.727 198.366 162.198 197.827 162.48 197.19C162.762 196.553 162.841 195.848 162.709 195.166C162.54 193.886 162.146 191.425 162.264 190.315C162.383 189.206 162.697 187.104 161.556 187.087Z" fill="#37474F"/>
<path d="M145.382 206.831C147.682 209.794 154.464 208.983 157.231 205.418C157.353 204.839 157.413 204.249 157.411 203.658C157.411 197.285 149.234 197.671 149.234 197.671C149.234 197.671 142.615 203.266 145.382 206.831Z" fill="#EBEBEB"/>
<path d="M162.709 195.166C162.709 195.072 162.681 194.962 162.664 194.851C162.6 195.361 162.42 195.85 162.136 196.282C161.853 196.714 161.474 197.078 161.027 197.345C160.273 197.83 159.63 198.461 159.136 199.201C158.642 199.941 158.31 200.772 158.159 201.644C157.226 207.372 147.834 209.369 144.853 205.832C144.968 206.193 145.147 206.531 145.382 206.831C148.149 210.401 157.434 208.486 158.35 202.891C158.497 202.048 158.82 201.244 159.298 200.529C159.776 199.814 160.399 199.204 161.128 198.736C161.727 198.366 162.198 197.827 162.48 197.19C162.762 196.553 162.841 195.848 162.709 195.166Z" fill="#263238"/>
<path d="M157.304 193.036C157.238 193.037 157.174 193.013 157.124 192.97C155.145 191.132 152.524 191.965 152.496 191.976C152.463 191.99 152.428 191.997 152.392 191.997C152.356 191.996 152.321 191.988 152.289 191.974C152.256 191.96 152.227 191.939 152.203 191.913C152.179 191.887 152.161 191.856 152.15 191.823C152.138 191.79 152.134 191.755 152.137 191.72C152.141 191.685 152.151 191.651 152.168 191.62C152.186 191.589 152.209 191.563 152.237 191.541C152.266 191.52 152.298 191.505 152.333 191.496C153.215 191.227 154.153 191.187 155.055 191.38C155.957 191.574 156.792 191.994 157.479 192.6C157.503 192.623 157.523 192.651 157.536 192.682C157.55 192.713 157.557 192.746 157.557 192.779C157.557 192.813 157.55 192.846 157.536 192.877C157.523 192.908 157.503 192.935 157.479 192.959C157.432 193.005 157.37 193.032 157.304 193.036Z" fill="#FAFAFA"/>
<path d="M156.168 195.249C156.104 195.248 156.042 195.225 155.994 195.182C154.014 193.345 151.394 194.178 151.366 194.189C151.3 194.21 151.228 194.205 151.167 194.175C151.105 194.144 151.058 194.091 151.037 194.026C151.015 193.962 151.02 193.892 151.051 193.831C151.083 193.771 151.137 193.725 151.203 193.704C152.084 193.437 153.022 193.398 153.923 193.592C154.825 193.785 155.66 194.204 156.348 194.807C156.395 194.855 156.422 194.92 156.422 194.986C156.422 195.053 156.395 195.118 156.348 195.166C156.301 195.215 156.237 195.244 156.168 195.249Z" fill="#FAFAFA"/>
<path d="M155.038 197.461C154.974 197.461 154.912 197.437 154.864 197.395C152.884 195.558 150.263 196.391 150.235 196.402C150.17 196.423 150.098 196.418 150.036 196.387C149.975 196.357 149.928 196.303 149.906 196.239C149.885 196.175 149.89 196.105 149.921 196.044C149.952 195.983 150.007 195.938 150.072 195.916C150.954 195.648 151.892 195.608 152.793 195.802C153.695 195.995 154.531 196.415 155.218 197.02C155.265 197.068 155.291 197.132 155.291 197.199C155.291 197.266 155.265 197.33 155.218 197.379C155.171 197.427 155.106 197.457 155.038 197.461Z" fill="#FAFAFA"/>
<path d="M98.1369 26.9767C97.6018 24.7501 97.226 22.4896 97.0121 20.2116C96.8772 17.5464 96.0898 16.6139 94.4308 17.9492C92.7718 19.2846 88.9927 23.1582 89.2176 26.1766C89.4016 29.5212 90.4864 32.7581 92.3613 35.5572L97.1977 36.9919L99.1323 33.0962L98.1369 26.9767Z" fill="#FFBE9D"/>
<path d="M119.102 51.1015L109.412 48.9991C109.412 48.9991 105.285 42.4382 102.894 38.9784C100.504 35.5186 99.1491 33.1238 99.1491 33.1238L94.6501 31.7829L92.3556 35.5848C92.3556 35.5848 99.897 53.9764 103.395 57.1051C105.155 58.6611 116.526 62.1154 116.526 62.1154C116.526 62.1154 121.301 57.1713 119.102 51.1015Z" fill="#FFBE9D"/>
<path d="M131.317 53.6839L119.102 51.1015C118.936 54.8869 118.071 58.6113 116.549 62.0934L128.82 65.8236L131.317 53.6839Z" fill="#3E4095"/>
<path opacity="0.3" d="M131.317 53.6839L119.102 51.1015C118.936 54.8869 118.071 58.6113 116.549 62.0934L128.82 65.8236L131.317 53.6839Z" fill="white"/>
<path d="M148.261 55.1241L153.941 56.8788L157.057 73.3667L155.212 81.3623C154.96 82.4482 154.912 83.5703 155.072 84.6731L157.057 98.3798C157.057 98.3798 151.433 101.9 141.091 101.9C130.749 101.9 124.748 97.6901 124.748 97.6901L125.53 66.5795C125.822 61.7394 127.875 57.1631 131.317 53.6839L138.363 54.484L148.261 55.1241Z" fill="#3E4095"/>
<path d="M138.364 54.484L137.014 56.5864C136.753 56.9909 136.583 57.4447 136.513 57.9182C136.443 58.3917 136.476 58.8744 136.609 59.3346C136.743 59.7949 136.973 60.2224 137.286 60.5894C137.599 60.9563 137.987 61.2544 138.425 61.4643C139.222 61.8445 140.09 62.0571 140.975 62.0885C141.861 62.12 142.743 61.9695 143.565 61.6469C144.387 61.3242 145.132 60.8365 145.751 60.2149C146.37 59.5934 146.849 58.8517 147.159 58.0376L148.284 55.1241L143.335 53.3859L138.364 54.484Z" fill="#FFBE9D"/>
<path d="M99.1492 33.1238C99.1492 33.1238 100.803 30.6517 100.774 28.3066C100.746 25.9614 101.044 24.8744 101.455 24.3115C101.865 23.7487 101.404 22.9265 100.302 23.2079C99.3685 23.4562 98.2157 24.8633 97.9626 26.1601C97.9256 26.3664 97.8424 26.562 97.7188 26.7328C97.5953 26.9037 97.4346 27.0454 97.2484 27.1478C96.0843 27.7603 93.9135 29.515 94.9426 33.7694L99.1492 33.1238Z" fill="#FFBE9D"/>
<path d="M94.7288 30.8725C94.6774 30.8643 94.6314 30.8365 94.6008 30.7951C94.5703 30.7538 94.5576 30.7022 94.5658 30.6517C94.6738 29.884 94.9648 29.1521 95.4153 28.5154C95.8658 27.8788 96.463 27.3554 97.1583 26.9878C97.3209 26.9021 97.4613 26.781 97.5685 26.6336C97.6758 26.4863 97.7471 26.3167 97.7769 26.138C97.7877 26.0884 97.818 26.0451 97.8611 26.0172C97.9042 25.9893 97.9568 25.9792 98.0075 25.989C98.0323 25.9936 98.0559 26.003 98.0769 26.0166C98.098 26.0303 98.1161 26.0478 98.1302 26.0684C98.1444 26.0889 98.1542 26.1119 98.1592 26.1362C98.1642 26.1605 98.1642 26.1854 98.1593 26.2097C98.1165 26.4419 98.021 26.6617 97.8798 26.8527C97.7386 27.0438 97.5555 27.2012 97.3439 27.3133C96.7007 27.6529 96.1484 28.1368 95.7321 28.7256C95.3157 29.3144 95.0471 29.9914 94.9482 30.7014C94.9461 30.7271 94.9387 30.7522 94.9264 30.7749C94.9141 30.7977 94.8971 30.8178 94.8765 30.8338C94.8559 30.8499 94.8322 30.8616 94.8068 30.8682C94.7814 30.8749 94.7548 30.8763 94.7288 30.8725Z" fill="#703838"/>
<path d="M154.774 77.2072L157.271 82.3721L170.087 87.3493L164.919 71.9816L154.774 77.2072Z" fill="#FFBE9D"/>
<path d="M153.182 56.6471C153.182 56.6471 148.908 60.9567 150.758 67.032C151.799 70.5296 153.143 73.9337 154.774 77.2072C154.774 77.2072 161.978 77.4169 164.896 71.9817L161.224 62.888C160.645 61.4583 159.733 60.1813 158.561 59.159C157.39 58.1367 155.99 57.3974 154.476 57.0002L153.182 56.6471Z" fill="#3E4095"/>
<path opacity="0.3" d="M153.182 56.6471C153.182 56.6471 148.908 60.9567 150.758 67.032C151.799 70.5296 153.143 73.9337 154.774 77.2072C154.774 77.2072 161.978 77.4169 164.896 71.9817L161.224 62.888C160.645 61.4583 159.733 60.1813 158.561 59.159C157.39 58.1367 155.99 57.3974 154.476 57.0002L153.182 56.6471Z" fill="white"/>
<path d="M156.551 81.4119C159.79 82.3445 169.339 85.12 169.339 85.12C169.339 85.12 169.412 85.3242 170.087 87.3272C171.122 90.4449 167.838 97.988 156.208 92.5142C144.578 87.0403 140.332 84.1102 140.332 84.1102L141.597 77.1851C141.597 77.1851 152.856 80.3469 156.551 81.4119Z" fill="#FFBE9D"/>
<path d="M156.894 81.5719L162.917 83.277L156.174 80.082L156.894 81.5719Z" fill="#703838"/>
<path d="M139.798 87.2389L132.239 86.4498C131.968 86.4228 131.712 86.3153 131.505 86.1418C131.298 85.9683 131.15 85.7369 131.081 85.4787L126.953 70.2379C126.924 70.1337 126.921 70.0244 126.944 69.9188C126.967 69.8132 127.015 69.7145 127.084 69.6305C127.153 69.5466 127.241 69.4799 127.342 69.4358C127.442 69.3918 127.552 69.3717 127.662 69.3771L134.972 69.7137C135.244 69.7246 135.505 69.8204 135.718 69.9871C135.93 70.1539 136.083 70.3829 136.153 70.6407L140.551 86.3836C140.579 86.4912 140.58 86.6038 140.554 86.7117C140.528 86.8197 140.475 86.9199 140.401 87.0039C140.327 87.0878 140.234 87.153 140.129 87.1939C140.024 87.2349 139.91 87.2503 139.798 87.2389Z" fill="#37474F"/>
<path d="M129.905 71.6119C129.905 71.7387 129.867 71.8627 129.795 71.9681C129.723 72.0735 129.621 72.1555 129.501 72.2038C129.382 72.2521 129.25 72.2644 129.124 72.2393C128.997 72.2141 128.881 72.1526 128.79 72.0625C128.699 71.9725 128.637 71.8579 128.613 71.7334C128.588 71.6088 128.602 71.48 128.652 71.3631C128.702 71.2463 128.787 71.1467 128.895 71.077C129.003 71.0073 129.129 70.9707 129.259 70.9718C129.431 70.9733 129.595 71.0414 129.716 71.1612C129.837 71.2811 129.905 71.4431 129.905 71.6119Z" fill="#263238"/>
<path d="M141.597 77.2072C141.597 77.2072 139.41 73.477 136.693 72.572L137.779 76.6719C137.779 76.6719 135.715 76.8319 133.381 76.8319C131.047 76.8319 128.494 75.2869 127.757 74.8896C127.02 74.4923 126.334 77.2623 129.27 82.4824C132.206 87.7024 140.354 84.1378 140.354 84.1378L141.597 77.2072Z" fill="#FFBE9D"/>
<path d="M141.884 62.5798C140.298 62.4583 138.821 61.7389 137.764 60.5726C136.707 59.4062 136.151 57.8835 136.214 56.3238C136.291 54.4019 136.379 52.7624 136.379 52.7624C136.379 52.7624 131.406 52.0137 131.323 47.1248C131.24 42.236 132.074 31.009 132.074 31.009C134.904 29.8086 138.009 29.3712 141.068 29.7421C144.128 30.1129 147.031 31.2786 149.478 33.1186L150.219 33.6768L148.357 52.8197C148.299 53.6125 148.216 58.5649 147.851 59.275C147.487 59.9851 146.984 60.6177 146.37 61.1363C145.756 61.6549 145.043 62.0494 144.274 62.2971C143.504 62.5448 142.692 62.6409 141.884 62.5798Z" fill="#FFBE9D"/>
<path d="M136.747 44.4326C136.754 44.3779 136.329 44.2955 135.637 44.203C135.458 44.1805 135.316 44.1452 135.305 44.0502C135.298 43.8736 135.341 43.6986 135.43 43.5449L135.972 42.1759C136.719 40.2208 137.241 38.6152 137.138 38.5789C137.036 38.5427 136.345 40.0921 135.605 42.0421C135.43 42.5177 135.26 42.9734 135.095 43.4209C134.98 43.6482 134.946 43.9069 134.999 44.1552C135.025 44.2221 135.067 44.2821 135.12 44.3304C135.174 44.3788 135.239 44.4143 135.309 44.434C135.404 44.4596 135.503 44.472 135.602 44.4708C136.312 44.4953 136.743 44.4848 136.747 44.4326Z" fill="#263238"/>
<path d="M136.358 52.6924C138.661 52.7323 140.923 52.0988 142.858 50.8727C142.858 50.8727 141.329 54.395 136.359 53.9656L136.358 52.6924Z" fill="#EB996E"/>
<path d="M131.98 32.238C131.98 32.238 134.897 33.8881 138.975 32.2361C141.65 31.1549 144.704 30.75 145.332 31.3058C145.961 31.8615 145.906 34.4827 148.408 35.4253C148.408 35.4253 147.866 40.3939 149.905 40.3595C151.943 40.3252 151.241 32.52 151.241 32.52L146.465 29.7971L141.136 28.4156L135.991 28.7603L131.967 29.5411L131.98 32.238Z" fill="#263238"/>
<path d="M149.619 38.7288C149.704 38.6926 153.03 37.7279 152.938 41.0702C152.846 44.4124 149.438 43.6227 149.436 43.5287C149.433 43.4347 149.619 38.7288 149.619 38.7288Z" fill="#FFBE9D"/>
<path d="M150.514 42.3028C150.514 42.3028 150.571 42.3451 150.669 42.3925C150.809 42.4568 150.968 42.4652 151.114 42.416C151.478 42.2977 151.798 41.7437 151.831 41.1421C151.85 40.8565 151.802 40.5705 151.692 40.3053C151.664 40.2 151.609 40.1031 151.534 40.0228C151.459 39.9425 151.365 39.8813 151.26 39.8444C151.193 39.823 151.119 39.8262 151.054 39.8535C150.988 39.8808 150.935 39.9303 150.904 39.9929C150.856 40.0864 150.883 40.1542 150.855 40.1595C150.828 40.1648 150.785 40.101 150.818 39.9646C150.838 39.8811 150.888 39.8075 150.959 39.7568C151.054 39.6905 151.172 39.6633 151.288 39.681C151.426 39.7129 151.555 39.7791 151.661 39.8732C151.766 39.9674 151.846 40.0864 151.892 40.219C152.027 40.5129 152.088 40.835 152.068 41.1571C152.028 41.8282 151.655 42.4487 151.159 42.5738C151.067 42.597 150.971 42.5998 150.878 42.5821C150.785 42.5643 150.697 42.5265 150.62 42.4712C150.518 42.3853 150.501 42.31 150.514 42.3028Z" fill="#EB996E"/>
<path d="M146.581 32.0036C147.141 32.8332 147.807 33.5885 148.564 34.2508C149.334 34.9155 150.338 35.2586 151.363 35.2071C152.369 35.1078 153.342 34.3869 153.512 33.4043C153.681 32.4218 152.823 31.3426 151.814 31.4358C151.981 31.4591 152.151 31.4431 152.31 31.3889C152.469 31.3347 152.613 31.244 152.729 31.1244C152.845 31.0047 152.93 30.8596 152.977 30.7011C153.025 30.5426 153.033 30.3752 153.001 30.2131C152.969 30.0509 152.898 29.8986 152.794 29.7688C152.689 29.639 152.555 29.5355 152.402 29.467C152.249 29.3984 152.081 29.3668 151.913 29.3747C151.745 29.3826 151.581 29.4298 151.435 29.5124C152.31 29.461 152.577 28.1453 151.968 27.5305C151.359 26.9158 150.346 26.906 149.503 27.1253C148.66 27.3446 147.853 27.7468 146.982 27.8191C145.615 27.9406 144.322 27.2197 143.232 26.4013C142.143 25.583 141.134 24.6255 139.869 24.1041C138.317 23.4678 136.535 23.5695 134.915 24.0104C133.549 24.3361 132.297 25.0126 131.286 25.9703C130.314 26.9548 129.715 28.3489 129.906 29.7043C130.096 31.0597 131.205 32.3048 132.592 32.4844C132.592 32.4844 135.667 33.1797 138.442 31.6514C141.218 30.1232 146.541 31.0269 146.541 31.0269L146.581 32.0036Z" fill="#263238"/>
<path d="M151.755 28.7534C151.755 28.7534 151.685 28.809 151.541 28.8818C151.398 28.9545 151.176 29.0526 150.889 29.1689C150.068 29.482 149.212 29.6979 148.339 29.8123C147.039 29.9848 145.719 29.9431 144.433 29.6888C142.978 29.41 141.488 28.7347 139.925 28.1614C138.362 27.5881 136.801 27.1848 135.379 27.3403C133.957 27.4958 132.773 28.1611 132.177 29.0259C131.69 29.715 131.488 30.5597 131.61 31.3897C131.678 31.6918 131.772 31.9875 131.892 32.2737C131.892 32.2737 131.828 32.2159 131.739 32.0788C131.617 31.872 131.528 31.6488 131.473 31.4163C131.379 30.9841 131.375 30.5378 131.459 30.1037C131.543 29.6696 131.714 29.2562 131.963 28.8878C132.583 27.9294 133.852 27.1783 135.344 27.014C136.836 26.8497 138.483 27.2316 140.058 27.8297C141.632 28.4279 143.092 29.0877 144.505 29.3671C145.757 29.6249 147.042 29.6871 148.313 29.5515C150.506 29.317 151.747 28.6735 151.755 28.7534Z" fill="#455A64"/>
<path d="M152.618 34.0387C152.651 34.0604 152.5 34.3693 152.083 34.7355C151.53 35.2091 150.837 35.4976 150.106 35.5591C149.374 35.6206 148.642 35.4519 148.015 35.0776C147.539 34.7897 147.337 34.5098 147.368 34.4814C147.398 34.4531 147.666 34.6446 148.134 34.8701C148.738 35.1541 149.407 35.2743 150.074 35.2183C150.74 35.1623 151.38 34.9322 151.925 34.5518C152.352 34.2483 152.563 34.0025 152.618 34.0387Z" fill="#455A64"/>
<path d="M151.781 32.2686C151.86 32.3195 151.524 32.8862 150.815 33.2451C150.107 33.6041 149.443 33.5502 149.449 33.4544C149.456 33.3587 150.024 33.2514 150.651 32.9289C151.277 32.6065 151.699 32.2115 151.781 32.2686Z" fill="#455A64"/>
<path d="M130.042 34.2282C129.998 34.2226 129.921 34.0579 129.936 33.7584C129.962 33.3639 130.117 32.988 130.377 32.6865C130.638 32.385 130.99 32.1738 131.383 32.0842C131.689 32.023 131.868 32.0659 131.872 32.1102C131.889 32.2089 131.171 32.3151 130.654 32.9176C130.137 33.5201 130.142 34.2407 130.042 34.2282Z" fill="#263238"/>
<path d="M128.914 29.2816C129.019 29.2538 129.275 30.1726 130.062 31.0028C130.849 31.833 131.743 32.1849 131.703 32.2852C131.663 32.3856 130.643 32.1525 129.792 31.2441C128.941 30.3356 128.819 29.2814 128.914 29.2816Z" fill="#455A64"/>
<path d="M132.884 38.5436C132.882 38.7389 132.958 38.9272 133.095 39.0681C133.233 39.209 133.422 39.2913 133.621 39.2973C133.718 39.3046 133.816 39.2929 133.908 39.2626C134.001 39.2324 134.086 39.1843 134.159 39.1212C134.232 39.0581 134.292 38.9813 134.335 38.8953C134.377 38.8092 134.402 38.7157 134.407 38.6202C134.408 38.4251 134.332 38.2372 134.194 38.0965C134.057 37.9557 133.868 37.8732 133.67 37.8665C133.573 37.8591 133.475 37.8709 133.382 37.9012C133.29 37.9314 133.205 37.9795 133.131 38.0426C133.058 38.1056 132.998 38.1825 132.956 38.2685C132.913 38.3546 132.889 38.4481 132.884 38.5436Z" fill="#263238"/>
<path d="M132.305 38.4068C132.4 38.5035 132.977 38.0812 133.797 38.0815C134.617 38.0818 135.221 38.4823 135.311 38.3853C135.353 38.3408 135.256 38.1648 134.995 37.9769C134.638 37.7372 134.215 37.6107 133.783 37.6145C133.355 37.6124 132.938 37.746 132.594 37.9953C132.334 38.1851 132.257 38.3627 132.305 38.4068Z" fill="#263238"/>
<path d="M140.374 38.4634C140.372 38.6587 140.448 38.847 140.586 38.9879C140.724 39.1289 140.913 39.2111 141.112 39.2171C141.209 39.2245 141.306 39.2127 141.399 39.1825C141.491 39.1522 141.577 39.1041 141.65 39.041C141.723 38.978 141.783 38.9011 141.825 38.8151C141.868 38.729 141.892 38.6355 141.898 38.54C141.898 38.3446 141.821 38.1566 141.683 38.0159C141.545 37.8751 141.357 37.7926 141.158 37.786C141.06 37.7786 140.963 37.7904 140.871 37.8207C140.778 37.851 140.693 37.8991 140.62 37.9623C140.547 38.0255 140.488 38.1024 140.446 38.1884C140.403 38.2745 140.379 38.368 140.374 38.4634Z" fill="#263238"/>
<path d="M139.848 38.3829C139.943 38.4797 140.522 38.0606 141.343 38.058C142.163 38.0554 142.767 38.4617 142.857 38.3618C142.899 38.3173 142.802 38.1413 142.54 37.9563C142.185 37.7143 141.761 37.5876 141.329 37.5938C140.902 37.5923 140.485 37.7247 140.14 37.9718C139.889 38.1569 139.804 38.3335 139.848 38.3829Z" fill="#263238"/>
<path d="M140.444 36.2362C140.587 36.3946 141.247 36.0442 142.076 36.0661C142.906 36.088 143.55 36.4555 143.698 36.3043C143.767 36.231 143.685 36.0101 143.408 35.7793C143.034 35.4852 142.571 35.3202 142.091 35.3099C141.612 35.2995 141.142 35.4444 140.755 35.7221C140.47 35.9439 140.379 36.1608 140.444 36.2362Z" fill="#263238"/>
<path d="M132.591 36.5961C132.544 36.6867 132.664 36.8627 132.941 37.0233C133.312 37.2188 133.728 37.3153 134.148 37.3033C134.568 37.2912 134.978 37.1709 135.336 36.9546C135.604 36.7774 135.711 36.5976 135.66 36.5093C135.54 36.3304 134.902 36.5343 134.125 36.5453C133.348 36.5563 132.7 36.4019 132.591 36.5961Z" fill="#263238"/>
<path d="M136.275 47.2215C136.299 47.103 137.081 47.3045 137.805 46.7949C138.53 46.2853 138.667 45.4478 138.775 45.4715C138.884 45.4952 138.88 45.6888 138.796 46.0364C138.681 46.484 138.41 46.8782 138.031 47.1504C137.665 47.4115 137.21 47.5234 136.762 47.4625C136.428 47.4072 136.259 47.2729 136.275 47.2215Z" fill="#263238"/>
<path d="M149.435 44.8162C149.434 44.8865 149.45 44.956 149.484 45.0184C149.565 45.1956 149.696 45.3462 149.863 45.4521C149.985 45.5347 150.124 45.5912 150.27 45.6181C150.416 45.6449 150.566 45.6415 150.71 45.6081C150.889 45.5683 151.056 45.4901 151.2 45.3791C151.344 45.268 151.461 45.1269 151.542 44.966C151.629 44.7754 151.67 44.5673 151.659 44.3586C151.649 44.1499 151.59 43.9465 151.485 43.7647C151.38 43.5829 151.233 43.4279 151.055 43.3122C150.878 43.1965 150.676 43.1233 150.464 43.0985C150.394 43.0831 150.321 43.085 150.252 43.1041C150.498 43.155 150.734 43.2459 150.95 43.373C151.174 43.519 151.345 43.731 151.438 43.9785C151.495 44.1265 151.521 44.284 151.515 44.442C151.51 44.6 151.472 44.7554 151.405 44.8991C151.332 45.0401 151.23 45.1642 151.104 45.263C150.979 45.3619 150.833 45.4332 150.677 45.4722C150.55 45.5051 150.417 45.5123 150.287 45.4935C150.156 45.4747 150.031 45.4301 149.919 45.3626C149.71 45.2278 149.542 45.0387 149.435 44.8162Z" fill="#455A64"/>
<path d="M184.661 2.16221L188.733 4.43564V3.02302C188.733 2.9237 188.733 2.81886 188.733 2.72505C188.733 2.63125 188.733 2.53192 188.733 2.43812V2.40501C188.879 0.528881 190.324 -0.18846 192.107 0.8103C192.906 1.29372 193.591 1.93901 194.115 2.70298C194.514 0.159175 196.629 -0.762335 199.176 0.688903C202.011 2.29465 204.311 6.22899 204.311 9.42944V12.4588C204.313 12.6988 204.378 12.9342 204.5 13.1421C204.622 13.35 204.797 13.5233 205.008 13.6452L207.398 15.0192C207.914 15.321 208.341 15.7494 208.637 16.2622C208.932 16.775 209.087 17.3545 209.085 17.9437C209.084 18.1885 209.017 18.4286 208.891 18.6402C208.766 18.8517 208.586 19.0274 208.37 19.1496C208.154 19.2718 207.909 19.3363 207.66 19.3368C207.41 19.3373 207.165 19.2736 206.948 19.1522L184.723 6.538C184.132 6.20226 183.641 5.7194 183.3 5.13812C182.96 4.55684 182.781 3.89771 182.783 3.22719C182.785 3.0123 182.844 2.80165 182.955 2.61603C183.065 2.43041 183.223 2.27623 183.412 2.16871C183.602 2.06119 183.817 2.00404 184.036 2.0029C184.255 2.00176 184.471 2.05667 184.661 2.16221Z" fill="#E6E6E6"/>
<path d="M202.309 27.5726L205.317 29.228V28.2072C205.317 28.13 205.317 28.0582 205.317 27.9865C205.317 27.9148 205.317 27.843 205.317 27.7713C205.424 26.3863 206.493 25.8565 207.797 26.5959C208.389 26.9508 208.896 27.427 209.282 27.992C209.574 26.1104 211.138 25.4316 213.033 26.5021C214.139 27.2125 215.059 28.1679 215.719 29.2912C216.38 30.4146 216.762 31.6744 216.835 32.9693V35.2096C216.835 35.3868 216.882 35.5609 216.972 35.7148C217.062 35.8686 217.191 35.9969 217.347 36.0869L219.118 37.1022C219.502 37.3241 219.82 37.6403 220.041 38.0197C220.262 38.399 220.378 38.8284 220.378 39.2653C220.377 39.4461 220.329 39.6236 220.237 39.7801C220.145 39.9366 220.012 40.0666 219.853 40.1572C219.693 40.2477 219.512 40.2955 219.328 40.2959C219.144 40.2962 218.963 40.2491 218.803 40.1592L202.354 30.8062C201.92 30.557 201.562 30.2005 201.313 29.7725C201.064 29.3445 200.934 28.8599 200.936 28.3672C200.937 28.2097 200.98 28.0551 201.06 27.9184C201.14 27.7818 201.254 27.6679 201.393 27.5879C201.531 27.5078 201.688 27.4643 201.849 27.4616C202.009 27.459 202.168 27.4972 202.309 27.5726Z" fill="#E6E6E6"/>
</svg>
