<svg width="307" height="257" viewBox="0 0 307 257" fill="none" xmlns="http://www.w3.org/2000/svg">
<path d="M306.828 193.258H5.01514V193.406H306.828V193.258Z" fill="#EBEBEB"/>
<path d="M276.587 202.754H256.595V202.902H276.587V202.754Z" fill="#EBEBEB"/>
<path d="M204.948 204.36H199.703V204.507H204.948V204.36Z" fill="#EBEBEB"/>
<path d="M255.991 197.277H244.407V197.425H255.991V197.277Z" fill="#EBEBEB"/>
<path d="M62.752 198.269H36.6814V198.417H62.752V198.269Z" fill="#EBEBEB"/>
<path d="M71.9513 198.269H68.1304V198.417H71.9513V198.269Z" fill="#EBEBEB"/>
<path d="M140.922 200.76H84.374V200.907H140.922V200.76Z" fill="#EBEBEB"/>
<path d="M148.075 166.935H31.5203C30.6072 166.933 29.7321 166.577 29.087 165.945C28.4419 165.314 28.0796 164.457 28.0796 163.564V3.36354C28.0875 2.47588 28.4534 1.62713 29.0976 1.00165C29.7418 0.376166 30.6124 0.0244698 31.5203 0.0229492H148.075C148.989 0.0229492 149.865 0.378013 150.512 1.01003C151.158 1.64205 151.521 2.49925 151.521 3.39305V163.564C151.521 164.458 151.158 165.316 150.512 165.948C149.865 166.58 148.989 166.935 148.075 166.935ZM31.5203 0.140992C30.6472 0.142555 29.8105 0.482762 29.1937 1.08694C28.5769 1.69111 28.2305 2.50989 28.2305 3.36354V163.564C28.2305 164.418 28.5769 165.237 29.1937 165.841C29.8105 166.445 30.6472 166.785 31.5203 166.787H148.075C148.948 166.785 149.786 166.445 150.403 165.841C151.021 165.237 151.369 164.419 151.37 163.564V3.36354C151.369 2.50935 151.021 1.69059 150.403 1.08658C149.786 0.48257 148.948 0.142552 148.075 0.140992H31.5203Z" fill="#EBEBEB"/>
<path d="M278.645 166.935H162.085C161.171 166.933 160.296 166.577 159.649 165.946C159.003 165.314 158.64 164.458 158.638 163.564V3.36354C158.648 2.47534 159.015 1.6266 159.66 1.00128C160.305 0.375959 161.176 0.0244532 162.085 0.0229492H278.645C279.552 0.026021 280.421 0.378403 281.064 1.00372C281.707 1.62904 282.072 2.4769 282.08 3.36354V163.564C282.08 164.456 281.718 165.312 281.075 165.943C280.431 166.575 279.557 166.931 278.645 166.935ZM162.085 0.140992C161.211 0.142552 160.374 0.48257 159.756 1.08658C159.138 1.69059 158.791 2.50935 158.789 3.36354V163.564C158.791 164.419 159.138 165.237 159.756 165.841C160.374 166.445 161.211 166.785 162.085 166.787H278.645C279.519 166.785 280.356 166.445 280.974 165.841C281.592 165.237 281.939 164.419 281.941 163.564V3.36354C281.939 2.50935 281.592 1.69059 280.974 1.08658C280.356 0.48257 279.519 0.142552 278.645 0.140992H162.085Z" fill="#EBEBEB"/>
<path d="M104.306 6.36768H61.2974V149.028H104.306V6.36768Z" fill="#FAFAFA"/>
<path d="M97.9016 6.36768H95.3905L80.3904 149.028H82.9015L97.9016 6.36768Z" fill="#F5F5F5"/>
<path d="M103.545 6.91663H61.0198V8.17377H103.545V6.91663Z" fill="#E0E0E0"/>
<path d="M103.545 147.776H61.0198V150.467H103.545V147.776Z" fill="#EBEBEB"/>
<path d="M102.839 150.35H62.6555V150.468H102.839V150.35Z" fill="#EBEBEB"/>
<path d="M62.6555 6.91659H102.839V150.35H105.247V5.15186H60.2471V150.35H62.6555V6.91659Z" fill="#EBEBEB"/>
<path d="M152.167 6.36768H109.159V149.028H152.167V6.36768Z" fill="#FAFAFA"/>
<path d="M140.233 6.36768H126.525L111.525 149.028H125.233L140.233 6.36768Z" fill="#F5F5F5"/>
<path d="M152.614 6.91663H108.881V8.17377H152.614V6.91663Z" fill="#E0E0E0"/>
<path d="M152.614 147.776H108.881V150.467H152.614V147.776Z" fill="#EBEBEB"/>
<path d="M150.701 150.35H110.517V150.468H150.701V150.35Z" fill="#EBEBEB"/>
<path d="M110.517 6.91659H150.701V150.35H153.103V5.15186H108.109V150.35H110.517V6.91659Z" fill="#EBEBEB"/>
<path d="M198.816 6.36768H157.015V149.028H198.816V6.36768Z" fill="#FAFAFA"/>
<path d="M180.701 6.36768H178.19L163.19 149.028H165.701L180.701 6.36768Z" fill="#F5F5F5"/>
<path d="M199.268 6.91663H156.743V8.17377H199.268V6.91663Z" fill="#E0E0E0"/>
<path d="M199.268 147.776H156.743V150.467H199.268V147.776Z" fill="#EBEBEB"/>
<path d="M198.562 150.35H158.379V150.468H198.562V150.35Z" fill="#EBEBEB"/>
<path d="M158.379 6.91659H198.556V150.35H200.965V5.15186H155.97V150.35H158.379V6.91659Z" fill="#EBEBEB"/>
<path d="M247.884 6.36768H204.876V149.028H247.884V6.36768Z" fill="#FAFAFA"/>
<path d="M243.677 6.36768H229.969L214.963 149.028H228.677L243.677 6.36768Z" fill="#F5F5F5"/>
<path d="M247.124 6.91663H204.598V8.17377H247.124V6.91663Z" fill="#E0E0E0"/>
<path d="M247.124 147.776H204.598V150.467H247.124V147.776Z" fill="#EBEBEB"/>
<path d="M206.234 6.91659H246.417V150.35H248.826V5.15186H203.832V150.35H206.234V6.91659Z" fill="#EBEBEB"/>
<path d="M246.418 150.35H206.234V150.468H246.418V150.35Z" fill="#EBEBEB"/>
<path d="M94.0139 116.212H75.3438V147.782H94.0139V116.212Z" fill="#EBEBEB"/>
<path d="M90.4285 111.797V119.718H88.9617H80.4023H78.9294V111.797H90.4285Z" fill="#EBEBEB"/>
<path d="M90.4285 119.718H92.8188V117.381H90.4285V119.718Z" fill="#FAFAFA"/>
<path d="M85.805 119.718H88.1953V117.381H85.805V119.718Z" fill="#FAFAFA"/>
<path d="M81.1748 119.718H83.5652V117.381H81.1748V119.718Z" fill="#FAFAFA"/>
<path d="M76.5449 119.718H78.9353V117.381H76.5449V119.718Z" fill="#F0F0F0"/>
<path d="M90.4285 123.961H92.8188V121.624H90.4285V123.961Z" fill="#F0F0F0"/>
<path d="M85.805 123.961H88.1953V121.624H85.805V123.961Z" fill="#F0F0F0"/>
<path d="M81.1748 123.961H83.5652V121.624H81.1748V123.961Z" fill="#FAFAFA"/>
<path d="M76.5449 123.961H78.9353V121.624H76.5449V123.961Z" fill="#FAFAFA"/>
<path d="M90.4285 128.211H92.8188V125.873H90.4285V128.211Z" fill="#F0F0F0"/>
<path d="M85.805 128.211H88.1953V125.873H85.805V128.211Z" fill="#FAFAFA"/>
<path d="M81.1748 128.211H83.5652V125.873H81.1748V128.211Z" fill="#FAFAFA"/>
<path d="M85.805 116.047H88.1953V113.709H85.805V116.047Z" fill="#FAFAFA"/>
<path d="M81.1748 116.047H83.5652V113.709H81.1748V116.047Z" fill="#F0F0F0"/>
<path d="M76.5449 128.211H78.9353V125.873H76.5449V128.211Z" fill="#F0F0F0"/>
<path d="M90.4285 132.46H92.8188V130.123H90.4285V132.46Z" fill="#FAFAFA"/>
<path d="M85.805 132.46H88.1953V130.123H85.805V132.46Z" fill="#F0F0F0"/>
<path d="M81.1748 132.46H83.5652V130.123H81.1748V132.46Z" fill="#F0F0F0"/>
<path d="M76.5449 132.46H78.9353V130.123H76.5449V132.46Z" fill="#FAFAFA"/>
<path d="M90.4285 136.71H92.8188V134.373H90.4285V136.71Z" fill="#F0F0F0"/>
<path d="M85.805 136.71H88.1953V134.373H85.805V136.71Z" fill="#FAFAFA"/>
<path d="M81.1748 136.71H83.5652V134.373H81.1748V136.71Z" fill="#FAFAFA"/>
<path d="M76.5449 136.71H78.9353V134.373H76.5449V136.71Z" fill="#F0F0F0"/>
<path d="M90.4285 140.954H92.8188V138.616H90.4285V140.954Z" fill="#F0F0F0"/>
<path d="M85.805 140.954H88.1953V138.616H85.805V140.954Z" fill="#FAFAFA"/>
<path d="M81.1748 140.954H83.5652V138.616H81.1748V140.954Z" fill="#F0F0F0"/>
<path d="M76.5449 140.954H78.9353V138.616H76.5449V140.954Z" fill="#FAFAFA"/>
<path d="M90.4285 145.203H92.8188V142.866H90.4285V145.203Z" fill="#FAFAFA"/>
<path d="M85.805 145.203H88.1953V142.866H85.805V145.203Z" fill="#FAFAFA"/>
<path d="M81.1748 145.203H83.5652V142.866H81.1748V145.203Z" fill="#F0F0F0"/>
<path d="M76.5449 145.203H78.9353V142.866H76.5449V145.203Z" fill="#F0F0F0"/>
<path d="M225.544 127.709H208.818V147.776H225.544V127.709Z" fill="#F0F0F0"/>
<path d="M210.272 129.94H214.16H215.234H216.302V132.03H215.234H214.16H210.272V129.94Z" fill="#E6E6E6"/>
<path d="M210.272 133.995H214.16H215.234H216.302V136.09H215.234H214.16H210.272V133.995Z" fill="#FAFAFA"/>
<path d="M210.272 138.05H214.16H215.234H216.302V140.145H215.234H214.16H210.272V138.05Z" fill="#E6E6E6"/>
<path d="M210.272 142.104H214.16H215.814H216.302V144.2H215.814H214.16H210.272V142.104Z" fill="#FAFAFA"/>
<path d="M218.053 129.94H221.947H223.015H224.083V132.03H223.015H221.947H218.053V129.94Z" fill="#FAFAFA"/>
<path d="M218.053 133.995H221.947H223.456H224.083V136.09H223.456H221.947H218.053V133.995Z" fill="#FAFAFA"/>
<path d="M218.053 138.05H221.947H223.015H224.083V140.145H223.015H221.947H218.053V138.05Z" fill="#E6E6E6"/>
<path d="M218.053 142.104H221.947H223.015H224.083V144.2H223.015H221.947H218.053V142.104Z" fill="#FAFAFA"/>
<path d="M144.942 135.311H129.742V147.782H144.942V135.311Z" fill="#F0F0F0"/>
<path d="M142.027 138.77H143.97V136.869H142.027V138.77Z" fill="#FAFAFA"/>
<path d="M138.26 138.77H140.203V136.869H138.26V138.77Z" fill="#FAFAFA"/>
<path d="M134.487 138.77H136.431V136.869H134.487V138.77Z" fill="#FAFAFA"/>
<path d="M130.721 138.77H132.664V136.869H130.721V138.77Z" fill="#FAFAFA"/>
<path d="M142.027 142.222H143.97V140.322H142.027V142.222Z" fill="#FAFAFA"/>
<path d="M138.26 142.222H140.203V140.322H138.26V142.222Z" fill="#FAFAFA"/>
<path d="M134.487 142.222H136.431V140.322H134.487V142.222Z" fill="#FAFAFA"/>
<path d="M130.721 142.222H132.664V140.322H130.721V142.222Z" fill="#E6E6E6"/>
<path d="M142.027 145.681H143.97V143.781H142.027V145.681Z" fill="#E6E6E6"/>
<path d="M138.26 145.681H140.203V143.781H138.26V145.681Z" fill="#E6E6E6"/>
<path d="M134.487 145.681H136.431V143.781H134.487V145.681Z" fill="#FAFAFA"/>
<path d="M130.721 145.681H132.664V143.781H130.721V145.681Z" fill="#E6E6E6"/>
<path d="M127.684 126.092H112.485V147.782H127.684V126.092Z" fill="#F0F0F0"/>
<path d="M126.713 127.042H120.996V132.401H126.713V127.042Z" fill="#FAFAFA"/>
<path d="M119.173 127.042H113.457V132.401H119.173V127.042Z" fill="#FAFAFA"/>
<path d="M126.713 133.954H120.996V139.313H126.713V133.954Z" fill="#FAFAFA"/>
<path d="M119.173 133.954H113.457V139.313H119.173V133.954Z" fill="#FAFAFA"/>
<path d="M126.713 140.865H120.996V146.224H126.713V140.865Z" fill="#FAFAFA"/>
<path d="M119.173 140.865H113.457V146.224H119.173V140.865Z" fill="#FAFAFA"/>
<g filter="url(#filter0_d_70_13624)">
<path d="M155.922 219.912C220.56 219.912 272.959 216.921 272.959 213.231C272.959 209.541 220.56 206.55 155.922 206.55C91.2841 206.55 38.8848 209.541 38.8848 213.231C38.8848 216.921 91.2841 219.912 155.922 219.912Z" fill="#D5D5D5"/>
</g>
<path d="M273.369 14.5481V144.536L257.373 160.177H164.771V14.5481H273.369Z" fill="#3E4095"/>
<path opacity="0.8" d="M273.369 14.5481V144.536L257.373 160.177H164.771V14.5481H273.369Z" fill="white"/>
<path opacity="0.2" d="M257.374 160.177V144.996H273.37L257.687 160.33" fill="black"/>
<path opacity="0.1" d="M205.866 27.1725H175.914C175.493 27.1725 175.089 27.009 174.791 26.7179C174.494 26.4268 174.326 26.032 174.326 25.6203C174.326 25.4159 174.366 25.2135 174.446 25.0245C174.525 24.8354 174.642 24.6636 174.789 24.5189C174.937 24.3741 175.112 24.2592 175.305 24.1809C175.498 24.1025 175.705 24.0621 175.914 24.0621H205.866C206.288 24.0637 206.691 24.2285 206.989 24.5206C207.286 24.8126 207.453 25.2081 207.453 25.6203C207.453 26.032 207.286 26.4268 206.988 26.7179C206.691 27.009 206.287 27.1725 205.866 27.1725Z" fill="black"/>
<path opacity="0.1" d="M260.193 39.7678H187.987C187.778 39.7678 187.571 39.7274 187.378 39.649C187.185 39.5707 187.01 39.4558 186.862 39.311C186.715 39.1663 186.598 38.9944 186.518 38.8054C186.439 38.6164 186.398 38.4139 186.399 38.2096C186.399 37.7979 186.566 37.4031 186.864 37.112C187.162 36.8209 187.566 36.6573 187.987 36.6573H260.193C260.614 36.6573 261.017 36.8209 261.315 37.112C261.613 37.4031 261.78 37.7979 261.78 38.2096C261.78 38.6218 261.613 39.0173 261.315 39.3093C261.018 39.6013 260.614 39.7662 260.193 39.7678Z" fill="black"/>
<path opacity="0.1" d="M260.192 45.8881H175.914C175.493 45.8881 175.089 45.7246 174.791 45.4335C174.494 45.1424 174.326 44.7476 174.326 44.3359C174.326 44.1315 174.366 43.929 174.446 43.74C174.525 43.551 174.642 43.3792 174.789 43.2344C174.937 43.0897 175.112 42.9748 175.305 42.8964C175.498 42.8181 175.705 42.7777 175.914 42.7777H260.192C260.614 42.7793 261.018 42.9441 261.315 43.2362C261.613 43.5282 261.78 43.9236 261.78 44.3359C261.78 44.7476 261.613 45.1424 261.315 45.4335C261.017 45.7246 260.613 45.8881 260.192 45.8881Z" fill="black"/>
<path opacity="0.1" d="M260.192 52.8055H175.914C175.705 52.8055 175.498 52.7651 175.305 52.6868C175.112 52.6084 174.937 52.4935 174.789 52.3487C174.642 52.204 174.525 52.0322 174.446 51.8432C174.366 51.6541 174.326 51.4517 174.326 51.2473C174.326 50.8356 174.494 50.4408 174.791 50.1497C175.089 49.8586 175.493 49.6951 175.914 49.6951H260.192C260.613 49.6951 261.017 49.8586 261.315 50.1497C261.613 50.4408 261.78 50.8356 261.78 51.2473C261.78 51.6595 261.613 52.055 261.315 52.347C261.018 52.6391 260.614 52.8039 260.192 52.8055Z" fill="black"/>
<path opacity="0.1" d="M260.192 59.7167H175.914C175.493 59.7167 175.089 59.5531 174.791 59.262C174.494 58.9709 174.326 58.5761 174.326 58.1644C174.326 57.7527 174.494 57.3579 174.791 57.0668C175.089 56.7757 175.493 56.6122 175.914 56.6122H260.192C260.613 56.6122 261.017 56.7757 261.315 57.0668C261.613 57.3579 261.78 57.7527 261.78 58.1644C261.78 58.5761 261.613 58.9709 261.315 59.262C261.017 59.5531 260.613 59.7167 260.192 59.7167Z" fill="black"/>
<path opacity="0.1" d="M260.192 66.6341H175.914C175.493 66.6341 175.089 66.4705 174.791 66.1794C174.494 65.8883 174.326 65.4935 174.326 65.0818C174.326 64.8777 174.366 64.6755 174.446 64.4869C174.525 64.2982 174.642 64.1267 174.79 63.9825C174.937 63.8382 175.113 63.7238 175.305 63.6461C175.498 63.5684 175.705 63.5288 175.914 63.5296H260.192C260.613 63.5296 261.017 63.6931 261.315 63.9842C261.613 64.2753 261.78 64.6701 261.78 65.0818C261.78 65.4935 261.613 65.8883 261.315 66.1794C261.017 66.4705 260.613 66.6341 260.192 66.6341Z" fill="black"/>
<path opacity="0.1" d="M260.192 73.5513H175.914C175.493 73.5513 175.089 73.3878 174.791 73.0967C174.494 72.8056 174.326 72.4108 174.326 71.9991C174.326 71.7947 174.366 71.5923 174.446 71.4032C174.525 71.2142 174.642 71.0424 174.789 70.8977C174.937 70.7529 175.112 70.638 175.305 70.5596C175.498 70.4813 175.705 70.4409 175.914 70.4409H260.192C260.614 70.4425 261.018 70.6073 261.315 70.8994C261.613 71.1914 261.78 71.5868 261.78 71.9991C261.78 72.4108 261.613 72.8056 261.315 73.0967C261.017 73.3878 260.613 73.5513 260.192 73.5513Z" fill="black"/>
<path opacity="0.1" d="M260.198 77.3583H175.914C175.037 77.3583 174.326 78.0532 174.326 78.9105V78.9164C174.326 79.7737 175.037 80.4687 175.914 80.4687H260.198C261.075 80.4687 261.786 79.7737 261.786 78.9164V78.9105C261.786 78.0532 261.075 77.3583 260.198 77.3583Z" fill="black"/>
<path opacity="0.1" d="M260.192 87.374H175.914C175.493 87.374 175.089 87.2105 174.791 86.9194C174.494 86.6283 174.326 86.2335 174.326 85.8218C174.326 85.4101 174.494 85.0153 174.791 84.7242C175.089 84.4331 175.493 84.2695 175.914 84.2695H260.192C260.613 84.2695 261.017 84.4331 261.315 84.7242C261.613 85.0153 261.78 85.4101 261.78 85.8218C261.78 86.2335 261.613 86.6283 261.315 86.9194C261.017 87.2105 260.613 87.374 260.192 87.374Z" fill="black"/>
<path opacity="0.1" d="M260.192 94.2974H175.914C175.493 94.2974 175.089 94.1338 174.791 93.8427C174.494 93.5516 174.326 93.1568 174.326 92.7451C174.326 92.5411 174.366 92.3389 174.446 92.1502C174.525 91.9615 174.642 91.7901 174.79 91.6458C174.937 91.5015 175.113 91.3872 175.305 91.3095C175.498 91.2317 175.705 91.1921 175.914 91.1929H260.192C260.613 91.1929 261.017 91.3564 261.315 91.6475C261.613 91.9386 261.78 92.3335 261.78 92.7451C261.78 93.1568 261.613 93.5516 261.315 93.8427C261.017 94.1338 260.613 94.2974 260.192 94.2974Z" fill="black"/>
<path opacity="0.1" d="M260.192 101.214H175.914C175.493 101.214 175.089 101.051 174.791 100.76C174.494 100.469 174.326 100.074 174.326 99.6622C174.326 99.4578 174.366 99.2553 174.446 99.0663C174.525 98.8773 174.642 98.7055 174.789 98.5607C174.937 98.416 175.112 98.3011 175.305 98.2227C175.498 98.1444 175.705 98.104 175.914 98.104H260.192C260.614 98.1056 261.018 98.2704 261.315 98.5625C261.613 98.8545 261.78 99.2499 261.78 99.6622C261.78 100.074 261.613 100.469 261.315 100.76C261.017 101.051 260.613 101.214 260.192 101.214Z" fill="black"/>
<path opacity="0.1" d="M260.192 108.132H175.914C175.705 108.132 175.498 108.092 175.305 108.013C175.112 107.935 174.937 107.82 174.789 107.675C174.642 107.53 174.525 107.359 174.446 107.17C174.366 106.981 174.326 106.778 174.326 106.574C174.326 106.162 174.494 105.767 174.791 105.476C175.089 105.185 175.493 105.021 175.914 105.021H260.192C260.613 105.021 261.017 105.185 261.315 105.476C261.613 105.767 261.78 106.162 261.78 106.574C261.78 106.986 261.613 107.381 261.315 107.673C261.018 107.965 260.614 108.13 260.192 108.132Z" fill="black"/>
<path opacity="0.1" d="M211.902 115.043H175.914C175.493 115.043 175.089 114.88 174.791 114.589C174.494 114.297 174.326 113.903 174.326 113.491C174.326 113.079 174.494 112.684 174.791 112.393C175.089 112.102 175.493 111.939 175.914 111.939H211.902C212.323 111.939 212.727 112.102 213.025 112.393C213.322 112.684 213.49 113.079 213.49 113.491C213.49 113.903 213.322 114.297 213.025 114.589C212.727 114.88 212.323 115.043 211.902 115.043Z" fill="black"/>
<path d="M253.709 46.4016L253.595 46.3072C253.269 46.0652 253.081 46.1478 252.931 45.6816C252.822 45.3451 252.931 44.9674 252.804 44.6192C252.516 44.0198 252.187 43.44 251.82 42.884L250.335 40.2693C250.003 39.6904 249.451 39.2634 248.798 39.082C248.145 38.9006 247.445 38.9795 246.852 39.3014L233.18 46.7498C233.126 47.1984 232.745 47.5053 232.667 47.9303C232.64 48.0558 232.647 48.1861 232.687 48.3083C232.727 48.4304 232.799 48.5402 232.896 48.6267C232.743 48.6238 232.594 48.572 232.474 48.4792C231.659 48.0365 231.441 47.6824 230.602 48.1309C230.24 48.3198 229.884 48.5205 229.528 48.7212L225.906 50.6984L214.558 56.8779L201.278 64.1257L190.214 70.1517C188.705 70.9721 186.876 71.6922 185.53 72.7368C185.904 72.9257 185.97 73.2149 185.638 73.4982L185.035 74.0353C185.035 74.1828 185.252 74.1829 185.391 74.1238L186.139 73.811C185.619 74.4566 184.993 75.0131 184.286 75.4577C183.099 76.1315 181.824 76.6438 180.495 76.9805L181.135 76.1955C181.183 76.1305 181.244 76.0479 181.202 75.9712C181.159 75.8945 181.081 75.8886 181.008 75.8827C180.689 75.8472 180.369 75.8827 180.133 75.6525C178.069 76.8329 175.908 77.9543 173.807 79.0993C173.215 79.4235 172.778 79.9639 172.593 80.6022C172.407 81.2404 172.488 81.9246 172.817 82.5048L186.604 106.703C186.767 106.991 186.986 107.243 187.249 107.447C187.513 107.651 187.814 107.803 188.137 107.893C188.46 107.983 188.798 108.009 189.132 107.971C189.465 107.933 189.788 107.831 190.081 107.671L193.709 105.671C193.709 105.252 194.047 104.785 193.793 104.402C193.757 104.355 193.734 104.3 193.727 104.242C193.727 104.166 193.799 104.107 193.866 104.065C194.237 103.834 194.663 103.7 195.103 103.676C195.254 103.676 195.453 103.741 195.429 103.882C195.429 103.752 196.208 103.481 196.335 103.44C196.395 103.758 196.172 104.101 196.552 104.166C196.932 104.23 197.512 103.575 197.759 103.457L201.381 101.48L212.85 95.2416L225.429 88.3892L233.79 83.8328C234.091 83.6616 234.448 83.461 234.737 83.3193C234.842 82.7781 235.111 82.2803 235.51 81.891C236.114 81.4838 237.067 81.9323 237.568 81.3539C237.665 81.2418 237.725 81.106 237.81 80.988C237.978 80.796 238.183 80.6377 238.413 80.5217C238.559 80.4097 238.736 80.3419 238.92 80.327C239.101 80.327 239.295 80.4745 239.27 80.6516C240.514 80.3683 241.637 79.5479 242.735 78.94C243.134 78.7216 246.629 77.1162 246.617 76.8624C246.568 76.0774 247.057 75.4046 247.033 74.596C247.033 74.4425 246.725 73.4156 246.864 73.3389C243.725 75.1685 240.466 76.8329 237.266 78.5681C237.158 78.633 236.747 78.7688 236.663 78.8868C236.663 78.8868 236.633 78.94 236.621 78.9695L236.53 79.1642V79.2114C236.4 79.6131 236.247 80.0072 236.071 80.3919C236.071 80.445 235.389 81.2713 235.335 81.0765C235.069 80.1263 234.731 79.9787 233.989 80.3683L232.926 80.9585L229.552 82.794L218.186 88.9912L204.791 96.2863L193.63 102.365L188.952 104.909C188.019 103.257 187.079 101.606 186.133 99.9574L184.322 96.7761C184.139 96.3351 183.868 95.9339 183.526 95.5957C183.266 95.4068 182.825 95.4541 182.596 95.2829C182.035 94.8638 181.63 94.1025 181.099 93.6126C180.737 93.2821 180.188 92.2905 180.338 91.7416C180.52 91.8125 180.701 91.8892 180.882 91.9423C180.787 91.5789 180.808 91.1959 180.942 90.8445C179.131 87.8639 177.465 84.7476 175.733 81.7021L175.618 81.5074L179.843 79.2056L182.928 77.5234C183.562 77.2568 184.169 76.9307 184.739 76.5496C185.131 76.2191 185.53 75.8059 185.946 75.4518C186.226 75.2439 186.53 75.0695 186.852 74.9324L187.992 74.3894C188.051 74.355 188.117 74.3347 188.186 74.3304C188.254 74.3377 188.321 74.3536 188.385 74.3776C188.988 74.5016 190.485 73.4097 191.029 73.1146L194.542 71.2023L205.141 65.4241L218.349 58.2354L231.568 51.0289L242.204 45.2389L247.637 42.2879L247.89 42.1521L253.764 52.4631C254.127 53.1581 254.709 53.7208 255.424 54.0685C255.665 54.1452 255.937 54.3105 255.906 54.5524C255.876 54.7944 255.514 54.9951 255.599 55.243C255.683 55.4909 256.148 55.3964 256.257 55.6207C256.365 55.845 256.069 56.2109 256.106 56.5178C256.23 56.8853 256.416 57.2302 256.655 57.5389L258.363 60.5431C259.317 62.2075 260.265 63.8778 261.224 65.5599L250.782 71.2495C250.833 71.2902 250.876 71.3403 250.908 71.3971L250.963 71.5328C251.17 71.6046 251.372 71.6915 251.566 71.7925C251.65 71.838 251.718 71.905 251.765 71.9862C251.812 72.0674 251.835 72.1597 251.832 72.2529C251.831 72.345 251.804 72.4351 251.755 72.5139C251.706 72.5927 251.637 72.6575 251.554 72.7014L250.914 73.0556C250.892 73.1924 250.827 73.3193 250.729 73.4194C250.631 73.5195 250.504 73.5882 250.365 73.6163C250.291 73.6223 250.216 73.6223 250.142 73.6163C250.078 73.6618 250.006 73.6932 249.928 73.7085C249.851 73.7238 249.772 73.7225 249.695 73.7048C249.558 73.6637 249.443 73.5726 249.374 73.4506C249.304 73.3286 249.285 73.185 249.321 73.0496C249.346 72.9889 249.378 72.9314 249.417 72.8785C249.372 72.7925 249.351 72.6959 249.357 72.5991C249.364 72.5023 249.397 72.4091 249.454 72.3296H249.26C249.152 72.3296 249.055 72.2706 248.953 72.2411C248.41 72.5689 247.987 73.0565 247.745 73.634C247.719 73.6655 247.706 73.7056 247.709 73.7461C247.709 73.8287 247.842 73.8346 247.92 73.87C248.102 73.9527 248.059 74.2124 247.969 74.3835C247.878 74.5547 247.77 74.7731 247.89 74.9265C247.936 74.9782 247.987 75.0256 248.041 75.0682C248.301 75.3574 247.902 76.1955 248.536 75.8531C248.492 75.6709 248.52 75.4788 248.615 75.3161C248.722 75.1517 248.887 75.0319 249.079 74.9796C249.549 74.8683 250.028 74.8011 250.51 74.779L263.096 67.8971C263.688 67.5729 264.124 67.0325 264.31 66.3943C264.495 65.756 264.415 65.0718 264.086 64.4916L264.013 64.3676L258.327 54.3872L255.043 48.6149C254.723 48.066 254.44 47.4935 254.09 46.9505C253.993 46.749 253.865 46.5638 253.709 46.4016Z" fill="#3E4095"/>
<path d="M195.556 79.0108C195.139 78.515 195.266 78.5032 195.188 77.972C195.188 77.972 195.188 77.972 195.188 77.9366L195.139 77.8835L195.067 77.8008C194.783 77.9248 194.5 78.0605 194.216 78.214L188.656 81.2418L190.896 85.1667C190.582 84.6237 191.693 84.783 191.735 84.7771C191.853 84.7432 191.974 84.7234 192.097 84.7181C192.218 84.7432 192.324 84.813 192.393 84.9129C192.625 85.3098 192.694 85.7783 192.586 86.2232C192.52 86.8134 192.84 87.4036 192.496 87.9938C192.791 88.466 195.465 93.2231 195.477 93.2172L201.037 90.1894C201.357 90.0123 202.117 89.6995 202.304 89.3867C202.492 89.0739 202.196 88.584 202.528 88.4364C202.653 88.3916 202.787 88.3747 202.919 88.387C203.052 88.3992 203.18 88.4403 203.294 88.5073C204.353 87.4822 205.034 86.1423 205.229 84.698C205.425 83.2537 205.124 81.7868 204.375 80.5276C202.812 77.7831 199.262 76.1483 196.154 77.4231C195.936 77.5116 196.226 78.4619 195.707 78.5681C195.806 78.3778 195.949 78.2123 196.123 78.0841M199.588 87.9643L196.999 89.3749C196.787 89.003 196.582 88.6312 196.365 88.2712C196.636 88.7198 195.888 88.5781 195.731 88.4778C195.351 88.2299 195.248 87.5157 195.236 87.1144C195.227 86.4261 195.018 85.7546 194.632 85.1785C194.025 84.1043 193.421 83.0301 192.822 81.9559L195.411 80.5453C197.826 79.2232 200.24 79.7722 201.544 82.0622C202.848 84.3522 202.021 86.6599 199.588 87.9643Z" fill="#3E4095"/>
<path d="M213.936 68.9595C214.068 69.2398 214.106 69.5538 214.045 69.8566C214.015 70.0218 213.743 70.4468 213.779 70.553C213.876 70.7891 213.972 71.0252 214.063 71.2613C214.079 71.2999 214.102 71.3358 214.129 71.3675C214.176 71.398 214.23 71.4145 214.286 71.4147C215.246 71.4974 215.204 71.5918 215.264 72.3827C215.319 73.0614 215.916 73.451 216.254 74.0412C216.708 74.8166 216.905 75.7105 216.819 76.6C216.732 77.4895 216.366 78.331 215.771 79.0089C215.175 79.6868 214.38 80.1677 213.494 80.3858C212.608 80.6038 211.674 80.5482 210.822 80.2266C210.799 80.248 210.775 80.2677 210.749 80.2856C210.622 80.3481 210.477 80.3648 210.339 80.3328C210.025 80.2459 209.741 80.0778 209.517 79.8461C209.292 79.6144 209.136 79.3279 209.065 79.0166C209.056 78.9698 209.056 78.9218 209.065 78.875C208.894 78.6683 208.743 78.4471 208.612 78.214C208.302 77.7263 208.098 77.1812 208.013 76.613C207.929 76.0447 207.965 75.4654 208.119 74.9114C208.274 74.3574 208.544 73.8405 208.912 73.3932C209.281 72.9459 209.74 72.5778 210.26 72.3118C211.015 71.8909 211.88 71.6978 212.747 71.757L212.699 71.6862C212.18 71.0134 214.051 70.7419 213.206 70.2874C212.85 70.0986 212.91 69.2428 212.82 68.8945C211.448 68.9248 210.106 69.2878 208.914 69.951C205.051 72.0581 203.717 76.2308 205.745 79.7898C206.598 81.321 208.01 82.482 209.699 83.0419C210.096 83.2109 210.522 83.307 210.954 83.3252C211.449 83.2839 211.208 83.3252 211.419 83.036C211.63 82.7468 211.504 82.6228 211.824 82.3159C212.143 82.009 212.518 81.8261 212.584 81.3539C212.584 81.5664 212.826 81.7198 212.826 81.9441C212.826 82.009 212.826 82.0739 212.826 82.133C212.838 82.2101 212.874 82.2819 212.928 82.3395C213.133 82.611 213.478 82.9297 213.484 83.2426C214.367 83.0993 215.214 82.795 215.983 82.3454C219.828 80.2502 221.192 76.0833 219.152 72.5125C218.095 70.6888 216.109 69.0775 213.936 68.9595Z" fill="#3E4095"/>
<path d="M226.28 60.7437L230.421 68.0092L220.196 64.0548L217.854 65.3356C219.435 68.1096 221.113 70.8541 222.598 73.6812C222.701 73.3743 222.942 73.3152 223.232 73.2739C223.775 73.2031 223.757 73.4687 224.053 73.994C224.089 74.0589 224.131 74.1238 224.198 74.1356C224.264 74.1474 224.397 74.0412 224.506 74.053C224.614 74.0648 224.657 74.1946 224.626 74.295C224.588 74.3933 224.538 74.4865 224.476 74.5724C224.3 74.897 224.59 75.1036 224.554 75.3987C224.554 75.5521 224.029 76.1778 224.089 76.284L224.693 77.2992L227.494 75.7764L226.745 74.4661H226.606C225.791 74.5724 226.154 73.5277 225.973 73.0969C225.679 72.4865 225.347 71.8951 224.977 71.3262L223.329 68.4873L231.641 71.6863C231.619 71.4528 231.648 71.2176 231.725 70.9957C231.791 70.8718 232.329 70.6416 232.329 70.5235C232.36 70.9042 232.542 71.2579 232.836 71.5092C233.156 71.7866 233.156 71.7453 233.095 72.2352L233.59 72.4299L235.92 71.161L229.099 59.1974L226.28 60.7437Z" fill="#3E4095"/>
<path d="M240.351 65.849L238.769 63.0809L244.456 59.9823L243.248 57.828L237.568 60.9266L236.089 58.3238L239.928 56.2345C240.09 56.03 240.297 55.8628 240.532 55.7446C240.651 55.6847 240.789 55.67 240.918 55.7033L242.542 54.8239C242.542 54.8239 241.389 52.8112 241.28 52.5988C240.725 52.8466 241.28 53.5313 240.719 53.8618C240.834 53.9798 241.003 54.3989 240.719 54.452C240.556 54.452 240.435 54.2513 240.272 54.2691C240.109 54.2868 240.103 54.3635 240.019 54.3399C239.993 54.3328 239.969 54.3201 239.95 54.3027C239.93 54.2853 239.914 54.2637 239.904 54.2395C239.826 54.0615 239.727 53.8932 239.608 53.7379C239.228 53.3778 235.757 55.6383 235.274 55.9039L232.045 57.6746L238.86 69.6381L241.582 68.1567L241.637 68.0859C241.836 67.838 242.029 67.5842 242.24 67.354C242.326 67.2743 242.436 67.2238 242.553 67.2099C242.671 67.1961 242.789 67.2197 242.892 67.2773C242.941 67.3021 242.984 67.3362 243.019 67.3776L248.337 64.4797L247.069 62.2546L240.351 65.849Z" fill="#3E4095"/>
<path d="M247.613 193.146C247.613 193.146 243.641 184.682 248.174 176.331C252.707 167.979 254.029 166.014 251.138 164.308C248.247 162.602 246.913 170.983 246.913 170.983C246.913 170.983 244.498 165.211 246.484 159.179C248.47 153.147 249.762 143.302 247.015 142.246C244.269 141.189 246.49 154.516 244.106 159.061C242.89 155.871 242.105 152.54 241.77 149.151C241.444 144.3 241.957 136.556 239.784 134.567C237.611 132.578 236.228 133.977 238.359 144.66C239.64 151.058 240.349 157.553 240.478 164.072C240.478 164.072 235.764 150.025 232.631 149.618C229.498 149.21 229.474 153.749 232.184 157.698C234.894 161.646 240.086 168.705 240.937 172.364C240.937 172.364 235.77 161.8 231.116 165.034C226.462 168.268 235.166 174.66 239.041 176.968C242.917 179.276 245.615 193.73 245.615 193.73L247.613 193.146Z" fill="#3E4095"/>
<path opacity="0.2" d="M247.613 193.146C247.613 193.146 243.641 184.682 248.174 176.331C252.707 167.979 254.029 166.014 251.138 164.308C248.247 162.602 246.913 170.983 246.913 170.983C246.913 170.983 244.498 165.211 246.484 159.179C248.47 153.147 249.762 143.302 247.015 142.246C244.269 141.189 246.49 154.516 244.106 159.061C242.89 155.871 242.105 152.54 241.77 149.151C241.444 144.3 241.957 136.556 239.784 134.567C237.611 132.578 236.228 133.977 238.359 144.66C239.64 151.058 240.349 157.553 240.478 164.072C240.478 164.072 235.764 150.025 232.631 149.618C229.498 149.21 229.474 153.749 232.184 157.698C234.894 161.646 240.086 168.705 240.937 172.364C240.937 172.364 235.77 161.8 231.116 165.034C226.462 168.268 235.166 174.66 239.041 176.968C242.917 179.276 245.615 193.73 245.615 193.73L247.613 193.146Z" fill="black"/>
<path d="M244.474 196.622C244.474 196.622 248.343 188.094 243.707 179.813C239.071 171.532 237.725 169.585 240.599 167.832C243.472 166.079 244.896 174.448 244.896 174.448C244.896 174.448 247.263 168.646 245.18 162.644C243.098 156.641 241.709 146.814 244.444 145.722C247.178 144.631 245.12 157.987 247.558 162.49C248.736 159.286 249.479 155.944 249.768 152.551C250.039 147.694 249.43 139.956 251.579 137.938C253.728 135.919 255.134 137.277 253.13 148.012C251.929 154.425 251.301 160.929 251.253 167.448C251.253 167.448 255.792 153.336 258.949 152.882C262.106 152.427 262.154 156.972 259.498 160.956C256.842 164.94 251.711 172.081 250.897 175.711C250.897 175.711 255.937 165.087 260.627 168.245C265.317 171.403 256.697 177.924 252.852 180.285C249.007 182.646 246.466 197.153 246.466 197.153L244.474 196.622Z" fill="#3E4095"/>
<path d="M262.305 190.543H230.373L232.957 212.888H259.722L262.305 190.543Z" fill="#263238"/>
<path d="M147.493 8.26624H126.421C125.609 8.26624 124.831 8.5815 124.257 9.14268C123.683 9.70386 123.36 10.465 123.36 11.2586V31.2904C123.36 32.084 123.683 32.8451 124.257 33.4063C124.831 33.9675 125.609 34.2827 126.421 34.2827H133.163L128.624 40.3147L136.471 34.2827H147.487C148.299 34.2827 149.077 33.9675 149.651 33.4063C150.225 32.8451 150.548 32.084 150.548 31.2904V11.2586C150.548 10.466 150.226 9.70577 149.653 9.14476C149.081 8.58375 148.304 8.2678 147.493 8.26624Z" fill="#3E4095"/>
<path opacity="0.6" d="M147.493 8.26624H126.421C125.609 8.26624 124.831 8.5815 124.257 9.14268C123.683 9.70386 123.36 10.465 123.36 11.2586V31.2904C123.36 32.084 123.683 32.8451 124.257 33.4063C124.831 33.9675 125.609 34.2827 126.421 34.2827H133.163L128.624 40.3147L136.471 34.2827H147.487C148.299 34.2827 149.077 33.9675 149.651 33.4063C150.225 32.8451 150.548 32.084 150.548 31.2904V11.2586C150.548 10.466 150.226 9.70577 149.653 9.14476C149.081 8.58375 148.304 8.2678 147.493 8.26624Z" fill="white"/>
<path d="M136.96 30.6294C142.244 30.6294 146.528 26.4411 146.528 21.2745C146.528 16.108 142.244 11.9197 136.96 11.9197C131.676 11.9197 127.393 16.108 127.393 21.2745C127.393 26.4411 131.676 30.6294 136.96 30.6294Z" fill="#3E4095"/>
<path opacity="0.2" d="M144.941 23.1109C145.982 18.7995 143.251 14.4795 138.841 13.462C134.432 12.4444 130.014 15.1145 128.973 19.4259C127.932 23.7373 130.663 28.0573 135.073 29.0749C139.482 30.0925 143.9 27.4223 144.941 23.1109Z" fill="black"/>
<path d="M135.94 25.105C135.829 25.1073 135.718 25.0882 135.615 25.0487C135.511 25.0092 135.417 24.9501 135.337 24.8748L131.854 21.5401C131.693 21.3883 131.602 21.1805 131.598 20.9624C131.595 20.7444 131.68 20.5339 131.835 20.3774C131.991 20.2209 132.203 20.1311 132.426 20.1277C132.649 20.1244 132.865 20.2079 133.025 20.3597L135.88 23.0924L140.817 17.7037C140.969 17.5545 141.173 17.4679 141.388 17.4616C141.603 17.4552 141.812 17.5298 141.972 17.6699C142.132 17.8099 142.232 18.0048 142.249 18.2143C142.267 18.4237 142.202 18.6318 142.067 18.7956L136.544 24.8217C136.468 24.905 136.375 24.9721 136.271 25.0188C136.167 25.0655 136.054 25.0908 135.94 25.0932V25.105Z" fill="white"/>
<path d="M108.135 180.34L117.161 180.119L117.627 197.652L108.6 197.873L108.135 180.34Z" fill="#FFBE9D"/>
<path d="M119.993 109.936C119.993 109.936 120.626 139.772 120.41 151.592C120.244 160.496 118.795 187.163 118.795 187.163C118.795 187.163 112.943 190.83 106.777 187.765C106.777 187.765 103.218 160.83 104.085 152.714C104.196 151.73 104.196 150.737 104.085 149.753L98.6429 104.584L119.993 109.936Z" fill="#37474F"/>
<path d="M114.506 195.224C114.506 195.224 109.503 194.677 108.494 193.112V192.094C108.494 192.094 107.627 192.537 107.792 194.223C107.941 195.788 107.29 198.453 107.193 201.704C107.187 201.969 107.246 202.232 107.365 202.471C107.484 202.711 107.659 202.92 107.878 203.083C108.848 203.8 110.895 204.9 114.506 205.047C115.772 205.102 120.837 208.216 125.053 208.216C129.268 208.216 132.023 206.213 132.023 203.411C132.023 200.609 123.427 198.075 123.427 198.075L119.297 194.245C119.297 194.245 120.102 190.069 117.472 191.071C114.843 192.072 114.506 193.112 114.506 195.224Z" fill="#37474F"/>
<path d="M115.419 197.659C115.475 197.659 115.529 197.642 115.574 197.611C115.619 197.579 115.653 197.535 115.67 197.484C116.548 194.961 119.292 194.496 119.32 194.49C119.355 194.485 119.387 194.473 119.417 194.456C119.446 194.438 119.471 194.416 119.492 194.389C119.512 194.362 119.526 194.331 119.534 194.299C119.542 194.267 119.543 194.233 119.537 194.2C119.525 194.135 119.486 194.077 119.43 194.038C119.373 193.999 119.304 193.983 119.235 193.992C118.316 194.164 117.458 194.562 116.747 195.146C116.035 195.73 115.493 196.481 115.174 197.325C115.152 197.388 115.157 197.457 115.188 197.517C115.219 197.576 115.273 197.621 115.339 197.643L115.419 197.659Z" fill="#FAFAFA"/>
<path d="M117.067 199.224C117.122 199.223 117.176 199.205 117.221 199.174C117.266 199.143 117.3 199.099 117.318 199.049C118.191 196.537 120.94 196.061 120.969 196.056C121.003 196.05 121.035 196.039 121.064 196.021C121.093 196.004 121.118 195.981 121.138 195.954C121.158 195.926 121.172 195.896 121.179 195.864C121.186 195.831 121.186 195.798 121.18 195.766C121.174 195.733 121.162 195.702 121.144 195.673C121.125 195.645 121.102 195.621 121.074 195.601C121.045 195.582 121.014 195.568 120.98 195.561C120.946 195.553 120.911 195.552 120.877 195.558C119.958 195.73 119.101 196.127 118.389 196.711C117.677 197.295 117.135 198.046 116.816 198.89C116.805 198.922 116.801 198.955 116.804 198.988C116.807 199.022 116.817 199.054 116.833 199.083C116.849 199.113 116.87 199.139 116.897 199.16C116.923 199.182 116.954 199.198 116.987 199.208C117.012 199.219 117.039 199.225 117.067 199.224Z" fill="#FAFAFA"/>
<path d="M118.499 200.582C118.553 200.582 118.606 200.566 118.65 200.535C118.694 200.505 118.727 200.462 118.744 200.412C119.617 197.895 122.366 197.419 122.395 197.413C122.432 197.412 122.469 197.403 122.502 197.387C122.535 197.371 122.565 197.349 122.588 197.321C122.612 197.293 122.629 197.261 122.639 197.226C122.648 197.192 122.65 197.156 122.644 197.12C122.638 197.085 122.624 197.051 122.603 197.022C122.582 196.992 122.555 196.967 122.524 196.948C122.492 196.929 122.456 196.917 122.419 196.912C122.382 196.907 122.345 196.91 122.309 196.921C121.389 197.091 120.531 197.488 119.819 198.072C119.107 198.656 118.566 199.408 118.248 200.253C118.226 200.317 118.231 200.385 118.262 200.445C118.293 200.504 118.348 200.55 118.413 200.571L118.499 200.582Z" fill="#FAFAFA"/>
<path d="M132.001 203.411C132.001 206.18 129.303 208.166 125.156 208.21L119.252 205.939C119.252 200.067 123.393 198.075 123.393 198.075C123.393 198.075 132.001 200.614 132.001 203.411Z" fill="#EBEBEB"/>
<path d="M107.319 201.944C108.329 202.694 110.473 203.849 114.249 204.008C115.579 204.062 120.872 207.291 125.281 207.291C128.304 207.291 130.609 206.306 131.761 204.735C131.014 206.809 128.527 208.188 125.03 208.188C120.815 208.188 115.75 205.075 114.483 205.02C110.873 204.872 108.825 203.772 107.855 203.055C107.654 202.905 107.49 202.715 107.374 202.497C107.258 202.28 107.192 202.041 107.182 201.797C107.224 201.849 107.27 201.898 107.319 201.944Z" fill="#263238"/>
<path d="M114.763 114.112C114.763 114.112 113.936 120.865 108.54 124.433L103.777 147.346L100.72 118.697L114.763 114.112Z" fill="#263238"/>
<path d="M83.7623 185.146L92.7644 185.821L91.3396 203.307L82.3375 202.632L83.7623 185.146Z" fill="#FFBE9D"/>
<path d="M87.2234 110.647C87.2234 110.647 86.1339 114.604 85.6091 130.928C85.187 143.865 84.8733 151.308 84.7592 153.836C84.7315 154.465 84.661 155.092 84.5482 155.713C83.4394 162.237 82.6968 168.813 82.3236 175.414C81.5535 188 81.4908 193.96 81.4908 193.96C81.4908 193.96 87.058 198.135 93.7774 194.857L100.28 157.349L107.125 122.539C107.125 122.539 116.508 119.108 117.335 109.952L87.2234 110.647Z" fill="#37474F"/>
<path d="M82.6603 198.622L82.5177 200.33C82.5177 200.33 83.59 201.775 84.8563 202.196C84.8563 202.196 85.826 198.798 87.5429 198.622C89.2599 198.447 92.8249 198.294 92.3458 200.188C92.0786 201.175 91.9124 202.185 91.8495 203.203L95.1579 209.119C95.1579 209.119 101.872 214.668 99.0652 218.203C96.2588 221.738 86.8413 219.845 85.9116 214.296C85.7627 213.46 85.4356 212.662 84.9508 211.953C84.4659 211.244 83.8337 210.639 83.0938 210.175C82.4866 209.807 82.009 209.273 81.723 208.642C81.4371 208.01 81.3562 207.31 81.4909 206.634C81.662 205.364 82.0613 202.924 81.9415 201.824C81.8218 200.724 81.5023 198.639 82.6603 198.622Z" fill="#37474F"/>
<path d="M99.0652 218.203C96.7322 221.142 89.8531 220.337 87.0467 216.802C86.9235 216.228 86.8624 215.643 86.8642 215.056C86.8642 208.736 95.1579 209.119 95.1579 209.119C95.1579 209.119 101.872 214.668 99.0652 218.203Z" fill="#EBEBEB"/>
<path d="M81.4909 206.634C81.4909 206.541 81.5194 206.432 81.5365 206.322C81.6012 206.828 81.784 207.313 82.0714 207.741C82.3588 208.17 82.7434 208.53 83.1964 208.796C83.961 209.276 84.614 209.903 85.1146 210.636C85.6151 211.37 85.9525 212.194 86.1055 213.059C87.0523 218.739 96.5782 220.72 99.6013 217.212C99.485 217.57 99.3034 217.906 99.0651 218.203C96.2587 221.744 86.8413 219.845 85.9115 214.296C85.7627 213.46 85.4356 212.662 84.9507 211.953C84.4659 211.244 83.8337 210.639 83.0937 210.175C82.4866 209.808 82.0089 209.273 81.723 208.642C81.4371 208.01 81.3562 207.311 81.4909 206.634Z" fill="#263238"/>
<path d="M86.9724 204.522C87.0397 204.523 87.1048 204.499 87.1549 204.456C89.1627 202.634 91.8208 203.46 91.8494 203.471C91.8827 203.485 91.9186 203.491 91.9548 203.491C91.9911 203.491 92.0268 203.483 92.0598 203.469C92.0928 203.454 92.1224 203.434 92.1467 203.408C92.171 203.382 92.1894 203.352 92.2009 203.319C92.2123 203.286 92.2166 203.251 92.2133 203.216C92.21 203.182 92.1992 203.148 92.1818 203.118C92.1643 203.087 92.1404 203.061 92.1117 203.04C92.0829 203.018 92.05 203.003 92.0148 202.995C91.1206 202.728 90.1693 202.688 89.2543 202.88C88.3392 203.072 87.492 203.489 86.7956 204.089C86.7705 204.112 86.7506 204.14 86.737 204.171C86.7234 204.201 86.7164 204.234 86.7164 204.267C86.7164 204.3 86.7234 204.333 86.737 204.364C86.7506 204.395 86.7705 204.422 86.7956 204.445C86.8425 204.491 86.9055 204.518 86.9724 204.522Z" fill="#FAFAFA"/>
<path d="M88.1248 206.716C88.1901 206.716 88.253 206.692 88.3016 206.651C90.3094 204.828 92.9675 205.655 92.9961 205.666C93.0626 205.687 93.1352 205.681 93.1977 205.651C93.2603 205.621 93.3078 205.568 93.3297 205.504C93.3517 205.44 93.3463 205.371 93.3147 205.311C93.2832 205.251 93.228 205.205 93.1615 205.184C92.2669 204.919 91.3163 204.881 90.4019 205.073C89.4874 205.265 88.6401 205.68 87.9422 206.278C87.8945 206.326 87.8678 206.39 87.8678 206.456C87.8678 206.523 87.8945 206.586 87.9422 206.634C87.99 206.683 88.0553 206.712 88.1248 206.716Z" fill="#FAFAFA"/>
<path d="M89.2713 208.911C89.3366 208.91 89.3994 208.887 89.4481 208.845C91.4559 207.023 94.114 207.849 94.1425 207.86C94.2091 207.881 94.2817 207.876 94.3442 207.845C94.4068 207.815 94.4543 207.762 94.4762 207.698C94.4982 207.635 94.4927 207.565 94.4612 207.505C94.4296 207.445 94.3745 207.399 94.308 207.378C93.4136 207.112 92.4626 207.073 91.5478 207.265C90.633 207.457 89.7857 207.873 89.0887 208.473C89.041 208.521 89.0143 208.584 89.0143 208.651C89.0143 208.717 89.041 208.781 89.0887 208.829C89.1368 208.877 89.2019 208.906 89.2713 208.911Z" fill="#FAFAFA"/>
<path d="M146.985 39.8338C147.528 37.6256 147.909 35.3837 148.126 33.1246C148.263 30.4814 149.061 29.5565 150.744 30.8809C152.427 32.2052 156.26 36.0469 156.032 39.0403C155.845 42.3573 154.745 45.5675 152.843 48.3435L147.938 49.7663L145.975 45.9027L146.985 39.8338Z" fill="#FFBE9D"/>
<path d="M125.72 63.7594L135.548 61.6744C135.548 61.6744 139.735 55.1676 142.159 51.7364C144.584 48.3052 145.958 45.9301 145.958 45.9301L150.522 44.6003L152.849 48.3709C152.849 48.3709 145.2 66.6105 141.652 69.7134C139.866 71.2566 128.333 74.6824 128.333 74.6824C128.333 74.6824 123.49 69.7791 125.72 63.7594Z" fill="#FFBE9D"/>
<path d="M113.331 66.3205L125.72 63.7594C125.889 67.5135 126.766 71.2071 128.31 74.6605L115.864 78.3599L113.331 66.3205Z" fill="#3E4095"/>
<path opacity="0.3" d="M113.331 66.3205L125.72 63.7594C125.889 67.5135 126.766 71.2071 128.31 74.6605L115.864 78.3599L113.331 66.3205Z" fill="white"/>
<path d="M96.1444 67.7489L90.3833 69.4891L87.2232 85.8408L89.0942 93.7704C89.3504 94.8473 89.3987 95.9602 89.2368 97.0538L87.2232 110.647C87.2232 110.647 92.9273 114.139 103.417 114.139C113.907 114.139 119.993 109.963 119.993 109.963L119.2 79.1097C118.905 74.3095 116.822 69.771 113.331 66.3206L106.184 67.1141L96.1444 67.7489Z" fill="#3E4095"/>
<path d="M106.184 67.114L107.553 69.199C107.817 69.6002 107.99 70.0503 108.061 70.5199C108.131 70.9895 108.098 71.4681 107.963 71.9246C107.828 72.381 107.594 72.8051 107.277 73.169C106.959 73.5329 106.565 73.8286 106.121 74.0367C105.313 74.4137 104.432 74.6246 103.534 74.6558C102.637 74.6869 101.742 74.5377 100.908 74.2178C100.074 73.8978 99.3188 73.4141 98.691 72.7976C98.0632 72.1812 97.5767 71.4457 97.2626 70.6383L96.1217 67.7488L101.141 66.025L106.184 67.114Z" fill="#FFBE9D"/>
<path d="M145.958 45.9301C145.958 45.9301 144.281 43.4785 144.31 41.1527C144.339 38.8269 144.036 37.7488 143.62 37.1906C143.203 36.6324 143.671 35.817 144.789 36.0961C145.736 36.3424 146.905 37.7379 147.162 39.0239C147.2 39.2285 147.284 39.4225 147.409 39.5919C147.535 39.7613 147.698 39.9019 147.886 40.0035C149.067 40.6109 151.269 42.3511 150.225 46.5704L145.958 45.9301Z" fill="#FFBE9D"/>
<path d="M150.442 43.6973C150.494 43.6893 150.54 43.6617 150.571 43.6207C150.602 43.5796 150.615 43.5285 150.607 43.4784C150.497 42.717 150.202 41.9912 149.745 41.3598C149.288 40.7284 148.683 40.2093 147.977 39.8447C147.812 39.7598 147.67 39.6396 147.561 39.4935C147.452 39.3474 147.38 39.1792 147.35 39.002C147.339 38.9528 147.308 38.9098 147.265 38.8822C147.221 38.8545 147.167 38.8445 147.116 38.8542C147.091 38.8588 147.067 38.8681 147.046 38.8816C147.024 38.8951 147.006 38.9126 146.992 38.9329C146.977 38.9532 146.967 38.9761 146.962 39.0002C146.957 39.0242 146.957 39.049 146.962 39.0731C147.005 39.3034 147.102 39.5213 147.246 39.7108C147.389 39.9003 147.575 40.0564 147.789 40.1676C148.442 40.5043 149.002 40.9842 149.424 41.5682C149.846 42.1521 150.119 42.8235 150.219 43.5277C150.221 43.5532 150.229 43.578 150.241 43.6006C150.254 43.6232 150.271 43.6431 150.292 43.659C150.313 43.6749 150.337 43.6866 150.362 43.6932C150.388 43.6997 150.415 43.7012 150.442 43.6973Z" fill="#703838"/>
<path d="M89.5393 89.6494L87.0067 94.7717L74.0071 99.7078L79.2491 84.467L89.5393 89.6494Z" fill="#FFBE9D"/>
<path d="M91.1536 69.2593C91.1536 69.2593 95.4887 73.5333 93.6121 79.5584C92.5561 83.0272 91.1936 86.4031 89.5394 89.6496C89.5394 89.6496 82.2325 89.8576 79.272 84.4672L82.9968 75.4486C83.5842 74.0307 84.5091 72.7643 85.6976 71.7504C86.8861 70.7365 88.3052 70.0034 89.8417 69.6095L91.1536 69.2593Z" fill="#3E4095"/>
<path opacity="0.3" d="M91.1536 69.2593C91.1536 69.2593 95.4887 73.5333 93.6121 79.5584C92.5561 83.0272 91.1936 86.4031 89.5394 89.6496C89.5394 89.6496 82.2325 89.8576 79.272 84.4672L82.9968 75.4486C83.5842 74.0307 84.5091 72.7643 85.6976 71.7504C86.8861 70.7365 88.3052 70.0034 89.8417 69.6095L91.1536 69.2593Z" fill="white"/>
<path d="M87.7369 93.8197C84.4514 94.7445 74.7658 97.4972 74.7658 97.4972C74.7658 97.4972 74.6917 97.6997 74.0072 99.6862C72.9577 102.778 76.2888 110.259 88.0849 104.83C99.8809 99.4016 104.188 96.4957 104.188 96.4957L102.904 89.6278C102.904 89.6278 91.4845 92.7635 87.7369 93.8197Z" fill="#FFBE9D"/>
<path d="M87.389 93.9783L81.28 95.6693L88.1191 92.5007L87.389 93.9783Z" fill="#703838"/>
<path d="M104.729 99.5985L112.395 98.8159C112.67 98.7891 112.93 98.6825 113.14 98.5104C113.349 98.3383 113.5 98.1089 113.57 97.8528L117.757 82.7379C117.786 82.6345 117.789 82.5261 117.766 82.4214C117.743 82.3167 117.694 82.2187 117.624 82.1355C117.554 82.0523 117.465 81.9861 117.363 81.9424C117.261 81.8987 117.15 81.8788 117.038 81.8842L109.623 82.218C109.347 82.2288 109.082 82.3238 108.867 82.4892C108.651 82.6545 108.497 82.8816 108.425 83.1373L103.965 98.7502C103.936 98.8569 103.936 98.9686 103.962 99.0757C103.988 99.1827 104.041 99.2821 104.116 99.3654C104.191 99.4487 104.286 99.5133 104.393 99.5539C104.5 99.5945 104.615 99.6098 104.729 99.5985Z" fill="#37474F"/>
<path d="M114.763 84.1005C114.763 84.2263 114.802 84.3493 114.875 84.4538C114.948 84.5583 115.051 84.6396 115.173 84.6875C115.294 84.7354 115.427 84.7476 115.556 84.7227C115.684 84.6978 115.802 84.6368 115.894 84.5474C115.987 84.4581 116.049 84.3445 116.074 84.221C116.099 84.0975 116.085 83.9697 116.034 83.8538C115.983 83.7379 115.898 83.6391 115.788 83.57C115.678 83.5009 115.55 83.4646 115.419 83.4657C115.244 83.4672 115.077 83.5347 114.955 83.6536C114.832 83.7725 114.763 83.9331 114.763 84.1005Z" fill="#263238"/>
<path d="M102.904 89.6497C102.904 89.6497 105.123 85.9503 107.878 85.0529L106.777 89.1189C106.777 89.1189 108.871 89.2776 111.238 89.2776C113.605 89.2776 116.195 87.7453 116.942 87.3513C117.689 86.9573 118.385 89.7044 115.407 94.8814C112.43 100.058 104.165 96.5231 104.165 96.5231L102.904 89.6497Z" fill="#FFBE9D"/>
<path d="M102.613 75.1432C104.222 75.0227 105.719 74.3093 106.792 73.1526C107.864 71.9959 108.428 70.4857 108.364 68.9389C108.286 67.0329 108.197 65.4069 108.197 65.4069C108.197 65.4069 113.241 64.6644 113.325 59.8159C113.409 54.9674 112.563 43.8332 112.563 43.8332C109.693 42.6426 106.543 42.2089 103.44 42.5767C100.337 42.9445 97.3925 44.1005 94.9108 45.9253L94.1586 46.4789L96.0471 65.4637C96.1065 66.25 96.191 71.1615 96.5604 71.8658C96.9297 72.57 97.4404 73.1973 98.0632 73.7116C98.686 74.226 99.4085 74.6172 100.189 74.8629C100.97 75.1086 101.794 75.2038 102.613 75.1432Z" fill="#FFBE9D"/>
<path d="M107.824 57.1455C107.817 57.0913 108.247 57.0095 108.949 56.9177C109.131 56.8955 109.274 56.8605 109.286 56.7662C109.293 56.5911 109.249 56.4176 109.159 56.2652L108.609 54.9074C107.852 52.9685 107.322 51.3761 107.427 51.3402C107.531 51.3042 108.231 52.8408 108.982 54.7747C109.159 55.2464 109.331 55.6984 109.499 56.1422C109.616 56.3676 109.65 56.6241 109.596 56.8704C109.57 56.9367 109.528 56.9962 109.473 57.0442C109.419 57.0922 109.353 57.1273 109.282 57.1469C109.185 57.1723 109.085 57.1845 108.984 57.1833C108.265 57.2076 107.828 57.1973 107.824 57.1455Z" fill="#263238"/>
<path d="M108.218 65.3373C105.882 65.3768 103.587 64.7486 101.625 63.5326C101.625 63.5326 103.176 67.0257 108.216 66.5999L108.218 65.3373Z" fill="#EB996E"/>
<path d="M112.658 45.0521C112.658 45.0521 109.7 46.6885 105.564 45.0502C102.85 43.9779 99.7531 43.5764 99.1155 44.1276C98.4779 44.6787 98.5334 47.2782 95.9956 48.213C95.9956 48.213 96.5454 53.1406 94.4776 53.1065C92.4099 53.0724 93.1225 45.3317 93.1225 45.3317L97.9665 42.6313L103.372 41.2612L108.59 41.6031L112.671 42.3774L112.658 45.0521Z" fill="#263238"/>
<path d="M94.7678 51.489C94.6814 51.4532 91.308 50.4964 91.4012 53.8111C91.4943 57.1258 94.9508 56.3426 94.9535 56.2493C94.9562 56.1561 94.7678 51.489 94.7678 51.489Z" fill="#FFBE9D"/>
<path d="M93.8595 55.0333C93.8595 55.0333 93.8015 55.0752 93.7019 55.1222C93.5606 55.1859 93.3989 55.1943 93.2512 55.1455C92.8817 55.0282 92.5575 54.4787 92.5235 53.8821C92.5048 53.5989 92.5528 53.3152 92.6641 53.0522C92.6934 52.9478 92.7485 52.8517 92.8248 52.7721C92.9012 52.6925 92.9964 52.6318 93.1025 52.5951C93.1711 52.5739 93.2454 52.5771 93.3118 52.6042C93.3782 52.6312 93.4322 52.6803 93.4639 52.7424C93.5126 52.8351 93.4852 52.9023 93.5131 52.9076C93.5411 52.9129 93.5841 52.8496 93.5509 52.7143C93.5306 52.6316 93.4801 52.5585 93.4086 52.5083C93.3118 52.4425 93.1921 52.4156 93.0749 52.4331C92.9339 52.4648 92.8037 52.5304 92.6965 52.6237C92.5893 52.7171 92.5086 52.8351 92.4622 52.9667C92.3243 53.2581 92.263 53.5775 92.2834 53.897C92.3236 54.5625 92.7019 55.1779 93.2055 55.302C93.2987 55.325 93.396 55.3278 93.4905 55.3102C93.585 55.2926 93.6742 55.2551 93.7516 55.2003C93.8552 55.115 93.8725 55.0404 93.8595 55.0333Z" fill="#EB996E"/>
<path d="M97.849 44.8193C97.2812 45.6422 96.605 46.3912 95.8373 47.048C95.0563 47.7072 94.0377 48.0475 92.9988 47.9964C91.9783 47.8979 90.9908 47.183 90.8188 46.2086C90.6468 45.2341 91.5178 44.1639 92.5405 44.2563C92.3715 44.2794 92.1991 44.2635 92.0378 44.2097C91.8765 44.156 91.7309 44.0661 91.6132 43.9474C91.4955 43.8288 91.409 43.6848 91.3611 43.5276C91.3131 43.3704 91.305 43.2045 91.3374 43.0436C91.3698 42.8828 91.4418 42.7317 91.5474 42.603C91.6531 42.4743 91.7892 42.3717 91.9446 42.3037C92.0999 42.2357 92.2699 42.2043 92.4405 42.2122C92.611 42.22 92.7772 42.2669 92.925 42.3488C92.0379 42.2978 91.7675 40.9929 92.3852 40.3833C93.0029 39.7736 94.0301 39.7639 94.885 39.9813C95.7398 40.1988 96.5582 40.5978 97.442 40.6695C98.8285 40.7899 100.14 40.0749 101.245 39.2634C102.35 38.4518 103.374 37.5022 104.657 36.9851C106.231 36.3541 108.038 36.4549 109.682 36.8922C111.066 37.2152 112.337 37.8861 113.362 38.8359C114.348 39.8122 114.955 41.1948 114.762 42.539C114.569 43.8833 113.444 45.1181 112.037 45.2962C112.037 45.2962 108.919 45.9857 106.104 44.4701C103.288 42.9545 97.8895 43.8508 97.8895 43.8508L97.849 44.8193Z" fill="#263238"/>
<path d="M92.6013 41.596C92.6013 41.596 92.6722 41.6512 92.8179 41.7233C92.9636 41.7954 93.1883 41.8927 93.479 42.008C94.3117 42.3185 95.1801 42.5328 96.0657 42.6461C97.3842 42.8172 98.7232 42.7758 100.028 42.5237C101.503 42.2472 103.015 41.5774 104.6 41.0089C106.185 40.4403 107.768 40.0404 109.211 40.1946C110.653 40.3488 111.854 41.0086 112.458 41.8662C112.952 42.5496 113.158 43.3874 113.033 44.2105C112.965 44.5101 112.869 44.8034 112.748 45.0872C112.748 45.0872 112.813 45.0299 112.904 44.894C113.026 44.6888 113.117 44.4675 113.173 44.237C113.268 43.8082 113.273 43.3657 113.187 42.9352C113.102 42.5046 112.928 42.0947 112.676 41.7293C112.047 40.7788 110.759 40.0339 109.246 39.871C107.733 39.708 106.062 40.0868 104.465 40.68C102.868 41.2732 101.388 41.9275 99.9548 42.2046C98.6852 42.4603 97.3815 42.522 96.0918 42.3875C93.8676 42.1549 92.6089 41.5167 92.6013 41.596Z" fill="#455A64"/>
<path d="M91.7256 46.8378C91.6922 46.8593 91.8449 47.1656 92.2683 47.5288C92.8294 47.9985 93.5317 48.2846 94.2736 48.3456C95.0155 48.4066 95.7583 48.2393 96.3945 47.8681C96.8768 47.5826 97.0819 47.305 97.0509 47.2768C97.02 47.2487 96.7488 47.4387 96.2733 47.6623C95.6615 47.9439 94.9822 48.0632 94.3061 48.0076C93.63 47.9521 92.9817 47.7239 92.4286 47.3466C91.9953 47.0456 91.7814 46.8019 91.7256 46.8378Z" fill="#455A64"/>
<path d="M92.575 45.0822C92.494 45.1327 92.835 45.6946 93.5539 46.0506C94.2729 46.4067 94.9464 46.3532 94.9399 46.2582C94.9333 46.1632 94.3564 46.0569 93.7209 45.7371C93.0855 45.4173 92.6582 45.0255 92.575 45.0822Z" fill="#455A64"/>
<path d="M114.624 47.0256C114.669 47.0201 114.747 46.8567 114.731 46.5596C114.705 46.1684 114.548 45.7957 114.284 45.4966C114.02 45.1976 113.662 44.9881 113.264 44.8993C112.953 44.8386 112.772 44.8812 112.768 44.9251C112.751 45.023 113.479 45.1283 114.003 45.7259C114.527 46.3234 114.523 47.038 114.624 47.0256Z" fill="#263238"/>
<path d="M115.768 42.12C115.661 42.0924 115.401 43.0036 114.603 43.827C113.805 44.6503 112.899 44.9993 112.939 45.0988C112.98 45.1983 114.014 44.9672 114.877 44.0662C115.741 43.1653 115.865 42.1197 115.768 42.12Z" fill="#455A64"/>
<path d="M111.742 51.3052C111.744 51.4989 111.667 51.6857 111.528 51.8254C111.388 51.9652 111.196 52.0468 110.995 52.0527C110.896 52.06 110.797 52.0483 110.703 52.0183C110.609 51.9884 110.523 51.9407 110.449 51.8781C110.374 51.8155 110.314 51.7394 110.271 51.654C110.228 51.5687 110.203 51.4759 110.197 51.3812C110.196 51.1878 110.273 51.0014 110.413 50.8618C110.553 50.7222 110.744 50.6404 110.945 50.6337C111.044 50.6264 111.143 50.6381 111.236 50.6681C111.33 50.6981 111.417 50.7458 111.491 50.8083C111.565 50.8709 111.626 50.9471 111.669 51.0324C111.712 51.1178 111.737 51.2105 111.742 51.3052Z" fill="#263238"/>
<path d="M112.329 51.1697C112.233 51.2656 111.647 50.8468 110.815 50.8471C109.984 50.8474 109.371 51.2446 109.279 51.1484C109.237 51.1042 109.335 50.9297 109.601 50.7434C109.962 50.5056 110.391 50.3802 110.829 50.3839C111.263 50.3819 111.686 50.5143 112.035 50.7616C112.299 50.9498 112.377 51.126 112.329 51.1697Z" fill="#263238"/>
<path d="M104.144 51.2259C104.146 51.4196 104.069 51.6064 103.929 51.7461C103.789 51.8859 103.598 51.9675 103.396 51.9734C103.298 51.9807 103.199 51.969 103.105 51.939C103.011 51.909 102.925 51.8614 102.85 51.7988C102.776 51.7362 102.715 51.66 102.672 51.5747C102.629 51.4894 102.604 51.3966 102.599 51.3019C102.598 51.1081 102.676 50.9217 102.816 50.7821C102.957 50.6425 103.148 50.5607 103.35 50.5541C103.448 50.5467 103.547 50.5585 103.641 50.5885C103.734 50.6185 103.821 50.6663 103.895 50.7289C103.969 50.7916 104.029 50.8678 104.072 50.9532C104.115 51.0386 104.139 51.1313 104.144 51.2259Z" fill="#263238"/>
<path d="M104.678 51.146C104.582 51.242 103.994 50.8264 103.162 50.8238C102.329 50.8212 101.718 51.2242 101.626 51.1251C101.584 51.0809 101.681 50.9064 101.947 50.7229C102.308 50.4829 102.737 50.3572 103.176 50.3635C103.609 50.3619 104.032 50.4932 104.382 50.7383C104.636 50.9219 104.723 51.097 104.678 51.146Z" fill="#263238"/>
<path d="M104.074 49.017C103.928 49.1742 103.259 48.8266 102.418 48.8483C101.577 48.8701 100.923 49.2345 100.773 49.0846C100.703 49.0119 100.786 48.7928 101.067 48.5639C101.447 48.2722 101.916 48.1086 102.403 48.0983C102.889 48.0881 103.365 48.2318 103.758 48.5072C104.047 48.7271 104.14 48.9422 104.074 49.017Z" fill="#263238"/>
<path d="M112.039 49.3739C112.087 49.4637 111.965 49.6383 111.684 49.7975C111.308 49.9914 110.886 50.0872 110.459 50.0752C110.033 50.0632 109.617 49.944 109.254 49.7294C108.983 49.5536 108.874 49.3754 108.926 49.2877C109.048 49.1103 109.695 49.3126 110.483 49.3235C111.271 49.3344 111.928 49.1813 112.039 49.3739Z" fill="#263238"/>
<path d="M108.302 59.9116C108.277 59.794 107.485 59.9939 106.75 59.4885C106.015 58.9831 105.876 58.1525 105.766 58.176C105.656 58.1995 105.66 58.3915 105.746 58.7363C105.862 59.1802 106.136 59.5711 106.521 59.8411C106.892 60.1 107.353 60.211 107.808 60.1506C108.147 60.0957 108.318 59.9625 108.302 59.9116Z" fill="#263238"/>
<path d="M94.9537 57.5261C94.9552 57.5958 94.9384 57.6648 94.9048 57.7266C94.8223 57.9024 94.6888 58.0517 94.5203 58.1568C94.3962 58.2386 94.2556 58.2947 94.1075 58.3213C93.9594 58.3479 93.8072 58.3445 93.6606 58.3114C93.4795 58.272 93.3097 58.1944 93.1638 58.0843C93.0178 57.9742 92.8992 57.8342 92.8165 57.6747C92.7283 57.4856 92.6876 57.2792 92.6978 57.0722C92.708 56.8653 92.7688 56.6635 92.8752 56.4833C92.9817 56.303 93.1308 56.1493 93.3106 56.0345C93.4904 55.9197 93.6958 55.8471 93.9103 55.8225C93.9815 55.8072 94.0555 55.8091 94.1258 55.8281C93.8758 55.8786 93.6362 55.9688 93.4171 56.0948C93.19 56.2396 93.0167 56.4499 92.9222 56.6952C92.8648 56.842 92.8382 56.9983 92.844 57.155C92.8498 57.3117 92.8878 57.4657 92.9559 57.6082C93.0295 57.7481 93.1335 57.8711 93.2608 57.9692C93.3881 58.0672 93.5359 58.138 93.6941 58.1767C93.8233 58.2093 93.958 58.2164 94.0902 58.1978C94.2224 58.1791 94.3492 58.1349 94.4631 58.068C94.6757 57.9342 94.8454 57.7467 94.9537 57.5261Z" fill="#455A64"/>
<defs>
<filter id="filter0_d_70_13624" x="0.884766" y="189.55" width="288.074" height="67.3623" filterUnits="userSpaceOnUse" color-interpolation-filters="sRGB">
<feFlood flood-opacity="0" result="BackgroundImageFix"/>
<feColorMatrix in="SourceAlpha" type="matrix" values="0 0 0 0 0 0 0 0 0 0 0 0 0 0 0 0 0 0 127 0" result="hardAlpha"/>
<feOffset dx="-11" dy="10"/>
<feGaussianBlur stdDeviation="13.5"/>
<feComposite in2="hardAlpha" operator="out"/>
<feColorMatrix type="matrix" values="0 0 0 0 0 0 0 0 0 0 0 0 0 0 0 0 0 0 0.25 0"/>
<feBlend mode="normal" in2="BackgroundImageFix" result="effect1_dropShadow_70_13624"/>
<feBlend mode="normal" in="SourceGraphic" in2="effect1_dropShadow_70_13624" result="shape"/>
</filter>
</defs>
</svg>
