<svg width="92" height="92" viewBox="0 0 92 92" fill="none" xmlns="http://www.w3.org/2000/svg">
<rect width="92" height="92" rx="8" fill="#3E4095"/>
<path d="M22.069 46.978C22.0437 47.396 22.0183 47.8203 21.993 48.251C21.9677 48.669 21.898 49.0743 21.784 49.467C21.6827 49.8597 21.518 50.2143 21.29 50.531C21.0747 50.8477 20.7643 51.101 20.359 51.291C20.0043 51.4683 19.6243 51.5887 19.219 51.652C18.8137 51.728 18.4083 51.7597 18.003 51.747C17.5977 51.7343 17.205 51.671 16.825 51.557C16.445 51.4557 16.103 51.31 15.799 51.12C15.495 50.93 15.248 50.683 15.058 50.379C14.868 50.075 14.716 49.7457 14.602 49.391C14.5007 49.0363 14.431 48.669 14.393 48.289C14.355 47.909 14.3297 47.5543 14.317 47.225C14.2663 46.351 14.2663 45.4897 14.317 44.641C14.317 44.4763 14.317 44.2927 14.317 44.09C14.317 43.8747 14.3297 43.6657 14.355 43.463C14.393 43.2603 14.45 43.0767 14.526 42.912C14.602 42.7347 14.7287 42.6017 14.906 42.513C15.286 42.3103 15.6343 42.2977 15.951 42.475C16.2803 42.6523 16.4767 43.0197 16.54 43.577C16.578 43.8683 16.5907 44.1913 16.578 44.546C16.578 44.9007 16.5907 45.2237 16.616 45.515C16.6287 45.9457 16.6413 46.4143 16.654 46.921C16.6667 47.415 16.7363 47.8583 16.863 48.251C17.0023 48.6437 17.224 48.9413 17.528 49.144C17.8447 49.334 18.3133 49.3403 18.934 49.163C19.2253 49.0743 19.4153 48.8527 19.504 48.498C19.6053 48.1433 19.656 47.6177 19.656 46.921C19.656 46.617 19.6497 46.2813 19.637 45.914C19.6243 45.5467 19.618 45.1857 19.618 44.831C19.618 44.4637 19.6243 44.128 19.637 43.824C19.6623 43.5073 19.7003 43.2667 19.751 43.102C19.8143 42.874 19.9473 42.703 20.15 42.589C20.3527 42.475 20.568 42.418 20.796 42.418C21.024 42.4053 21.2393 42.4497 21.442 42.551C21.6447 42.6523 21.784 42.817 21.86 43.045C21.936 43.2477 21.9867 43.5073 22.012 43.824C22.05 44.128 22.0753 44.4637 22.088 44.831C22.1007 45.1857 22.1007 45.553 22.088 45.933C22.088 46.3003 22.0817 46.6487 22.069 46.978ZM28.5511 48.156C28.3105 48.004 28.0381 47.8837 27.7341 47.795C27.4428 47.7063 27.1388 47.624 26.8221 47.548C26.5181 47.472 26.2205 47.3897 25.9291 47.301C25.6378 47.1997 25.3718 47.0603 25.1311 46.883C24.6118 46.4903 24.3078 46.009 24.2191 45.439C24.1431 44.8563 24.2698 44.2737 24.5991 43.691C24.7765 43.387 25.0108 43.14 25.3021 42.95C25.5935 42.7473 25.9101 42.5953 26.2521 42.494C26.6068 42.38 26.9678 42.3167 27.3351 42.304C27.7025 42.2913 28.0508 42.3103 28.3801 42.361C28.5955 42.399 28.8235 42.456 29.0641 42.532C29.3048 42.5953 29.5265 42.684 29.7291 42.798C29.9445 42.912 30.1345 43.0577 30.2991 43.235C30.4765 43.3997 30.6031 43.6087 30.6791 43.862C30.7298 44.0267 30.7361 44.185 30.6981 44.337C30.6728 44.489 30.6095 44.6157 30.5081 44.717C30.4195 44.8183 30.2991 44.8943 30.1471 44.945C30.0078 44.9957 29.8558 45.0083 29.6911 44.983C29.5011 44.945 29.3238 44.888 29.1591 44.812C28.9945 44.736 28.8298 44.6537 28.6651 44.565C28.5005 44.4763 28.3295 44.4003 28.1521 44.337C27.9875 44.2737 27.8101 44.242 27.6201 44.242C27.3288 44.2293 27.0881 44.28 26.8981 44.394C26.7081 44.508 26.5751 44.6473 26.4991 44.812C26.4358 44.9767 26.4421 45.154 26.5181 45.344C26.6068 45.534 26.7841 45.6987 27.0501 45.838C27.2908 45.9647 27.5568 46.066 27.8481 46.142C28.1395 46.218 28.4245 46.294 28.7031 46.37C28.9945 46.446 29.2731 46.5347 29.5391 46.636C29.8178 46.7373 30.0648 46.8767 30.2801 47.054C30.6981 47.396 30.9515 47.795 31.0401 48.251C31.1415 48.707 31.1161 49.1567 30.9641 49.6C30.8121 50.0433 30.5461 50.436 30.1661 50.778C29.7988 51.12 29.3618 51.348 28.8551 51.462C28.4878 51.538 28.0888 51.576 27.6581 51.576C27.2401 51.576 26.8221 51.5317 26.4041 51.443C25.9988 51.3543 25.6061 51.215 25.2261 51.025C24.8588 50.835 24.5485 50.5943 24.2951 50.303C24.1178 50.1003 24.0228 49.8723 24.0101 49.619C24.0101 49.353 24.0608 49.125 24.1621 48.935C24.2761 48.7323 24.4345 48.593 24.6371 48.517C24.8398 48.441 25.0678 48.4853 25.3211 48.65C25.5238 48.7893 25.7645 48.9287 26.0431 49.068C26.3218 49.1947 26.6005 49.296 26.8791 49.372C27.1578 49.448 27.4238 49.486 27.6771 49.486C27.9431 49.486 28.1711 49.429 28.3611 49.315C28.6398 49.1377 28.7855 48.935 28.7981 48.707C28.8108 48.4663 28.7285 48.2827 28.5511 48.156ZM43.316 47.073C43.3414 47.4783 43.354 47.8647 43.354 48.232C43.354 48.5867 43.3414 48.9667 43.316 49.372C43.316 49.524 43.316 49.695 43.316 49.885C43.316 50.075 43.3034 50.2587 43.278 50.436C43.2527 50.6133 43.2084 50.778 43.145 50.93C43.0817 51.082 42.9867 51.2023 42.86 51.291C42.708 51.3923 42.537 51.462 42.347 51.5C42.157 51.5253 41.9797 51.5127 41.815 51.462C41.6504 51.4113 41.5047 51.3163 41.378 51.177C41.264 51.0377 41.2007 50.8413 41.188 50.588C41.15 50.0053 41.131 49.4227 41.131 48.84C41.131 48.5487 41.1247 48.27 41.112 48.004C41.112 47.738 41.1184 47.3643 41.131 46.883C41.131 46.6423 41.112 46.37 41.074 46.066C41.036 45.7493 40.941 45.5277 40.789 45.401C40.675 45.2997 40.5484 45.2427 40.409 45.23C40.2697 45.2047 40.1304 45.2173 39.991 45.268C39.8644 45.3187 39.7504 45.4137 39.649 45.553C39.5477 45.6797 39.478 45.8443 39.44 46.047C39.44 46.2117 39.4337 46.3827 39.421 46.56C39.421 46.7247 39.4274 46.883 39.44 47.035C39.4527 47.4403 39.459 47.8267 39.459 48.194C39.459 48.5487 39.4527 48.9287 39.44 49.334C39.4274 49.4987 39.421 49.676 39.421 49.866C39.4337 50.056 39.4337 50.246 39.421 50.436C39.4084 50.6133 39.3704 50.778 39.307 50.93C39.2564 51.082 39.1614 51.2023 39.022 51.291C38.87 51.3923 38.7054 51.4557 38.528 51.481C38.3634 51.4937 38.205 51.4683 38.053 51.405C37.9137 51.329 37.787 51.215 37.673 51.063C37.5717 50.911 37.5147 50.7083 37.502 50.455C37.4767 50.1637 37.4577 49.8977 37.445 49.657C37.445 49.4037 37.445 49.1377 37.445 48.859C37.445 48.5677 37.4514 48.27 37.464 47.966C37.4767 47.6493 37.4704 47.3453 37.445 47.054C37.445 46.9653 37.4387 46.864 37.426 46.75C37.426 46.6233 37.4197 46.4967 37.407 46.37C37.407 46.2433 37.3944 46.123 37.369 46.009C37.3564 45.8823 37.331 45.781 37.293 45.705C37.1917 45.5277 37.008 45.4137 36.742 45.363C36.4887 45.3123 36.2734 45.3313 36.096 45.42C35.9187 45.5087 35.7857 45.6227 35.697 45.762C35.6084 45.9013 35.545 46.0533 35.507 46.218C35.469 46.3827 35.45 46.56 35.45 46.75C35.45 46.9273 35.45 47.0983 35.45 47.263C35.45 48.0863 35.45 48.802 35.45 49.41C35.4627 50.0053 35.3994 50.4867 35.26 50.854C35.1967 51.044 35.0637 51.1897 34.861 51.291C34.671 51.3923 34.462 51.443 34.234 51.443C34.0187 51.443 33.816 51.3923 33.626 51.291C33.436 51.1897 33.3094 51.0313 33.246 50.816C33.208 50.6767 33.17 50.4803 33.132 50.227C33.1067 49.961 33.0877 49.6697 33.075 49.353C33.0624 49.0363 33.056 48.7197 33.056 48.403C33.056 48.0737 33.056 47.776 33.056 47.51V44.774C33.0434 44.4827 33.037 44.166 33.037 43.824C33.037 43.482 33.0877 43.1717 33.189 42.893C33.2777 42.6523 33.417 42.5003 33.607 42.437C33.797 42.361 33.9934 42.3293 34.196 42.342C34.424 42.342 34.6014 42.4053 34.728 42.532C34.8674 42.646 34.9687 42.7917 35.032 42.969C35.0954 43.1337 35.1334 43.3237 35.146 43.539C35.1587 43.7417 35.1714 43.938 35.184 44.128C35.3234 43.8113 35.488 43.5517 35.678 43.349C35.8807 43.1337 36.1657 42.9943 36.533 42.931C37.4704 42.7537 38.2177 42.9943 38.775 43.653C39.0284 43.3997 39.3514 43.1907 39.744 43.026C40.048 42.912 40.3584 42.8613 40.675 42.874C40.9917 42.874 41.2894 42.931 41.568 43.045C41.8594 43.159 42.119 43.3237 42.347 43.539C42.5877 43.7543 42.7777 44.014 42.917 44.318C43.107 44.7233 43.2147 45.173 43.24 45.667C43.2654 46.161 43.2907 46.6297 43.316 47.073Z" fill="#F9F9F9"/>
<path d="M52.6645 47.757C52.6772 48.0103 52.6835 48.2763 52.6835 48.555C52.6835 48.821 52.6772 49.068 52.6645 49.296C52.6518 49.638 52.6328 49.9547 52.6075 50.246C52.5822 50.5247 52.5315 50.7653 52.4555 50.968C52.3795 51.158 52.2592 51.3037 52.0945 51.405C51.9425 51.4937 51.7272 51.519 51.4485 51.481C51.1572 51.443 50.9482 51.3037 50.8215 51.063C50.6948 50.8223 50.6062 50.55 50.5555 50.246C50.5175 49.9293 50.5048 49.6127 50.5175 49.296C50.5302 48.9793 50.5302 48.7323 50.5175 48.555C50.5048 48.2763 50.4922 47.9597 50.4795 47.605C50.4795 47.2377 50.4415 46.8957 50.3655 46.579C50.3022 46.2497 50.1882 45.971 50.0235 45.743C49.8588 45.515 49.6118 45.3947 49.2825 45.382C48.8645 45.3567 48.5415 45.3883 48.3135 45.477C48.0982 45.5657 47.9398 45.6987 47.8385 45.876C47.7372 46.0407 47.6738 46.2433 47.6485 46.484C47.6358 46.7247 47.6105 46.9843 47.5725 47.263L47.5535 48.004V49.391C47.5535 49.619 47.5472 49.8597 47.5345 50.113C47.5345 50.3537 47.4965 50.5753 47.4205 50.778C47.3445 50.9807 47.2242 51.1517 47.0595 51.291C46.9075 51.4303 46.6795 51.5 46.3755 51.5C45.9955 51.5 45.7105 51.3797 45.5205 51.139C45.3432 50.8857 45.2545 50.5753 45.2545 50.208V39.283C45.2545 39.207 45.2545 39.1373 45.2545 39.074C45.2672 38.998 45.2798 38.922 45.2925 38.846C45.3178 38.77 45.3368 38.7003 45.3495 38.637C45.3622 38.561 45.3812 38.4913 45.4065 38.428C45.4445 38.3013 45.5078 38.2063 45.5965 38.143C45.6598 38.0797 45.7232 38.029 45.7865 37.991C45.8498 37.953 45.9195 37.9277 45.9955 37.915C46.0588 37.9023 46.1285 37.896 46.2045 37.896C46.2805 37.8833 46.3565 37.877 46.4325 37.877C46.6225 37.877 46.8062 37.934 46.9835 38.048C47.0595 38.0987 47.1292 38.1557 47.1925 38.219C47.2558 38.2697 47.3065 38.3457 47.3445 38.447C47.4458 38.6877 47.4965 38.9157 47.4965 39.131C47.5092 39.1943 47.5155 39.2893 47.5155 39.416C47.5282 39.53 47.5345 39.6503 47.5345 39.777C47.5345 39.9037 47.5345 40.0303 47.5345 40.157C47.5472 40.271 47.5535 40.3597 47.5535 40.423V40.518C47.5662 40.9233 47.5725 41.335 47.5725 41.753C47.5725 42.171 47.5725 42.5953 47.5725 43.026V43.349C48.1045 43.1717 48.6618 43.0893 49.2445 43.102C49.8272 43.102 50.3465 43.216 50.8025 43.444C51.2712 43.6847 51.6258 43.957 51.8665 44.261C52.1198 44.565 52.3035 44.9007 52.4175 45.268C52.5315 45.6353 52.5948 46.028 52.6075 46.446C52.6328 46.864 52.6518 47.301 52.6645 47.757ZM62.3869 46.978C62.3615 47.396 62.3362 47.8203 62.3109 48.251C62.2855 48.669 62.2159 49.0743 62.1019 49.467C62.0005 49.8597 61.8359 50.2143 61.6079 50.531C61.3925 50.8477 61.0822 51.101 60.6769 51.291C60.3222 51.4683 59.9422 51.5887 59.5369 51.652C59.1315 51.728 58.7262 51.7597 58.3209 51.747C57.9155 51.7343 57.5229 51.671 57.1429 51.557C56.7629 51.4557 56.4209 51.31 56.1169 51.12C55.8129 50.93 55.5659 50.683 55.3759 50.379C55.1859 50.075 55.0339 49.7457 54.9199 49.391C54.8185 49.0363 54.7489 48.669 54.7109 48.289C54.6729 47.909 54.6475 47.5543 54.6349 47.225C54.5842 46.351 54.5842 45.4897 54.6349 44.641C54.6349 44.4763 54.6349 44.2927 54.6349 44.09C54.6349 43.8747 54.6475 43.6657 54.6729 43.463C54.7109 43.2603 54.7679 43.0767 54.8439 42.912C54.9199 42.7347 55.0465 42.6017 55.2239 42.513C55.6039 42.3103 55.9522 42.2977 56.2689 42.475C56.5982 42.6523 56.7945 43.0197 56.8579 43.577C56.8959 43.8683 56.9085 44.1913 56.8959 44.546C56.8959 44.9007 56.9085 45.2237 56.9339 45.515C56.9465 45.9457 56.9592 46.4143 56.9719 46.921C56.9845 47.415 57.0542 47.8583 57.1809 48.251C57.3202 48.6437 57.5419 48.9413 57.8459 49.144C58.1625 49.334 58.6312 49.3403 59.2519 49.163C59.5432 49.0743 59.7332 48.8527 59.8219 48.498C59.9232 48.1433 59.9739 47.6177 59.9739 46.921C59.9739 46.617 59.9675 46.2813 59.9549 45.914C59.9422 45.5467 59.9359 45.1857 59.9359 44.831C59.9359 44.4637 59.9422 44.128 59.9549 43.824C59.9802 43.5073 60.0182 43.2667 60.0689 43.102C60.1322 42.874 60.2652 42.703 60.4679 42.589C60.6705 42.475 60.8859 42.418 61.1139 42.418C61.3419 42.4053 61.5572 42.4497 61.7599 42.551C61.9625 42.6523 62.1019 42.817 62.1779 43.045C62.2539 43.2477 62.3045 43.5073 62.3299 43.824C62.3679 44.128 62.3932 44.4637 62.4059 44.831C62.4185 45.1857 62.4185 45.553 62.4059 45.933C62.4059 46.3003 62.3995 46.6487 62.3869 46.978ZM64.366 39.492C64.3913 39.036 64.5306 38.6687 64.784 38.39C65.05 38.1113 65.4236 38.0353 65.905 38.162C66.133 38.2253 66.2976 38.3203 66.399 38.447C66.513 38.5737 66.589 38.7257 66.627 38.903C66.6776 39.0677 66.703 39.2513 66.703 39.454C66.703 39.644 66.703 39.834 66.703 40.024V42.646C66.6903 42.7473 66.684 42.8487 66.684 42.95C66.6966 43.0387 66.703 43.121 66.703 43.197V43.444H67.178C67.3173 43.444 67.4503 43.444 67.577 43.444C67.7163 43.444 67.8366 43.4377 67.938 43.425C68.6346 43.425 69.23 43.5263 69.724 43.729C70.2306 43.9317 70.636 44.2167 70.94 44.584C71.2566 44.9387 71.4846 45.3693 71.624 45.876C71.776 46.37 71.8456 46.9147 71.833 47.51C71.8203 48.2193 71.7063 48.8273 71.491 49.334C71.2756 49.8407 70.9716 50.2587 70.579 50.588C70.1863 50.9173 69.7113 51.1643 69.154 51.329C68.6093 51.481 67.995 51.557 67.311 51.557C66.5256 51.557 65.9303 51.5507 65.525 51.538C65.1196 51.5253 64.8283 51.4113 64.651 51.196C64.4863 50.9807 64.3976 50.607 64.385 50.075C64.3723 49.543 64.366 48.764 64.366 47.738C64.366 46.75 64.366 45.7747 64.366 44.812C64.3786 43.8493 64.3786 42.8803 64.366 41.905C64.366 41.7783 64.3596 41.6453 64.347 41.506C64.347 41.3667 64.347 41.2083 64.347 41.031C64.347 40.8537 64.347 40.6447 64.347 40.404C64.347 40.1507 64.3533 39.8467 64.366 39.492ZM67.919 49.429C68.6156 49.391 69.097 49.201 69.363 48.859C69.5023 48.669 69.61 48.441 69.686 48.175C69.762 47.909 69.7936 47.643 69.781 47.377C69.7683 47.111 69.7113 46.8577 69.61 46.617C69.5213 46.3637 69.3756 46.1547 69.173 45.99C68.9956 45.838 68.8183 45.7303 68.641 45.667C68.4636 45.591 68.28 45.5467 68.09 45.534C67.9 45.5087 67.6973 45.5023 67.482 45.515C67.2666 45.515 67.0196 45.5213 66.741 45.534V47.814L66.703 49.391C66.8296 49.4037 66.9626 49.4163 67.102 49.429C67.3426 49.4543 67.615 49.4543 67.919 49.429Z" fill="#F8EF1B"/>
<circle cx="76" cy="49" r="2.5" fill="#F9F9F9"/>
</svg>
