<svg width="42" height="31" viewBox="0 0 42 31" fill="none" xmlns="http://www.w3.org/2000/svg">
<path d="M5.912 16.144C5.896 16.408 5.88 16.676 5.864 16.948C5.848 17.212 5.804 17.468 5.732 17.716C5.668 17.964 5.564 18.188 5.42 18.388C5.284 18.588 5.088 18.748 4.832 18.868C4.608 18.98 4.368 19.056 4.112 19.096C3.856 19.144 3.6 19.164 3.344 19.156C3.088 19.148 2.84 19.108 2.6 19.036C2.36 18.972 2.144 18.88 1.952 18.76C1.76 18.64 1.604 18.484 1.484 18.292C1.364 18.1 1.268 17.892 1.196 17.668C1.132 17.444 1.088 17.212 1.064 16.972C1.04 16.732 1.024 16.508 1.016 16.3C0.984 15.748 0.984 15.204 1.016 14.668C1.016 14.564 1.016 14.448 1.016 14.32C1.016 14.184 1.024 14.052 1.04 13.924C1.064 13.796 1.1 13.68 1.148 13.576C1.196 13.464 1.276 13.38 1.388 13.324C1.628 13.196 1.848 13.188 2.048 13.3C2.256 13.412 2.38 13.644 2.42 13.996C2.444 14.18 2.452 14.384 2.444 14.608C2.444 14.832 2.452 15.036 2.468 15.22C2.476 15.492 2.484 15.788 2.492 16.108C2.5 16.42 2.544 16.7 2.624 16.948C2.712 17.196 2.852 17.384 3.044 17.512C3.244 17.632 3.54 17.636 3.932 17.524C4.116 17.468 4.236 17.328 4.292 17.104C4.356 16.88 4.388 16.548 4.388 16.108C4.388 15.916 4.384 15.704 4.376 15.472C4.368 15.24 4.364 15.012 4.364 14.788C4.364 14.556 4.368 14.344 4.376 14.152C4.392 13.952 4.416 13.8 4.448 13.696C4.488 13.552 4.572 13.444 4.7 13.372C4.828 13.3 4.964 13.264 5.108 13.264C5.252 13.256 5.388 13.284 5.516 13.348C5.644 13.412 5.732 13.516 5.78 13.66C5.828 13.788 5.86 13.952 5.876 14.152C5.9 14.344 5.916 14.556 5.924 14.788C5.932 15.012 5.932 15.244 5.924 15.484C5.924 15.716 5.92 15.936 5.912 16.144ZM10.006 16.888C9.85397 16.792 9.68197 16.716 9.48997 16.66C9.30597 16.604 9.11397 16.552 8.91397 16.504C8.72197 16.456 8.53397 16.404 8.34997 16.348C8.16597 16.284 7.99797 16.196 7.84597 16.084C7.51797 15.836 7.32597 15.532 7.26997 15.172C7.22197 14.804 7.30197 14.436 7.50997 14.068C7.62197 13.876 7.76997 13.72 7.95397 13.6C8.13797 13.472 8.33797 13.376 8.55397 13.312C8.77797 13.24 9.00597 13.2 9.23797 13.192C9.46997 13.184 9.68997 13.196 9.89797 13.228C10.034 13.252 10.178 13.288 10.33 13.336C10.482 13.376 10.622 13.432 10.75 13.504C10.886 13.576 11.006 13.668 11.11 13.78C11.222 13.884 11.302 14.016 11.35 14.176C11.382 14.28 11.386 14.38 11.362 14.476C11.346 14.572 11.306 14.652 11.242 14.716C11.186 14.78 11.11 14.828 11.014 14.86C10.926 14.892 10.83 14.9 10.726 14.884C10.606 14.86 10.494 14.824 10.39 14.776C10.286 14.728 10.182 14.676 10.078 14.62C9.97397 14.564 9.86597 14.516 9.75397 14.476C9.64997 14.436 9.53797 14.416 9.41797 14.416C9.23397 14.408 9.08197 14.44 8.96197 14.512C8.84197 14.584 8.75797 14.672 8.70997 14.776C8.66997 14.88 8.67397 14.992 8.72197 15.112C8.77797 15.232 8.88997 15.336 9.05797 15.424C9.20997 15.504 9.37797 15.568 9.56197 15.616C9.74597 15.664 9.92597 15.712 10.102 15.76C10.286 15.808 10.462 15.864 10.63 15.928C10.806 15.992 10.962 16.08 11.098 16.192C11.362 16.408 11.522 16.66 11.578 16.948C11.642 17.236 11.626 17.52 11.53 17.8C11.434 18.08 11.266 18.328 11.026 18.544C10.794 18.76 10.518 18.904 10.198 18.976C9.96597 19.024 9.71397 19.048 9.44197 19.048C9.17797 19.048 8.91397 19.02 8.64997 18.964C8.39397 18.908 8.14597 18.82 7.90597 18.7C7.67397 18.58 7.47797 18.428 7.31797 18.244C7.20597 18.116 7.14597 17.972 7.13797 17.812C7.13797 17.644 7.16997 17.5 7.23397 17.38C7.30597 17.252 7.40597 17.164 7.53397 17.116C7.66197 17.068 7.80597 17.096 7.96597 17.2C8.09397 17.288 8.24597 17.376 8.42197 17.464C8.59797 17.544 8.77397 17.608 8.94997 17.656C9.12597 17.704 9.29397 17.728 9.45397 17.728C9.62197 17.728 9.76597 17.692 9.88597 17.62C10.062 17.508 10.154 17.38 10.162 17.236C10.17 17.084 10.118 16.968 10.006 16.888ZM19.3312 16.204C19.3472 16.46 19.3552 16.704 19.3552 16.936C19.3552 17.16 19.3472 17.4 19.3312 17.656C19.3312 17.752 19.3312 17.86 19.3312 17.98C19.3312 18.1 19.3232 18.216 19.3072 18.328C19.2912 18.44 19.2632 18.544 19.2232 18.64C19.1832 18.736 19.1232 18.812 19.0432 18.868C18.9472 18.932 18.8392 18.976 18.7192 19C18.5992 19.016 18.4872 19.008 18.3832 18.976C18.2792 18.944 18.1872 18.884 18.1072 18.796C18.0352 18.708 17.9952 18.584 17.9872 18.424C17.9632 18.056 17.9512 17.688 17.9512 17.32C17.9512 17.136 17.9472 16.96 17.9392 16.792C17.9392 16.624 17.9432 16.388 17.9512 16.084C17.9512 15.932 17.9392 15.76 17.9152 15.568C17.8912 15.368 17.8312 15.228 17.7352 15.148C17.6632 15.084 17.5832 15.048 17.4952 15.04C17.4072 15.024 17.3192 15.032 17.2312 15.064C17.1512 15.096 17.0792 15.156 17.0152 15.244C16.9512 15.324 16.9072 15.428 16.8832 15.556C16.8832 15.66 16.8792 15.768 16.8712 15.88C16.8712 15.984 16.8752 16.084 16.8832 16.18C16.8912 16.436 16.8952 16.68 16.8952 16.912C16.8952 17.136 16.8912 17.376 16.8832 17.632C16.8752 17.736 16.8712 17.848 16.8712 17.968C16.8792 18.088 16.8792 18.208 16.8712 18.328C16.8632 18.44 16.8392 18.544 16.7992 18.64C16.7672 18.736 16.7072 18.812 16.6192 18.868C16.5232 18.932 16.4192 18.972 16.3072 18.988C16.2032 18.996 16.1032 18.98 16.0072 18.94C15.9192 18.892 15.8392 18.82 15.7672 18.724C15.7032 18.628 15.6672 18.5 15.6592 18.34C15.6432 18.156 15.6312 17.988 15.6232 17.836C15.6232 17.676 15.6232 17.508 15.6232 17.332C15.6232 17.148 15.6272 16.96 15.6352 16.768C15.6432 16.568 15.6392 16.376 15.6232 16.192C15.6232 16.136 15.6192 16.072 15.6112 16C15.6112 15.92 15.6072 15.84 15.5992 15.76C15.5992 15.68 15.5912 15.604 15.5752 15.532C15.5672 15.452 15.5512 15.388 15.5272 15.34C15.4632 15.228 15.3472 15.156 15.1792 15.124C15.0192 15.092 14.8832 15.104 14.7712 15.16C14.6592 15.216 14.5752 15.288 14.5192 15.376C14.4632 15.464 14.4232 15.56 14.3992 15.664C14.3752 15.768 14.3632 15.88 14.3632 16C14.3632 16.112 14.3632 16.22 14.3632 16.324C14.3632 16.844 14.3632 17.296 14.3632 17.68C14.3712 18.056 14.3312 18.36 14.2432 18.592C14.2032 18.712 14.1192 18.804 13.9912 18.868C13.8712 18.932 13.7392 18.964 13.5952 18.964C13.4592 18.964 13.3312 18.932 13.2112 18.868C13.0912 18.804 13.0112 18.704 12.9712 18.568C12.9472 18.48 12.9232 18.356 12.8992 18.196C12.8832 18.028 12.8712 17.844 12.8632 17.644C12.8552 17.444 12.8512 17.244 12.8512 17.044C12.8512 16.836 12.8512 16.648 12.8512 16.48V14.752C12.8432 14.568 12.8392 14.368 12.8392 14.152C12.8392 13.936 12.8712 13.74 12.9352 13.564C12.9912 13.412 13.0792 13.316 13.1992 13.276C13.3192 13.228 13.4432 13.208 13.5712 13.216C13.7152 13.216 13.8272 13.256 13.9072 13.336C13.9952 13.408 14.0592 13.5 14.0992 13.612C14.1392 13.716 14.1632 13.836 14.1712 13.972C14.1792 14.1 14.1872 14.224 14.1952 14.344C14.2832 14.144 14.3872 13.98 14.5072 13.852C14.6352 13.716 14.8152 13.628 15.0472 13.588C15.6392 13.476 16.1112 13.628 16.4632 14.044C16.6232 13.884 16.8272 13.752 17.0752 13.648C17.2672 13.576 17.4632 13.544 17.6632 13.552C17.8632 13.552 18.0512 13.588 18.2272 13.66C18.4112 13.732 18.5752 13.836 18.7192 13.972C18.8712 14.108 18.9912 14.272 19.0792 14.464C19.1992 14.72 19.2672 15.004 19.2832 15.316C19.2992 15.628 19.3152 15.924 19.3312 16.204Z" fill="#3E4095"/>
<path d="M25.2355 16.636C25.2435 16.796 25.2475 16.964 25.2475 17.14C25.2475 17.308 25.2435 17.464 25.2355 17.608C25.2275 17.824 25.2155 18.024 25.1995 18.208C25.1835 18.384 25.1515 18.536 25.1035 18.664C25.0555 18.784 24.9795 18.876 24.8755 18.94C24.7795 18.996 24.6435 19.012 24.4675 18.988C24.2835 18.964 24.1515 18.876 24.0715 18.724C23.9915 18.572 23.9355 18.4 23.9035 18.208C23.8795 18.008 23.8715 17.808 23.8795 17.608C23.8875 17.408 23.8875 17.252 23.8795 17.14C23.8715 16.964 23.8635 16.764 23.8555 16.54C23.8555 16.308 23.8315 16.092 23.7835 15.892C23.7435 15.684 23.6715 15.508 23.5675 15.364C23.4635 15.22 23.3075 15.144 23.0995 15.136C22.8355 15.12 22.6315 15.14 22.4875 15.196C22.3515 15.252 22.2515 15.336 22.1875 15.448C22.1235 15.552 22.0835 15.68 22.0675 15.832C22.0595 15.984 22.0435 16.148 22.0195 16.324L22.0075 16.792V17.668C22.0075 17.812 22.0035 17.964 21.9955 18.124C21.9955 18.276 21.9715 18.416 21.9235 18.544C21.8755 18.672 21.7995 18.78 21.6955 18.868C21.5995 18.956 21.4555 19 21.2635 19C21.0235 19 20.8435 18.924 20.7235 18.772C20.6115 18.612 20.5555 18.416 20.5555 18.184V11.284C20.5555 11.236 20.5555 11.192 20.5555 11.152C20.5635 11.104 20.5715 11.056 20.5795 11.008C20.5955 10.96 20.6075 10.916 20.6155 10.876C20.6235 10.828 20.6355 10.784 20.6515 10.744C20.6755 10.664 20.7155 10.604 20.7715 10.564C20.8115 10.524 20.8515 10.492 20.8915 10.468C20.9315 10.444 20.9755 10.428 21.0235 10.42C21.0635 10.412 21.1075 10.408 21.1555 10.408C21.2035 10.4 21.2515 10.396 21.2995 10.396C21.4195 10.396 21.5355 10.432 21.6475 10.504C21.6955 10.536 21.7395 10.572 21.7795 10.612C21.8195 10.644 21.8515 10.692 21.8755 10.756C21.9395 10.908 21.9715 11.052 21.9715 11.188C21.9795 11.228 21.9835 11.288 21.9835 11.368C21.9915 11.44 21.9955 11.516 21.9955 11.596C21.9955 11.676 21.9955 11.756 21.9955 11.836C22.0035 11.908 22.0075 11.964 22.0075 12.004V12.064C22.0155 12.32 22.0195 12.58 22.0195 12.844C22.0195 13.108 22.0195 13.376 22.0195 13.648V13.852C22.3555 13.74 22.7075 13.688 23.0755 13.696C23.4435 13.696 23.7715 13.768 24.0595 13.912C24.3555 14.064 24.5795 14.236 24.7315 14.428C24.8915 14.62 25.0075 14.832 25.0795 15.064C25.1515 15.296 25.1915 15.544 25.1995 15.808C25.2155 16.072 25.2275 16.348 25.2355 16.636ZM31.3759 16.144C31.3599 16.408 31.3439 16.676 31.3279 16.948C31.3119 17.212 31.2679 17.468 31.1959 17.716C31.1319 17.964 31.0279 18.188 30.8839 18.388C30.7479 18.588 30.5519 18.748 30.2959 18.868C30.0719 18.98 29.8319 19.056 29.5759 19.096C29.3199 19.144 29.0639 19.164 28.8079 19.156C28.5519 19.148 28.3039 19.108 28.0639 19.036C27.8239 18.972 27.6079 18.88 27.4159 18.76C27.2239 18.64 27.0679 18.484 26.9479 18.292C26.8279 18.1 26.7319 17.892 26.6599 17.668C26.5959 17.444 26.5519 17.212 26.5279 16.972C26.5039 16.732 26.4879 16.508 26.4799 16.3C26.4479 15.748 26.4479 15.204 26.4799 14.668C26.4799 14.564 26.4799 14.448 26.4799 14.32C26.4799 14.184 26.4879 14.052 26.5039 13.924C26.5279 13.796 26.5639 13.68 26.6119 13.576C26.6599 13.464 26.7399 13.38 26.8519 13.324C27.0919 13.196 27.3119 13.188 27.5119 13.3C27.7199 13.412 27.8439 13.644 27.8839 13.996C27.9079 14.18 27.9159 14.384 27.9079 14.608C27.9079 14.832 27.9159 15.036 27.9319 15.22C27.9399 15.492 27.9479 15.788 27.9559 16.108C27.9639 16.42 28.0079 16.7 28.0879 16.948C28.1759 17.196 28.3159 17.384 28.5079 17.512C28.7079 17.632 29.0039 17.636 29.3959 17.524C29.5799 17.468 29.6999 17.328 29.7559 17.104C29.8199 16.88 29.8519 16.548 29.8519 16.108C29.8519 15.916 29.8479 15.704 29.8399 15.472C29.8319 15.24 29.8279 15.012 29.8279 14.788C29.8279 14.556 29.8319 14.344 29.8399 14.152C29.8559 13.952 29.8799 13.8 29.9119 13.696C29.9519 13.552 30.0359 13.444 30.1639 13.372C30.2919 13.3 30.4279 13.264 30.5719 13.264C30.7159 13.256 30.8519 13.284 30.9799 13.348C31.1079 13.412 31.1959 13.516 31.2439 13.66C31.2919 13.788 31.3239 13.952 31.3399 14.152C31.3639 14.344 31.3799 14.556 31.3879 14.788C31.3959 15.012 31.3959 15.244 31.3879 15.484C31.3879 15.716 31.3839 15.936 31.3759 16.144ZM32.6259 11.416C32.6419 11.128 32.7299 10.896 32.8899 10.72C33.0579 10.544 33.2939 10.496 33.5979 10.576C33.7419 10.616 33.8459 10.676 33.9099 10.756C33.9819 10.836 34.0299 10.932 34.0539 11.044C34.0859 11.148 34.1019 11.264 34.1019 11.392C34.1019 11.512 34.1019 11.632 34.1019 11.752V13.408C34.0939 13.472 34.0899 13.536 34.0899 13.6C34.0979 13.656 34.1019 13.708 34.1019 13.756V13.912H34.4019C34.4899 13.912 34.5739 13.912 34.6539 13.912C34.7419 13.912 34.8179 13.908 34.8819 13.9C35.3219 13.9 35.6979 13.964 36.0099 14.092C36.3299 14.22 36.5859 14.4 36.7779 14.632C36.9779 14.856 37.1219 15.128 37.2099 15.448C37.3059 15.76 37.3499 16.104 37.3419 16.48C37.3339 16.928 37.2619 17.312 37.1259 17.632C36.9899 17.952 36.7979 18.216 36.5499 18.424C36.3019 18.632 36.0019 18.788 35.6499 18.892C35.3059 18.988 34.9179 19.036 34.4859 19.036C33.9899 19.036 33.6139 19.032 33.3579 19.024C33.1019 19.016 32.9179 18.944 32.8059 18.808C32.7019 18.672 32.6459 18.436 32.6379 18.1C32.6299 17.764 32.6259 17.272 32.6259 16.624C32.6259 16 32.6259 15.384 32.6259 14.776C32.6339 14.168 32.6339 13.556 32.6259 12.94C32.6259 12.86 32.6219 12.776 32.6139 12.688C32.6139 12.6 32.6139 12.5 32.6139 12.388C32.6139 12.276 32.6139 12.144 32.6139 11.992C32.6139 11.832 32.6179 11.64 32.6259 11.416ZM34.8699 17.692C35.3099 17.668 35.6139 17.548 35.7819 17.332C35.8699 17.212 35.9379 17.068 35.9859 16.9C36.0339 16.732 36.0539 16.564 36.0459 16.396C36.0379 16.228 36.0019 16.068 35.9379 15.916C35.8819 15.756 35.7899 15.624 35.6619 15.52C35.5499 15.424 35.4379 15.356 35.3259 15.316C35.2139 15.268 35.0979 15.24 34.9779 15.232C34.8579 15.216 34.7299 15.212 34.5939 15.22C34.4579 15.22 34.3019 15.224 34.1259 15.232V16.672L34.1019 17.668C34.1819 17.676 34.2659 17.684 34.3539 17.692C34.5059 17.708 34.6779 17.708 34.8699 17.692Z" fill="#F8EF1B"/>
<circle cx="39.5" cy="17.5" r="1.5" fill="#757F90"/>
</svg>
