<svg width="234" height="86" viewBox="0 0 234 86" fill="none" xmlns="http://www.w3.org/2000/svg">
<path d="M31.119 47.578C31.027 49.096 30.935 50.637 30.843 52.201C30.751 53.719 30.498 55.191 30.084 56.617C29.716 58.043 29.118 59.331 28.29 60.481C27.508 61.631 26.381 62.551 24.909 63.241C23.621 63.885 22.241 64.322 20.769 64.552C19.297 64.828 17.825 64.943 16.353 64.897C14.881 64.851 13.455 64.621 12.075 64.207C10.695 63.839 9.453 63.31 8.349 62.62C7.245 61.93 6.348 61.033 5.658 59.929C4.968 58.825 4.416 57.629 4.002 56.341C3.634 55.053 3.381 53.719 3.243 52.339C3.105 50.959 3.013 49.671 2.967 48.475C2.783 45.301 2.783 42.173 2.967 39.091C2.967 38.493 2.967 37.826 2.967 37.09C2.967 36.308 3.013 35.549 3.105 34.813C3.243 34.077 3.45 33.41 3.726 32.812C4.002 32.168 4.462 31.685 5.106 31.363C6.486 30.627 7.751 30.581 8.901 31.225C10.097 31.869 10.81 33.203 11.04 35.227C11.178 36.285 11.224 37.458 11.178 38.746C11.178 40.034 11.224 41.207 11.316 42.265C11.362 43.829 11.408 45.531 11.454 47.371C11.5 49.165 11.753 50.775 12.213 52.201C12.719 53.627 13.524 54.708 14.628 55.444C15.778 56.134 17.48 56.157 19.734 55.513C20.792 55.191 21.482 54.386 21.804 53.098C22.172 51.81 22.356 49.901 22.356 47.371C22.356 46.267 22.333 45.048 22.287 43.714C22.241 42.38 22.218 41.069 22.218 39.781C22.218 38.447 22.241 37.228 22.287 36.124C22.379 34.974 22.517 34.1 22.701 33.502C22.931 32.674 23.414 32.053 24.15 31.639C24.886 31.225 25.668 31.018 26.496 31.018C27.324 30.972 28.106 31.133 28.842 31.501C29.578 31.869 30.084 32.467 30.36 33.295C30.636 34.031 30.82 34.974 30.912 36.124C31.05 37.228 31.142 38.447 31.188 39.781C31.234 41.069 31.234 42.403 31.188 43.783C31.188 45.117 31.165 46.382 31.119 47.578ZM54.6593 51.856C53.7853 51.304 52.7963 50.867 51.6923 50.545C50.6343 50.223 49.5303 49.924 48.3803 49.648C47.2763 49.372 46.1953 49.073 45.1373 48.751C44.0793 48.383 43.1133 47.877 42.2393 47.233C40.3533 45.807 39.2493 44.059 38.9273 41.989C38.6513 39.873 39.1113 37.757 40.3073 35.641C40.9513 34.537 41.8023 33.64 42.8603 32.95C43.9183 32.214 45.0683 31.662 46.3103 31.294C47.5983 30.88 48.9093 30.65 50.2433 30.604C51.5773 30.558 52.8423 30.627 54.0383 30.811C54.8203 30.949 55.6483 31.156 56.5223 31.432C57.3963 31.662 58.2013 31.984 58.9373 32.398C59.7193 32.812 60.4093 33.341 61.0073 33.985C61.6513 34.583 62.1113 35.342 62.3873 36.262C62.5713 36.86 62.5943 37.435 62.4563 37.987C62.3643 38.539 62.1343 38.999 61.7663 39.367C61.4443 39.735 61.0073 40.011 60.4553 40.195C59.9493 40.379 59.3973 40.425 58.7993 40.333C58.1093 40.195 57.4653 39.988 56.8673 39.712C56.2693 39.436 55.6713 39.137 55.0733 38.815C54.4753 38.493 53.8543 38.217 53.2103 37.987C52.6123 37.757 51.9683 37.642 51.2783 37.642C50.2203 37.596 49.3463 37.78 48.6563 38.194C47.9663 38.608 47.4833 39.114 47.2073 39.712C46.9773 40.31 47.0003 40.954 47.2763 41.644C47.5983 42.334 48.2423 42.932 49.2083 43.438C50.0823 43.898 51.0483 44.266 52.1063 44.542C53.1643 44.818 54.1993 45.094 55.2113 45.37C56.2693 45.646 57.2813 45.968 58.2473 46.336C59.2593 46.704 60.1563 47.21 60.9383 47.854C62.4563 49.096 63.3763 50.545 63.6983 52.201C64.0663 53.857 63.9743 55.49 63.4223 57.1C62.8703 58.71 61.9043 60.136 60.5243 61.378C59.1903 62.62 57.6033 63.448 55.7633 63.862C54.4293 64.138 52.9803 64.276 51.4163 64.276C49.8983 64.276 48.3803 64.115 46.8623 63.793C45.3903 63.471 43.9643 62.965 42.5843 62.275C41.2503 61.585 40.1233 60.711 39.2033 59.653C38.5593 58.917 38.2143 58.089 38.1683 57.169C38.1683 56.203 38.3523 55.375 38.7203 54.685C39.1343 53.949 39.7093 53.443 40.4453 53.167C41.1813 52.891 42.0093 53.052 42.9293 53.65C43.6653 54.156 44.5393 54.662 45.5513 55.168C46.5633 55.628 47.5753 55.996 48.5873 56.272C49.5993 56.548 50.5653 56.686 51.4853 56.686C52.4513 56.686 53.2793 56.479 53.9693 56.065C54.9813 55.421 55.5103 54.685 55.5563 53.857C55.6023 52.983 55.3033 52.316 54.6593 51.856ZM108.279 47.923C108.371 49.395 108.417 50.798 108.417 52.132C108.417 53.42 108.371 54.8 108.279 56.272C108.279 56.824 108.279 57.445 108.279 58.135C108.279 58.825 108.233 59.492 108.141 60.136C108.049 60.78 107.888 61.378 107.658 61.93C107.428 62.482 107.083 62.919 106.623 63.241C106.071 63.609 105.45 63.862 104.76 64C104.07 64.092 103.426 64.046 102.828 63.862C102.23 63.678 101.701 63.333 101.241 62.827C100.827 62.321 100.597 61.608 100.551 60.688C100.413 58.572 100.344 56.456 100.344 54.34C100.344 53.282 100.321 52.27 100.275 51.304C100.275 50.338 100.298 48.981 100.344 47.233C100.344 46.359 100.275 45.37 100.137 44.266C99.9993 43.116 99.6543 42.311 99.1023 41.851C98.6883 41.483 98.2283 41.276 97.7223 41.23C97.2163 41.138 96.7103 41.184 96.2043 41.368C95.7443 41.552 95.3303 41.897 94.9623 42.403C94.5943 42.863 94.3413 43.461 94.2033 44.197C94.2033 44.795 94.1803 45.416 94.1343 46.06C94.1343 46.658 94.1573 47.233 94.2033 47.785C94.2493 49.257 94.2723 50.66 94.2723 51.994C94.2723 53.282 94.2493 54.662 94.2033 56.134C94.1573 56.732 94.1343 57.376 94.1343 58.066C94.1803 58.756 94.1803 59.446 94.1343 60.136C94.0883 60.78 93.9503 61.378 93.7203 61.93C93.5363 62.482 93.1913 62.919 92.6853 63.241C92.1333 63.609 91.5353 63.839 90.8913 63.931C90.2933 63.977 89.7183 63.885 89.1663 63.655C88.6603 63.379 88.2003 62.965 87.7863 62.413C87.4183 61.861 87.2113 61.125 87.1653 60.205C87.0733 59.147 87.0043 58.181 86.9583 57.307C86.9583 56.387 86.9583 55.421 86.9583 54.409C86.9583 53.351 86.9813 52.27 87.0273 51.166C87.0733 50.016 87.0503 48.912 86.9583 47.854C86.9583 47.532 86.9353 47.164 86.8893 46.75C86.8893 46.29 86.8663 45.83 86.8203 45.37C86.8203 44.91 86.7743 44.473 86.6823 44.059C86.6363 43.599 86.5443 43.231 86.4063 42.955C86.0383 42.311 85.3713 41.897 84.4053 41.713C83.4853 41.529 82.7033 41.598 82.0593 41.92C81.4153 42.242 80.9323 42.656 80.6103 43.162C80.2883 43.668 80.0583 44.22 79.9203 44.818C79.7823 45.416 79.7133 46.06 79.7133 46.75C79.7133 47.394 79.7133 48.015 79.7133 48.613C79.7133 51.603 79.7133 54.202 79.7133 56.41C79.7593 58.572 79.5293 60.32 79.0233 61.654C78.7933 62.344 78.3103 62.873 77.5743 63.241C76.8843 63.609 76.1253 63.793 75.2973 63.793C74.5153 63.793 73.7793 63.609 73.0893 63.241C72.3993 62.873 71.9393 62.298 71.7093 61.516C71.5713 61.01 71.4333 60.297 71.2953 59.377C71.2033 58.411 71.1343 57.353 71.0883 56.203C71.0423 55.053 71.0193 53.903 71.0193 52.753C71.0193 51.557 71.0193 50.476 71.0193 49.51V39.574C70.9733 38.516 70.9503 37.366 70.9503 36.124C70.9503 34.882 71.1343 33.755 71.5023 32.743C71.8243 31.869 72.3303 31.317 73.0203 31.087C73.7103 30.811 74.4233 30.696 75.1593 30.742C75.9873 30.742 76.6313 30.972 77.0913 31.432C77.5973 31.846 77.9653 32.375 78.1953 33.019C78.4253 33.617 78.5633 34.307 78.6093 35.089C78.6553 35.825 78.7013 36.538 78.7473 37.228C79.2533 36.078 79.8513 35.135 80.5413 34.399C81.2773 33.617 82.3123 33.111 83.6463 32.881C87.0503 32.237 89.7643 33.111 91.7883 35.503C92.7083 34.583 93.8813 33.824 95.3073 33.226C96.4113 32.812 97.5383 32.628 98.6883 32.674C99.8383 32.674 100.919 32.881 101.931 33.295C102.989 33.709 103.932 34.307 104.76 35.089C105.634 35.871 106.324 36.814 106.83 37.918C107.52 39.39 107.911 41.023 108.003 42.817C108.095 44.611 108.187 46.313 108.279 47.923Z" fill="#F9F9F9"/>
<path d="M142.229 50.407C142.275 51.327 142.298 52.293 142.298 53.305C142.298 54.271 142.275 55.168 142.229 55.996C142.183 57.238 142.114 58.388 142.022 59.446C141.93 60.458 141.746 61.332 141.47 62.068C141.194 62.758 140.757 63.287 140.159 63.655C139.607 63.977 138.825 64.069 137.813 63.931C136.755 63.793 135.996 63.287 135.536 62.413C135.076 61.539 134.754 60.55 134.57 59.446C134.432 58.296 134.386 57.146 134.432 55.996C134.478 54.846 134.478 53.949 134.432 53.305C134.386 52.293 134.34 51.143 134.294 49.855C134.294 48.521 134.156 47.279 133.88 46.129C133.65 44.933 133.236 43.921 132.638 43.093C132.04 42.265 131.143 41.828 129.947 41.782C128.429 41.69 127.256 41.805 126.428 42.127C125.646 42.449 125.071 42.932 124.703 43.576C124.335 44.174 124.105 44.91 124.013 45.784C123.967 46.658 123.875 47.601 123.737 48.613L123.668 51.304V56.341C123.668 57.169 123.645 58.043 123.599 58.963C123.599 59.837 123.461 60.642 123.185 61.378C122.909 62.114 122.472 62.735 121.874 63.241C121.322 63.747 120.494 64 119.39 64C118.01 64 116.975 63.563 116.285 62.689C115.641 61.769 115.319 60.642 115.319 59.308V19.633C115.319 19.357 115.319 19.104 115.319 18.874C115.365 18.598 115.411 18.322 115.457 18.046C115.549 17.77 115.618 17.517 115.664 17.287C115.71 17.011 115.779 16.758 115.871 16.528C116.009 16.068 116.239 15.723 116.561 15.493C116.791 15.263 117.021 15.079 117.251 14.941C117.481 14.803 117.734 14.711 118.01 14.665C118.24 14.619 118.493 14.596 118.769 14.596C119.045 14.55 119.321 14.527 119.597 14.527C120.287 14.527 120.954 14.734 121.598 15.148C121.874 15.332 122.127 15.539 122.357 15.769C122.587 15.953 122.771 16.229 122.909 16.597C123.277 17.471 123.461 18.299 123.461 19.081C123.507 19.311 123.53 19.656 123.53 20.116C123.576 20.53 123.599 20.967 123.599 21.427C123.599 21.887 123.599 22.347 123.599 22.807C123.645 23.221 123.668 23.543 123.668 23.773V24.118C123.714 25.59 123.737 27.085 123.737 28.603C123.737 30.121 123.737 31.662 123.737 33.226V34.399C125.669 33.755 127.693 33.456 129.809 33.502C131.925 33.502 133.811 33.916 135.467 34.744C137.169 35.618 138.457 36.607 139.331 37.711C140.251 38.815 140.918 40.034 141.332 41.368C141.746 42.702 141.976 44.128 142.022 45.646C142.114 47.164 142.183 48.751 142.229 50.407ZM177.536 47.578C177.444 49.096 177.352 50.637 177.26 52.201C177.168 53.719 176.915 55.191 176.501 56.617C176.133 58.043 175.535 59.331 174.707 60.481C173.925 61.631 172.798 62.551 171.326 63.241C170.038 63.885 168.658 64.322 167.186 64.552C165.714 64.828 164.242 64.943 162.77 64.897C161.298 64.851 159.872 64.621 158.492 64.207C157.112 63.839 155.87 63.31 154.766 62.62C153.662 61.93 152.765 61.033 152.075 59.929C151.385 58.825 150.833 57.629 150.419 56.341C150.051 55.053 149.798 53.719 149.66 52.339C149.522 50.959 149.43 49.671 149.384 48.475C149.2 45.301 149.2 42.173 149.384 39.091C149.384 38.493 149.384 37.826 149.384 37.09C149.384 36.308 149.43 35.549 149.522 34.813C149.66 34.077 149.867 33.41 150.143 32.812C150.419 32.168 150.879 31.685 151.523 31.363C152.903 30.627 154.168 30.581 155.318 31.225C156.514 31.869 157.227 33.203 157.457 35.227C157.595 36.285 157.641 37.458 157.595 38.746C157.595 40.034 157.641 41.207 157.733 42.265C157.779 43.829 157.825 45.531 157.871 47.371C157.917 49.165 158.17 50.775 158.63 52.201C159.136 53.627 159.941 54.708 161.045 55.444C162.195 56.134 163.897 56.157 166.151 55.513C167.209 55.191 167.899 54.386 168.221 53.098C168.589 51.81 168.773 49.901 168.773 47.371C168.773 46.267 168.75 45.048 168.704 43.714C168.658 42.38 168.635 41.069 168.635 39.781C168.635 38.447 168.658 37.228 168.704 36.124C168.796 34.974 168.934 34.1 169.118 33.502C169.348 32.674 169.831 32.053 170.567 31.639C171.303 31.225 172.085 31.018 172.913 31.018C173.741 30.972 174.523 31.133 175.259 31.501C175.995 31.869 176.501 32.467 176.777 33.295C177.053 34.031 177.237 34.974 177.329 36.124C177.467 37.228 177.559 38.447 177.605 39.781C177.651 41.069 177.651 42.403 177.605 43.783C177.605 45.117 177.582 46.382 177.536 47.578ZM184.724 20.392C184.816 18.736 185.322 17.402 186.242 16.39C187.208 15.378 188.565 15.102 190.313 15.562C191.141 15.792 191.739 16.137 192.107 16.597C192.521 17.057 192.797 17.609 192.935 18.253C193.119 18.851 193.211 19.518 193.211 20.254C193.211 20.944 193.211 21.634 193.211 22.324V31.846C193.165 32.214 193.142 32.582 193.142 32.95C193.188 33.272 193.211 33.571 193.211 33.847V34.744H194.936C195.442 34.744 195.925 34.744 196.385 34.744C196.891 34.744 197.328 34.721 197.696 34.675C200.226 34.675 202.388 35.043 204.182 35.779C206.022 36.515 207.494 37.55 208.598 38.884C209.748 40.172 210.576 41.736 211.082 43.576C211.634 45.37 211.887 47.348 211.841 49.51C211.795 52.086 211.381 54.294 210.599 56.134C209.817 57.974 208.713 59.492 207.287 60.688C205.861 61.884 204.136 62.781 202.112 63.379C200.134 63.931 197.903 64.207 195.419 64.207C192.567 64.207 190.405 64.184 188.933 64.138C187.461 64.092 186.403 63.678 185.759 62.896C185.161 62.114 184.839 60.757 184.793 58.825C184.747 56.893 184.724 54.064 184.724 50.338C184.724 46.75 184.724 43.208 184.724 39.712C184.77 36.216 184.77 32.697 184.724 29.155C184.724 28.695 184.701 28.212 184.655 27.706C184.655 27.2 184.655 26.625 184.655 25.981C184.655 25.337 184.655 24.578 184.655 23.704C184.655 22.784 184.678 21.68 184.724 20.392ZM197.627 56.479C200.157 56.341 201.905 55.651 202.871 54.409C203.377 53.719 203.768 52.891 204.044 51.925C204.32 50.959 204.435 49.993 204.389 49.027C204.343 48.061 204.136 47.141 203.768 46.267C203.446 45.347 202.917 44.588 202.181 43.99C201.537 43.438 200.893 43.047 200.249 42.817C199.605 42.541 198.938 42.38 198.248 42.334C197.558 42.242 196.822 42.219 196.04 42.265C195.258 42.265 194.361 42.288 193.349 42.334V50.614L193.211 56.341C193.671 56.387 194.154 56.433 194.66 56.479C195.534 56.571 196.523 56.571 197.627 56.479Z" fill="#F8EF1B"/>
<ellipse cx="225" cy="57" rx="9" ry="9.5" fill="#F9F9F9"/>
</svg>
