<svg width="214" height="207" viewBox="0 0 214 207" fill="none" xmlns="http://www.w3.org/2000/svg">
<path d="M0 74.8841C0.0298952 74.3559 0.197125 73.8417 0.487956 73.3837C0.778787 72.9257 1.18491 72.5371 1.67296 72.2497L84.1436 28.9294C84.6619 28.6898 85.2351 28.5649 85.8165 28.5649C86.398 28.5649 86.9712 28.6898 87.4895 28.9294L89.3748 29.9187C89.8606 30.2078 90.2646 30.597 90.5542 31.0547C90.8437 31.5124 91.0106 32.0257 91.0413 32.5531V92.1947C91.0091 92.7217 90.8416 93.2345 90.5522 93.692C90.2628 94.1495 89.8595 94.5389 89.3748 94.829L6.89775 138.179C6.37964 138.415 5.80784 138.539 5.22801 138.539C4.64817 138.539 4.07637 138.415 3.55826 138.179L1.67296 137.189C1.18706 136.9 0.782576 136.511 0.492021 136.053C0.201465 135.596 0.0329448 135.083 0 134.555V74.8841Z" fill="#3E4095"/>
<g opacity="0.7">
<path d="M0 74.884C0.0298952 74.3558 0.197125 73.8416 0.487956 73.3836C0.778787 72.9257 1.18491 72.537 1.67296 72.2497L84.1436 28.9293C84.6619 28.6897 85.2351 28.5648 85.8165 28.5648C86.398 28.5648 86.9712 28.6897 87.4895 28.9293L89.3748 29.9187C89.8606 30.2077 90.2646 30.5969 90.5542 31.0546C90.8437 31.5123 91.0106 32.0256 91.0413 32.553V92.1946C91.0091 92.7216 90.8416 93.2345 90.5522 93.692C90.2628 94.1494 89.8595 94.5389 89.3748 94.829L6.89775 138.179C6.37964 138.415 5.80784 138.539 5.22801 138.539C4.64817 138.539 4.07637 138.415 3.55826 138.179L1.67296 137.189C1.18706 136.9 0.782576 136.511 0.492021 136.053C0.201465 135.596 0.0329448 135.082 0 134.555V74.884Z" fill="white"/>
</g>
<path d="M0.489014 73.3852L5.23123 75.8732L90.5523 31.0483C90.2695 30.5867 89.8648 30.1964 89.3748 29.9126L87.4831 28.9291C86.9679 28.6868 86.3964 28.5604 85.8165 28.5604C85.2366 28.5604 84.6652 28.6868 84.15 28.9291L1.67295 72.2495C1.17663 72.5281 0.768594 72.9195 0.489014 73.3852Z" fill="#3E4095"/>
<path opacity="0.8" d="M0.489014 73.3852L5.23123 75.8732L90.5523 31.0483C90.2695 30.5867 89.8648 30.1964 89.3748 29.9126L87.4831 28.9291C86.9679 28.6868 86.3964 28.5604 85.8165 28.5604C85.2366 28.5604 84.6652 28.6868 84.15 28.9291L1.67295 72.2495C1.17663 72.5281 0.768594 72.9195 0.489014 73.3852Z" fill="white"/>
<path opacity="0.1" d="M0 74.878V134.52C0.0298952 135.048 0.197125 135.562 0.487956 136.02C0.778787 136.478 1.18491 136.867 1.67296 137.154L3.55826 138.149C3.70448 138.223 3.8573 138.286 4.0151 138.336C4.23919 138.403 4.46973 138.45 4.7036 138.477C5.14285 138.528 5.58824 138.514 6.02267 138.436L6.35082 138.36L6.55673 138.296C6.42688 138.343 6.28761 138.364 6.14794 138.359C6.00827 138.354 5.87132 138.323 5.74598 138.266C5.5667 138.161 5.42349 138.011 5.33252 137.835C5.24156 137.66 5.20648 137.464 5.23123 137.271V77.6294C5.21377 77.3589 5.28761 77.09 5.44287 76.8588C5.59813 76.6275 5.82737 76.445 6.09988 76.3357L5.23123 75.8732L0.489016 73.3852C0.188874 73.8368 0.0205458 74.3506 0 74.878Z" fill="#3E4095"/>
<path opacity="0.05" d="M0 74.878V134.52C0.0298952 135.048 0.197125 135.562 0.487956 136.02C0.778787 136.478 1.18491 136.867 1.67296 137.154L3.55826 138.149C3.70448 138.223 3.8573 138.286 4.0151 138.336C4.23919 138.403 4.46973 138.45 4.7036 138.477C5.14285 138.528 5.58824 138.514 6.02267 138.436L6.35082 138.36L6.55673 138.296C6.42688 138.343 6.28761 138.364 6.14794 138.359C6.00827 138.354 5.87132 138.323 5.74598 138.266C5.5667 138.161 5.42349 138.011 5.33252 137.835C5.24156 137.66 5.20648 137.464 5.23123 137.271V77.6294C5.21377 77.3589 5.28761 77.09 5.44287 76.8588C5.59813 76.6275 5.82737 76.445 6.09988 76.3357L5.23123 75.8732L0.489016 73.3852C0.188874 73.8368 0.0205458 74.3506 0 74.878Z" fill="black"/>
<path opacity="0.2" d="M5.23128 75.8732L44.8354 89.3377C46.2058 89.8036 47.7098 89.8307 49.0994 89.4146C50.489 88.9985 51.6812 88.164 52.4796 87.0487L58.8369 78.1797L90.5524 31.0483L60.1044 78.5076L91.0414 92.212C91.0123 92.7514 90.8329 93.2751 90.5202 93.7341L60.0079 78.6539L52.6212 89.4138C51.8008 90.6097 50.5336 91.4961 49.0525 91.9101C47.5713 92.3242 45.9757 92.238 44.5588 91.6676L39.2889 89.5543L5.73317 138.266C5.55389 138.161 5.41067 138.011 5.3197 137.835C5.22874 137.66 5.19366 137.464 5.21841 137.271V136.276L39.1216 89.4899L5.23128 75.8732Z" fill="#3E4095"/>
<path opacity="0.05" d="M5.23128 75.8732L44.8354 89.3377C46.2058 89.8036 47.7098 89.8307 49.0994 89.4146C50.489 88.9985 51.6812 88.164 52.4796 87.0487L58.8369 78.1797L90.5524 31.0483L60.1044 78.5076L91.0414 92.212C91.0123 92.7514 90.8329 93.2751 90.5202 93.7341L60.0079 78.6539L52.6212 89.4138C51.8008 90.6097 50.5336 91.4961 49.0525 91.9101C47.5713 92.3242 45.9757 92.238 44.5588 91.6676L39.2889 89.5543L5.73317 138.266C5.55389 138.161 5.41067 138.011 5.3197 137.835C5.22874 137.66 5.19366 137.464 5.21841 137.271V136.276L39.1216 89.4899L5.23128 75.8732Z" fill="black"/>
<path d="M20.912 85.8779C20.9427 85.3506 21.1096 84.8372 21.3992 84.3795C21.6887 83.9218 22.0928 83.5326 22.5785 83.2436L105.056 39.9232C105.573 39.6837 106.145 39.5588 106.725 39.5588C107.306 39.5588 107.878 39.6837 108.395 39.9232L110.28 40.9125C110.767 41.201 111.173 41.5898 111.463 42.0476C111.754 42.5053 111.922 43.019 111.953 43.5469V103.189C111.921 103.716 111.753 104.23 111.462 104.687C111.171 105.145 110.767 105.534 110.28 105.823L27.8098 149.143C27.2905 149.38 26.7177 149.503 26.1368 149.503C25.5559 149.503 24.9831 149.38 24.4638 149.143L22.5592 148.13C22.0752 147.84 21.6725 147.45 21.3832 146.993C21.0939 146.535 20.9259 146.023 20.8927 145.496L20.912 85.8779Z" fill="#3E4095"/>
<g opacity="0.5">
<path d="M20.912 85.8779C20.9427 85.3506 21.1096 84.8372 21.3992 84.3795C21.6887 83.9218 22.0928 83.5326 22.5785 83.2436L105.056 39.9232C105.573 39.6837 106.145 39.5588 106.725 39.5588C107.306 39.5588 107.878 39.6837 108.395 39.9232L110.28 40.9125C110.767 41.201 111.173 41.5898 111.463 42.0476C111.754 42.5053 111.922 43.019 111.953 43.5469V103.189C111.921 103.716 111.753 104.23 111.462 104.687C111.171 105.145 110.767 105.534 110.28 105.823L27.8098 149.143C27.2905 149.38 26.7177 149.503 26.1368 149.503C25.5559 149.503 24.9831 149.38 24.4638 149.143L22.5592 148.13C22.0752 147.84 21.6725 147.45 21.3832 146.993C21.0939 146.535 20.9259 146.023 20.8927 145.496L20.912 85.8779Z" fill="white"/>
</g>
<path d="M21.3947 84.3792L26.1433 86.8672L111.464 42.0482C111.182 41.5866 110.777 41.1963 110.287 40.9125L108.395 39.929C107.879 39.6867 107.306 39.5602 106.725 39.5602C106.144 39.5602 105.572 39.6867 105.056 39.929L22.5593 83.2435C22.0704 83.5249 21.6693 83.916 21.3947 84.3792Z" fill="#3E4095"/>
<path opacity="0.6" d="M21.3947 84.3792L26.1433 86.8672L111.464 42.0482C111.182 41.5866 110.777 41.1963 110.287 40.9125L108.395 39.929C107.879 39.6867 107.306 39.5602 106.725 39.5602C106.144 39.5602 105.572 39.6867 105.056 39.929L22.5593 83.2435C22.0704 83.5249 21.6693 83.916 21.3947 84.3792Z" fill="white"/>
<path opacity="0.1" d="M20.9058 85.872V145.514C20.937 146.037 21.1029 146.547 21.3901 147.001C21.6774 147.456 22.0779 147.842 22.5594 148.13L24.4383 149.126C24.5867 149.2 24.7417 149.262 24.9016 149.313C25.1255 149.38 25.3561 149.427 25.5901 149.453C26.0293 149.504 26.4747 149.49 26.9091 149.412L27.2308 149.33C27.2998 149.313 27.3666 149.29 27.4303 149.26C27.3045 149.31 27.1687 149.336 27.0314 149.336C26.8941 149.336 26.7583 149.31 26.6324 149.26C26.4537 149.153 26.3111 149.002 26.2202 148.826C26.1294 148.649 26.0939 148.453 26.1177 148.259V88.6234C26.1002 88.3529 26.1741 88.084 26.3293 87.8528C26.4846 87.6216 26.7138 87.439 26.9863 87.3297L26.1177 86.8672L21.369 84.3792C21.0807 84.8341 20.9215 85.3471 20.9058 85.872Z" fill="black"/>
<path opacity="0.4" d="M26.1433 86.8672L65.7474 100.332C67.1178 100.798 68.6218 100.825 70.0114 100.409C71.401 99.9925 72.5932 99.158 73.3916 98.0427L79.7553 89.1796L111.471 42.0482L81.0229 89.5074L111.96 103.212C111.931 103.751 111.751 104.275 111.439 104.734L80.9199 89.6479L73.5267 100.408C72.7065 101.602 71.4405 102.488 69.9608 102.902C68.4811 103.316 66.887 103.23 65.4708 102.662L60.2074 100.548L26.658 149.266C26.4793 149.159 26.3367 149.008 26.2458 148.832C26.155 148.655 26.1195 148.459 26.1433 148.265V147.27L60.0465 100.484L26.1433 86.8672Z" fill="#3E4095"/>
<path opacity="0.05" d="M26.1433 86.8672L65.7474 100.332C67.1178 100.798 68.6218 100.825 70.0114 100.409C71.401 99.9925 72.5932 99.158 73.3916 98.0427L79.7553 89.1796L111.471 42.0482L81.0229 89.5074L111.96 103.212C111.931 103.751 111.751 104.275 111.439 104.734L80.9199 89.6479L73.5267 100.408C72.7065 101.602 71.4405 102.488 69.9608 102.902C68.4811 103.316 66.887 103.23 65.4708 102.662L60.2074 100.548L26.658 149.266C26.4793 149.159 26.3367 149.008 26.2458 148.832C26.155 148.655 26.1195 148.459 26.1433 148.265V147.27L60.0465 100.484L26.1433 86.8672Z" fill="black"/>
<path d="M41.9913 97.3519L127.814 52.2753L131.25 54.0784C131.719 54.3576 132.109 54.7328 132.39 55.1741C132.67 55.6153 132.833 56.1102 132.865 56.6191V114.223C132.834 114.733 132.672 115.228 132.391 115.669C132.111 116.111 131.72 116.486 131.25 116.764L48.6574 160.143C48.1586 160.372 47.6076 160.491 47.0488 160.491C46.4901 160.491 45.9391 160.372 45.4402 160.143L43.6193 159.189C43.1505 158.91 42.7603 158.534 42.4798 158.093C42.1993 157.652 42.0364 157.157 42.0042 156.648L41.9913 97.3519Z" fill="#3E4095"/>
<path opacity="0.2" d="M41.9913 97.3519L127.814 52.2753L131.25 54.0784C131.719 54.3576 132.109 54.7328 132.39 55.1741C132.67 55.6153 132.833 56.1102 132.865 56.6191V114.223C132.834 114.733 132.672 115.228 132.391 115.669C132.111 116.111 131.72 116.486 131.25 116.764L48.6574 160.143C48.1586 160.372 47.6076 160.491 47.0488 160.491C46.4901 160.491 45.9391 160.372 45.4402 160.143L43.6193 159.189C43.1505 158.91 42.7603 158.534 42.4798 158.093C42.1993 157.652 42.0364 157.157 42.0042 156.648L41.9913 97.3519Z" fill="black"/>
<path d="M127.345 47.2057L127.692 47.03L126.36 46.3275C126.248 46.2662 126.129 46.2152 126.006 46.1753L88.2359 33.4368C87.7161 33.2826 87.1562 33.2811 86.6354 33.4323C86.1146 33.5836 85.6593 33.8801 85.3339 34.2798L43.0852 90.4148C42.4243 91.3811 42.0477 92.4859 41.9913 93.6228V97.346L43.2782 98.0427L127.789 52.2694V48.5404C127.782 48.0663 127.628 47.6036 127.345 47.2057Z" fill="#3E4095"/>
<path opacity="0.1" d="M87.0843 34.5608C86.9161 34.6806 86.7686 34.8227 86.6468 34.9823L44.3916 91.1173C44.0445 91.6138 43.78 92.1544 43.6066 92.7213L42.3197 92.0305C42.4149 91.7417 42.5288 91.4583 42.6607 91.1817C42.7186 91.0646 42.7765 90.9534 42.8409 90.8422L42.8731 90.7895C42.94 90.672 43.0152 90.5586 43.0983 90.4499L85.347 34.3149C85.4107 34.2318 85.4817 34.1534 85.5593 34.0808L85.7846 33.8934L87.0843 34.5608Z" fill="black"/>
<path opacity="0.35" d="M127.679 47.0242C127.565 46.961 127.444 46.9081 127.319 46.8662L89.5422 34.1277C89.1269 34.002 88.6833 33.9747 88.2532 34.0485C87.8231 34.1222 87.4208 34.2946 87.0843 34.5491L85.7974 33.8584C86.1366 33.6062 86.54 33.4355 86.9705 33.3618C87.401 33.2882 87.845 33.314 88.2618 33.4369L126.032 46.1695C126.156 46.2115 126.274 46.2645 126.386 46.3276L127.679 47.0242Z" fill="white"/>
<path opacity="0.2" d="M85.334 34.2798C85.3993 34.1978 85.4702 34.1196 85.5463 34.0457C85.4672 34.1171 85.396 34.1955 85.334 34.2798Z" fill="black"/>
<path d="M86.6467 34.9705L44.3915 91.1055C43.7355 92.0735 43.3613 93.1776 43.3041 94.3136V98.0427L129.127 52.9661V49.2429C129.097 48.7378 128.911 48.2506 128.591 47.8366C128.272 47.4227 127.831 47.0986 127.319 46.9012L89.5422 34.1334C89.0244 33.9754 88.4647 33.9713 87.9442 34.1218C87.4236 34.2723 86.9692 34.5695 86.6467 34.9705Z" fill="#3E4095"/>
<path opacity="0.05" d="M129.127 49.2312C129.11 48.7643 128.952 48.3106 128.67 47.9199L43.6064 92.7097C43.4257 93.2251 43.3261 93.7612 43.3104 94.302V98.0311L129.133 52.9544L129.127 49.2312Z" fill="black"/>
<path d="M125.459 33.39C125.477 33.2336 125.449 33.0759 125.379 32.9322C125.309 32.7886 125.199 32.6639 125.06 32.5704L122.435 31.1947C122.277 31.1298 122.102 31.1043 121.929 31.1208C121.756 31.1372 121.591 31.195 121.451 31.2883L51.0576 68.2804C50.6513 68.5205 50.313 68.8444 50.0704 69.2259C49.8277 69.6074 49.6876 70.0356 49.6613 70.4757V147.164C49.6422 147.322 49.6697 147.48 49.741 147.625C49.8123 147.769 49.9247 147.893 50.0667 147.984L52.6791 149.36C52.8374 149.424 53.0115 149.45 53.1841 149.435C53.3568 149.419 53.522 149.363 53.6636 149.272L124.07 112.303C124.474 112.062 124.81 111.738 125.052 111.356C125.293 110.975 125.433 110.547 125.459 110.108V33.39Z" fill="#F0F0F0"/>
<path d="M53.6701 149.301L124.07 112.303C124.474 112.062 124.811 111.738 125.052 111.356C125.293 110.975 125.433 110.547 125.46 110.108V33.39C125.46 32.5821 124.816 32.2543 124.07 32.6582L53.6701 69.6503C53.2657 69.8917 52.9292 70.2161 52.6878 70.5974C52.4464 70.9787 52.3068 71.4062 52.2803 71.8456V148.534C52.2803 149.36 52.9044 149.688 53.6701 149.301Z" fill="#FAFAFA"/>
<path d="M98.7886 76.7103C98.7213 77.5768 98.5443 78.4333 98.2609 79.2627C98.0074 80.008 97.6666 80.7263 97.2443 81.4053C96.879 81.9997 96.4338 82.5503 95.9188 83.0445C95.4929 83.4574 94.9951 83.8035 94.4453 84.0689C93.8468 84.4265 93.1303 84.5838 92.4184 84.5139C92.0044 84.4363 91.6332 84.2291 91.3696 83.9284C91.2152 84.2329 91.0543 84.5373 90.887 84.8417C90.7069 85.1669 90.4913 85.4748 90.2436 85.7608C89.9656 86.0867 89.6483 86.3832 89.2977 86.6447C88.8729 86.9656 88.4087 87.2406 87.9143 87.4643C87.3874 87.7478 86.7701 87.8593 86.1641 87.7804C85.6319 87.6713 85.1691 87.3744 84.8772 86.955C84.478 86.3906 84.2128 85.7565 84.0987 85.0934C83.9284 84.1692 83.8702 83.2309 83.9249 82.2951C83.9678 81.2636 84.1078 80.2374 84.3432 79.2276C84.557 78.3191 84.8651 77.4312 85.2633 76.5757C85.6138 75.8263 86.0773 75.1249 86.6403 74.4916C87.1254 73.9353 87.7323 73.4767 88.4226 73.1452C88.6518 72.9982 88.9114 72.8949 89.1856 72.8416C89.4599 72.7883 89.7431 72.786 90.0184 72.8349C90.3699 72.978 90.6595 73.223 90.842 73.5316V73.2154C90.8567 72.9486 90.9381 72.6883 91.0801 72.4544C91.1918 72.2386 91.3708 72.0574 91.5948 71.9334L92.9718 71.2953C93.0466 71.2502 93.1363 71.2302 93.2255 71.2387C93.3148 71.2473 93.398 71.2838 93.4608 71.3421C93.5346 71.4227 93.5892 71.5163 93.6213 71.6171C93.6535 71.7178 93.6623 71.8235 93.6474 71.9275L93.3386 79.3681C93.3128 79.9301 93.4286 80.2989 93.686 80.4745C93.8213 80.5594 93.9818 80.6048 94.1461 80.6048C94.3104 80.6048 94.4708 80.5594 94.6061 80.4745C95.0101 80.2667 95.3354 79.9523 95.5392 79.573C95.849 79.0122 96.0224 78.3972 96.0475 77.7699C96.1118 77.1201 96.1569 76.4528 96.189 75.762C96.2212 75.0712 96.2212 74.4331 96.189 73.8477C96.1727 72.797 95.9996 71.7532 95.6743 70.745C95.4722 70.0343 95.0203 69.4032 94.3874 68.9478C93.7544 68.5618 92.9839 68.4091 92.2318 68.5204C91.1305 68.6771 90.0677 69.0079 89.0918 69.4981C88.0634 69.9817 87.1253 70.61 86.3121 71.3597C85.4777 72.1384 84.7517 73.0074 84.1501 73.9472C83.5259 74.9389 83.0211 75.989 82.6445 77.0791C82.2494 78.2042 81.9715 79.3606 81.8144 80.5331C81.7694 80.855 81.7308 81.2648 81.6986 81.7741C81.6664 82.2834 81.6407 82.8103 81.6149 83.3606C81.5892 83.9109 81.5699 84.4436 81.557 84.9588C81.5442 85.4739 81.557 85.8779 81.557 86.1881C81.5857 87.1333 81.7723 88.0689 82.1104 88.963C82.3542 89.6546 82.7989 90.2735 83.3973 90.7543C83.9643 91.1822 84.6812 91.4107 85.4177 91.3983C86.3734 91.369 87.3072 91.13 88.1395 90.7016C88.7925 90.4012 89.4223 90.0609 90.0248 89.683C90.5208 89.3704 90.9917 89.0261 91.434 88.6527C91.8023 88.3313 92.1503 87.9913 92.4763 87.6341C92.7659 87.3004 93.0297 86.9784 93.2678 86.6623C93.5059 86.3462 93.6281 86.1764 93.7504 86.0418C93.8754 85.8965 94.0363 85.7802 94.2201 85.7022L96.1504 84.789C96.2228 84.7396 96.3109 84.7129 96.4014 84.7129C96.4919 84.7129 96.5799 84.7396 96.6523 84.789C96.7939 84.8944 96.8518 85.0993 96.8196 85.4154C96.7981 85.6217 96.7278 85.8214 96.6137 86.0008C96.2212 86.6623 95.7772 87.3648 95.2882 88.0966C94.7764 88.8576 94.1952 89.5783 93.5509 90.2509C92.8242 90.9988 92.03 91.69 91.1766 92.3174C90.1798 93.0433 89.1014 93.6713 87.9593 94.1907C86.7398 94.8306 85.3585 95.1715 83.9507 95.18C82.8941 95.1519 81.8842 94.7777 81.1066 94.1263C80.2864 93.387 79.6902 92.4675 79.3757 91.4568C78.9585 90.2097 78.7418 88.9142 78.7323 87.6107C78.7323 87.2945 78.7323 86.8613 78.7323 86.3111C78.7323 85.7666 78.7645 85.1929 78.7902 84.5958C78.816 83.9987 78.8481 83.425 78.8803 82.8864C78.9125 82.3478 78.9446 81.9146 78.9768 81.6044C79.1388 80.0522 79.4707 78.5186 79.9677 77.0265C80.4701 75.4802 81.1562 73.9883 82.0139 72.5773C82.8615 71.1768 83.8991 69.8787 85.1024 68.7136C86.2764 67.5619 87.6638 66.6068 89.2012 65.892C90.5882 65.1645 92.14 64.7359 93.7375 64.6392C94.8281 64.5994 95.894 64.9408 96.7167 65.5934C97.5413 66.3351 98.1113 67.2787 98.3574 68.3097C98.7171 69.6218 98.9071 70.9676 98.9237 72.3198C98.9237 72.9052 98.9237 73.6135 98.8786 74.4214C98.8336 75.2292 98.8465 76.0371 98.7886 76.7103ZM86.7046 80.9955C86.5924 81.8241 86.7257 82.6649 87.0907 83.4308C87.3931 83.9109 87.8564 84.0163 88.4741 83.7177C89.1771 83.3641 89.7146 82.7897 89.9862 82.102C90.3748 81.1661 90.5795 80.1753 90.591 79.1749C90.6986 78.3398 90.5702 77.4935 90.2178 76.7162C89.9218 76.2244 89.4457 76.1308 88.7958 76.4352C88.1054 76.7986 87.5822 77.3765 87.3223 78.0626C86.9344 78.993 86.7255 79.9772 86.7046 80.9721V80.9955Z" fill="#3E4095"/>
<path d="M52.2736 148.552C52.261 148.695 52.2839 148.839 52.3407 148.972C52.3975 149.106 52.4868 149.227 52.6018 149.325L50.073 148.002C49.9299 147.911 49.8162 147.787 49.7437 147.643C49.6713 147.499 49.6428 147.34 49.6612 147.182V70.4933C49.6771 70.0521 49.8191 69.6224 50.073 69.2463L52.6854 70.6162C52.4312 70.9943 52.2893 71.426 52.2736 71.869V148.552Z" fill="#E0E0E0"/>
<path d="M130.691 114.984C130.665 115.026 130.635 115.065 130.6 115.102L94.8312 104.81C93.4732 104.265 91.9446 104.184 90.5261 104.582C89.1076 104.979 87.8946 105.83 87.1099 106.976L48.8698 158.668L47.4542 159.411C47.2966 159.511 47.1139 159.574 46.9228 159.593C46.7318 159.613 46.5384 159.588 46.3604 159.522L85.6814 106.25C86.4689 105.106 87.6816 104.258 89.0987 103.859C90.5159 103.461 92.0432 103.539 93.4028 104.078L130.691 114.984Z" fill="#3E4095"/>
<path opacity="0.4" d="M83.5838 112.022L83.6738 111.952L48.8698 158.668L47.4542 159.411C47.2959 159.51 47.1133 159.572 46.9225 159.591C46.7318 159.611 46.5387 159.587 46.3604 159.523L82.2068 111.25L83.5838 112.022Z" fill="white"/>
<path opacity="0.4" d="M130.691 114.984C130.665 115.026 130.635 115.065 130.601 115.102L94.8313 104.81C93.4735 104.264 91.9444 104.182 90.5255 104.58C89.1067 104.978 87.8937 105.829 87.1099 106.976L85.6943 106.227C86.4829 105.084 87.6968 104.238 89.1144 103.842C90.5321 103.447 92.0588 103.529 93.4157 104.072L130.691 114.984Z" fill="white"/>
<path d="M132.833 56.2503C132.756 55.8288 132.512 55.7117 132.19 55.9107C132.031 56.0187 131.892 56.1491 131.778 56.2971L131.598 56.5254L96.3048 105.337L91.035 112.016C90.6957 112.406 90.2463 112.703 89.735 112.878C89.2237 113.052 88.6699 113.096 88.133 113.006L83.5838 112.022L48.8377 100.396C48.6042 100.353 48.3634 100.353 48.1299 100.396C48.0392 100.413 47.9508 100.438 47.8661 100.472L49.153 99.7814L82.4449 110.904L86.8268 112.327C87.3637 112.419 87.918 112.375 88.4295 112.201C88.9411 112.026 89.3904 111.728 89.7288 111.337L94.9986 104.664L130.465 55.6239C130.574 55.4903 130.709 55.377 130.864 55.2902L127.795 53.6803L129.082 53.0071L131.205 54.1194C131.619 54.3581 131.976 54.6696 132.255 55.0355C132.535 55.4014 132.731 55.8144 132.833 56.2503Z" fill="#3E4095"/>
<path opacity="0.4" d="M96.3048 105.337L91.035 112.016C90.6957 112.406 90.2463 112.703 89.735 112.878C89.2237 113.052 88.6699 113.096 88.133 113.006L83.5839 112.022L83.674 111.952L83.8927 111.636L86.8719 112.28C87.4088 112.372 87.9631 112.328 88.4746 112.154C88.9862 111.979 89.4355 111.681 89.7738 111.291L94.9922 104.687L96.3048 105.337Z" fill="white"/>
<path opacity="0.1" d="M131.251 54.0667L129.127 52.9544L127.84 53.6276L130.91 55.2375C130.753 55.3231 130.617 55.4366 130.511 55.5712L95.0438 104.611L94.9923 104.675L96.2792 105.325L131.572 56.5079L131.752 56.2795C131.866 56.1316 132.005 56.0011 132.164 55.8932C132.48 55.6941 132.724 55.8112 132.808 56.2327C132.719 55.7957 132.536 55.3792 132.268 55.0073C132.001 54.6354 131.655 54.3157 131.251 54.0667Z" fill="black"/>
<path d="M49.5841 101.327L42.0107 97.3519V156.648C42.0429 157.157 42.2058 157.652 42.4863 158.093C42.7668 158.534 43.1571 158.91 43.6258 159.189L45.4468 160.143C45.9456 160.372 46.4966 160.491 47.0554 160.491C47.6141 160.491 48.1651 160.372 48.664 160.143L49.5712 159.669L49.5841 101.327Z" fill="#3E4095"/>
<path opacity="0.15" d="M49.5841 101.327L42.0107 97.3519V156.648C42.0429 157.157 42.2058 157.652 42.4863 158.093C42.7668 158.534 43.1571 158.91 43.6258 159.189L45.4468 160.143C45.9456 160.372 46.4966 160.491 47.0554 160.491C47.6141 160.491 48.1651 160.372 48.664 160.143L49.5712 159.669L49.5841 101.327Z" fill="black"/>
<path d="M132.866 56.6191V114.218C132.845 114.745 132.672 115.258 132.364 115.705C132.124 116.082 131.802 116.41 131.418 116.67L131.354 116.7C131.321 116.723 131.286 116.745 131.251 116.764L48.6577 160.143C48.4999 160.245 48.3163 160.309 48.124 160.33C47.9317 160.35 47.7368 160.326 47.5574 160.26C47.4204 160.187 47.3048 160.085 47.2208 159.963C47.1367 159.841 47.0866 159.702 47.0748 159.558C47.068 159.47 47.068 159.382 47.0748 159.294V101.69C47.0605 101.484 47.1014 101.277 47.1942 101.089C47.2869 100.9 47.4286 100.734 47.6071 100.607C47.7856 100.479 47.9955 100.392 48.2189 100.355C48.4422 100.317 48.6723 100.329 48.8893 100.39L83.6355 112.016L88.1846 113C88.7215 113.09 89.2753 113.046 89.7866 112.872C90.2979 112.698 90.7473 112.4 91.0866 112.011L96.3564 105.331L131.65 56.5195L131.83 56.2912C132.377 55.5419 132.866 55.6824 132.866 56.6191Z" fill="#3E4095"/>
<path d="M131.25 116.764L131.36 116.7L131.418 116.665C131.803 116.408 132.125 116.081 132.363 115.705C132.668 115.265 132.841 114.76 132.865 114.241L96.3112 105.343L120.762 122.255L131.25 116.764Z" fill="#3E4095"/>
<path opacity="0.2" d="M131.25 116.764L131.36 116.7L131.418 116.665C131.803 116.408 132.125 116.081 132.363 115.705C132.668 115.265 132.841 114.76 132.865 114.241L96.3112 105.343L120.762 122.255L131.25 116.764Z" fill="black"/>
<path d="M47.0424 159.294C47.0188 159.482 47.0533 159.672 47.1419 159.842C47.2306 160.013 47.37 160.158 47.5443 160.26C47.7231 160.328 47.9178 160.353 48.1102 160.333C48.3026 160.314 48.4864 160.25 48.6446 160.149L77.0914 145.203L83.5902 112.016L47.0424 158.334V159.294Z" fill="#3E4095"/>
<path opacity="0.15" d="M87.0905 106.941L47.5443 160.26C47.37 160.158 47.2306 160.013 47.1419 159.842C47.0533 159.672 47.0188 159.482 47.0424 159.294V158.34L85.6492 106.238L87.0905 106.941Z" fill="black"/>
<path d="M132.364 115.705C132.125 116.081 131.803 116.408 131.418 116.665L131.36 116.7L48.6575 160.143C48.4994 160.245 48.3156 160.308 48.1231 160.328C47.9307 160.347 47.736 160.322 47.5573 160.254L87.1099 106.929C87.9019 105.777 89.1237 104.924 90.5513 104.525C91.9789 104.126 93.5167 104.209 94.8828 104.757L132.364 115.705Z" fill="#3E4095"/>
<path opacity="0.15" d="M42.2938 92.0188L43.5806 92.7096C43.3982 93.2288 43.2965 93.7687 43.2782 94.3136V98.0368L41.9913 97.346V93.617C42.0102 93.0741 42.1119 92.5362 42.2938 92.0188Z" fill="black"/>
<path d="M49.198 99.758L47.8854 100.449L46.5599 99.7521L43.2976 98.0427L44.5652 97.3578L49.198 99.758Z" fill="#3E4095"/>
<path opacity="0.1" d="M49.2559 99.7814L44.5652 97.3578L43.2783 98.0427L46.5406 99.7521L47.8661 100.449L48.117 100.379C48.3506 100.335 48.5913 100.335 48.8248 100.379L51.5144 101.298L81.8272 111.454L82.3034 110.816L49.2559 99.7814Z" fill="black"/>
<path d="M199.964 13.616L200.152 14.587L198.228 25.0077C197.547 25.5077 196.772 25.8635 195.948 26.0534C195.125 26.2432 194.272 26.263 193.441 26.1116L182.54 24.0962C182.54 24.0962 180.804 23.7068 181.289 21.4578C181.289 21.4578 181.372 20.2714 182.389 20.1936C182.389 20.1936 180.277 19.3324 180.511 17.7064C180.744 16.0803 181.944 16.0986 181.944 16.0986C181.944 16.0986 179.965 15.5993 180.172 13.7671C180.378 11.9349 181.445 11.9349 181.445 11.9349C181.445 11.9349 179.155 11.3761 179.718 9.34692C179.783 9.07734 179.902 8.82343 180.066 8.59993C180.23 8.37644 180.437 8.18783 180.675 8.04505C180.913 7.90228 181.177 7.80819 181.451 7.76826C181.726 7.72833 182.005 7.74335 182.274 7.81245L190.029 9.24615L196.826 10.5012C197.6 10.6487 198.312 11.024 198.871 11.5789C199.43 12.1339 199.811 12.8432 199.964 13.616Z" fill="#EBEBEB"/>
<path d="M198.022 10.9501C198.022 10.9501 195.635 8.78811 194.815 6.4383C194.435 5.26681 194.243 4.04226 194.247 2.81054C194.247 2.71893 194.403 1.89443 194.518 1.22568C194.561 0.961036 194.502 0.689747 194.351 0.46803C194.2 0.246312 193.969 0.0911677 193.707 0.0347466C192.884 -0.0836868 192.047 0.102938 191.353 0.559427C190.658 1.01592 190.155 1.71072 189.937 2.5128C189.021 5.63671 189.804 7.76665 189.832 8.71482L189.855 9.66756L198.022 10.9501Z" fill="#EBEBEB"/>
<path d="M196.544 26.5739L204.156 27.9806L207.015 12.5085L199.403 11.1018L196.544 26.5739Z" fill="#EBEBEB"/>
<path d="M196.547 26.5651C196.547 26.5651 197.156 23.0976 197.944 18.8286C198.732 14.5596 199.396 11.0921 199.396 11.0967C199.396 11.1013 198.787 14.5641 197.994 18.8377C197.202 23.1114 196.561 26.5697 196.547 26.5651Z" fill="#E0E0E0"/>
<path d="M204.16 27.9759C204.16 27.9759 204.769 24.5039 205.561 20.2348C206.354 15.9658 207.004 12.5029 207.018 12.5029C207.032 12.5029 206.409 15.975 205.621 20.244C204.833 24.513 204.178 27.9759 204.16 27.9759Z" fill="#E0E0E0"/>
<path d="M201.439 15.1367C201.389 15.4183 201.424 15.7082 201.539 15.97C201.654 16.2318 201.844 16.4536 202.085 16.6076C202.326 16.7616 202.607 16.8407 202.893 16.8352C203.178 16.8296 203.456 16.7395 203.691 16.5762C203.926 16.4129 204.107 16.1838 204.211 15.9178C204.316 15.6517 204.339 15.3606 204.279 15.0812C204.218 14.8019 204.076 14.5467 203.871 14.3478C203.665 14.149 203.406 14.0155 203.124 13.9641C202.937 13.9298 202.744 13.933 202.558 13.9734C202.371 14.0139 202.194 14.0908 202.038 14.1998C201.881 14.3088 201.748 14.4477 201.645 14.6085C201.542 14.7693 201.472 14.9488 201.439 15.1367Z" fill="white"/>
<path d="M188.224 8.92554C188.224 8.92554 189.062 9.04921 190.084 9.23701C191.105 9.42481 191.939 9.59429 191.916 9.60803C191.893 9.62178 191.078 9.48436 190.056 9.29656C189.035 9.10876 188.224 8.92554 188.224 8.92554Z" fill="#E0E0E0"/>
<path d="M181.756 16.1444C181.756 16.1444 182.292 16.2131 182.947 16.3322C183.345 16.3964 183.74 16.4805 184.129 16.5841C184.129 16.5841 183.593 16.5154 182.938 16.3918C182.54 16.3303 182.146 16.2477 181.756 16.1444Z" fill="#E0E0E0"/>
<path d="M181.285 11.8662C181.285 11.8662 182.04 11.9761 182.97 12.1456C183.9 12.3151 184.651 12.4708 184.647 12.4892C184.642 12.5075 183.891 12.3792 182.961 12.2052C182.031 12.0311 181.28 11.8845 181.285 11.8662Z" fill="#E0E0E0"/>
<path d="M181.894 20.1249C181.894 20.1249 182.65 20.2348 183.579 20.4043C184.509 20.5738 185.26 20.7295 185.256 20.7432C185.251 20.757 184.5 20.6379 183.57 20.4638C182.64 20.2898 181.889 20.1386 181.894 20.1249Z" fill="#E0E0E0"/>
<path d="M201.118 11.8662C201.118 11.8662 202.19 12.0357 203.5 12.2785C204.81 12.5212 205.873 12.7365 205.873 12.7365C205.873 12.7365 204.801 12.5716 203.491 12.3288C202.181 12.0861 201.118 11.8845 201.118 11.8662Z" fill="white"/>
<path d="M180.881 14.5504C180.864 14.5237 180.852 14.4942 180.845 14.4634C180.821 14.3809 180.804 14.2966 180.794 14.2114C180.783 14.085 180.783 13.9577 180.794 13.8313C180.811 13.6754 180.845 13.5218 180.895 13.3732C180.948 13.2255 181.017 13.0842 181.101 12.9518C181.169 12.8453 181.249 12.7469 181.339 12.6586C181.399 12.597 181.465 12.5417 181.536 12.4937L181.614 12.4434C181.614 12.4434 181.514 12.5304 181.372 12.6861C181.287 12.7776 181.212 12.8774 181.147 12.9839C181.068 13.112 181.003 13.2487 180.955 13.3915C180.903 13.54 180.868 13.6936 180.849 13.8496C180.838 13.973 180.838 14.0972 180.849 14.2206C180.854 14.4221 180.891 14.5458 180.881 14.5504Z" fill="white"/>
<path d="M180.478 10.4234C180.413 10.3711 180.361 10.3035 180.327 10.2264C180.231 10.0477 180.183 9.84752 180.185 9.64471C180.192 9.44231 180.247 9.24446 180.346 9.06756C180.384 8.99334 180.439 8.92903 180.506 8.87976C180.506 8.87976 180.451 8.95763 180.387 9.09046C180.3 9.26334 180.253 9.45336 180.249 9.6467C180.245 9.84004 180.284 10.0318 180.364 10.2081C180.406 10.2779 180.444 10.3497 180.478 10.4234Z" fill="white"/>
<path d="M181.45 19.0027C181.363 18.9566 181.29 18.8906 181.234 18.8103C181.091 18.624 181.015 18.3948 181.019 18.1599C181.025 17.9263 181.107 17.701 181.253 17.5186C181.367 17.3812 181.468 17.3262 181.472 17.3354C181.407 17.4 181.346 17.4689 181.289 17.5415C181.158 17.7227 181.087 17.9408 181.087 18.1645C181.087 18.3882 181.158 18.6062 181.289 18.7874C181.367 18.9157 181.454 19.0027 181.45 19.0027Z" fill="white"/>
<path d="M182.32 22.9465C182.257 22.8894 182.206 22.819 182.173 22.7404C182.083 22.5534 182.035 22.3482 182.035 22.1403C182.035 21.9325 182.083 21.7273 182.173 21.5403C182.208 21.4626 182.258 21.3925 182.32 21.3342C182.32 21.3342 182.27 21.4212 182.21 21.5586C182.133 21.7429 182.093 21.9406 182.093 22.1403C182.093 22.3401 182.133 22.5378 182.21 22.7221C182.27 22.8641 182.329 22.9419 182.32 22.9465Z" fill="white"/>
<path d="M190.02 6.14975C189.997 6.09513 189.98 6.03834 189.969 5.98027C189.948 5.91268 189.931 5.84384 189.919 5.77415C189.919 5.6917 189.882 5.60009 189.869 5.49474C189.832 5.25517 189.812 5.01335 189.809 4.77102C189.805 4.46471 189.823 4.1585 189.864 3.85492C189.91 3.56028 189.977 3.2694 190.065 2.98462C190.138 2.75102 190.226 2.52293 190.331 2.30212C190.372 2.21051 190.418 2.12806 190.455 2.05478L190.56 1.87155C190.59 1.81893 190.624 1.76842 190.661 1.7204C190.642 1.77688 190.616 1.83074 190.583 1.88072L190.487 2.06852C190.45 2.1418 190.409 2.22425 190.368 2.32045C190.285 2.50825 190.198 2.74185 190.116 2.99836C190.036 3.28309 189.971 3.57212 189.924 3.86408C189.884 4.15714 189.864 4.45245 189.864 4.74812C189.866 4.98851 189.881 5.22861 189.91 5.46726C189.91 5.57261 189.937 5.66422 189.951 5.74209C189.965 5.81996 189.978 5.89324 189.992 5.94821C190.009 6.01406 190.019 6.08172 190.02 6.14975Z" fill="white"/>
<path d="M188.174 108.914L188.691 109.504L191.495 117.415C191.224 118.029 190.831 118.581 190.34 119.037C189.848 119.493 189.269 119.844 188.636 120.067L180.364 122.98C180.364 122.98 179.022 123.402 178.463 121.67C178.463 121.67 178.051 120.823 178.719 120.365C178.719 120.365 176.928 120.612 176.429 119.403C175.93 118.194 176.777 117.736 176.777 117.736C176.777 117.736 175.22 118.194 174.638 116.82C174.057 115.445 174.785 115.056 174.785 115.056C174.785 115.056 172.985 115.583 172.577 113.966C172.515 113.755 172.495 113.534 172.519 113.316C172.543 113.097 172.611 112.886 172.717 112.693C172.824 112.501 172.968 112.332 173.14 112.196C173.313 112.06 173.51 111.959 173.722 111.9L179.603 109.816L184.761 107.984C185.357 107.774 186.003 107.751 186.612 107.917C187.222 108.083 187.766 108.431 188.174 108.914Z" fill="#EBEBEB"/>
<path d="M185.806 107.865C185.806 107.865 183.314 107.329 181.807 106.032C181.079 105.381 180.461 104.617 179.975 103.77L179.517 102.574C179.443 102.375 179.295 102.211 179.104 102.118C178.913 102.025 178.693 102.01 178.491 102.075C177.879 102.323 177.379 102.785 177.085 103.376C176.791 103.966 176.722 104.644 176.892 105.281C177.51 107.782 178.88 108.946 179.274 109.578L179.668 110.219L185.806 107.865Z" fill="#EBEBEB"/>
<path d="M190.956 119.16L196.733 117.112L192.571 105.374L186.795 107.422L190.956 119.16Z" fill="#EBEBEB"/>
<path d="M190.959 119.146C190.959 119.146 190.006 116.526 188.856 113.283C187.707 110.04 186.786 107.407 186.8 107.407C186.813 107.407 187.752 110.027 188.902 113.27C190.052 116.513 190.972 119.142 190.959 119.146Z" fill="#E0E0E0"/>
<path d="M196.735 117.099C196.735 117.099 195.782 114.479 194.632 111.236C193.482 107.993 192.562 105.364 192.575 105.359C192.589 105.354 193.528 107.979 194.678 111.222C195.828 114.465 196.748 117.094 196.735 117.099Z" fill="#E0E0E0"/>
<path d="M189.777 109.372C189.853 109.585 189.991 109.77 190.173 109.905C190.354 110.04 190.572 110.118 190.798 110.129C191.024 110.14 191.248 110.084 191.442 109.968C191.637 109.852 191.792 109.681 191.889 109.477C191.986 109.272 192.021 109.044 191.988 108.82C191.955 108.596 191.857 108.387 191.705 108.219C191.554 108.051 191.356 107.931 191.137 107.876C190.917 107.82 190.686 107.83 190.473 107.906C190.187 108.008 189.953 108.22 189.822 108.495C189.692 108.77 189.675 109.085 189.777 109.372Z" fill="white"/>
<path d="M178.266 110.334C178.266 110.334 178.889 110.086 179.668 109.811C180.446 109.536 181.078 109.321 181.083 109.353C181.088 109.385 180.46 109.601 179.681 109.875C178.903 110.15 178.271 110.343 178.266 110.334Z" fill="#E0E0E0"/>
<path d="M176.695 117.85C176.695 117.85 177.089 117.685 177.588 117.511C177.888 117.395 178.193 117.295 178.504 117.213C178.213 117.343 177.914 117.458 177.611 117.557C177.311 117.671 177.005 117.769 176.695 117.85Z" fill="#E0E0E0"/>
<path d="M174.661 115.106C174.661 115.106 175.225 114.882 175.93 114.648C176.635 114.415 177.208 114.19 177.213 114.218C177.217 114.245 176.649 114.442 175.944 114.676C175.238 114.909 174.684 115.12 174.661 115.106Z" fill="#E0E0E0"/>
<path d="M178.362 120.525C178.362 120.525 178.926 120.301 179.631 120.067C180.337 119.834 180.909 119.609 180.914 119.641C180.918 119.673 180.35 119.866 179.645 120.099C178.939 120.333 178.367 120.539 178.362 120.525Z" fill="#E0E0E0"/>
<path d="M188.279 107.26C188.279 107.26 189.076 106.948 190.075 106.596C191.073 106.243 191.879 105.968 191.907 105.982C191.934 105.996 191.11 106.289 190.111 106.642C189.113 106.994 188.284 107.269 188.279 107.26Z" fill="white"/>
<path d="M175.463 117.104L175.403 117.058C175.355 117.011 175.311 116.96 175.27 116.907C175.211 116.825 175.16 116.738 175.119 116.645C175.067 116.533 175.029 116.414 175.005 116.293C174.982 116.172 174.973 116.049 174.977 115.926C174.985 115.826 175.001 115.726 175.028 115.629C175.044 115.562 175.067 115.498 175.096 115.436C175.096 115.395 175.128 115.372 175.133 115.372C175.138 115.372 175.096 115.473 175.06 115.633C175.039 115.73 175.027 115.828 175.023 115.926C175.021 116.046 175.031 116.166 175.051 116.284C175.075 116.401 175.111 116.516 175.156 116.627C175.197 116.717 175.245 116.804 175.298 116.888C175.394 117.026 175.467 117.099 175.463 117.104Z" fill="white"/>
<path d="M173.553 114.433C173.488 114.423 173.427 114.398 173.374 114.36C173.238 114.274 173.126 114.156 173.049 114.016C172.97 113.877 172.929 113.719 172.93 113.558C172.924 113.492 172.935 113.426 172.962 113.366C172.962 113.366 172.962 113.439 172.962 113.558C172.974 113.711 173.017 113.859 173.09 113.993C173.165 114.127 173.268 114.242 173.392 114.332C173.489 114.401 173.557 114.428 173.553 114.433Z" fill="white"/>
<path d="M177.611 119.925C177.533 119.927 177.456 119.909 177.387 119.875C177.215 119.804 177.071 119.678 176.979 119.517C176.891 119.353 176.859 119.165 176.887 118.982C176.895 118.906 176.922 118.833 176.965 118.771C176.965 118.771 176.938 118.853 176.924 118.986C176.903 119.162 176.939 119.34 177.025 119.495C177.112 119.647 177.243 119.77 177.4 119.847C177.524 119.902 177.611 119.916 177.611 119.925Z" fill="white"/>
<path d="M179.773 122.293C179.707 122.278 179.645 122.25 179.59 122.211C179.452 122.119 179.337 121.997 179.255 121.854C179.173 121.714 179.124 121.557 179.113 121.395C179.097 121.329 179.097 121.26 179.113 121.194C179.113 121.194 179.113 121.272 179.113 121.391C179.133 121.552 179.184 121.708 179.265 121.849C179.346 121.985 179.451 122.104 179.576 122.202C179.644 122.228 179.709 122.258 179.773 122.293Z" fill="white"/>
<path d="M178.408 107.732L178.303 107.631C178.262 107.593 178.224 107.554 178.188 107.512C178.142 107.462 178.092 107.407 178.042 107.342C177.923 107.197 177.815 107.044 177.716 106.884C177.597 106.681 177.491 106.47 177.4 106.252C177.314 106.032 177.245 105.805 177.194 105.574C177.151 105.386 177.122 105.195 177.107 105.002C177.107 104.924 177.107 104.846 177.107 104.782C177.107 104.718 177.107 104.663 177.107 104.617C177.103 104.57 177.103 104.522 177.107 104.475C177.114 104.522 177.114 104.57 177.107 104.617C177.107 104.663 177.107 104.718 177.107 104.782C177.107 104.846 177.107 104.919 177.107 105.002C177.107 105.162 177.158 105.354 177.203 105.565C177.356 106.207 177.64 106.811 178.037 107.338C178.087 107.407 178.133 107.462 178.175 107.512L178.284 107.64C178.329 107.666 178.37 107.697 178.408 107.732Z" fill="white"/>
<path d="M116.658 165.231H94.3556C90.9885 165.231 88.2589 167.96 88.2589 171.328V193.63C88.2589 196.997 90.9885 199.727 94.3556 199.727H116.658C120.025 199.727 122.755 196.997 122.755 193.63V171.328C122.755 167.96 120.025 165.231 116.658 165.231Z" fill="#E0E0E0"/>
<path d="M110.461 165.231H88.1582C84.7911 165.231 82.0615 167.96 82.0615 171.328V193.63C82.0615 196.997 84.7911 199.727 88.1582 199.727H110.461C113.828 199.727 116.557 196.997 116.557 193.63V171.328C116.557 167.96 113.828 165.231 110.461 165.231Z" fill="#EBEBEB"/>
<path d="M87.4025 182.976L90.8745 179.499L97.5758 185.458L108.771 174.222L111.995 177.694L97.0811 192.16L87.4025 182.976Z" fill="white"/>
<path d="M37.0031 172.633H22.4325C19.0654 172.633 16.3358 175.363 16.3358 178.73V193.3C16.3358 196.667 19.0654 199.397 22.4325 199.397H37.0031C40.3702 199.397 43.0998 196.667 43.0998 193.3V178.73C43.0998 175.363 40.3702 172.633 37.0031 172.633Z" fill="#E0E0E0"/>
<path d="M32.198 172.633H17.6274C14.2603 172.633 11.5308 175.363 11.5308 178.73V193.3C11.5308 196.667 14.2603 199.397 17.6274 199.397H32.198C35.5651 199.397 38.2947 196.667 38.2947 193.3V178.73C38.2947 175.363 35.5651 172.633 32.198 172.633Z" fill="#EBEBEB"/>
<path d="M15.6715 186.402L18.3694 183.704L23.5683 188.326L32.2484 179.609L34.7539 182.307L23.1835 193.525L15.6715 186.402Z" fill="white"/>
<path d="M200.729 198.609C200.729 198.673 159.504 198.728 108.706 198.728C57.9086 198.728 16.6748 198.673 16.6748 198.609C16.6748 198.545 57.8719 198.49 108.706 198.49C159.541 198.49 200.729 198.559 200.729 198.609Z" fill="#263238"/>
<path d="M182.283 185.486C182.283 185.486 180.373 172.363 180.533 164.723C180.694 157.082 180.533 148.494 180.533 148.494H181.413C181.413 148.494 180.817 163.655 181.468 172.798C182.118 181.941 183.822 185.486 183.822 185.486H182.292" fill="#263238"/>
<path d="M187.972 133.726C187.835 133.261 187.554 132.851 187.171 132.554C186.612 132.201 185.879 132.347 185.256 132.554C182.599 133.493 180.24 138.449 179.168 141.055L182.695 152.964C189.067 147.051 190.171 139.301 187.972 133.726Z" fill="#455A64"/>
<path d="M186.964 133.057C186.953 133.111 186.936 133.163 186.914 133.213L186.74 133.644C186.584 134.019 186.369 134.56 186.108 135.238C185.59 136.612 184.926 138.476 184.335 140.606C183.744 142.736 183.341 144.692 183.089 146.103C182.961 146.817 182.869 147.394 182.81 147.793C182.778 147.981 182.755 148.132 182.732 148.251C182.726 148.306 182.714 148.36 182.695 148.411C182.69 148.356 182.69 148.301 182.695 148.246C182.695 148.123 182.723 147.972 182.741 147.788C182.787 147.385 182.865 146.804 182.979 146.084C183.278 144.219 183.68 142.372 184.184 140.551C184.696 138.731 185.308 136.94 186.016 135.187C186.291 134.514 186.52 133.978 186.694 133.612C186.772 133.438 186.836 133.3 186.891 133.186C186.911 133.14 186.935 133.097 186.964 133.057Z" fill="#263238"/>
<path d="M181.129 155.813C179.523 154.899 178.179 153.588 177.226 152.004C176.273 150.421 175.743 148.619 175.687 146.772C175.564 144.133 176.374 141.545 177.29 139.067C177.346 138.843 177.479 138.645 177.666 138.508C177.818 138.451 177.982 138.433 178.142 138.458C178.302 138.482 178.454 138.546 178.582 138.646C180.982 140.02 182.439 142.626 183.218 145.283C183.771 147.043 183.955 148.899 183.758 150.734C183.455 152.664 182.538 154.446 181.143 155.813" fill="#455A64"/>
<path d="M181.129 155.813C181.123 155.76 181.123 155.706 181.129 155.653C181.129 155.534 181.129 155.383 181.129 155.195C181.129 154.801 181.129 154.229 181.079 153.519C180.985 151.676 180.78 149.84 180.465 148.022C180.098 145.892 179.654 143.987 179.324 142.608L178.935 140.973C178.894 140.794 178.857 140.647 178.834 140.514C178.813 140.474 178.796 140.431 178.784 140.386C178.807 140.435 178.826 140.485 178.839 140.537C178.871 140.652 178.912 140.798 178.967 140.973C179.077 141.357 179.223 141.889 179.425 142.594C179.778 143.968 180.24 145.874 180.611 148.013C180.927 149.83 181.118 151.666 181.184 153.509C181.184 154.215 181.184 154.792 181.184 155.186L181.161 155.644C181.157 155.701 181.146 155.758 181.129 155.813Z" fill="#263238"/>
<g opacity="0.3">
<path d="M181.129 155.813C179.523 154.899 178.179 153.588 177.226 152.004C176.273 150.421 175.743 148.619 175.687 146.772C175.564 144.133 176.374 141.545 177.29 139.067C177.346 138.843 177.479 138.645 177.666 138.508C177.818 138.451 177.982 138.433 178.142 138.458C178.302 138.482 178.454 138.546 178.582 138.646C180.982 140.02 182.439 142.626 183.218 145.283C183.771 147.043 183.955 148.899 183.758 150.734C183.455 152.664 182.538 154.446 181.143 155.813" fill="black"/>
</g>
<path d="M184.862 175.894C188.114 176.614 190.817 178.908 193.936 180.017C196.015 180.754 198.365 181.015 200.023 182.467C199.625 181.464 198.681 180.796 197.765 180.223C195.174 178.605 192.408 177.287 189.52 176.293C188.041 175.784 186.438 175.377 184.94 175.775" fill="#455A64"/>
<path d="M180.158 178.798C176.081 178.73 171.789 175.258 167.731 175.052C171.977 173.677 178.055 174.8 180.158 178.798Z" fill="#455A64"/>
<path d="M181.747 169.014C183.848 168.32 186.089 168.163 188.265 168.556C190.431 168.954 192.559 169.531 194.628 170.283C194.417 168.868 193.254 167.805 192.195 166.866C191.41 166.131 190.556 165.473 189.644 164.901C188.726 164.326 187.663 164.026 186.58 164.035C185.93 164.077 185.295 164.25 184.714 164.543C184.132 164.836 183.616 165.242 183.195 165.739C182.372 166.639 181.864 167.782 181.747 168.996" fill="#455A64"/>
<path d="M173.379 164.516C170.814 162.322 166.925 162.538 163.549 162.615C168.968 165.198 174.078 168.383 178.784 172.111C178.93 169.724 176.622 167.283 173.379 164.516Z" fill="#455A64"/>
<g opacity="0.3">
<path d="M173.379 164.516C170.814 162.322 166.925 162.538 163.549 162.615C168.968 165.198 174.078 168.383 178.784 172.111C178.93 169.724 176.622 167.283 173.379 164.516Z" fill="black"/>
</g>
<path d="M182.906 161.489C184.159 160.621 185.479 159.855 186.854 159.198C188.201 158.585 189.465 157.609 190.766 156.908C192.461 155.992 193.927 154.719 195.48 153.583C197.032 152.447 198.736 151.421 200.637 151.118C199.072 150.841 197.464 150.935 195.942 151.393C194.426 151.849 192.948 152.424 191.522 153.111C189.52 154.027 187.487 154.943 185.847 156.4C184.207 157.856 182.732 159.308 182.906 161.498" fill="#455A64"/>
<path d="M193.863 178.798L193.735 178.743L193.377 178.556C193.07 178.395 192.631 178.153 192.076 177.873C191.802 177.727 191.495 177.575 191.16 177.415C190.826 177.255 190.478 177.094 190.102 176.93C189.292 176.568 188.452 176.275 187.592 176.055C186.739 175.82 185.84 175.798 184.977 175.991C184.599 176.073 184.229 176.183 183.868 176.32C183.104 176.627 182.415 177.096 181.848 177.695C181.614 177.946 181.5 178.102 181.486 178.093C181.507 178.051 181.532 178.011 181.559 177.974C181.636 177.864 181.719 177.759 181.807 177.658C182.13 177.281 182.504 176.953 182.92 176.682C183.209 176.491 183.516 176.329 183.836 176.197C184.2 176.05 184.576 175.932 184.958 175.844C185.842 175.639 186.763 175.657 187.638 175.899C188.507 176.121 189.355 176.42 190.171 176.792C190.546 176.962 190.904 177.127 191.229 177.296C191.554 177.465 191.861 177.612 192.145 177.754C192.695 178.047 193.13 178.299 193.428 178.482L193.771 178.688C193.826 178.766 193.867 178.794 193.863 178.798Z" fill="#263238"/>
<path d="M177.112 176.778C177.201 176.788 177.287 176.813 177.368 176.852C177.596 176.934 177.817 177.03 178.032 177.14C179.467 177.87 180.652 179.008 181.44 180.411C181.558 180.622 181.663 180.841 181.752 181.066C181.792 181.145 181.821 181.23 181.839 181.318C181.816 181.318 181.665 180.983 181.349 180.466C180.938 179.795 180.444 179.179 179.878 178.633C179.308 178.096 178.671 177.634 177.982 177.259C177.455 176.939 177.103 176.801 177.112 176.778Z" fill="#263238"/>
<path d="M168.093 164.31L168.267 164.361L168.752 164.535L169.526 164.819C169.829 164.933 170.154 165.098 170.52 165.277C172.433 166.163 174.218 167.302 175.829 168.662C176.715 169.409 177.549 170.215 178.326 171.076C178.949 171.786 179.535 172.529 180.08 173.302C180.538 173.961 180.9 174.511 181.143 174.887L181.422 175.345C181.455 175.394 181.484 175.446 181.509 175.5C181.466 175.458 181.428 175.412 181.394 175.363C181.326 175.267 181.22 175.125 181.092 174.937C180.836 174.566 180.474 174.021 179.997 173.38C179.521 172.738 178.926 171.978 178.225 171.181C177.455 170.323 176.631 169.517 175.756 168.767C174.152 167.417 172.386 166.274 170.497 165.364C170.131 165.199 169.81 165.025 169.513 164.906L168.752 164.599L168.248 164.388C168.194 164.368 168.141 164.342 168.093 164.31Z" fill="#263238"/>
<path d="M187.862 166.724C187.753 166.723 187.643 166.709 187.537 166.683L187.166 166.614C187.019 166.587 186.85 166.582 186.662 166.564C185.696 166.481 184.725 166.673 183.863 167.118C183.39 167.364 182.958 167.684 182.585 168.066C182.274 168.371 181.999 168.711 181.765 169.079C181.554 169.42 181.367 169.777 181.207 170.146C181.218 170.037 181.246 169.93 181.289 169.83C181.392 169.549 181.523 169.279 181.678 169.024C181.905 168.641 182.177 168.287 182.489 167.97C182.868 167.574 183.309 167.243 183.795 166.99C184.679 166.528 185.681 166.345 186.671 166.463C186.859 166.491 187.033 166.495 187.18 166.532L187.551 166.628C187.658 166.648 187.762 166.681 187.862 166.724Z" fill="#263238"/>
<path d="M191.962 154.013C191.914 154.051 191.862 154.082 191.806 154.105L191.348 154.352C190.954 154.567 190.381 154.884 189.69 155.291C188.998 155.699 188.192 156.207 187.331 156.826C186.389 157.484 185.506 158.223 184.692 159.033C184.273 159.449 183.911 159.919 183.616 160.431C183.346 160.944 183.094 161.438 182.856 161.915C182.435 162.754 182.057 163.615 181.724 164.493C181.504 165.092 181.32 165.704 181.175 166.326C181.069 166.761 181.033 167.008 181.019 167.004C181.005 166.999 181.019 166.944 181.019 166.825C181.019 166.706 181.06 166.532 181.106 166.312C181.231 165.69 181.401 165.077 181.614 164.48C181.933 163.592 182.303 162.723 182.723 161.878C182.956 161.397 183.208 160.898 183.474 160.385C183.775 159.86 184.145 159.378 184.573 158.951C185.394 158.134 186.286 157.392 187.239 156.734C188.11 156.12 188.929 155.621 189.626 155.218C190.322 154.815 190.904 154.522 191.307 154.302L191.765 154.082C191.827 154.051 191.894 154.028 191.962 154.013Z" fill="#263238"/>
<path d="M180.529 166.358C180.492 166.246 180.464 166.131 180.446 166.014C180.401 165.762 180.341 165.446 180.268 165.071C180.075 164.036 179.818 163.014 179.498 162.011C179.168 161.012 178.78 160.033 178.335 159.079L177.936 158.204C177.882 158.101 177.839 157.992 177.808 157.879C177.88 157.972 177.94 158.074 177.987 158.182C178.097 158.378 178.248 158.672 178.445 159.033C179.405 160.925 180.062 162.956 180.391 165.052C180.456 165.455 180.501 165.781 180.524 166.005C180.537 166.122 180.539 166.24 180.529 166.358Z" fill="#263238"/>
<path d="M180.236 157.082C180.106 155.538 179.653 154.038 178.907 152.68C177.9 150.814 176.497 149.191 174.795 147.925C173.094 146.659 171.136 145.78 169.059 145.352L178.179 158.942L179.356 161.37C180.101 160.071 180.409 158.569 180.236 157.082Z" fill="#455A64"/>
<path d="M193.313 183.865H172.11V187.621H193.313V183.865Z" fill="#3E4095"/>
<path d="M173.695 186.878L175.5 198.536H189.575L191.728 186.878H173.695Z" fill="#3E4095"/>
<path d="M193.304 187.625C193.304 187.666 188.517 187.703 182.622 187.703C176.727 187.703 171.94 187.666 171.94 187.625C171.94 187.584 176.722 187.552 182.622 187.552C188.522 187.552 193.304 187.566 193.304 187.625Z" fill="#263238"/>
<path d="M61.5866 167.604H42.779C39.4119 167.604 36.6824 170.333 36.6824 173.7V192.508C36.6824 195.875 39.4119 198.605 42.779 198.605H61.5866C64.9537 198.605 67.6833 195.875 67.6833 192.508V173.7C67.6833 170.333 64.9537 167.604 61.5866 167.604Z" fill="#3E4095"/>
<g opacity="0.3">
<path d="M61.5866 167.604H42.779C39.4119 167.604 36.6824 170.333 36.6824 173.7V192.508C36.6824 195.875 39.4119 198.605 42.779 198.605H61.5866C64.9537 198.605 67.6833 195.875 67.6833 192.508V173.7C67.6833 170.333 64.9537 167.604 61.5866 167.604Z" fill="black"/>
</g>
<path d="M56.0213 167.604H37.2137C33.8466 167.604 31.1171 170.333 31.1171 173.7V192.508C31.1171 195.875 33.8466 198.605 37.2137 198.605H56.0213C59.3884 198.605 62.118 195.875 62.118 192.508V173.7C62.118 170.333 59.3884 167.604 56.0213 167.604Z" fill="#3E4095"/>
<path d="M35.9128 183.553L39.0368 180.429L45.0601 185.784L55.1143 175.688L58.0138 178.808L44.6112 191.807L35.9128 183.553Z" fill="white"/>
<path d="M77.8659 178.775H65.5764C63.4944 178.775 61.8066 180.463 61.8066 182.545V194.835C61.8066 196.917 63.4944 198.604 65.5764 198.604H77.8659C79.9479 198.604 81.6357 196.917 81.6357 194.835V182.545C81.6357 180.463 79.9479 178.775 77.8659 178.775Z" fill="#263238"/>
<path d="M74.3067 178.775H62.0172C59.9352 178.775 58.2474 180.463 58.2474 182.545V194.835C58.2474 196.917 59.9352 198.604 62.0172 198.604H74.3067C76.3887 198.604 78.0765 196.917 78.0765 194.835V182.545C78.0765 180.463 76.3887 178.775 74.3067 178.775Z" fill="#455A64"/>
<path d="M61.3164 188.976L63.3135 186.979L67.1657 190.405L73.6013 183.947L75.4564 185.944L66.8817 194.258L61.3164 188.976Z" fill="white"/>
<path d="M151.865 51.317C153.669 51.1762 155.349 50.3421 156.552 48.9896C157.755 47.6372 158.387 45.8716 158.316 44.0631C158.229 41.8347 158.128 39.9336 158.128 39.9336C158.128 39.9336 163.786 39.0655 163.88 33.3967C163.975 27.728 163.025 14.7101 163.025 14.7101C159.806 13.3182 156.274 12.8111 152.793 13.2411C149.312 13.6711 146.009 15.0227 143.225 17.1563L142.382 17.8035L144.5 40C144.567 40.9193 144.661 46.6617 145.076 47.4851C145.49 48.3085 146.063 49.0419 146.761 49.6433C147.46 50.2446 148.27 50.7021 149.146 50.9893C150.022 51.2765 150.946 51.3879 151.865 51.317Z" fill="#FFBE9D"/>
<path d="M157.71 30.2753C157.702 30.2119 158.185 30.1163 158.972 30.009C159.176 29.983 159.337 29.9421 159.35 29.8318C159.358 29.6271 159.309 29.4242 159.207 29.246L158.591 27.6586C157.741 25.3917 157.148 23.5299 157.264 23.4878C157.381 23.4458 158.167 25.2423 159.009 27.5034C159.208 28.0549 159.401 28.5833 159.589 29.1022C159.72 29.3658 159.759 29.6657 159.698 29.9537C159.668 30.0312 159.621 30.1007 159.56 30.1568C159.499 30.2129 159.426 30.254 159.346 30.2769C159.237 30.3066 159.125 30.3209 159.012 30.3195C158.204 30.3479 157.714 30.3358 157.71 30.2753Z" fill="#263238"/>
<path d="M158.152 39.8525C155.532 39.8987 152.958 39.1642 150.757 37.7426C150.757 37.7426 152.496 41.8266 158.151 41.3288L158.152 39.8525Z" fill="#EB996E"/>
<path d="M163.133 16.1353C163.133 16.1353 159.814 18.0486 155.175 16.1331C152.131 14.8793 148.657 14.41 147.942 15.0544C147.227 15.6988 147.289 18.7381 144.442 19.831C144.442 19.831 145.059 25.5922 142.74 25.5524C140.42 25.5125 141.22 16.4622 141.22 16.4622L146.653 13.305L152.716 11.7031L158.57 12.1028L163.148 13.0081L163.133 16.1353Z" fill="#263238"/>
<path d="M143.065 23.6614C142.968 23.6195 139.184 22.5009 139.289 26.3763C139.393 30.2517 143.27 29.336 143.273 29.2271C143.276 29.1181 143.065 23.6614 143.065 23.6614Z" fill="#FFBE9D"/>
<path d="M142.047 27.8057C142.047 27.8057 141.982 27.8548 141.87 27.9097C141.711 27.9842 141.53 27.994 141.364 27.9369C140.95 27.7998 140.586 27.1574 140.548 26.4599C140.527 26.1287 140.581 25.797 140.706 25.4896C140.739 25.3675 140.8 25.2551 140.886 25.162C140.972 25.069 141.078 24.998 141.197 24.9551C141.274 24.9303 141.358 24.9341 141.432 24.9657C141.507 24.9973 141.567 25.0547 141.603 25.1273C141.657 25.2358 141.627 25.3143 141.658 25.3205C141.689 25.3267 141.738 25.2527 141.7 25.0945C141.678 24.9978 141.621 24.9123 141.541 24.8536C141.432 24.7768 141.298 24.7452 141.166 24.7657C141.008 24.8027 140.862 24.8794 140.742 24.9886C140.622 25.0978 140.531 25.2357 140.479 25.3895C140.325 25.7303 140.256 26.1038 140.279 26.4773C140.324 27.2554 140.748 27.9749 141.313 28.1199C141.418 28.1468 141.527 28.1501 141.633 28.1296C141.739 28.109 141.839 28.0651 141.926 28.001C142.042 27.9014 142.061 27.8141 142.047 27.8057Z" fill="#EB996E"/>
<path d="M146.522 15.8634C145.885 16.8254 145.126 17.7012 144.265 18.4691C143.389 19.2398 142.246 19.6377 141.081 19.578C139.936 19.4628 138.829 18.6269 138.636 17.4877C138.443 16.3484 139.42 15.0971 140.567 15.2051C140.377 15.2322 140.184 15.2135 140.003 15.1507C139.822 15.0879 139.659 14.9827 139.527 14.844C139.395 14.7053 139.298 14.537 139.244 14.3532C139.19 14.1694 139.181 13.9754 139.218 13.7873C139.254 13.5993 139.335 13.4227 139.453 13.2722C139.572 13.1217 139.724 13.0017 139.899 12.9222C140.073 12.8427 140.264 12.806 140.455 12.8152C140.646 12.8244 140.833 12.8791 140.998 12.9749C140.003 12.9153 139.7 11.3897 140.393 10.6769C141.086 9.96405 142.238 9.95269 143.197 10.207C144.156 10.4612 145.074 10.9277 146.065 11.0115C147.62 11.1523 149.091 10.3164 150.331 9.3675C151.571 8.41862 152.718 7.30839 154.158 6.70384C155.923 5.96609 157.951 6.08396 159.794 6.59518C161.347 6.97283 162.772 7.75722 163.922 8.86774C165.028 10.0092 165.71 11.6257 165.493 13.1974C165.276 14.769 164.015 16.2127 162.436 16.421C162.436 16.421 158.939 17.2271 155.781 15.4551C152.623 13.6831 146.567 14.731 146.567 14.731L146.522 15.8634Z" fill="#263238"/>
<path d="M140.635 12.0949C140.635 12.0949 140.714 12.1594 140.878 12.2437C141.041 12.3281 141.293 12.4418 141.619 12.5766C142.554 12.9397 143.528 13.1901 144.521 13.3227C146 13.5227 147.502 13.4743 148.965 13.1795C150.62 12.8562 152.315 12.0732 154.094 11.4084C155.872 10.7437 157.648 10.2761 159.266 10.4564C160.884 10.6367 162.231 11.4081 162.908 12.4108C163.463 13.2098 163.693 14.1894 163.554 15.1517C163.476 15.502 163.369 15.8449 163.233 16.1767C163.233 16.1767 163.306 16.1097 163.408 15.9508C163.546 15.7109 163.648 15.4521 163.71 15.1826C163.817 14.6814 163.822 14.164 163.726 13.6606C163.631 13.1572 163.436 12.6779 163.153 12.2507C162.448 11.1395 161.003 10.2686 159.306 10.078C157.608 9.88747 155.734 10.3303 153.943 11.0239C152.151 11.7175 150.491 12.4825 148.883 12.8065C147.459 13.1054 145.997 13.1776 144.55 13.0203C142.055 12.7483 140.643 12.0022 140.635 12.0949Z" fill="#455A64"/>
<path d="M139.653 18.2232C139.615 18.2483 139.786 18.6065 140.261 19.0311C140.891 19.5803 141.678 19.9148 142.511 19.9861C143.343 20.0574 144.176 19.8618 144.89 19.4278C145.431 19.094 145.661 18.7694 145.626 18.7365C145.591 18.7037 145.287 18.9257 144.754 19.1872C144.067 19.5165 143.305 19.6559 142.547 19.591C141.789 19.5261 141.062 19.2592 140.441 18.8181C139.955 18.4662 139.715 18.1813 139.653 18.2232Z" fill="#455A64"/>
<path d="M140.605 16.1706C140.515 16.2298 140.897 16.8867 141.703 17.303C142.51 17.7192 143.265 17.6567 143.258 17.5457C143.251 17.4346 142.604 17.3102 141.891 16.9363C141.178 16.5624 140.699 16.1044 140.605 16.1706Z" fill="#455A64"/>
<path d="M165.338 18.4429C165.388 18.4365 165.476 18.2454 165.458 17.8981C165.429 17.4407 165.253 17.0049 164.956 16.6553C164.66 16.3056 164.259 16.0607 163.812 15.9568C163.464 15.8859 163.26 15.9357 163.256 15.9871C163.237 16.1015 164.054 16.2247 164.642 16.9233C165.23 17.6219 165.224 18.4573 165.338 18.4429Z" fill="#263238"/>
<path d="M166.621 12.7072C166.502 12.6749 166.21 13.7403 165.315 14.7029C164.42 15.6655 163.403 16.0736 163.448 16.1899C163.494 16.3063 164.654 16.0361 165.622 14.9827C166.591 13.9293 166.73 12.7069 166.621 12.7072Z" fill="#455A64"/>
<path d="M162.105 23.4468C162.107 23.6732 162.021 23.8916 161.864 24.055C161.707 24.2184 161.493 24.3138 161.266 24.3207C161.156 24.3293 161.044 24.3156 160.939 24.2805C160.834 24.2455 160.737 24.1897 160.654 24.1166C160.57 24.0434 160.502 23.9544 160.454 23.8546C160.406 23.7548 160.378 23.6464 160.372 23.5357C160.37 23.3095 160.457 23.0916 160.614 22.9284C160.77 22.7651 160.984 22.6695 161.21 22.6617C161.321 22.6532 161.432 22.6668 161.537 22.7019C161.643 22.737 161.74 22.7927 161.823 22.8658C161.906 22.939 161.974 23.0281 162.023 23.1279C162.071 23.2276 162.099 23.3361 162.105 23.4468Z" fill="#263238"/>
<path d="M162.763 23.2881C162.655 23.4003 161.999 22.9106 161.066 22.911C160.133 22.9113 159.445 23.3757 159.343 23.2632C159.296 23.2116 159.405 23.0076 159.703 22.7897C160.109 22.5117 160.59 22.365 161.082 22.3694C161.568 22.367 162.043 22.5219 162.434 22.8109C162.73 23.031 162.818 23.237 162.763 23.2881Z" fill="#263238"/>
<path d="M153.582 23.3539C153.585 23.5803 153.498 23.7987 153.342 23.9621C153.185 24.1255 152.97 24.2209 152.744 24.2278C152.633 24.2363 152.522 24.2227 152.417 24.1876C152.312 24.1526 152.215 24.0968 152.131 24.0237C152.048 23.9505 151.98 23.8614 151.932 23.7617C151.883 23.6619 151.855 23.5534 151.85 23.4427C151.849 23.2161 151.936 22.9982 152.093 22.8349C152.251 22.6717 152.465 22.5761 152.691 22.5683C152.802 22.5598 152.913 22.5735 153.018 22.6086C153.123 22.6438 153.22 22.6996 153.303 22.7728C153.386 22.8461 153.454 22.9352 153.502 23.035C153.55 23.1348 153.577 23.2432 153.582 23.3539Z" fill="#263238"/>
<path d="M154.181 23.2603C154.073 23.3725 153.414 22.8866 152.481 22.8836C151.547 22.8806 150.861 23.3517 150.758 23.2359C150.71 23.1842 150.82 22.9802 151.118 22.7657C151.523 22.4851 152.005 22.3381 152.497 22.3454C152.983 22.3435 153.457 22.4971 153.849 22.7836C154.134 22.9983 154.232 23.203 154.181 23.2603Z" fill="#263238"/>
<path d="M153.504 20.7714C153.341 20.9551 152.59 20.5487 151.646 20.5742C150.703 20.5996 149.97 21.0257 149.802 20.8504C149.723 20.7654 149.816 20.5092 150.131 20.2416C150.557 19.9006 151.083 19.7093 151.629 19.6973C152.175 19.6853 152.709 19.8533 153.149 20.1753C153.474 20.4324 153.577 20.6839 153.504 20.7714Z" fill="#263238"/>
<path d="M162.438 21.1885C162.492 21.2935 162.355 21.4976 162.039 21.6838C161.618 21.9105 161.144 22.0224 160.666 22.0084C160.188 21.9945 159.722 21.855 159.314 21.6041C159.01 21.3987 158.888 21.1902 158.946 21.0878C159.083 20.8803 159.809 21.1168 160.693 21.1296C161.577 21.1423 162.314 20.9633 162.438 21.1885Z" fill="#263238"/>
<path d="M158.246 33.5089C158.219 33.3715 157.33 33.6051 156.506 33.0142C155.681 32.4233 155.525 31.4523 155.402 31.4798C155.278 31.5072 155.283 31.7317 155.379 32.1348C155.509 32.6538 155.817 33.1108 156.249 33.4265C156.665 33.7293 157.182 33.859 157.692 33.7883C158.072 33.7242 158.264 33.5685 158.246 33.5089Z" fill="#263238"/>
<path d="M143.274 30.72C143.275 30.8015 143.257 30.8821 143.219 30.9544C143.126 31.16 142.977 31.3346 142.788 31.4574C142.648 31.5531 142.491 31.6186 142.325 31.6497C142.158 31.6809 141.988 31.6769 141.823 31.6382C141.62 31.5921 141.43 31.5014 141.266 31.3727C141.102 31.2439 140.969 31.0803 140.876 30.8937C140.777 30.6726 140.732 30.4314 140.743 30.1894C140.755 29.9474 140.823 29.7115 140.942 29.5008C141.062 29.29 141.229 29.1103 141.431 28.9761C141.632 28.8419 141.863 28.757 142.103 28.7283C142.183 28.7104 142.266 28.7126 142.345 28.7347C142.065 28.7938 141.796 28.8992 141.55 29.0466C141.295 29.2159 141.101 29.4617 140.995 29.7486C140.931 29.9202 140.901 30.1029 140.907 30.2861C140.914 30.4693 140.956 30.6494 141.033 30.8161C141.115 30.9795 141.232 31.1234 141.375 31.2381C141.518 31.3527 141.683 31.4354 141.861 31.4807C142.006 31.5188 142.157 31.5272 142.305 31.5053C142.453 31.4835 142.596 31.4319 142.723 31.3536C142.962 31.1972 143.152 30.9779 143.274 30.72Z" fill="#455A64"/>
<path d="M157.289 183.431L156.895 193.769C156.895 193.769 167.27 197.644 167.389 199.559L147.308 199.518L147.262 183.38L157.289 183.431Z" fill="#263238"/>
<path d="M150.689 192.885C150.499 192.943 150.337 193.068 150.233 193.237C150.129 193.405 150.089 193.606 150.121 193.801C150.171 193.996 150.294 194.164 150.464 194.271C150.635 194.377 150.84 194.414 151.037 194.374C151.241 194.312 151.415 194.176 151.525 193.994C151.635 193.811 151.673 193.594 151.632 193.384C151.558 193.187 151.41 193.026 151.22 192.934C151.029 192.843 150.811 192.829 150.611 192.894" fill="#E0E0E0"/>
<path d="M147.308 199.518L147.368 197.891L166.606 198.542C166.606 198.542 167.522 198.931 167.398 199.559L147.308 199.518Z" fill="#455A64"/>
<path d="M157.22 193.668C157.22 193.764 156.726 193.81 156.245 194.126C155.764 194.442 155.503 194.85 155.411 194.809C155.319 194.768 155.471 194.204 156.062 193.838C156.652 193.471 157.243 193.577 157.22 193.668Z" fill="white"/>
<path d="M159.323 194.543C159.346 194.639 158.924 194.804 158.59 195.216C158.256 195.629 158.159 196.073 158.059 196.068C157.958 196.064 157.903 195.51 158.324 195.001C158.746 194.493 159.323 194.451 159.323 194.543Z" fill="white"/>
<path d="M160.514 197.067C160.427 197.067 160.289 196.609 160.546 196.059C160.802 195.51 161.256 195.313 161.297 195.395C161.338 195.477 161.054 195.761 160.839 196.206C160.624 196.65 160.615 197.058 160.514 197.067Z" fill="white"/>
<path d="M157.051 191.314C157.01 191.405 156.556 191.268 156.002 191.314C155.448 191.36 155.017 191.525 154.967 191.442C154.916 191.36 155.333 190.984 155.984 190.984C156.634 190.984 157.097 191.227 157.051 191.314Z" fill="white"/>
<path d="M132.71 182.02L131.624 194.52L133.608 204.597C133.642 204.77 133.64 204.948 133.602 205.12C133.565 205.292 133.492 205.454 133.389 205.597C133.286 205.739 133.154 205.859 133.003 205.949C132.851 206.039 132.683 206.096 132.508 206.118C132.306 206.144 132.099 206.122 131.907 206.051C131.715 205.981 131.543 205.866 131.405 205.715C129.618 203.764 123.068 196.554 123.201 195.638C123.352 194.584 123.476 182.405 123.476 182.405L132.71 182.02Z" fill="#263238"/>
<path d="M132.508 206.127L123.256 194.813L123.219 195.345C123.191 195.801 123.324 196.254 123.595 196.623C124.332 197.603 126.416 200.287 131.382 205.724C131.524 205.88 131.703 205.998 131.902 206.068C132.101 206.138 132.314 206.159 132.522 206.127H132.508Z" fill="#455A64"/>
<g opacity="0.6">
<path d="M126.078 190.947C126.224 191.071 126.319 191.243 126.346 191.432C126.373 191.622 126.33 191.814 126.224 191.973C126.106 192.124 125.935 192.224 125.746 192.253C125.558 192.282 125.365 192.237 125.207 192.129C125.053 191.997 124.953 191.813 124.926 191.612C124.899 191.411 124.947 191.207 125.061 191.039C125.199 190.895 125.388 190.81 125.588 190.803C125.788 190.795 125.983 190.865 126.132 190.998" fill="white"/>
</g>
<path d="M130.003 200.475C130.329 200.1 130.722 199.789 131.162 199.559C131.631 199.403 132.126 199.341 132.619 199.375C132.619 199.343 132.477 199.238 132.188 199.179C131.806 199.111 131.414 199.155 131.056 199.303C130.698 199.452 130.39 199.699 130.168 200.017C130.003 200.292 129.976 200.475 130.003 200.475Z" fill="white"/>
<path d="M130.786 202.215C131.158 202.042 131.538 201.889 131.927 201.757C132.336 201.709 132.747 201.683 133.159 201.679C132.974 201.548 132.76 201.462 132.536 201.429C132.311 201.397 132.082 201.418 131.867 201.492C131.116 201.652 130.722 202.179 130.786 202.215Z" fill="white"/>
<path d="M128.487 198.235C128.537 198.299 129.192 197.708 130.195 197.397C131.198 197.085 132.069 197.168 132.078 197.085C132.087 197.003 131.185 196.783 130.113 197.136C129.457 197.296 128.88 197.686 128.487 198.235Z" fill="white"/>
<path d="M128.501 194.415C128.528 194.493 129.233 194.25 130.136 194.273C131.038 194.296 131.734 194.561 131.767 194.484C131.279 194.178 130.718 194.01 130.143 193.998C129.568 193.986 129 194.13 128.501 194.415Z" fill="white"/>
<path d="M128.725 190.746C129.28 190.603 129.852 190.538 130.424 190.553C131.372 190.636 132.009 191.144 132.055 191.076C132.101 191.007 131.95 190.883 131.675 190.7C131.306 190.465 130.887 190.321 130.452 190.279C130.018 190.233 129.58 190.293 129.174 190.453C128.862 190.581 128.707 190.718 128.725 190.746Z" fill="white"/>
<path d="M130.447 189.853C130.498 189.706 130.515 189.549 130.498 189.395C130.483 188.959 130.381 188.531 130.2 188.135C130.093 187.832 129.888 187.572 129.618 187.397C129.524 187.35 129.418 187.331 129.313 187.345C129.208 187.359 129.11 187.405 129.032 187.475C128.889 187.626 128.806 187.823 128.798 188.03C128.804 188.45 128.954 188.856 129.224 189.178C129.493 189.501 129.865 189.721 130.278 189.802C130.688 189.871 131.11 189.816 131.489 189.644C131.868 189.473 132.188 189.193 132.408 188.84C132.463 188.751 132.498 188.65 132.511 188.546C132.523 188.442 132.513 188.336 132.481 188.236C132.439 188.138 132.367 188.056 132.276 188.002C132.185 187.948 132.078 187.924 131.973 187.933C131.66 187.981 131.366 188.111 131.121 188.309C130.763 188.557 130.453 188.867 130.205 189.225C130.103 189.347 130.028 189.489 129.985 189.642C130.341 189.193 130.761 188.798 131.231 188.469C131.45 188.306 131.706 188.2 131.977 188.162C132.035 188.155 132.094 188.166 132.144 188.195C132.194 188.224 132.234 188.269 132.257 188.323C132.272 188.39 132.274 188.459 132.263 188.527C132.251 188.594 132.225 188.659 132.188 188.717C131.989 189.016 131.707 189.253 131.378 189.397C131.048 189.542 130.684 189.589 130.328 189.532C129.978 189.465 129.661 189.281 129.429 189.011C129.197 188.74 129.064 188.399 129.05 188.043C129.052 187.9 129.104 187.763 129.197 187.654C129.238 187.612 129.292 187.584 129.351 187.575C129.41 187.566 129.47 187.576 129.522 187.604C129.749 187.752 129.924 187.966 130.026 188.217C130.262 188.733 130.405 189.287 130.447 189.853Z" fill="white"/>
<path d="M166.959 96.2544C167.928 100.538 168.255 104.943 167.93 109.323C167.728 112.108 158.338 188.978 158.338 188.978H145.678L149.237 116.729L148.201 116.954C148.201 116.954 141.289 147.767 140.726 152.755C140.222 157.239 134.391 189.821 134.391 189.821L122.839 189.94L126.504 146.883L130.805 105.535L132.458 93.4786L166.959 96.2544Z" fill="#263238"/>
<path d="M148.779 111.828C148.779 111.828 148.801 111.865 148.861 111.915C148.953 111.983 149.057 112.031 149.168 112.057C149.376 112.102 149.592 112.099 149.8 112.05C150.008 112.001 150.202 111.907 150.368 111.773C150.607 111.569 150.803 111.32 150.944 111.039C151.084 110.758 151.168 110.451 151.188 110.138C151.28 109.451 151.293 108.713 151.344 107.93C151.431 106.364 151.495 104.948 151.527 103.922C151.566 103.369 151.566 102.813 151.527 102.259C151.424 102.805 151.364 103.358 151.348 103.913C151.27 104.939 151.179 106.35 151.092 107.916C151.041 108.695 151.032 109.451 150.959 110.106C150.932 110.687 150.681 111.236 150.258 111.636C150.112 111.762 149.941 111.856 149.757 111.913C149.572 111.97 149.378 111.988 149.186 111.966C149.046 111.933 148.91 111.887 148.779 111.828Z" fill="#455A64"/>
<path d="M130.168 104.394C130.277 104.457 130.396 104.501 130.52 104.522C130.852 104.609 131.191 104.665 131.533 104.692C132.669 104.789 133.812 104.618 134.87 104.194C135.928 103.769 136.871 103.102 137.625 102.246C137.851 101.988 138.057 101.712 138.239 101.421C138.314 101.317 138.373 101.201 138.413 101.078C138.376 101.078 138.092 101.508 137.497 102.122C136.731 102.921 135.804 103.547 134.777 103.96C133.75 104.372 132.647 104.561 131.542 104.513C130.681 104.486 130.168 104.353 130.168 104.394Z" fill="#455A64"/>
<path d="M161.915 101.179C161.912 101.609 161.977 102.037 162.108 102.447C162.642 104.476 163.834 106.271 165.497 107.55C165.827 107.83 166.198 108.057 166.597 108.223C166.652 108.155 164.906 107.161 163.587 105.145C162.268 103.13 161.998 101.151 161.915 101.179Z" fill="#455A64"/>
<path d="M200.589 79.4302L203.493 80.3463L208.769 77.4285L211.765 85.7696L204.583 87.4781L199.141 86.8781L200.589 79.4302Z" fill="#FFBE9D"/>
<path d="M166.812 45.9467C166.812 45.9467 169.78 47.7285 172.24 53.7839C177.068 65.6932 180.105 72.106 180.105 72.106L202.256 79.0912L200.483 87.9774C200.483 87.9774 178.011 84.8444 175.002 83.7176C170.88 82.1739 167.829 74.0527 167.829 74.0527L166.812 45.9467Z" fill="#E0E0E0"/>
<path d="M176.834 65.139C176.752 64.8504 172.015 51.9609 170.508 49.1393C168.699 45.7634 164.897 44.2702 162.538 44.1007C160.179 43.9312 134.941 45.9696 134.941 45.9696C134.941 45.9696 127.401 47.6552 126.439 54.1412C125.331 61.6074 124.364 78.6973 124.364 78.6973L135.852 72.8068L137.341 69.0599L161.114 74.3642L166.917 65.8078L176.834 65.139Z" fill="#E0E0E0"/>
<path d="M133.273 46.7253L143.131 42.3784L144.235 38.1277L155.745 43.5693L158.155 40.9035L159.167 43.9083L161.686 44.7328L167.582 55.0985V77.1857L168.772 96.2406L167.476 99.2455L156.918 100.803C155.764 100.972 154.591 100.972 153.437 100.803L132 97.3079L131.45 91.0005L133.741 73.645L133.273 46.7253Z" fill="#E0E0E0"/>
<path d="M144.235 38.1277C144.235 38.1277 145.522 38.4987 148.815 40.2622C152.054 41.9891 155.732 43.5693 155.732 43.5693L155.452 48.7636L143.204 42.6166" fill="#E0E0E0"/>
<path d="M158.155 40.9035L155.745 43.5694L157.033 49.1393L159.181 44.1053" fill="#E0E0E0"/>
<g opacity="0.3">
<path d="M155.791 44.142C155.897 44.2244 156.565 50.5547 156.565 50.5547L144.29 43.1343L155.466 48.7454L155.791 44.142Z" fill="black"/>
</g>
<path d="M155.709 67.8369C155.521 62.9816 156.286 50.5959 156.286 50.5959L157.889 50.3348C159.93 59.1528 161.308 68.1114 162.012 77.1354C162.47 83.09 162.47 90.0295 162.47 90.0295L159.263 96.9277L155.709 90.057C155.709 90.057 155.933 73.7412 155.709 67.8369Z" fill="#455A64"/>
<path d="M132.54 47.4857C132.518 47.5086 132.87 47.7835 133.37 48.2965C134.667 49.6395 135.567 51.3151 135.971 53.1381C136.122 53.8343 136.159 54.2786 136.187 54.274C136.203 54.1709 136.203 54.0657 136.187 53.9626C136.17 53.6781 136.134 53.3951 136.081 53.1152C135.918 52.1854 135.609 51.2872 135.165 50.4539C134.718 49.6215 134.143 48.8642 133.461 48.2094C133.258 48.0111 133.04 47.8274 132.811 47.6598C132.728 47.5917 132.637 47.5333 132.54 47.4857Z" fill="#263238"/>
<path d="M155.709 46.052L156.804 45.626L157.843 47.4079L158.031 50.3348L156.565 50.573L155.466 48.7637L155.709 46.052Z" fill="#455A64"/>
<path d="M167.563 54.7642C167.517 54.7642 167.476 61.1036 167.476 68.9179C167.476 76.7323 167.517 83.0763 167.563 83.0763C167.609 83.0763 167.65 76.7415 167.65 68.9179C167.65 61.0944 167.609 54.7642 167.563 54.7642Z" fill="#263238"/>
<path d="M155.631 43.5236C155.821 43.8865 156.029 44.2396 156.254 44.5817C156.756 45.4284 157.214 46.2998 157.628 47.1926C157.669 47.2796 157.711 47.3621 157.747 47.4445L157.825 47.6094L157.903 47.4445C158.303 46.6034 158.644 45.7356 158.924 44.8474C159.03 44.513 159.108 44.2382 159.153 44.0458C159.19 43.9493 159.209 43.8468 159.208 43.7435C159.185 43.7435 159.057 44.1511 158.814 44.8107C158.502 45.6816 158.146 46.5362 157.747 47.3712H157.903L157.784 47.1193C157.363 46.2202 156.881 45.351 156.341 44.5176C156.13 44.2015 155.952 43.9496 155.823 43.7755C155.695 43.6015 155.64 43.5144 155.631 43.5236Z" fill="#263238"/>
<path d="M143.131 42.3785C143.183 42.4183 143.24 42.4521 143.3 42.4793L143.795 42.7403L145.627 43.6885C147.171 44.4901 149.292 45.6352 151.628 46.8949C153.052 47.6552 154.403 48.3606 155.581 48.9469L155.691 49.0019V48.8599C155.691 47.3346 155.718 46.052 155.727 45.1222C155.727 44.6642 155.727 44.3344 155.727 44.0687C155.736 43.9436 155.736 43.8181 155.727 43.6931C155.706 43.8171 155.695 43.9428 155.695 44.0687C155.695 44.3298 155.672 44.6825 155.654 45.1176C155.631 46.0337 155.599 47.3346 155.558 48.8553L155.668 48.7912C154.5 48.1912 153.153 47.4812 151.724 46.7208C149.383 45.4703 147.258 44.3435 145.7 43.5648C144.922 43.1801 144.285 42.8732 143.845 42.6487L143.332 42.4197C143.267 42.3961 143.2 42.3822 143.131 42.3785Z" fill="#263238"/>
<path d="M166.084 46.3864C166.056 46.3864 166.249 46.7254 166.501 47.3025C166.82 48.026 167.055 48.7837 167.201 49.5607C167.342 50.3402 167.391 51.1334 167.348 51.9242C167.316 52.5335 167.252 52.9045 167.279 52.909C167.318 52.8278 167.344 52.7414 167.357 52.6525C167.407 52.415 167.443 52.1749 167.467 51.9334C167.631 50.3228 167.333 48.6988 166.606 47.2521C166.501 47.033 166.38 46.8218 166.244 46.62C166.148 46.4551 166.093 46.3772 166.084 46.3864Z" fill="#263238"/>
<path d="M156.836 50.7608C156.836 50.802 157.138 50.6692 157.454 50.4676C157.77 50.2661 158.013 50.0737 157.985 50.0325C157.758 50.081 157.545 50.1813 157.362 50.3256C157.046 50.5272 156.808 50.7195 156.836 50.7608Z" fill="#263238"/>
<path d="M156.309 50.0462C156.605 49.5776 156.854 49.0804 157.051 48.5621C157.3 48.071 157.5 47.5572 157.651 47.0276C157.349 47.4924 157.099 47.9884 156.904 48.5072C156.653 48.9982 156.453 49.5139 156.309 50.0462Z" fill="#263238"/>
<path d="M131.253 47.8156C131.253 47.8156 127.456 50.5639 126.98 52.0617C126.503 53.5595 124.488 78.1202 124.131 81.0426C123.773 83.965 123.416 89.4203 125.674 91.2022C127.933 92.984 132.797 94.3215 132.797 94.3215L137.29 85.046L134.909 80.0578L137.29 61.4151L131.253 47.8156Z" fill="#E0E0E0"/>
<path d="M131.711 93.9917C131.792 93.9838 131.873 93.9838 131.954 93.9917C132.189 93.9904 132.423 93.9751 132.655 93.9459C133.526 93.8657 134.362 93.5628 135.083 93.0664C136.158 92.2686 136.966 91.1634 137.4 89.8967C137.987 88.2961 138.285 86.604 138.28 84.8993L138.303 84.9635L134.812 80.131L134.785 80.0944V80.0486C134.785 79.9249 134.817 79.7875 134.835 79.6547C135.504 74.4283 136.113 69.692 136.558 66.2429C136.777 64.5436 136.956 63.1602 137.084 62.18C137.144 61.722 137.19 61.3464 137.226 61.0715C137.263 60.7967 137.277 60.6868 137.281 60.6868C137.289 60.7199 137.289 60.7544 137.281 60.7875C137.281 60.8517 137.281 60.9524 137.281 61.0761C137.254 61.3509 137.222 61.722 137.181 62.1892C137.084 63.1511 136.929 64.5436 136.723 66.2613C136.319 69.7012 135.738 74.4466 135.069 79.6867C135.069 79.8196 135.037 79.9524 135.019 80.0761V79.9936L138.495 84.8306V84.8627V84.8948C138.494 86.6261 138.184 88.3432 137.579 89.9654C137.118 91.2555 136.274 92.3741 135.161 93.1718C134.741 93.4588 134.277 93.6739 133.786 93.8084L133.475 93.8955L133.182 93.9459C133.013 93.9799 132.841 93.9999 132.669 94.0054C132.434 94.0256 132.198 94.0256 131.963 94.0054C131.879 94.0094 131.795 94.0048 131.711 93.9917Z" fill="#263238"/>
<path d="M127.122 81.7663C127.415 81.4781 127.752 81.2384 128.12 81.0563C129.857 80.0849 131.858 79.6949 133.832 79.9433C134.241 79.9759 134.643 80.0717 135.023 80.2272C132.284 79.7583 129.468 80.3055 127.103 81.7663H127.122Z" fill="#263238"/>
<path d="M156.927 57.3247C156.927 57.3247 157.147 58.14 157.491 59.5783C158.271 58.4578 159.268 57.5046 160.422 56.775C160.422 56.775 166.285 50.9486 168.159 44.8244C169.533 40.3768 169.18 35.4481 169.18 35.4481C169.125 35.2145 168.667 33.1258 168.296 31.4173C168.149 30.7441 168.269 30.0403 168.629 29.453C168.989 28.8657 169.563 28.4404 170.229 28.2659C173.128 27.4826 181.012 25.9573 182.844 31.2432C185.542 39.1446 181.176 47.6781 181.227 50.1195C181.227 50.5776 181.227 50.9577 181.227 51.2601C183.54 50.7241 185.349 50.344 185.349 50.3806L200.529 46.8399C200.529 46.8399 205.545 45.3191 207.267 50.463C208.989 55.607 203.145 57.3338 203.145 57.3338C203.145 57.3338 205.893 57.2101 206.635 61.8868C207.377 66.5635 202.361 68.0797 202.361 68.0797C202.361 68.0797 205.435 67.8827 206.232 72.0281C207.006 76.0635 201.99 78.4958 201.72 78.624C202.118 78.5243 202.522 78.4478 202.929 78.395C202.63 78.5048 202.324 78.5935 202.013 78.6607C204.354 78.9584 204.693 81.7434 204.693 81.7434C206.2 87.4553 201.802 88.6554 201.802 88.6554L174.072 95.123C171.31 95.767 168.426 95.6626 165.717 94.8207C165.983 96.0025 166.125 96.6529 166.116 96.6529L146.754 101.174C146.713 101.174 144.624 92.3839 142.086 81.5281C139.549 70.6723 137.529 61.8319 137.57 61.8319L156.927 57.3247Z" fill="#3E4095"/>
<g opacity="0.3">
<path d="M156.927 57.3247C156.927 57.3247 157.147 58.14 157.491 59.5783C158.271 58.4578 159.268 57.5046 160.422 56.775C160.422 56.775 166.285 50.9486 168.159 44.8244C169.533 40.3768 169.18 35.4481 169.18 35.4481C169.125 35.2145 168.667 33.1258 168.296 31.4173C168.149 30.7441 168.269 30.0403 168.629 29.453C168.989 28.8657 169.563 28.4404 170.229 28.2659C173.128 27.4826 181.012 25.9573 182.844 31.2432C185.542 39.1446 181.176 47.6781 181.227 50.1195C181.227 50.5776 181.227 50.9577 181.227 51.2601C183.54 50.7241 185.349 50.344 185.349 50.3806L200.529 46.8399C200.529 46.8399 205.545 45.3191 207.267 50.463C208.989 55.607 203.145 57.3338 203.145 57.3338C203.145 57.3338 205.893 57.2101 206.635 61.8868C207.377 66.5635 202.361 68.0797 202.361 68.0797C202.361 68.0797 205.435 67.8827 206.232 72.0281C207.006 76.0635 201.99 78.4958 201.72 78.624C202.118 78.5243 202.522 78.4478 202.929 78.395C202.63 78.5048 202.324 78.5935 202.013 78.6607C204.354 78.9584 204.693 81.7434 204.693 81.7434C206.2 87.4553 201.802 88.6554 201.802 88.6554L174.072 95.123C171.31 95.767 168.426 95.6626 165.717 94.8207C165.983 96.0025 166.125 96.6529 166.116 96.6529L146.754 101.174C146.713 101.174 144.624 92.3839 142.086 81.5281C139.549 70.6723 137.529 61.8319 137.57 61.8319L156.927 57.3247Z" fill="black"/>
</g>
<path d="M160.669 62.8396L160.294 65.3589L166.487 91.8572C168.3 93.0612 170.34 93.8815 172.482 94.2675C174.624 94.6535 176.822 94.597 178.941 94.1016L206.662 87.6294C206.662 87.6294 211.06 86.4293 209.553 80.7174C209.553 80.7174 209.191 77.6851 206.575 77.6026C206.575 77.6026 211.889 75.1475 211.096 71.0021C210.304 66.8567 207.23 67.0583 207.23 67.0583C207.23 67.0583 212.246 65.5376 211.499 60.8609C210.753 56.1841 208.009 56.3078 208.009 56.3078C208.009 56.3078 213.849 54.5993 212.131 49.4371C210.414 44.2748 205.394 45.8139 205.394 45.8139L185.697 50.3944L168.42 54.4298C166.431 54.8887 164.628 55.9369 163.245 57.4374C161.863 58.9378 160.965 60.8207 160.669 62.8396Z" fill="#3E4095"/>
<path d="M165.277 55.7719C165.277 55.7719 171.141 49.9455 173.014 43.8214C174.388 39.3737 174.035 34.4496 174.035 34.4496C173.98 34.2114 173.522 32.1227 173.151 30.4142C173.005 29.741 173.124 29.0372 173.484 28.4499C173.845 27.8626 174.418 27.4373 175.084 27.2628C177.998 26.475 183.251 27.9224 185.061 33.2175C187.759 41.1143 186.027 46.6704 186.073 49.1119L186.119 51.5533L165.277 55.7719Z" fill="#3E4095"/>
<path d="M161.799 56.3007L142.441 60.8233L151.63 100.155L170.988 95.6325L161.799 56.3007Z" fill="#3E4095"/>
<path d="M170.985 95.6498C171.026 95.6498 169.006 86.8277 166.468 75.9536C163.931 65.0794 161.842 56.294 161.801 56.3032C161.76 56.3123 163.78 65.1252 166.317 75.9994C168.855 86.8735 170.934 95.6589 170.985 95.6498Z" fill="#263238"/>
<path d="M151.627 100.162C151.669 100.162 149.644 91.3396 147.107 80.4655C144.569 69.5913 142.48 60.8059 142.439 60.8151C142.398 60.8242 144.418 69.6371 146.955 80.5113C149.493 91.3854 151.582 100.162 151.627 100.162Z" fill="#263238"/>
<path d="M157.069 66.9162C157.236 67.6325 157.187 68.3822 156.929 69.0706C156.67 69.7591 156.213 70.3553 155.615 70.784C155.017 71.2127 154.306 71.4546 153.571 71.4791C152.836 71.5035 152.11 71.3095 151.485 70.9216C150.86 70.5336 150.365 69.9691 150.061 69.2994C149.756 68.6297 149.658 67.8849 149.777 67.1591C149.896 66.4334 150.228 65.7592 150.73 65.2219C151.232 64.6846 151.882 64.3083 152.599 64.1405C153.559 63.9165 154.57 64.0831 155.408 64.6035C156.246 65.124 156.844 65.9557 157.069 66.9162Z" fill="white"/>
<path d="M190.209 49.3729C190.209 49.3317 188.079 49.7898 185.477 50.399C182.876 51.0082 180.769 51.5304 180.778 51.5716C180.787 51.6128 182.908 51.1548 185.51 50.5501C188.111 49.9455 190.218 49.4142 190.209 49.3729Z" fill="#263238"/>
<path d="M207.661 67.1499C207.661 67.1086 206.287 67.3926 204.629 67.7774C203.614 67.9837 202.611 68.2436 201.624 68.5561C201.624 68.5973 202.998 68.3133 204.656 67.9285C205.67 67.7197 206.673 67.4598 207.661 67.1499Z" fill="#263238"/>
<path d="M208.366 56.12C208.366 56.0788 206.433 56.4956 204.07 57.0361C201.706 57.5766 199.801 58.0667 199.81 58.1125C199.819 58.1583 201.743 57.7369 204.106 57.1964C206.47 56.6559 208.376 56.1887 208.366 56.12Z" fill="#263238"/>
<path d="M207.794 77.369C207.794 77.3278 205.861 77.74 203.497 78.2851C201.134 78.8302 199.228 79.3157 199.237 79.3569C199.247 79.3982 201.17 78.9859 203.534 78.4408C205.898 77.8957 207.803 77.4102 207.794 77.369Z" fill="#263238"/>
<g opacity="0.3">
<path d="M175.249 29.2095C174.974 29.5151 174.787 29.8889 174.706 30.2919C174.626 30.6948 174.655 31.112 174.791 31.4998C175.081 32.2715 175.435 33.0177 175.849 33.7305C176.644 35.3868 176.873 37.2586 176.5 39.0576C176.385 39.6027 176.234 40.2302 176.582 40.6654C177.077 41.2792 178.071 40.9402 178.698 40.4593C179.866 39.5217 180.744 38.2723 181.231 36.8559C181.717 35.4396 181.792 33.9143 181.447 32.4571C181.174 31.2163 180.486 30.106 179.495 29.3103C178.483 28.5591 176.93 27.8812 175.213 29.1958" fill="white"/>
</g>
<g opacity="0.3">
<path d="M207.198 46.5147C206.508 46.4359 205.809 46.5094 205.151 46.73L193.452 49.6981C192.179 50.0233 189.788 50.3119 189.76 51.6128C189.504 52.3228 190.044 53.1289 190.741 53.4175C191.465 53.6513 192.241 53.6799 192.98 53.5C194.542 53.2526 196.086 52.8862 197.63 52.5197C200.726 51.7777 203.832 51.0173 206.791 49.7714C207.235 49.6105 207.65 49.3768 208.018 49.0798C208.202 48.9294 208.349 48.7398 208.45 48.525C208.55 48.3102 208.602 48.0756 208.6 47.8384C208.537 47.4977 208.367 47.1859 208.115 46.948C207.863 46.7101 207.542 46.5584 207.198 46.5147Z" fill="white"/>
</g>
<path d="M157.495 58.4789C157.495 58.4377 154.747 59.0378 151.435 59.8164C148.123 60.5951 145.403 61.2593 145.412 61.3005C145.421 61.3418 148.133 60.7463 151.472 59.9676C154.811 59.1889 157.504 58.5431 157.495 58.4789Z" fill="white"/>
<path d="M209.722 62.9541C209.759 62.8821 209.783 62.8048 209.796 62.7251C209.852 62.5125 209.886 62.2944 209.896 62.0746C209.919 61.7492 209.908 61.4223 209.864 61.099C209.802 60.7027 209.698 60.3141 209.553 59.9401C209.401 59.5683 209.207 59.2149 208.976 58.8866C208.786 58.6197 208.568 58.374 208.325 58.1537C208.165 58.0042 207.99 57.8707 207.803 57.7552C207.74 57.7051 207.669 57.6664 207.592 57.6407C207.592 57.6682 207.863 57.8514 208.252 58.2362C208.476 58.4607 208.679 58.7061 208.857 58.969C209.074 59.2914 209.258 59.6352 209.406 59.9951C209.547 60.3583 209.653 60.734 209.722 61.1173C209.771 61.4325 209.792 61.7512 209.786 62.07C209.773 62.6014 209.69 62.9449 209.722 62.9541Z" fill="white"/>
<path d="M210.258 52.3227C210.418 52.1785 210.543 52 210.625 51.8005C210.849 51.3314 210.946 50.812 210.909 50.2936C210.881 49.7758 210.723 49.2732 210.45 48.8324C210.343 48.6496 210.196 48.4932 210.02 48.3743C209.997 48.3743 210.166 48.5667 210.354 48.9011C210.598 49.3337 210.741 49.8161 210.771 50.3119C210.804 50.8069 210.726 51.303 210.542 51.7639C210.382 52.1074 210.235 52.3044 210.258 52.3227Z" fill="white"/>
<path d="M208.797 74.4054C209.007 74.2775 209.185 74.1017 209.314 73.8924C209.665 73.3999 209.837 72.8021 209.8 72.1986C209.763 71.5951 209.521 71.0224 209.113 70.5761C208.96 70.3797 208.762 70.2227 208.536 70.118C208.536 70.118 208.756 70.2967 209.03 70.6356C209.388 71.0823 209.602 71.6269 209.644 72.1976C209.674 72.77 209.527 73.3376 209.223 73.8237C208.994 74.2039 208.774 74.3871 208.797 74.4054Z" fill="white"/>
<path d="M207.038 84.6657C207.19 84.5079 207.308 84.3209 207.386 84.1161C207.602 83.6281 207.702 83.0969 207.679 82.5638C207.656 82.0307 207.51 81.5101 207.253 81.0426C207.158 80.8451 207.024 80.669 206.859 80.525C206.836 80.525 206.988 80.7357 207.157 81.0929C207.374 81.556 207.499 82.057 207.524 82.5679C207.544 83.0795 207.463 83.5902 207.285 84.0703C207.148 84.4413 207.015 84.652 207.038 84.6657Z" fill="white"/>
<path d="M185.276 42.5067C185.328 42.3577 185.366 42.2044 185.39 42.0486C185.423 41.9066 185.459 41.728 185.491 41.5173C185.523 41.3066 185.565 41.0592 185.583 40.8027C185.65 40.1822 185.673 39.5577 185.652 38.9339C185.606 37.3993 185.314 35.8821 184.786 34.4404C184.571 33.8537 184.315 33.2828 184.021 32.7319C183.902 32.4891 183.774 32.2738 183.668 32.1043C183.563 31.9349 183.462 31.77 183.375 31.6463C183.296 31.5137 183.204 31.3894 183.1 31.2753C183.164 31.4156 183.239 31.5504 183.325 31.6784C183.403 31.8066 183.494 31.9623 183.59 32.1364C183.687 32.3105 183.815 32.5303 183.925 32.7731C184.2 33.3277 184.441 33.8983 184.648 34.4816C184.897 35.1972 185.098 35.9287 185.248 36.6711C185.384 37.4174 185.472 38.1717 185.51 38.9293C185.535 39.5402 185.523 40.1521 185.473 40.7615C185.473 41.0272 185.427 41.2654 185.404 41.4715C185.381 41.6776 185.354 41.8608 185.331 42.0074C185.294 42.1713 185.276 42.3387 185.276 42.5067Z" fill="white"/>
<path d="M141.074 88.9165C141.074 88.9165 142.595 87.7347 143.726 87.6889C144.858 87.6431 146.328 88.0783 146.621 87.9317C146.914 87.7851 147.606 87.1393 148.046 87.6843C148.485 88.2294 149.03 90.1899 146.671 90.7304H145.05C145.05 90.7304 145.247 92.3519 145.641 92.9886C146.035 93.6253 151.536 100.551 151.536 100.551C151.536 100.551 152.223 101.243 151.879 101.925C151.536 102.608 150.047 102.218 150.047 102.218C150.047 102.218 149.017 103.134 147.839 102.708C147.254 102.511 146.694 102.249 146.168 101.925C145.787 102.216 145.321 102.374 144.842 102.374C144.362 102.374 143.896 102.216 143.515 101.925C142.141 100.895 137.561 95.146 137.561 95.146L139.201 88.7333L141.074 88.9165Z" fill="#FFBE9D"/>
<path d="M136.301 85.1146L141.074 88.9165L137.57 95.1505L130.58 92.6129C130.58 92.6129 130.782 85.2475 136.301 85.1146Z" fill="#FFBE9D"/>
<path d="M210.748 76.6224C210.748 76.6224 210.597 74.9138 209.64 75.2482C208.682 75.5826 208.266 77.6118 208.266 77.6118L210.748 76.6224Z" fill="#FFBE9D"/>
<path d="M207.327 78.308C207.327 78.308 208.989 76.4483 211.298 76.5994C213.607 76.7506 212.154 78.7111 212.154 78.7111C212.154 78.7111 213.868 79.7646 212.613 81.2761L212.411 81.6792C212.411 81.6792 213.868 82.2289 212.361 83.7863C212.513 84.065 212.576 84.3842 212.54 84.7C212.504 85.0158 212.371 85.3126 212.159 85.5498C211.403 86.301 209.521 85.2978 209.521 85.2978C209.521 85.2978 207.785 85.7009 207.634 84.9955C207.573 84.7591 207.579 84.5106 207.65 84.2772C207.721 84.0438 207.855 83.8344 208.037 83.6717C208.188 83.571 209.095 83.2137 209.095 83.2137C209.095 83.2137 207.084 83.4656 207.033 82.9618C206.983 82.4579 206.782 81.9037 208.289 81.4044L209.095 81.1891C209.095 81.1891 207.006 81.2532 206.992 80.7311C206.979 80.2089 206.882 80.0257 207.634 79.6775C208.108 79.457 208.567 79.2045 209.008 78.9218C209.008 78.9218 207.029 79.3661 207.327 78.308Z" fill="#FFBE9D"/>
<path d="M206.96 80.273C207.713 79.7146 208.554 79.2843 209.447 78.9996C210.358 78.7762 211.298 78.702 212.232 78.7798C211.972 78.6718 211.694 78.6128 211.412 78.6057C210.04 78.4876 208.673 78.8736 207.565 79.6913C207.327 79.8433 207.121 80.041 206.96 80.273Z" fill="#FFBE9D"/>
<path d="M207.189 83.145C207.189 83.145 207.143 83.0809 207.093 82.9664C207.035 82.7972 207.035 82.6134 207.093 82.4442C207.17 82.1879 207.331 81.9651 207.551 81.8121C207.83 81.6287 208.14 81.4997 208.467 81.4319C209.339 81.2734 210.22 81.1663 211.105 81.1113C210.849 81.04 210.583 81.0106 210.318 81.0242C209.68 81.019 209.043 81.0881 208.421 81.2304C208.067 81.3047 207.732 81.4512 207.436 81.6609C207.19 81.8432 207.018 82.1083 206.951 82.4075C206.922 82.5064 206.914 82.6099 206.926 82.7122C206.937 82.8144 206.969 82.9132 207.02 83.003C207.12 83.1267 207.185 83.1542 207.189 83.145Z" fill="#FFBE9D"/>
<path d="M208.037 85.3574C208.037 85.3574 207.963 85.3116 207.862 85.2154C207.777 85.1328 207.71 85.0331 207.665 84.9228C207.621 84.8126 207.6 84.6942 207.605 84.5754C207.609 84.4566 207.638 84.34 207.691 84.2333C207.743 84.1265 207.817 84.032 207.908 83.9558C208.21 83.7519 208.543 83.5973 208.893 83.4977C209.556 83.3605 210.235 83.325 210.908 83.3924C211.194 83.4296 211.485 83.414 211.765 83.3466C211.485 83.2942 211.202 83.2605 210.918 83.2458C210.226 83.1335 209.519 83.1522 208.834 83.3008C208.457 83.4083 208.102 83.5803 207.785 83.8092C207.641 83.928 207.537 84.0878 207.487 84.2672C207.456 84.4184 207.456 84.5742 207.487 84.7253C207.505 84.8358 207.544 84.9417 207.603 85.0368C207.662 85.1319 207.739 85.2144 207.83 85.2795C207.945 85.3666 208.037 85.3666 208.037 85.3574Z" fill="#FFBE9D"/>
<path d="M207.299 78.3904C207.299 78.3904 207.34 78.3263 207.446 78.2301C207.592 78.0983 207.744 77.9745 207.904 77.8591C208.423 77.4711 208.997 77.1624 209.608 76.943C210.212 76.7135 210.859 76.6197 211.504 76.6682C211.766 76.7274 212.024 76.8008 212.278 76.888C212.072 76.6934 211.812 76.567 211.531 76.5262C210.862 76.4276 210.179 76.5033 209.548 76.746C208.037 77.2865 207.175 78.3217 207.299 78.3904Z" fill="#FFBE9D"/>
</svg>
