<svg width="25" height="26" viewBox="0 0 25 26" fill="none" xmlns="http://www.w3.org/2000/svg">
<path d="M22.8887 21.0078C21.5498 18.6579 19.4591 16.8269 16.9531 15.8096C18.1993 14.8749 19.1198 13.5719 19.5843 12.085C20.0487 10.5982 20.0336 9.00285 19.541 7.52507C19.0484 6.04728 18.1033 4.76195 16.8396 3.85113C15.5759 2.94032 14.0577 2.4502 12.5 2.4502C10.9423 2.4502 9.42403 2.94032 8.16034 3.85113C6.89665 4.76195 5.95158 6.04728 5.45898 7.52507C4.96639 9.00285 4.95125 10.5982 5.41571 12.085C5.88017 13.5719 6.80069 14.8749 8.04686 15.8096C5.54093 16.8269 3.45023 18.6579 2.11132 21.0078C2.02835 21.1412 1.97306 21.2899 1.94872 21.4451C1.92438 21.6003 1.9315 21.7588 1.96964 21.9112C2.00778 22.0636 2.07618 22.2068 2.17076 22.3322C2.26534 22.4577 2.38417 22.5628 2.5202 22.6414C2.65622 22.72 2.80666 22.7704 2.96257 22.7897C3.11847 22.809 3.27667 22.7967 3.42774 22.7537C3.57882 22.7106 3.71969 22.6376 3.84199 22.539C3.96428 22.4404 4.06551 22.3182 4.13964 22.1797C5.90917 19.1211 9.03417 17.2969 12.5 17.2969C15.9658 17.2969 19.0908 19.1221 20.8603 22.1797C21.021 22.438 21.2758 22.6237 21.5709 22.6976C21.866 22.7715 22.1783 22.7277 22.4417 22.5755C22.7051 22.4233 22.899 22.1747 22.9824 21.8821C23.0658 21.5896 23.0322 21.276 22.8887 21.0078ZM7.42186 9.875C7.42186 8.87064 7.71969 7.88884 8.27768 7.05375C8.83567 6.21865 9.62877 5.56778 10.5567 5.18342C11.4846 4.79907 12.5056 4.69851 13.4907 4.89445C14.4757 5.09039 15.3806 5.57403 16.0908 6.28422C16.801 6.99441 17.2846 7.89925 17.4805 8.88431C17.6765 9.86937 17.5759 10.8904 17.1916 11.8183C16.8072 12.7462 16.1563 13.5393 15.3212 14.0973C14.4862 14.6553 13.5043 14.9531 12.5 14.9531C11.1537 14.9516 9.86292 14.4161 8.91093 13.4641C7.95893 12.5121 7.42342 11.2213 7.42186 9.875Z" fill="#3E4095"/>
</svg>
