<svg width="25" height="26" viewBox="0 0 25 26" fill="none" xmlns="http://www.w3.org/2000/svg">
<path fill-rule="evenodd" clip-rule="evenodd" d="M16.9531 15.8096C18.1993 14.8749 19.1198 13.5719 19.5843 12.085C20.0487 10.5982 20.0336 9.00285 19.541 7.52507C19.0484 6.04728 18.1033 4.76195 16.8396 3.85113C15.5759 2.94032 14.0577 2.4502 12.5 2.4502C10.9423 2.4502 9.42403 2.94032 8.16034 3.85113C6.89665 4.76195 5.95158 6.04728 5.45898 7.52507C4.96639 9.00285 4.95125 10.5982 5.41571 12.085C5.88017 13.5719 6.80069 14.8749 8.04686 15.8096C5.54093 16.8269 3.45023 18.6579 2.11132 21.0078C2.02835 21.1412 1.97306 21.2899 1.94872 21.4451C1.92438 21.6003 1.9315 21.7588 1.96964 21.9112C2.00778 22.0636 2.07618 22.2068 2.17076 22.3322C2.26534 22.4577 2.38417 22.5628 2.5202 22.6414C2.65622 22.72 2.80666 22.7704 2.96257 22.7897C3.11847 22.809 3.27667 22.7967 3.42774 22.7537C3.57882 22.7106 3.71969 22.6376 3.84199 22.539C3.96428 22.4404 4.06551 22.3182 4.13964 22.1797C5.90917 19.1211 9.03417 17.2969 12.5 17.2969C14.9 17.2969 16.4687 16.3053 16.9531 15.8096ZM8.27768 7.05375C7.71969 7.88884 7.42186 8.87064 7.42186 9.875C7.42342 11.2213 7.95893 12.5121 8.91093 13.4641C9.86292 14.4161 11.1537 14.9516 12.5 14.9531C13.5043 14.9531 14.4862 14.6553 15.3212 14.0973C16.1563 13.5393 16.8072 12.7462 17.1916 11.8183C17.5759 10.8904 17.6765 9.86937 17.4805 8.88431C17.2846 7.89925 16.801 6.99441 16.0908 6.28422C15.3806 5.57403 14.4757 5.09039 13.4907 4.89445C12.5056 4.69851 11.4846 4.79907 10.5567 5.18342C9.62877 5.56778 8.83567 6.21865 8.27768 7.05375Z" fill="#3E4095"/>
<path d="M19.3761 20.6725C18.864 20.7878 18.3332 20.7222 17.9005 20.4901C17.4678 20.258 17.1685 19.8785 17.0686 19.4349C16.9688 18.9914 17.0764 18.5202 17.3679 18.125C17.6594 17.7298 18.1108 17.443 18.6229 17.3277M19.3761 20.6725C19.8882 20.5572 20.3397 20.2704 20.6311 19.8752C20.9226 19.48 21.0303 19.0088 20.9304 18.5653C20.8305 18.1217 20.5313 17.7422 20.0985 17.5101C19.6658 17.278 19.135 17.2124 18.6229 17.3277M19.3761 20.6725L19.6586 21.9268M18.6229 17.3277L18.3404 16.0734M21.5962 16.8778L20.4833 17.7874M17.5167 20.2126L16.4028 21.1224M15.7438 18.1957L17.14 18.5402M20.8599 19.4598L22.2562 19.8043" stroke="#3E4095" stroke-linecap="round" stroke-linejoin="round"/>
</svg>
